G04 #@! TF.GenerationSoftware,KiCad,Pcbnew,(5.1.0)-1*
G04 #@! TF.CreationDate,2019-07-24T04:12:41+08:00*
G04 #@! TF.ProjectId,Power_Source,506f7765-725f-4536-9f75-7263652e6b69,rev?*
G04 #@! TF.SameCoordinates,Original*
G04 #@! TF.FileFunction,Paste,Top*
G04 #@! TF.FilePolarity,Positive*
%FSLAX46Y46*%
G04 Gerber Fmt 4.6, Leading zero omitted, Abs format (unit mm)*
G04 Created by KiCad (PCBNEW (5.1.0)-1) date 2019-07-24 04:12:41*
%MOMM*%
%LPD*%
G04 APERTURE LIST*
%ADD10R,0.320000X0.500000*%
%ADD11R,1.550000X0.600000*%
%ADD12C,0.100000*%
%ADD13C,0.590000*%
%ADD14R,0.900000X0.800000*%
%ADD15C,0.600000*%
%ADD16C,1.000000*%
%ADD17R,1.060000X0.400000*%
%ADD18R,0.500000X0.320000*%
%ADD19C,1.350000*%
%ADD20R,1.500000X2.000000*%
%ADD21R,3.800000X2.000000*%
%ADD22R,0.800000X0.900000*%
%ADD23R,6.000000X6.000000*%
%ADD24O,2.500000X0.900000*%
%ADD25O,0.900000X2.500000*%
%ADD26C,0.875000*%
G04 APERTURE END LIST*
D10*
X121680000Y-104960000D03*
X121180000Y-104960000D03*
X120180000Y-104960000D03*
X120680000Y-104960000D03*
X121680000Y-105960000D03*
X120680000Y-105960000D03*
X121180000Y-105960000D03*
X120180000Y-105960000D03*
X119930000Y-93960000D03*
X120430000Y-93960000D03*
X121430000Y-93960000D03*
X120930000Y-93960000D03*
X119930000Y-92960000D03*
X120930000Y-92960000D03*
X120430000Y-92960000D03*
X121430000Y-92960000D03*
D11*
X170980000Y-122365000D03*
X170980000Y-121095000D03*
X170980000Y-119825000D03*
X170980000Y-118555000D03*
X176380000Y-118555000D03*
X176380000Y-119825000D03*
X176380000Y-121095000D03*
X176380000Y-122365000D03*
D12*
G36*
X164326958Y-116140710D02*
G01*
X164341276Y-116142834D01*
X164355317Y-116146351D01*
X164368946Y-116151228D01*
X164382031Y-116157417D01*
X164394447Y-116164858D01*
X164406073Y-116173481D01*
X164416798Y-116183202D01*
X164426519Y-116193927D01*
X164435142Y-116205553D01*
X164442583Y-116217969D01*
X164448772Y-116231054D01*
X164453649Y-116244683D01*
X164457166Y-116258724D01*
X164459290Y-116273042D01*
X164460000Y-116287500D01*
X164460000Y-116632500D01*
X164459290Y-116646958D01*
X164457166Y-116661276D01*
X164453649Y-116675317D01*
X164448772Y-116688946D01*
X164442583Y-116702031D01*
X164435142Y-116714447D01*
X164426519Y-116726073D01*
X164416798Y-116736798D01*
X164406073Y-116746519D01*
X164394447Y-116755142D01*
X164382031Y-116762583D01*
X164368946Y-116768772D01*
X164355317Y-116773649D01*
X164341276Y-116777166D01*
X164326958Y-116779290D01*
X164312500Y-116780000D01*
X164017500Y-116780000D01*
X164003042Y-116779290D01*
X163988724Y-116777166D01*
X163974683Y-116773649D01*
X163961054Y-116768772D01*
X163947969Y-116762583D01*
X163935553Y-116755142D01*
X163923927Y-116746519D01*
X163913202Y-116736798D01*
X163903481Y-116726073D01*
X163894858Y-116714447D01*
X163887417Y-116702031D01*
X163881228Y-116688946D01*
X163876351Y-116675317D01*
X163872834Y-116661276D01*
X163870710Y-116646958D01*
X163870000Y-116632500D01*
X163870000Y-116287500D01*
X163870710Y-116273042D01*
X163872834Y-116258724D01*
X163876351Y-116244683D01*
X163881228Y-116231054D01*
X163887417Y-116217969D01*
X163894858Y-116205553D01*
X163903481Y-116193927D01*
X163913202Y-116183202D01*
X163923927Y-116173481D01*
X163935553Y-116164858D01*
X163947969Y-116157417D01*
X163961054Y-116151228D01*
X163974683Y-116146351D01*
X163988724Y-116142834D01*
X164003042Y-116140710D01*
X164017500Y-116140000D01*
X164312500Y-116140000D01*
X164326958Y-116140710D01*
X164326958Y-116140710D01*
G37*
D13*
X164165000Y-116460000D03*
D12*
G36*
X163356958Y-116140710D02*
G01*
X163371276Y-116142834D01*
X163385317Y-116146351D01*
X163398946Y-116151228D01*
X163412031Y-116157417D01*
X163424447Y-116164858D01*
X163436073Y-116173481D01*
X163446798Y-116183202D01*
X163456519Y-116193927D01*
X163465142Y-116205553D01*
X163472583Y-116217969D01*
X163478772Y-116231054D01*
X163483649Y-116244683D01*
X163487166Y-116258724D01*
X163489290Y-116273042D01*
X163490000Y-116287500D01*
X163490000Y-116632500D01*
X163489290Y-116646958D01*
X163487166Y-116661276D01*
X163483649Y-116675317D01*
X163478772Y-116688946D01*
X163472583Y-116702031D01*
X163465142Y-116714447D01*
X163456519Y-116726073D01*
X163446798Y-116736798D01*
X163436073Y-116746519D01*
X163424447Y-116755142D01*
X163412031Y-116762583D01*
X163398946Y-116768772D01*
X163385317Y-116773649D01*
X163371276Y-116777166D01*
X163356958Y-116779290D01*
X163342500Y-116780000D01*
X163047500Y-116780000D01*
X163033042Y-116779290D01*
X163018724Y-116777166D01*
X163004683Y-116773649D01*
X162991054Y-116768772D01*
X162977969Y-116762583D01*
X162965553Y-116755142D01*
X162953927Y-116746519D01*
X162943202Y-116736798D01*
X162933481Y-116726073D01*
X162924858Y-116714447D01*
X162917417Y-116702031D01*
X162911228Y-116688946D01*
X162906351Y-116675317D01*
X162902834Y-116661276D01*
X162900710Y-116646958D01*
X162900000Y-116632500D01*
X162900000Y-116287500D01*
X162900710Y-116273042D01*
X162902834Y-116258724D01*
X162906351Y-116244683D01*
X162911228Y-116231054D01*
X162917417Y-116217969D01*
X162924858Y-116205553D01*
X162933481Y-116193927D01*
X162943202Y-116183202D01*
X162953927Y-116173481D01*
X162965553Y-116164858D01*
X162977969Y-116157417D01*
X162991054Y-116151228D01*
X163004683Y-116146351D01*
X163018724Y-116142834D01*
X163033042Y-116140710D01*
X163047500Y-116140000D01*
X163342500Y-116140000D01*
X163356958Y-116140710D01*
X163356958Y-116140710D01*
G37*
D13*
X163195000Y-116460000D03*
D12*
G36*
X162326958Y-116140710D02*
G01*
X162341276Y-116142834D01*
X162355317Y-116146351D01*
X162368946Y-116151228D01*
X162382031Y-116157417D01*
X162394447Y-116164858D01*
X162406073Y-116173481D01*
X162416798Y-116183202D01*
X162426519Y-116193927D01*
X162435142Y-116205553D01*
X162442583Y-116217969D01*
X162448772Y-116231054D01*
X162453649Y-116244683D01*
X162457166Y-116258724D01*
X162459290Y-116273042D01*
X162460000Y-116287500D01*
X162460000Y-116632500D01*
X162459290Y-116646958D01*
X162457166Y-116661276D01*
X162453649Y-116675317D01*
X162448772Y-116688946D01*
X162442583Y-116702031D01*
X162435142Y-116714447D01*
X162426519Y-116726073D01*
X162416798Y-116736798D01*
X162406073Y-116746519D01*
X162394447Y-116755142D01*
X162382031Y-116762583D01*
X162368946Y-116768772D01*
X162355317Y-116773649D01*
X162341276Y-116777166D01*
X162326958Y-116779290D01*
X162312500Y-116780000D01*
X162017500Y-116780000D01*
X162003042Y-116779290D01*
X161988724Y-116777166D01*
X161974683Y-116773649D01*
X161961054Y-116768772D01*
X161947969Y-116762583D01*
X161935553Y-116755142D01*
X161923927Y-116746519D01*
X161913202Y-116736798D01*
X161903481Y-116726073D01*
X161894858Y-116714447D01*
X161887417Y-116702031D01*
X161881228Y-116688946D01*
X161876351Y-116675317D01*
X161872834Y-116661276D01*
X161870710Y-116646958D01*
X161870000Y-116632500D01*
X161870000Y-116287500D01*
X161870710Y-116273042D01*
X161872834Y-116258724D01*
X161876351Y-116244683D01*
X161881228Y-116231054D01*
X161887417Y-116217969D01*
X161894858Y-116205553D01*
X161903481Y-116193927D01*
X161913202Y-116183202D01*
X161923927Y-116173481D01*
X161935553Y-116164858D01*
X161947969Y-116157417D01*
X161961054Y-116151228D01*
X161974683Y-116146351D01*
X161988724Y-116142834D01*
X162003042Y-116140710D01*
X162017500Y-116140000D01*
X162312500Y-116140000D01*
X162326958Y-116140710D01*
X162326958Y-116140710D01*
G37*
D13*
X162165000Y-116460000D03*
D12*
G36*
X161356958Y-116140710D02*
G01*
X161371276Y-116142834D01*
X161385317Y-116146351D01*
X161398946Y-116151228D01*
X161412031Y-116157417D01*
X161424447Y-116164858D01*
X161436073Y-116173481D01*
X161446798Y-116183202D01*
X161456519Y-116193927D01*
X161465142Y-116205553D01*
X161472583Y-116217969D01*
X161478772Y-116231054D01*
X161483649Y-116244683D01*
X161487166Y-116258724D01*
X161489290Y-116273042D01*
X161490000Y-116287500D01*
X161490000Y-116632500D01*
X161489290Y-116646958D01*
X161487166Y-116661276D01*
X161483649Y-116675317D01*
X161478772Y-116688946D01*
X161472583Y-116702031D01*
X161465142Y-116714447D01*
X161456519Y-116726073D01*
X161446798Y-116736798D01*
X161436073Y-116746519D01*
X161424447Y-116755142D01*
X161412031Y-116762583D01*
X161398946Y-116768772D01*
X161385317Y-116773649D01*
X161371276Y-116777166D01*
X161356958Y-116779290D01*
X161342500Y-116780000D01*
X161047500Y-116780000D01*
X161033042Y-116779290D01*
X161018724Y-116777166D01*
X161004683Y-116773649D01*
X160991054Y-116768772D01*
X160977969Y-116762583D01*
X160965553Y-116755142D01*
X160953927Y-116746519D01*
X160943202Y-116736798D01*
X160933481Y-116726073D01*
X160924858Y-116714447D01*
X160917417Y-116702031D01*
X160911228Y-116688946D01*
X160906351Y-116675317D01*
X160902834Y-116661276D01*
X160900710Y-116646958D01*
X160900000Y-116632500D01*
X160900000Y-116287500D01*
X160900710Y-116273042D01*
X160902834Y-116258724D01*
X160906351Y-116244683D01*
X160911228Y-116231054D01*
X160917417Y-116217969D01*
X160924858Y-116205553D01*
X160933481Y-116193927D01*
X160943202Y-116183202D01*
X160953927Y-116173481D01*
X160965553Y-116164858D01*
X160977969Y-116157417D01*
X160991054Y-116151228D01*
X161004683Y-116146351D01*
X161018724Y-116142834D01*
X161033042Y-116140710D01*
X161047500Y-116140000D01*
X161342500Y-116140000D01*
X161356958Y-116140710D01*
X161356958Y-116140710D01*
G37*
D13*
X161195000Y-116460000D03*
D12*
G36*
X178866958Y-121650710D02*
G01*
X178881276Y-121652834D01*
X178895317Y-121656351D01*
X178908946Y-121661228D01*
X178922031Y-121667417D01*
X178934447Y-121674858D01*
X178946073Y-121683481D01*
X178956798Y-121693202D01*
X178966519Y-121703927D01*
X178975142Y-121715553D01*
X178982583Y-121727969D01*
X178988772Y-121741054D01*
X178993649Y-121754683D01*
X178997166Y-121768724D01*
X178999290Y-121783042D01*
X179000000Y-121797500D01*
X179000000Y-122092500D01*
X178999290Y-122106958D01*
X178997166Y-122121276D01*
X178993649Y-122135317D01*
X178988772Y-122148946D01*
X178982583Y-122162031D01*
X178975142Y-122174447D01*
X178966519Y-122186073D01*
X178956798Y-122196798D01*
X178946073Y-122206519D01*
X178934447Y-122215142D01*
X178922031Y-122222583D01*
X178908946Y-122228772D01*
X178895317Y-122233649D01*
X178881276Y-122237166D01*
X178866958Y-122239290D01*
X178852500Y-122240000D01*
X178507500Y-122240000D01*
X178493042Y-122239290D01*
X178478724Y-122237166D01*
X178464683Y-122233649D01*
X178451054Y-122228772D01*
X178437969Y-122222583D01*
X178425553Y-122215142D01*
X178413927Y-122206519D01*
X178403202Y-122196798D01*
X178393481Y-122186073D01*
X178384858Y-122174447D01*
X178377417Y-122162031D01*
X178371228Y-122148946D01*
X178366351Y-122135317D01*
X178362834Y-122121276D01*
X178360710Y-122106958D01*
X178360000Y-122092500D01*
X178360000Y-121797500D01*
X178360710Y-121783042D01*
X178362834Y-121768724D01*
X178366351Y-121754683D01*
X178371228Y-121741054D01*
X178377417Y-121727969D01*
X178384858Y-121715553D01*
X178393481Y-121703927D01*
X178403202Y-121693202D01*
X178413927Y-121683481D01*
X178425553Y-121674858D01*
X178437969Y-121667417D01*
X178451054Y-121661228D01*
X178464683Y-121656351D01*
X178478724Y-121652834D01*
X178493042Y-121650710D01*
X178507500Y-121650000D01*
X178852500Y-121650000D01*
X178866958Y-121650710D01*
X178866958Y-121650710D01*
G37*
D13*
X178680000Y-121945000D03*
D12*
G36*
X178866958Y-120680710D02*
G01*
X178881276Y-120682834D01*
X178895317Y-120686351D01*
X178908946Y-120691228D01*
X178922031Y-120697417D01*
X178934447Y-120704858D01*
X178946073Y-120713481D01*
X178956798Y-120723202D01*
X178966519Y-120733927D01*
X178975142Y-120745553D01*
X178982583Y-120757969D01*
X178988772Y-120771054D01*
X178993649Y-120784683D01*
X178997166Y-120798724D01*
X178999290Y-120813042D01*
X179000000Y-120827500D01*
X179000000Y-121122500D01*
X178999290Y-121136958D01*
X178997166Y-121151276D01*
X178993649Y-121165317D01*
X178988772Y-121178946D01*
X178982583Y-121192031D01*
X178975142Y-121204447D01*
X178966519Y-121216073D01*
X178956798Y-121226798D01*
X178946073Y-121236519D01*
X178934447Y-121245142D01*
X178922031Y-121252583D01*
X178908946Y-121258772D01*
X178895317Y-121263649D01*
X178881276Y-121267166D01*
X178866958Y-121269290D01*
X178852500Y-121270000D01*
X178507500Y-121270000D01*
X178493042Y-121269290D01*
X178478724Y-121267166D01*
X178464683Y-121263649D01*
X178451054Y-121258772D01*
X178437969Y-121252583D01*
X178425553Y-121245142D01*
X178413927Y-121236519D01*
X178403202Y-121226798D01*
X178393481Y-121216073D01*
X178384858Y-121204447D01*
X178377417Y-121192031D01*
X178371228Y-121178946D01*
X178366351Y-121165317D01*
X178362834Y-121151276D01*
X178360710Y-121136958D01*
X178360000Y-121122500D01*
X178360000Y-120827500D01*
X178360710Y-120813042D01*
X178362834Y-120798724D01*
X178366351Y-120784683D01*
X178371228Y-120771054D01*
X178377417Y-120757969D01*
X178384858Y-120745553D01*
X178393481Y-120733927D01*
X178403202Y-120723202D01*
X178413927Y-120713481D01*
X178425553Y-120704858D01*
X178437969Y-120697417D01*
X178451054Y-120691228D01*
X178464683Y-120686351D01*
X178478724Y-120682834D01*
X178493042Y-120680710D01*
X178507500Y-120680000D01*
X178852500Y-120680000D01*
X178866958Y-120680710D01*
X178866958Y-120680710D01*
G37*
D13*
X178680000Y-120975000D03*
D12*
G36*
X178866958Y-119650710D02*
G01*
X178881276Y-119652834D01*
X178895317Y-119656351D01*
X178908946Y-119661228D01*
X178922031Y-119667417D01*
X178934447Y-119674858D01*
X178946073Y-119683481D01*
X178956798Y-119693202D01*
X178966519Y-119703927D01*
X178975142Y-119715553D01*
X178982583Y-119727969D01*
X178988772Y-119741054D01*
X178993649Y-119754683D01*
X178997166Y-119768724D01*
X178999290Y-119783042D01*
X179000000Y-119797500D01*
X179000000Y-120092500D01*
X178999290Y-120106958D01*
X178997166Y-120121276D01*
X178993649Y-120135317D01*
X178988772Y-120148946D01*
X178982583Y-120162031D01*
X178975142Y-120174447D01*
X178966519Y-120186073D01*
X178956798Y-120196798D01*
X178946073Y-120206519D01*
X178934447Y-120215142D01*
X178922031Y-120222583D01*
X178908946Y-120228772D01*
X178895317Y-120233649D01*
X178881276Y-120237166D01*
X178866958Y-120239290D01*
X178852500Y-120240000D01*
X178507500Y-120240000D01*
X178493042Y-120239290D01*
X178478724Y-120237166D01*
X178464683Y-120233649D01*
X178451054Y-120228772D01*
X178437969Y-120222583D01*
X178425553Y-120215142D01*
X178413927Y-120206519D01*
X178403202Y-120196798D01*
X178393481Y-120186073D01*
X178384858Y-120174447D01*
X178377417Y-120162031D01*
X178371228Y-120148946D01*
X178366351Y-120135317D01*
X178362834Y-120121276D01*
X178360710Y-120106958D01*
X178360000Y-120092500D01*
X178360000Y-119797500D01*
X178360710Y-119783042D01*
X178362834Y-119768724D01*
X178366351Y-119754683D01*
X178371228Y-119741054D01*
X178377417Y-119727969D01*
X178384858Y-119715553D01*
X178393481Y-119703927D01*
X178403202Y-119693202D01*
X178413927Y-119683481D01*
X178425553Y-119674858D01*
X178437969Y-119667417D01*
X178451054Y-119661228D01*
X178464683Y-119656351D01*
X178478724Y-119652834D01*
X178493042Y-119650710D01*
X178507500Y-119650000D01*
X178852500Y-119650000D01*
X178866958Y-119650710D01*
X178866958Y-119650710D01*
G37*
D13*
X178680000Y-119945000D03*
D12*
G36*
X178866958Y-118680710D02*
G01*
X178881276Y-118682834D01*
X178895317Y-118686351D01*
X178908946Y-118691228D01*
X178922031Y-118697417D01*
X178934447Y-118704858D01*
X178946073Y-118713481D01*
X178956798Y-118723202D01*
X178966519Y-118733927D01*
X178975142Y-118745553D01*
X178982583Y-118757969D01*
X178988772Y-118771054D01*
X178993649Y-118784683D01*
X178997166Y-118798724D01*
X178999290Y-118813042D01*
X179000000Y-118827500D01*
X179000000Y-119122500D01*
X178999290Y-119136958D01*
X178997166Y-119151276D01*
X178993649Y-119165317D01*
X178988772Y-119178946D01*
X178982583Y-119192031D01*
X178975142Y-119204447D01*
X178966519Y-119216073D01*
X178956798Y-119226798D01*
X178946073Y-119236519D01*
X178934447Y-119245142D01*
X178922031Y-119252583D01*
X178908946Y-119258772D01*
X178895317Y-119263649D01*
X178881276Y-119267166D01*
X178866958Y-119269290D01*
X178852500Y-119270000D01*
X178507500Y-119270000D01*
X178493042Y-119269290D01*
X178478724Y-119267166D01*
X178464683Y-119263649D01*
X178451054Y-119258772D01*
X178437969Y-119252583D01*
X178425553Y-119245142D01*
X178413927Y-119236519D01*
X178403202Y-119226798D01*
X178393481Y-119216073D01*
X178384858Y-119204447D01*
X178377417Y-119192031D01*
X178371228Y-119178946D01*
X178366351Y-119165317D01*
X178362834Y-119151276D01*
X178360710Y-119136958D01*
X178360000Y-119122500D01*
X178360000Y-118827500D01*
X178360710Y-118813042D01*
X178362834Y-118798724D01*
X178366351Y-118784683D01*
X178371228Y-118771054D01*
X178377417Y-118757969D01*
X178384858Y-118745553D01*
X178393481Y-118733927D01*
X178403202Y-118723202D01*
X178413927Y-118713481D01*
X178425553Y-118704858D01*
X178437969Y-118697417D01*
X178451054Y-118691228D01*
X178464683Y-118686351D01*
X178478724Y-118682834D01*
X178493042Y-118680710D01*
X178507500Y-118680000D01*
X178852500Y-118680000D01*
X178866958Y-118680710D01*
X178866958Y-118680710D01*
G37*
D13*
X178680000Y-118975000D03*
D12*
G36*
X167866958Y-111680710D02*
G01*
X167881276Y-111682834D01*
X167895317Y-111686351D01*
X167908946Y-111691228D01*
X167922031Y-111697417D01*
X167934447Y-111704858D01*
X167946073Y-111713481D01*
X167956798Y-111723202D01*
X167966519Y-111733927D01*
X167975142Y-111745553D01*
X167982583Y-111757969D01*
X167988772Y-111771054D01*
X167993649Y-111784683D01*
X167997166Y-111798724D01*
X167999290Y-111813042D01*
X168000000Y-111827500D01*
X168000000Y-112122500D01*
X167999290Y-112136958D01*
X167997166Y-112151276D01*
X167993649Y-112165317D01*
X167988772Y-112178946D01*
X167982583Y-112192031D01*
X167975142Y-112204447D01*
X167966519Y-112216073D01*
X167956798Y-112226798D01*
X167946073Y-112236519D01*
X167934447Y-112245142D01*
X167922031Y-112252583D01*
X167908946Y-112258772D01*
X167895317Y-112263649D01*
X167881276Y-112267166D01*
X167866958Y-112269290D01*
X167852500Y-112270000D01*
X167507500Y-112270000D01*
X167493042Y-112269290D01*
X167478724Y-112267166D01*
X167464683Y-112263649D01*
X167451054Y-112258772D01*
X167437969Y-112252583D01*
X167425553Y-112245142D01*
X167413927Y-112236519D01*
X167403202Y-112226798D01*
X167393481Y-112216073D01*
X167384858Y-112204447D01*
X167377417Y-112192031D01*
X167371228Y-112178946D01*
X167366351Y-112165317D01*
X167362834Y-112151276D01*
X167360710Y-112136958D01*
X167360000Y-112122500D01*
X167360000Y-111827500D01*
X167360710Y-111813042D01*
X167362834Y-111798724D01*
X167366351Y-111784683D01*
X167371228Y-111771054D01*
X167377417Y-111757969D01*
X167384858Y-111745553D01*
X167393481Y-111733927D01*
X167403202Y-111723202D01*
X167413927Y-111713481D01*
X167425553Y-111704858D01*
X167437969Y-111697417D01*
X167451054Y-111691228D01*
X167464683Y-111686351D01*
X167478724Y-111682834D01*
X167493042Y-111680710D01*
X167507500Y-111680000D01*
X167852500Y-111680000D01*
X167866958Y-111680710D01*
X167866958Y-111680710D01*
G37*
D13*
X167680000Y-111975000D03*
D12*
G36*
X167866958Y-112650710D02*
G01*
X167881276Y-112652834D01*
X167895317Y-112656351D01*
X167908946Y-112661228D01*
X167922031Y-112667417D01*
X167934447Y-112674858D01*
X167946073Y-112683481D01*
X167956798Y-112693202D01*
X167966519Y-112703927D01*
X167975142Y-112715553D01*
X167982583Y-112727969D01*
X167988772Y-112741054D01*
X167993649Y-112754683D01*
X167997166Y-112768724D01*
X167999290Y-112783042D01*
X168000000Y-112797500D01*
X168000000Y-113092500D01*
X167999290Y-113106958D01*
X167997166Y-113121276D01*
X167993649Y-113135317D01*
X167988772Y-113148946D01*
X167982583Y-113162031D01*
X167975142Y-113174447D01*
X167966519Y-113186073D01*
X167956798Y-113196798D01*
X167946073Y-113206519D01*
X167934447Y-113215142D01*
X167922031Y-113222583D01*
X167908946Y-113228772D01*
X167895317Y-113233649D01*
X167881276Y-113237166D01*
X167866958Y-113239290D01*
X167852500Y-113240000D01*
X167507500Y-113240000D01*
X167493042Y-113239290D01*
X167478724Y-113237166D01*
X167464683Y-113233649D01*
X167451054Y-113228772D01*
X167437969Y-113222583D01*
X167425553Y-113215142D01*
X167413927Y-113206519D01*
X167403202Y-113196798D01*
X167393481Y-113186073D01*
X167384858Y-113174447D01*
X167377417Y-113162031D01*
X167371228Y-113148946D01*
X167366351Y-113135317D01*
X167362834Y-113121276D01*
X167360710Y-113106958D01*
X167360000Y-113092500D01*
X167360000Y-112797500D01*
X167360710Y-112783042D01*
X167362834Y-112768724D01*
X167366351Y-112754683D01*
X167371228Y-112741054D01*
X167377417Y-112727969D01*
X167384858Y-112715553D01*
X167393481Y-112703927D01*
X167403202Y-112693202D01*
X167413927Y-112683481D01*
X167425553Y-112674858D01*
X167437969Y-112667417D01*
X167451054Y-112661228D01*
X167464683Y-112656351D01*
X167478724Y-112652834D01*
X167493042Y-112650710D01*
X167507500Y-112650000D01*
X167852500Y-112650000D01*
X167866958Y-112650710D01*
X167866958Y-112650710D01*
G37*
D13*
X167680000Y-112945000D03*
D14*
X169680000Y-115460000D03*
X167680000Y-116410000D03*
X167680000Y-114510000D03*
D12*
G36*
X160969703Y-117760722D02*
G01*
X160984264Y-117762882D01*
X160998543Y-117766459D01*
X161012403Y-117771418D01*
X161025710Y-117777712D01*
X161038336Y-117785280D01*
X161050159Y-117794048D01*
X161061066Y-117803934D01*
X161070952Y-117814841D01*
X161079720Y-117826664D01*
X161087288Y-117839290D01*
X161093582Y-117852597D01*
X161098541Y-117866457D01*
X161102118Y-117880736D01*
X161104278Y-117895297D01*
X161105000Y-117910000D01*
X161105000Y-119310000D01*
X161104278Y-119324703D01*
X161102118Y-119339264D01*
X161098541Y-119353543D01*
X161093582Y-119367403D01*
X161087288Y-119380710D01*
X161079720Y-119393336D01*
X161070952Y-119405159D01*
X161061066Y-119416066D01*
X161050159Y-119425952D01*
X161038336Y-119434720D01*
X161025710Y-119442288D01*
X161012403Y-119448582D01*
X160998543Y-119453541D01*
X160984264Y-119457118D01*
X160969703Y-119459278D01*
X160955000Y-119460000D01*
X160655000Y-119460000D01*
X160640297Y-119459278D01*
X160625736Y-119457118D01*
X160611457Y-119453541D01*
X160597597Y-119448582D01*
X160584290Y-119442288D01*
X160571664Y-119434720D01*
X160559841Y-119425952D01*
X160548934Y-119416066D01*
X160539048Y-119405159D01*
X160530280Y-119393336D01*
X160522712Y-119380710D01*
X160516418Y-119367403D01*
X160511459Y-119353543D01*
X160507882Y-119339264D01*
X160505722Y-119324703D01*
X160505000Y-119310000D01*
X160505000Y-117910000D01*
X160505722Y-117895297D01*
X160507882Y-117880736D01*
X160511459Y-117866457D01*
X160516418Y-117852597D01*
X160522712Y-117839290D01*
X160530280Y-117826664D01*
X160539048Y-117814841D01*
X160548934Y-117803934D01*
X160559841Y-117794048D01*
X160571664Y-117785280D01*
X160584290Y-117777712D01*
X160597597Y-117771418D01*
X160611457Y-117766459D01*
X160625736Y-117762882D01*
X160640297Y-117760722D01*
X160655000Y-117760000D01*
X160955000Y-117760000D01*
X160969703Y-117760722D01*
X160969703Y-117760722D01*
G37*
D15*
X160805000Y-118610000D03*
D12*
G36*
X162219703Y-117760722D02*
G01*
X162234264Y-117762882D01*
X162248543Y-117766459D01*
X162262403Y-117771418D01*
X162275710Y-117777712D01*
X162288336Y-117785280D01*
X162300159Y-117794048D01*
X162311066Y-117803934D01*
X162320952Y-117814841D01*
X162329720Y-117826664D01*
X162337288Y-117839290D01*
X162343582Y-117852597D01*
X162348541Y-117866457D01*
X162352118Y-117880736D01*
X162354278Y-117895297D01*
X162355000Y-117910000D01*
X162355000Y-119310000D01*
X162354278Y-119324703D01*
X162352118Y-119339264D01*
X162348541Y-119353543D01*
X162343582Y-119367403D01*
X162337288Y-119380710D01*
X162329720Y-119393336D01*
X162320952Y-119405159D01*
X162311066Y-119416066D01*
X162300159Y-119425952D01*
X162288336Y-119434720D01*
X162275710Y-119442288D01*
X162262403Y-119448582D01*
X162248543Y-119453541D01*
X162234264Y-119457118D01*
X162219703Y-119459278D01*
X162205000Y-119460000D01*
X161905000Y-119460000D01*
X161890297Y-119459278D01*
X161875736Y-119457118D01*
X161861457Y-119453541D01*
X161847597Y-119448582D01*
X161834290Y-119442288D01*
X161821664Y-119434720D01*
X161809841Y-119425952D01*
X161798934Y-119416066D01*
X161789048Y-119405159D01*
X161780280Y-119393336D01*
X161772712Y-119380710D01*
X161766418Y-119367403D01*
X161761459Y-119353543D01*
X161757882Y-119339264D01*
X161755722Y-119324703D01*
X161755000Y-119310000D01*
X161755000Y-117910000D01*
X161755722Y-117895297D01*
X161757882Y-117880736D01*
X161761459Y-117866457D01*
X161766418Y-117852597D01*
X161772712Y-117839290D01*
X161780280Y-117826664D01*
X161789048Y-117814841D01*
X161798934Y-117803934D01*
X161809841Y-117794048D01*
X161821664Y-117785280D01*
X161834290Y-117777712D01*
X161847597Y-117771418D01*
X161861457Y-117766459D01*
X161875736Y-117762882D01*
X161890297Y-117760722D01*
X161905000Y-117760000D01*
X162205000Y-117760000D01*
X162219703Y-117760722D01*
X162219703Y-117760722D01*
G37*
D15*
X162055000Y-118610000D03*
D12*
G36*
X163469703Y-117760722D02*
G01*
X163484264Y-117762882D01*
X163498543Y-117766459D01*
X163512403Y-117771418D01*
X163525710Y-117777712D01*
X163538336Y-117785280D01*
X163550159Y-117794048D01*
X163561066Y-117803934D01*
X163570952Y-117814841D01*
X163579720Y-117826664D01*
X163587288Y-117839290D01*
X163593582Y-117852597D01*
X163598541Y-117866457D01*
X163602118Y-117880736D01*
X163604278Y-117895297D01*
X163605000Y-117910000D01*
X163605000Y-119310000D01*
X163604278Y-119324703D01*
X163602118Y-119339264D01*
X163598541Y-119353543D01*
X163593582Y-119367403D01*
X163587288Y-119380710D01*
X163579720Y-119393336D01*
X163570952Y-119405159D01*
X163561066Y-119416066D01*
X163550159Y-119425952D01*
X163538336Y-119434720D01*
X163525710Y-119442288D01*
X163512403Y-119448582D01*
X163498543Y-119453541D01*
X163484264Y-119457118D01*
X163469703Y-119459278D01*
X163455000Y-119460000D01*
X163155000Y-119460000D01*
X163140297Y-119459278D01*
X163125736Y-119457118D01*
X163111457Y-119453541D01*
X163097597Y-119448582D01*
X163084290Y-119442288D01*
X163071664Y-119434720D01*
X163059841Y-119425952D01*
X163048934Y-119416066D01*
X163039048Y-119405159D01*
X163030280Y-119393336D01*
X163022712Y-119380710D01*
X163016418Y-119367403D01*
X163011459Y-119353543D01*
X163007882Y-119339264D01*
X163005722Y-119324703D01*
X163005000Y-119310000D01*
X163005000Y-117910000D01*
X163005722Y-117895297D01*
X163007882Y-117880736D01*
X163011459Y-117866457D01*
X163016418Y-117852597D01*
X163022712Y-117839290D01*
X163030280Y-117826664D01*
X163039048Y-117814841D01*
X163048934Y-117803934D01*
X163059841Y-117794048D01*
X163071664Y-117785280D01*
X163084290Y-117777712D01*
X163097597Y-117771418D01*
X163111457Y-117766459D01*
X163125736Y-117762882D01*
X163140297Y-117760722D01*
X163155000Y-117760000D01*
X163455000Y-117760000D01*
X163469703Y-117760722D01*
X163469703Y-117760722D01*
G37*
D15*
X163305000Y-118610000D03*
D12*
G36*
X164719703Y-117760722D02*
G01*
X164734264Y-117762882D01*
X164748543Y-117766459D01*
X164762403Y-117771418D01*
X164775710Y-117777712D01*
X164788336Y-117785280D01*
X164800159Y-117794048D01*
X164811066Y-117803934D01*
X164820952Y-117814841D01*
X164829720Y-117826664D01*
X164837288Y-117839290D01*
X164843582Y-117852597D01*
X164848541Y-117866457D01*
X164852118Y-117880736D01*
X164854278Y-117895297D01*
X164855000Y-117910000D01*
X164855000Y-119310000D01*
X164854278Y-119324703D01*
X164852118Y-119339264D01*
X164848541Y-119353543D01*
X164843582Y-119367403D01*
X164837288Y-119380710D01*
X164829720Y-119393336D01*
X164820952Y-119405159D01*
X164811066Y-119416066D01*
X164800159Y-119425952D01*
X164788336Y-119434720D01*
X164775710Y-119442288D01*
X164762403Y-119448582D01*
X164748543Y-119453541D01*
X164734264Y-119457118D01*
X164719703Y-119459278D01*
X164705000Y-119460000D01*
X164405000Y-119460000D01*
X164390297Y-119459278D01*
X164375736Y-119457118D01*
X164361457Y-119453541D01*
X164347597Y-119448582D01*
X164334290Y-119442288D01*
X164321664Y-119434720D01*
X164309841Y-119425952D01*
X164298934Y-119416066D01*
X164289048Y-119405159D01*
X164280280Y-119393336D01*
X164272712Y-119380710D01*
X164266418Y-119367403D01*
X164261459Y-119353543D01*
X164257882Y-119339264D01*
X164255722Y-119324703D01*
X164255000Y-119310000D01*
X164255000Y-117910000D01*
X164255722Y-117895297D01*
X164257882Y-117880736D01*
X164261459Y-117866457D01*
X164266418Y-117852597D01*
X164272712Y-117839290D01*
X164280280Y-117826664D01*
X164289048Y-117814841D01*
X164298934Y-117803934D01*
X164309841Y-117794048D01*
X164321664Y-117785280D01*
X164334290Y-117777712D01*
X164347597Y-117771418D01*
X164361457Y-117766459D01*
X164375736Y-117762882D01*
X164390297Y-117760722D01*
X164405000Y-117760000D01*
X164705000Y-117760000D01*
X164719703Y-117760722D01*
X164719703Y-117760722D01*
G37*
D15*
X164555000Y-118610000D03*
D12*
G36*
X159229504Y-120461204D02*
G01*
X159253773Y-120464804D01*
X159277571Y-120470765D01*
X159300671Y-120479030D01*
X159322849Y-120489520D01*
X159343893Y-120502133D01*
X159363598Y-120516747D01*
X159381777Y-120533223D01*
X159398253Y-120551402D01*
X159412867Y-120571107D01*
X159425480Y-120592151D01*
X159435970Y-120614329D01*
X159444235Y-120637429D01*
X159450196Y-120661227D01*
X159453796Y-120685496D01*
X159455000Y-120710000D01*
X159455000Y-122910000D01*
X159453796Y-122934504D01*
X159450196Y-122958773D01*
X159444235Y-122982571D01*
X159435970Y-123005671D01*
X159425480Y-123027849D01*
X159412867Y-123048893D01*
X159398253Y-123068598D01*
X159381777Y-123086777D01*
X159363598Y-123103253D01*
X159343893Y-123117867D01*
X159322849Y-123130480D01*
X159300671Y-123140970D01*
X159277571Y-123149235D01*
X159253773Y-123155196D01*
X159229504Y-123158796D01*
X159205000Y-123160000D01*
X158705000Y-123160000D01*
X158680496Y-123158796D01*
X158656227Y-123155196D01*
X158632429Y-123149235D01*
X158609329Y-123140970D01*
X158587151Y-123130480D01*
X158566107Y-123117867D01*
X158546402Y-123103253D01*
X158528223Y-123086777D01*
X158511747Y-123068598D01*
X158497133Y-123048893D01*
X158484520Y-123027849D01*
X158474030Y-123005671D01*
X158465765Y-122982571D01*
X158459804Y-122958773D01*
X158456204Y-122934504D01*
X158455000Y-122910000D01*
X158455000Y-120710000D01*
X158456204Y-120685496D01*
X158459804Y-120661227D01*
X158465765Y-120637429D01*
X158474030Y-120614329D01*
X158484520Y-120592151D01*
X158497133Y-120571107D01*
X158511747Y-120551402D01*
X158528223Y-120533223D01*
X158546402Y-120516747D01*
X158566107Y-120502133D01*
X158587151Y-120489520D01*
X158609329Y-120479030D01*
X158632429Y-120470765D01*
X158656227Y-120464804D01*
X158680496Y-120461204D01*
X158705000Y-120460000D01*
X159205000Y-120460000D01*
X159229504Y-120461204D01*
X159229504Y-120461204D01*
G37*
D16*
X158955000Y-121810000D03*
D12*
G36*
X166679504Y-120461204D02*
G01*
X166703773Y-120464804D01*
X166727571Y-120470765D01*
X166750671Y-120479030D01*
X166772849Y-120489520D01*
X166793893Y-120502133D01*
X166813598Y-120516747D01*
X166831777Y-120533223D01*
X166848253Y-120551402D01*
X166862867Y-120571107D01*
X166875480Y-120592151D01*
X166885970Y-120614329D01*
X166894235Y-120637429D01*
X166900196Y-120661227D01*
X166903796Y-120685496D01*
X166905000Y-120710000D01*
X166905000Y-122910000D01*
X166903796Y-122934504D01*
X166900196Y-122958773D01*
X166894235Y-122982571D01*
X166885970Y-123005671D01*
X166875480Y-123027849D01*
X166862867Y-123048893D01*
X166848253Y-123068598D01*
X166831777Y-123086777D01*
X166813598Y-123103253D01*
X166793893Y-123117867D01*
X166772849Y-123130480D01*
X166750671Y-123140970D01*
X166727571Y-123149235D01*
X166703773Y-123155196D01*
X166679504Y-123158796D01*
X166655000Y-123160000D01*
X166155000Y-123160000D01*
X166130496Y-123158796D01*
X166106227Y-123155196D01*
X166082429Y-123149235D01*
X166059329Y-123140970D01*
X166037151Y-123130480D01*
X166016107Y-123117867D01*
X165996402Y-123103253D01*
X165978223Y-123086777D01*
X165961747Y-123068598D01*
X165947133Y-123048893D01*
X165934520Y-123027849D01*
X165924030Y-123005671D01*
X165915765Y-122982571D01*
X165909804Y-122958773D01*
X165906204Y-122934504D01*
X165905000Y-122910000D01*
X165905000Y-120710000D01*
X165906204Y-120685496D01*
X165909804Y-120661227D01*
X165915765Y-120637429D01*
X165924030Y-120614329D01*
X165934520Y-120592151D01*
X165947133Y-120571107D01*
X165961747Y-120551402D01*
X165978223Y-120533223D01*
X165996402Y-120516747D01*
X166016107Y-120502133D01*
X166037151Y-120489520D01*
X166059329Y-120479030D01*
X166082429Y-120470765D01*
X166106227Y-120464804D01*
X166130496Y-120461204D01*
X166155000Y-120460000D01*
X166655000Y-120460000D01*
X166679504Y-120461204D01*
X166679504Y-120461204D01*
G37*
D16*
X166405000Y-121810000D03*
D12*
G36*
X168866958Y-120650710D02*
G01*
X168881276Y-120652834D01*
X168895317Y-120656351D01*
X168908946Y-120661228D01*
X168922031Y-120667417D01*
X168934447Y-120674858D01*
X168946073Y-120683481D01*
X168956798Y-120693202D01*
X168966519Y-120703927D01*
X168975142Y-120715553D01*
X168982583Y-120727969D01*
X168988772Y-120741054D01*
X168993649Y-120754683D01*
X168997166Y-120768724D01*
X168999290Y-120783042D01*
X169000000Y-120797500D01*
X169000000Y-121092500D01*
X168999290Y-121106958D01*
X168997166Y-121121276D01*
X168993649Y-121135317D01*
X168988772Y-121148946D01*
X168982583Y-121162031D01*
X168975142Y-121174447D01*
X168966519Y-121186073D01*
X168956798Y-121196798D01*
X168946073Y-121206519D01*
X168934447Y-121215142D01*
X168922031Y-121222583D01*
X168908946Y-121228772D01*
X168895317Y-121233649D01*
X168881276Y-121237166D01*
X168866958Y-121239290D01*
X168852500Y-121240000D01*
X168507500Y-121240000D01*
X168493042Y-121239290D01*
X168478724Y-121237166D01*
X168464683Y-121233649D01*
X168451054Y-121228772D01*
X168437969Y-121222583D01*
X168425553Y-121215142D01*
X168413927Y-121206519D01*
X168403202Y-121196798D01*
X168393481Y-121186073D01*
X168384858Y-121174447D01*
X168377417Y-121162031D01*
X168371228Y-121148946D01*
X168366351Y-121135317D01*
X168362834Y-121121276D01*
X168360710Y-121106958D01*
X168360000Y-121092500D01*
X168360000Y-120797500D01*
X168360710Y-120783042D01*
X168362834Y-120768724D01*
X168366351Y-120754683D01*
X168371228Y-120741054D01*
X168377417Y-120727969D01*
X168384858Y-120715553D01*
X168393481Y-120703927D01*
X168403202Y-120693202D01*
X168413927Y-120683481D01*
X168425553Y-120674858D01*
X168437969Y-120667417D01*
X168451054Y-120661228D01*
X168464683Y-120656351D01*
X168478724Y-120652834D01*
X168493042Y-120650710D01*
X168507500Y-120650000D01*
X168852500Y-120650000D01*
X168866958Y-120650710D01*
X168866958Y-120650710D01*
G37*
D13*
X168680000Y-120945000D03*
D12*
G36*
X168866958Y-119680710D02*
G01*
X168881276Y-119682834D01*
X168895317Y-119686351D01*
X168908946Y-119691228D01*
X168922031Y-119697417D01*
X168934447Y-119704858D01*
X168946073Y-119713481D01*
X168956798Y-119723202D01*
X168966519Y-119733927D01*
X168975142Y-119745553D01*
X168982583Y-119757969D01*
X168988772Y-119771054D01*
X168993649Y-119784683D01*
X168997166Y-119798724D01*
X168999290Y-119813042D01*
X169000000Y-119827500D01*
X169000000Y-120122500D01*
X168999290Y-120136958D01*
X168997166Y-120151276D01*
X168993649Y-120165317D01*
X168988772Y-120178946D01*
X168982583Y-120192031D01*
X168975142Y-120204447D01*
X168966519Y-120216073D01*
X168956798Y-120226798D01*
X168946073Y-120236519D01*
X168934447Y-120245142D01*
X168922031Y-120252583D01*
X168908946Y-120258772D01*
X168895317Y-120263649D01*
X168881276Y-120267166D01*
X168866958Y-120269290D01*
X168852500Y-120270000D01*
X168507500Y-120270000D01*
X168493042Y-120269290D01*
X168478724Y-120267166D01*
X168464683Y-120263649D01*
X168451054Y-120258772D01*
X168437969Y-120252583D01*
X168425553Y-120245142D01*
X168413927Y-120236519D01*
X168403202Y-120226798D01*
X168393481Y-120216073D01*
X168384858Y-120204447D01*
X168377417Y-120192031D01*
X168371228Y-120178946D01*
X168366351Y-120165317D01*
X168362834Y-120151276D01*
X168360710Y-120136958D01*
X168360000Y-120122500D01*
X168360000Y-119827500D01*
X168360710Y-119813042D01*
X168362834Y-119798724D01*
X168366351Y-119784683D01*
X168371228Y-119771054D01*
X168377417Y-119757969D01*
X168384858Y-119745553D01*
X168393481Y-119733927D01*
X168403202Y-119723202D01*
X168413927Y-119713481D01*
X168425553Y-119704858D01*
X168437969Y-119697417D01*
X168451054Y-119691228D01*
X168464683Y-119686351D01*
X168478724Y-119682834D01*
X168493042Y-119680710D01*
X168507500Y-119680000D01*
X168852500Y-119680000D01*
X168866958Y-119680710D01*
X168866958Y-119680710D01*
G37*
D13*
X168680000Y-119975000D03*
D12*
G36*
X133969703Y-117760722D02*
G01*
X133984264Y-117762882D01*
X133998543Y-117766459D01*
X134012403Y-117771418D01*
X134025710Y-117777712D01*
X134038336Y-117785280D01*
X134050159Y-117794048D01*
X134061066Y-117803934D01*
X134070952Y-117814841D01*
X134079720Y-117826664D01*
X134087288Y-117839290D01*
X134093582Y-117852597D01*
X134098541Y-117866457D01*
X134102118Y-117880736D01*
X134104278Y-117895297D01*
X134105000Y-117910000D01*
X134105000Y-119310000D01*
X134104278Y-119324703D01*
X134102118Y-119339264D01*
X134098541Y-119353543D01*
X134093582Y-119367403D01*
X134087288Y-119380710D01*
X134079720Y-119393336D01*
X134070952Y-119405159D01*
X134061066Y-119416066D01*
X134050159Y-119425952D01*
X134038336Y-119434720D01*
X134025710Y-119442288D01*
X134012403Y-119448582D01*
X133998543Y-119453541D01*
X133984264Y-119457118D01*
X133969703Y-119459278D01*
X133955000Y-119460000D01*
X133655000Y-119460000D01*
X133640297Y-119459278D01*
X133625736Y-119457118D01*
X133611457Y-119453541D01*
X133597597Y-119448582D01*
X133584290Y-119442288D01*
X133571664Y-119434720D01*
X133559841Y-119425952D01*
X133548934Y-119416066D01*
X133539048Y-119405159D01*
X133530280Y-119393336D01*
X133522712Y-119380710D01*
X133516418Y-119367403D01*
X133511459Y-119353543D01*
X133507882Y-119339264D01*
X133505722Y-119324703D01*
X133505000Y-119310000D01*
X133505000Y-117910000D01*
X133505722Y-117895297D01*
X133507882Y-117880736D01*
X133511459Y-117866457D01*
X133516418Y-117852597D01*
X133522712Y-117839290D01*
X133530280Y-117826664D01*
X133539048Y-117814841D01*
X133548934Y-117803934D01*
X133559841Y-117794048D01*
X133571664Y-117785280D01*
X133584290Y-117777712D01*
X133597597Y-117771418D01*
X133611457Y-117766459D01*
X133625736Y-117762882D01*
X133640297Y-117760722D01*
X133655000Y-117760000D01*
X133955000Y-117760000D01*
X133969703Y-117760722D01*
X133969703Y-117760722D01*
G37*
D15*
X133805000Y-118610000D03*
D12*
G36*
X135219703Y-117760722D02*
G01*
X135234264Y-117762882D01*
X135248543Y-117766459D01*
X135262403Y-117771418D01*
X135275710Y-117777712D01*
X135288336Y-117785280D01*
X135300159Y-117794048D01*
X135311066Y-117803934D01*
X135320952Y-117814841D01*
X135329720Y-117826664D01*
X135337288Y-117839290D01*
X135343582Y-117852597D01*
X135348541Y-117866457D01*
X135352118Y-117880736D01*
X135354278Y-117895297D01*
X135355000Y-117910000D01*
X135355000Y-119310000D01*
X135354278Y-119324703D01*
X135352118Y-119339264D01*
X135348541Y-119353543D01*
X135343582Y-119367403D01*
X135337288Y-119380710D01*
X135329720Y-119393336D01*
X135320952Y-119405159D01*
X135311066Y-119416066D01*
X135300159Y-119425952D01*
X135288336Y-119434720D01*
X135275710Y-119442288D01*
X135262403Y-119448582D01*
X135248543Y-119453541D01*
X135234264Y-119457118D01*
X135219703Y-119459278D01*
X135205000Y-119460000D01*
X134905000Y-119460000D01*
X134890297Y-119459278D01*
X134875736Y-119457118D01*
X134861457Y-119453541D01*
X134847597Y-119448582D01*
X134834290Y-119442288D01*
X134821664Y-119434720D01*
X134809841Y-119425952D01*
X134798934Y-119416066D01*
X134789048Y-119405159D01*
X134780280Y-119393336D01*
X134772712Y-119380710D01*
X134766418Y-119367403D01*
X134761459Y-119353543D01*
X134757882Y-119339264D01*
X134755722Y-119324703D01*
X134755000Y-119310000D01*
X134755000Y-117910000D01*
X134755722Y-117895297D01*
X134757882Y-117880736D01*
X134761459Y-117866457D01*
X134766418Y-117852597D01*
X134772712Y-117839290D01*
X134780280Y-117826664D01*
X134789048Y-117814841D01*
X134798934Y-117803934D01*
X134809841Y-117794048D01*
X134821664Y-117785280D01*
X134834290Y-117777712D01*
X134847597Y-117771418D01*
X134861457Y-117766459D01*
X134875736Y-117762882D01*
X134890297Y-117760722D01*
X134905000Y-117760000D01*
X135205000Y-117760000D01*
X135219703Y-117760722D01*
X135219703Y-117760722D01*
G37*
D15*
X135055000Y-118610000D03*
D12*
G36*
X136469703Y-117760722D02*
G01*
X136484264Y-117762882D01*
X136498543Y-117766459D01*
X136512403Y-117771418D01*
X136525710Y-117777712D01*
X136538336Y-117785280D01*
X136550159Y-117794048D01*
X136561066Y-117803934D01*
X136570952Y-117814841D01*
X136579720Y-117826664D01*
X136587288Y-117839290D01*
X136593582Y-117852597D01*
X136598541Y-117866457D01*
X136602118Y-117880736D01*
X136604278Y-117895297D01*
X136605000Y-117910000D01*
X136605000Y-119310000D01*
X136604278Y-119324703D01*
X136602118Y-119339264D01*
X136598541Y-119353543D01*
X136593582Y-119367403D01*
X136587288Y-119380710D01*
X136579720Y-119393336D01*
X136570952Y-119405159D01*
X136561066Y-119416066D01*
X136550159Y-119425952D01*
X136538336Y-119434720D01*
X136525710Y-119442288D01*
X136512403Y-119448582D01*
X136498543Y-119453541D01*
X136484264Y-119457118D01*
X136469703Y-119459278D01*
X136455000Y-119460000D01*
X136155000Y-119460000D01*
X136140297Y-119459278D01*
X136125736Y-119457118D01*
X136111457Y-119453541D01*
X136097597Y-119448582D01*
X136084290Y-119442288D01*
X136071664Y-119434720D01*
X136059841Y-119425952D01*
X136048934Y-119416066D01*
X136039048Y-119405159D01*
X136030280Y-119393336D01*
X136022712Y-119380710D01*
X136016418Y-119367403D01*
X136011459Y-119353543D01*
X136007882Y-119339264D01*
X136005722Y-119324703D01*
X136005000Y-119310000D01*
X136005000Y-117910000D01*
X136005722Y-117895297D01*
X136007882Y-117880736D01*
X136011459Y-117866457D01*
X136016418Y-117852597D01*
X136022712Y-117839290D01*
X136030280Y-117826664D01*
X136039048Y-117814841D01*
X136048934Y-117803934D01*
X136059841Y-117794048D01*
X136071664Y-117785280D01*
X136084290Y-117777712D01*
X136097597Y-117771418D01*
X136111457Y-117766459D01*
X136125736Y-117762882D01*
X136140297Y-117760722D01*
X136155000Y-117760000D01*
X136455000Y-117760000D01*
X136469703Y-117760722D01*
X136469703Y-117760722D01*
G37*
D15*
X136305000Y-118610000D03*
D12*
G36*
X137719703Y-117760722D02*
G01*
X137734264Y-117762882D01*
X137748543Y-117766459D01*
X137762403Y-117771418D01*
X137775710Y-117777712D01*
X137788336Y-117785280D01*
X137800159Y-117794048D01*
X137811066Y-117803934D01*
X137820952Y-117814841D01*
X137829720Y-117826664D01*
X137837288Y-117839290D01*
X137843582Y-117852597D01*
X137848541Y-117866457D01*
X137852118Y-117880736D01*
X137854278Y-117895297D01*
X137855000Y-117910000D01*
X137855000Y-119310000D01*
X137854278Y-119324703D01*
X137852118Y-119339264D01*
X137848541Y-119353543D01*
X137843582Y-119367403D01*
X137837288Y-119380710D01*
X137829720Y-119393336D01*
X137820952Y-119405159D01*
X137811066Y-119416066D01*
X137800159Y-119425952D01*
X137788336Y-119434720D01*
X137775710Y-119442288D01*
X137762403Y-119448582D01*
X137748543Y-119453541D01*
X137734264Y-119457118D01*
X137719703Y-119459278D01*
X137705000Y-119460000D01*
X137405000Y-119460000D01*
X137390297Y-119459278D01*
X137375736Y-119457118D01*
X137361457Y-119453541D01*
X137347597Y-119448582D01*
X137334290Y-119442288D01*
X137321664Y-119434720D01*
X137309841Y-119425952D01*
X137298934Y-119416066D01*
X137289048Y-119405159D01*
X137280280Y-119393336D01*
X137272712Y-119380710D01*
X137266418Y-119367403D01*
X137261459Y-119353543D01*
X137257882Y-119339264D01*
X137255722Y-119324703D01*
X137255000Y-119310000D01*
X137255000Y-117910000D01*
X137255722Y-117895297D01*
X137257882Y-117880736D01*
X137261459Y-117866457D01*
X137266418Y-117852597D01*
X137272712Y-117839290D01*
X137280280Y-117826664D01*
X137289048Y-117814841D01*
X137298934Y-117803934D01*
X137309841Y-117794048D01*
X137321664Y-117785280D01*
X137334290Y-117777712D01*
X137347597Y-117771418D01*
X137361457Y-117766459D01*
X137375736Y-117762882D01*
X137390297Y-117760722D01*
X137405000Y-117760000D01*
X137705000Y-117760000D01*
X137719703Y-117760722D01*
X137719703Y-117760722D01*
G37*
D15*
X137555000Y-118610000D03*
D12*
G36*
X132229504Y-120461204D02*
G01*
X132253773Y-120464804D01*
X132277571Y-120470765D01*
X132300671Y-120479030D01*
X132322849Y-120489520D01*
X132343893Y-120502133D01*
X132363598Y-120516747D01*
X132381777Y-120533223D01*
X132398253Y-120551402D01*
X132412867Y-120571107D01*
X132425480Y-120592151D01*
X132435970Y-120614329D01*
X132444235Y-120637429D01*
X132450196Y-120661227D01*
X132453796Y-120685496D01*
X132455000Y-120710000D01*
X132455000Y-122910000D01*
X132453796Y-122934504D01*
X132450196Y-122958773D01*
X132444235Y-122982571D01*
X132435970Y-123005671D01*
X132425480Y-123027849D01*
X132412867Y-123048893D01*
X132398253Y-123068598D01*
X132381777Y-123086777D01*
X132363598Y-123103253D01*
X132343893Y-123117867D01*
X132322849Y-123130480D01*
X132300671Y-123140970D01*
X132277571Y-123149235D01*
X132253773Y-123155196D01*
X132229504Y-123158796D01*
X132205000Y-123160000D01*
X131705000Y-123160000D01*
X131680496Y-123158796D01*
X131656227Y-123155196D01*
X131632429Y-123149235D01*
X131609329Y-123140970D01*
X131587151Y-123130480D01*
X131566107Y-123117867D01*
X131546402Y-123103253D01*
X131528223Y-123086777D01*
X131511747Y-123068598D01*
X131497133Y-123048893D01*
X131484520Y-123027849D01*
X131474030Y-123005671D01*
X131465765Y-122982571D01*
X131459804Y-122958773D01*
X131456204Y-122934504D01*
X131455000Y-122910000D01*
X131455000Y-120710000D01*
X131456204Y-120685496D01*
X131459804Y-120661227D01*
X131465765Y-120637429D01*
X131474030Y-120614329D01*
X131484520Y-120592151D01*
X131497133Y-120571107D01*
X131511747Y-120551402D01*
X131528223Y-120533223D01*
X131546402Y-120516747D01*
X131566107Y-120502133D01*
X131587151Y-120489520D01*
X131609329Y-120479030D01*
X131632429Y-120470765D01*
X131656227Y-120464804D01*
X131680496Y-120461204D01*
X131705000Y-120460000D01*
X132205000Y-120460000D01*
X132229504Y-120461204D01*
X132229504Y-120461204D01*
G37*
D16*
X131955000Y-121810000D03*
D12*
G36*
X139679504Y-120461204D02*
G01*
X139703773Y-120464804D01*
X139727571Y-120470765D01*
X139750671Y-120479030D01*
X139772849Y-120489520D01*
X139793893Y-120502133D01*
X139813598Y-120516747D01*
X139831777Y-120533223D01*
X139848253Y-120551402D01*
X139862867Y-120571107D01*
X139875480Y-120592151D01*
X139885970Y-120614329D01*
X139894235Y-120637429D01*
X139900196Y-120661227D01*
X139903796Y-120685496D01*
X139905000Y-120710000D01*
X139905000Y-122910000D01*
X139903796Y-122934504D01*
X139900196Y-122958773D01*
X139894235Y-122982571D01*
X139885970Y-123005671D01*
X139875480Y-123027849D01*
X139862867Y-123048893D01*
X139848253Y-123068598D01*
X139831777Y-123086777D01*
X139813598Y-123103253D01*
X139793893Y-123117867D01*
X139772849Y-123130480D01*
X139750671Y-123140970D01*
X139727571Y-123149235D01*
X139703773Y-123155196D01*
X139679504Y-123158796D01*
X139655000Y-123160000D01*
X139155000Y-123160000D01*
X139130496Y-123158796D01*
X139106227Y-123155196D01*
X139082429Y-123149235D01*
X139059329Y-123140970D01*
X139037151Y-123130480D01*
X139016107Y-123117867D01*
X138996402Y-123103253D01*
X138978223Y-123086777D01*
X138961747Y-123068598D01*
X138947133Y-123048893D01*
X138934520Y-123027849D01*
X138924030Y-123005671D01*
X138915765Y-122982571D01*
X138909804Y-122958773D01*
X138906204Y-122934504D01*
X138905000Y-122910000D01*
X138905000Y-120710000D01*
X138906204Y-120685496D01*
X138909804Y-120661227D01*
X138915765Y-120637429D01*
X138924030Y-120614329D01*
X138934520Y-120592151D01*
X138947133Y-120571107D01*
X138961747Y-120551402D01*
X138978223Y-120533223D01*
X138996402Y-120516747D01*
X139016107Y-120502133D01*
X139037151Y-120489520D01*
X139059329Y-120479030D01*
X139082429Y-120470765D01*
X139106227Y-120464804D01*
X139130496Y-120461204D01*
X139155000Y-120460000D01*
X139655000Y-120460000D01*
X139679504Y-120461204D01*
X139679504Y-120461204D01*
G37*
D16*
X139405000Y-121810000D03*
D17*
X185580000Y-85440000D03*
X185580000Y-84790000D03*
X185580000Y-84130000D03*
X185580000Y-83480000D03*
X187780000Y-83480000D03*
X187780000Y-84130000D03*
X187780000Y-84790000D03*
X187780000Y-85440000D03*
D18*
X189180000Y-83710000D03*
X189180000Y-84210000D03*
X189180000Y-85210000D03*
X189180000Y-84710000D03*
X190180000Y-83710000D03*
X190180000Y-84710000D03*
X190180000Y-84210000D03*
X190180000Y-85210000D03*
D12*
G36*
X183029505Y-82786204D02*
G01*
X183053773Y-82789804D01*
X183077572Y-82795765D01*
X183100671Y-82804030D01*
X183122850Y-82814520D01*
X183143893Y-82827132D01*
X183163599Y-82841747D01*
X183181777Y-82858223D01*
X183198253Y-82876401D01*
X183212868Y-82896107D01*
X183225480Y-82917150D01*
X183235970Y-82939329D01*
X183244235Y-82962428D01*
X183250196Y-82986227D01*
X183253796Y-83010495D01*
X183255000Y-83034999D01*
X183255000Y-85885001D01*
X183253796Y-85909505D01*
X183250196Y-85933773D01*
X183244235Y-85957572D01*
X183235970Y-85980671D01*
X183225480Y-86002850D01*
X183212868Y-86023893D01*
X183198253Y-86043599D01*
X183181777Y-86061777D01*
X183163599Y-86078253D01*
X183143893Y-86092868D01*
X183122850Y-86105480D01*
X183100671Y-86115970D01*
X183077572Y-86124235D01*
X183053773Y-86130196D01*
X183029505Y-86133796D01*
X183005001Y-86135000D01*
X182154999Y-86135000D01*
X182130495Y-86133796D01*
X182106227Y-86130196D01*
X182082428Y-86124235D01*
X182059329Y-86115970D01*
X182037150Y-86105480D01*
X182016107Y-86092868D01*
X181996401Y-86078253D01*
X181978223Y-86061777D01*
X181961747Y-86043599D01*
X181947132Y-86023893D01*
X181934520Y-86002850D01*
X181924030Y-85980671D01*
X181915765Y-85957572D01*
X181909804Y-85933773D01*
X181906204Y-85909505D01*
X181905000Y-85885001D01*
X181905000Y-83034999D01*
X181906204Y-83010495D01*
X181909804Y-82986227D01*
X181915765Y-82962428D01*
X181924030Y-82939329D01*
X181934520Y-82917150D01*
X181947132Y-82896107D01*
X181961747Y-82876401D01*
X181978223Y-82858223D01*
X181996401Y-82841747D01*
X182016107Y-82827132D01*
X182037150Y-82814520D01*
X182059329Y-82804030D01*
X182082428Y-82795765D01*
X182106227Y-82789804D01*
X182130495Y-82786204D01*
X182154999Y-82785000D01*
X183005001Y-82785000D01*
X183029505Y-82786204D01*
X183029505Y-82786204D01*
G37*
D19*
X182580000Y-84460000D03*
D12*
G36*
X177229505Y-82786204D02*
G01*
X177253773Y-82789804D01*
X177277572Y-82795765D01*
X177300671Y-82804030D01*
X177322850Y-82814520D01*
X177343893Y-82827132D01*
X177363599Y-82841747D01*
X177381777Y-82858223D01*
X177398253Y-82876401D01*
X177412868Y-82896107D01*
X177425480Y-82917150D01*
X177435970Y-82939329D01*
X177444235Y-82962428D01*
X177450196Y-82986227D01*
X177453796Y-83010495D01*
X177455000Y-83034999D01*
X177455000Y-85885001D01*
X177453796Y-85909505D01*
X177450196Y-85933773D01*
X177444235Y-85957572D01*
X177435970Y-85980671D01*
X177425480Y-86002850D01*
X177412868Y-86023893D01*
X177398253Y-86043599D01*
X177381777Y-86061777D01*
X177363599Y-86078253D01*
X177343893Y-86092868D01*
X177322850Y-86105480D01*
X177300671Y-86115970D01*
X177277572Y-86124235D01*
X177253773Y-86130196D01*
X177229505Y-86133796D01*
X177205001Y-86135000D01*
X176354999Y-86135000D01*
X176330495Y-86133796D01*
X176306227Y-86130196D01*
X176282428Y-86124235D01*
X176259329Y-86115970D01*
X176237150Y-86105480D01*
X176216107Y-86092868D01*
X176196401Y-86078253D01*
X176178223Y-86061777D01*
X176161747Y-86043599D01*
X176147132Y-86023893D01*
X176134520Y-86002850D01*
X176124030Y-85980671D01*
X176115765Y-85957572D01*
X176109804Y-85933773D01*
X176106204Y-85909505D01*
X176105000Y-85885001D01*
X176105000Y-83034999D01*
X176106204Y-83010495D01*
X176109804Y-82986227D01*
X176115765Y-82962428D01*
X176124030Y-82939329D01*
X176134520Y-82917150D01*
X176147132Y-82896107D01*
X176161747Y-82876401D01*
X176178223Y-82858223D01*
X176196401Y-82841747D01*
X176216107Y-82827132D01*
X176237150Y-82814520D01*
X176259329Y-82804030D01*
X176282428Y-82795765D01*
X176306227Y-82789804D01*
X176330495Y-82786204D01*
X176354999Y-82785000D01*
X177205001Y-82785000D01*
X177229505Y-82786204D01*
X177229505Y-82786204D01*
G37*
D19*
X176780000Y-84460000D03*
D12*
G36*
X191866958Y-83680710D02*
G01*
X191881276Y-83682834D01*
X191895317Y-83686351D01*
X191908946Y-83691228D01*
X191922031Y-83697417D01*
X191934447Y-83704858D01*
X191946073Y-83713481D01*
X191956798Y-83723202D01*
X191966519Y-83733927D01*
X191975142Y-83745553D01*
X191982583Y-83757969D01*
X191988772Y-83771054D01*
X191993649Y-83784683D01*
X191997166Y-83798724D01*
X191999290Y-83813042D01*
X192000000Y-83827500D01*
X192000000Y-84122500D01*
X191999290Y-84136958D01*
X191997166Y-84151276D01*
X191993649Y-84165317D01*
X191988772Y-84178946D01*
X191982583Y-84192031D01*
X191975142Y-84204447D01*
X191966519Y-84216073D01*
X191956798Y-84226798D01*
X191946073Y-84236519D01*
X191934447Y-84245142D01*
X191922031Y-84252583D01*
X191908946Y-84258772D01*
X191895317Y-84263649D01*
X191881276Y-84267166D01*
X191866958Y-84269290D01*
X191852500Y-84270000D01*
X191507500Y-84270000D01*
X191493042Y-84269290D01*
X191478724Y-84267166D01*
X191464683Y-84263649D01*
X191451054Y-84258772D01*
X191437969Y-84252583D01*
X191425553Y-84245142D01*
X191413927Y-84236519D01*
X191403202Y-84226798D01*
X191393481Y-84216073D01*
X191384858Y-84204447D01*
X191377417Y-84192031D01*
X191371228Y-84178946D01*
X191366351Y-84165317D01*
X191362834Y-84151276D01*
X191360710Y-84136958D01*
X191360000Y-84122500D01*
X191360000Y-83827500D01*
X191360710Y-83813042D01*
X191362834Y-83798724D01*
X191366351Y-83784683D01*
X191371228Y-83771054D01*
X191377417Y-83757969D01*
X191384858Y-83745553D01*
X191393481Y-83733927D01*
X191403202Y-83723202D01*
X191413927Y-83713481D01*
X191425553Y-83704858D01*
X191437969Y-83697417D01*
X191451054Y-83691228D01*
X191464683Y-83686351D01*
X191478724Y-83682834D01*
X191493042Y-83680710D01*
X191507500Y-83680000D01*
X191852500Y-83680000D01*
X191866958Y-83680710D01*
X191866958Y-83680710D01*
G37*
D13*
X191680000Y-83975000D03*
D12*
G36*
X191866958Y-84650710D02*
G01*
X191881276Y-84652834D01*
X191895317Y-84656351D01*
X191908946Y-84661228D01*
X191922031Y-84667417D01*
X191934447Y-84674858D01*
X191946073Y-84683481D01*
X191956798Y-84693202D01*
X191966519Y-84703927D01*
X191975142Y-84715553D01*
X191982583Y-84727969D01*
X191988772Y-84741054D01*
X191993649Y-84754683D01*
X191997166Y-84768724D01*
X191999290Y-84783042D01*
X192000000Y-84797500D01*
X192000000Y-85092500D01*
X191999290Y-85106958D01*
X191997166Y-85121276D01*
X191993649Y-85135317D01*
X191988772Y-85148946D01*
X191982583Y-85162031D01*
X191975142Y-85174447D01*
X191966519Y-85186073D01*
X191956798Y-85196798D01*
X191946073Y-85206519D01*
X191934447Y-85215142D01*
X191922031Y-85222583D01*
X191908946Y-85228772D01*
X191895317Y-85233649D01*
X191881276Y-85237166D01*
X191866958Y-85239290D01*
X191852500Y-85240000D01*
X191507500Y-85240000D01*
X191493042Y-85239290D01*
X191478724Y-85237166D01*
X191464683Y-85233649D01*
X191451054Y-85228772D01*
X191437969Y-85222583D01*
X191425553Y-85215142D01*
X191413927Y-85206519D01*
X191403202Y-85196798D01*
X191393481Y-85186073D01*
X191384858Y-85174447D01*
X191377417Y-85162031D01*
X191371228Y-85148946D01*
X191366351Y-85135317D01*
X191362834Y-85121276D01*
X191360710Y-85106958D01*
X191360000Y-85092500D01*
X191360000Y-84797500D01*
X191360710Y-84783042D01*
X191362834Y-84768724D01*
X191366351Y-84754683D01*
X191371228Y-84741054D01*
X191377417Y-84727969D01*
X191384858Y-84715553D01*
X191393481Y-84703927D01*
X191403202Y-84693202D01*
X191413927Y-84683481D01*
X191425553Y-84674858D01*
X191437969Y-84667417D01*
X191451054Y-84661228D01*
X191464683Y-84656351D01*
X191478724Y-84652834D01*
X191493042Y-84650710D01*
X191507500Y-84650000D01*
X191852500Y-84650000D01*
X191866958Y-84650710D01*
X191866958Y-84650710D01*
G37*
D13*
X191680000Y-84945000D03*
D20*
X118380000Y-102610000D03*
X122980000Y-102610000D03*
X120680000Y-102610000D03*
D21*
X120680000Y-96310000D03*
D22*
X114680000Y-112460000D03*
X115630000Y-114460000D03*
X113730000Y-114460000D03*
D14*
X185680000Y-120560000D03*
X183680000Y-121510000D03*
X183680000Y-119610000D03*
D23*
X179480000Y-104010000D03*
D24*
X170780000Y-96310000D03*
X170780000Y-97580000D03*
X170780000Y-98850000D03*
X170780000Y-100120000D03*
X170780000Y-101390000D03*
X170780000Y-102660000D03*
X170780000Y-103930000D03*
X170780000Y-105200000D03*
X170780000Y-106470000D03*
X170780000Y-107740000D03*
X170780000Y-109010000D03*
X170780000Y-110280000D03*
X170780000Y-111550000D03*
X170780000Y-112820000D03*
D25*
X174065000Y-114310000D03*
X175335000Y-114310000D03*
X176605000Y-114310000D03*
X177875000Y-114310000D03*
X179145000Y-114310000D03*
X180415000Y-114310000D03*
X181685000Y-114310000D03*
X182955000Y-114310000D03*
X184225000Y-114310000D03*
X185495000Y-114310000D03*
D24*
X188780000Y-112820000D03*
X188780000Y-111550000D03*
X188780000Y-110280000D03*
X188780000Y-109010000D03*
X188780000Y-107740000D03*
X188780000Y-106470000D03*
X188780000Y-105200000D03*
X188780000Y-103930000D03*
X188780000Y-102660000D03*
X188780000Y-101390000D03*
X188780000Y-100120000D03*
X188780000Y-98850000D03*
X188780000Y-97580000D03*
X188780000Y-96310000D03*
D12*
G36*
X118866958Y-111680710D02*
G01*
X118881276Y-111682834D01*
X118895317Y-111686351D01*
X118908946Y-111691228D01*
X118922031Y-111697417D01*
X118934447Y-111704858D01*
X118946073Y-111713481D01*
X118956798Y-111723202D01*
X118966519Y-111733927D01*
X118975142Y-111745553D01*
X118982583Y-111757969D01*
X118988772Y-111771054D01*
X118993649Y-111784683D01*
X118997166Y-111798724D01*
X118999290Y-111813042D01*
X119000000Y-111827500D01*
X119000000Y-112122500D01*
X118999290Y-112136958D01*
X118997166Y-112151276D01*
X118993649Y-112165317D01*
X118988772Y-112178946D01*
X118982583Y-112192031D01*
X118975142Y-112204447D01*
X118966519Y-112216073D01*
X118956798Y-112226798D01*
X118946073Y-112236519D01*
X118934447Y-112245142D01*
X118922031Y-112252583D01*
X118908946Y-112258772D01*
X118895317Y-112263649D01*
X118881276Y-112267166D01*
X118866958Y-112269290D01*
X118852500Y-112270000D01*
X118507500Y-112270000D01*
X118493042Y-112269290D01*
X118478724Y-112267166D01*
X118464683Y-112263649D01*
X118451054Y-112258772D01*
X118437969Y-112252583D01*
X118425553Y-112245142D01*
X118413927Y-112236519D01*
X118403202Y-112226798D01*
X118393481Y-112216073D01*
X118384858Y-112204447D01*
X118377417Y-112192031D01*
X118371228Y-112178946D01*
X118366351Y-112165317D01*
X118362834Y-112151276D01*
X118360710Y-112136958D01*
X118360000Y-112122500D01*
X118360000Y-111827500D01*
X118360710Y-111813042D01*
X118362834Y-111798724D01*
X118366351Y-111784683D01*
X118371228Y-111771054D01*
X118377417Y-111757969D01*
X118384858Y-111745553D01*
X118393481Y-111733927D01*
X118403202Y-111723202D01*
X118413927Y-111713481D01*
X118425553Y-111704858D01*
X118437969Y-111697417D01*
X118451054Y-111691228D01*
X118464683Y-111686351D01*
X118478724Y-111682834D01*
X118493042Y-111680710D01*
X118507500Y-111680000D01*
X118852500Y-111680000D01*
X118866958Y-111680710D01*
X118866958Y-111680710D01*
G37*
D13*
X118680000Y-111975000D03*
D12*
G36*
X118866958Y-112650710D02*
G01*
X118881276Y-112652834D01*
X118895317Y-112656351D01*
X118908946Y-112661228D01*
X118922031Y-112667417D01*
X118934447Y-112674858D01*
X118946073Y-112683481D01*
X118956798Y-112693202D01*
X118966519Y-112703927D01*
X118975142Y-112715553D01*
X118982583Y-112727969D01*
X118988772Y-112741054D01*
X118993649Y-112754683D01*
X118997166Y-112768724D01*
X118999290Y-112783042D01*
X119000000Y-112797500D01*
X119000000Y-113092500D01*
X118999290Y-113106958D01*
X118997166Y-113121276D01*
X118993649Y-113135317D01*
X118988772Y-113148946D01*
X118982583Y-113162031D01*
X118975142Y-113174447D01*
X118966519Y-113186073D01*
X118956798Y-113196798D01*
X118946073Y-113206519D01*
X118934447Y-113215142D01*
X118922031Y-113222583D01*
X118908946Y-113228772D01*
X118895317Y-113233649D01*
X118881276Y-113237166D01*
X118866958Y-113239290D01*
X118852500Y-113240000D01*
X118507500Y-113240000D01*
X118493042Y-113239290D01*
X118478724Y-113237166D01*
X118464683Y-113233649D01*
X118451054Y-113228772D01*
X118437969Y-113222583D01*
X118425553Y-113215142D01*
X118413927Y-113206519D01*
X118403202Y-113196798D01*
X118393481Y-113186073D01*
X118384858Y-113174447D01*
X118377417Y-113162031D01*
X118371228Y-113148946D01*
X118366351Y-113135317D01*
X118362834Y-113121276D01*
X118360710Y-113106958D01*
X118360000Y-113092500D01*
X118360000Y-112797500D01*
X118360710Y-112783042D01*
X118362834Y-112768724D01*
X118366351Y-112754683D01*
X118371228Y-112741054D01*
X118377417Y-112727969D01*
X118384858Y-112715553D01*
X118393481Y-112703927D01*
X118403202Y-112693202D01*
X118413927Y-112683481D01*
X118425553Y-112674858D01*
X118437969Y-112667417D01*
X118451054Y-112661228D01*
X118464683Y-112656351D01*
X118478724Y-112652834D01*
X118493042Y-112650710D01*
X118507500Y-112650000D01*
X118852500Y-112650000D01*
X118866958Y-112650710D01*
X118866958Y-112650710D01*
G37*
D13*
X118680000Y-112945000D03*
D12*
G36*
X118866958Y-117680710D02*
G01*
X118881276Y-117682834D01*
X118895317Y-117686351D01*
X118908946Y-117691228D01*
X118922031Y-117697417D01*
X118934447Y-117704858D01*
X118946073Y-117713481D01*
X118956798Y-117723202D01*
X118966519Y-117733927D01*
X118975142Y-117745553D01*
X118982583Y-117757969D01*
X118988772Y-117771054D01*
X118993649Y-117784683D01*
X118997166Y-117798724D01*
X118999290Y-117813042D01*
X119000000Y-117827500D01*
X119000000Y-118122500D01*
X118999290Y-118136958D01*
X118997166Y-118151276D01*
X118993649Y-118165317D01*
X118988772Y-118178946D01*
X118982583Y-118192031D01*
X118975142Y-118204447D01*
X118966519Y-118216073D01*
X118956798Y-118226798D01*
X118946073Y-118236519D01*
X118934447Y-118245142D01*
X118922031Y-118252583D01*
X118908946Y-118258772D01*
X118895317Y-118263649D01*
X118881276Y-118267166D01*
X118866958Y-118269290D01*
X118852500Y-118270000D01*
X118507500Y-118270000D01*
X118493042Y-118269290D01*
X118478724Y-118267166D01*
X118464683Y-118263649D01*
X118451054Y-118258772D01*
X118437969Y-118252583D01*
X118425553Y-118245142D01*
X118413927Y-118236519D01*
X118403202Y-118226798D01*
X118393481Y-118216073D01*
X118384858Y-118204447D01*
X118377417Y-118192031D01*
X118371228Y-118178946D01*
X118366351Y-118165317D01*
X118362834Y-118151276D01*
X118360710Y-118136958D01*
X118360000Y-118122500D01*
X118360000Y-117827500D01*
X118360710Y-117813042D01*
X118362834Y-117798724D01*
X118366351Y-117784683D01*
X118371228Y-117771054D01*
X118377417Y-117757969D01*
X118384858Y-117745553D01*
X118393481Y-117733927D01*
X118403202Y-117723202D01*
X118413927Y-117713481D01*
X118425553Y-117704858D01*
X118437969Y-117697417D01*
X118451054Y-117691228D01*
X118464683Y-117686351D01*
X118478724Y-117682834D01*
X118493042Y-117680710D01*
X118507500Y-117680000D01*
X118852500Y-117680000D01*
X118866958Y-117680710D01*
X118866958Y-117680710D01*
G37*
D13*
X118680000Y-117975000D03*
D12*
G36*
X118866958Y-118650710D02*
G01*
X118881276Y-118652834D01*
X118895317Y-118656351D01*
X118908946Y-118661228D01*
X118922031Y-118667417D01*
X118934447Y-118674858D01*
X118946073Y-118683481D01*
X118956798Y-118693202D01*
X118966519Y-118703927D01*
X118975142Y-118715553D01*
X118982583Y-118727969D01*
X118988772Y-118741054D01*
X118993649Y-118754683D01*
X118997166Y-118768724D01*
X118999290Y-118783042D01*
X119000000Y-118797500D01*
X119000000Y-119092500D01*
X118999290Y-119106958D01*
X118997166Y-119121276D01*
X118993649Y-119135317D01*
X118988772Y-119148946D01*
X118982583Y-119162031D01*
X118975142Y-119174447D01*
X118966519Y-119186073D01*
X118956798Y-119196798D01*
X118946073Y-119206519D01*
X118934447Y-119215142D01*
X118922031Y-119222583D01*
X118908946Y-119228772D01*
X118895317Y-119233649D01*
X118881276Y-119237166D01*
X118866958Y-119239290D01*
X118852500Y-119240000D01*
X118507500Y-119240000D01*
X118493042Y-119239290D01*
X118478724Y-119237166D01*
X118464683Y-119233649D01*
X118451054Y-119228772D01*
X118437969Y-119222583D01*
X118425553Y-119215142D01*
X118413927Y-119206519D01*
X118403202Y-119196798D01*
X118393481Y-119186073D01*
X118384858Y-119174447D01*
X118377417Y-119162031D01*
X118371228Y-119148946D01*
X118366351Y-119135317D01*
X118362834Y-119121276D01*
X118360710Y-119106958D01*
X118360000Y-119092500D01*
X118360000Y-118797500D01*
X118360710Y-118783042D01*
X118362834Y-118768724D01*
X118366351Y-118754683D01*
X118371228Y-118741054D01*
X118377417Y-118727969D01*
X118384858Y-118715553D01*
X118393481Y-118703927D01*
X118403202Y-118693202D01*
X118413927Y-118683481D01*
X118425553Y-118674858D01*
X118437969Y-118667417D01*
X118451054Y-118661228D01*
X118464683Y-118656351D01*
X118478724Y-118652834D01*
X118493042Y-118650710D01*
X118507500Y-118650000D01*
X118852500Y-118650000D01*
X118866958Y-118650710D01*
X118866958Y-118650710D01*
G37*
D13*
X118680000Y-118945000D03*
D12*
G36*
X113866958Y-118650710D02*
G01*
X113881276Y-118652834D01*
X113895317Y-118656351D01*
X113908946Y-118661228D01*
X113922031Y-118667417D01*
X113934447Y-118674858D01*
X113946073Y-118683481D01*
X113956798Y-118693202D01*
X113966519Y-118703927D01*
X113975142Y-118715553D01*
X113982583Y-118727969D01*
X113988772Y-118741054D01*
X113993649Y-118754683D01*
X113997166Y-118768724D01*
X113999290Y-118783042D01*
X114000000Y-118797500D01*
X114000000Y-119092500D01*
X113999290Y-119106958D01*
X113997166Y-119121276D01*
X113993649Y-119135317D01*
X113988772Y-119148946D01*
X113982583Y-119162031D01*
X113975142Y-119174447D01*
X113966519Y-119186073D01*
X113956798Y-119196798D01*
X113946073Y-119206519D01*
X113934447Y-119215142D01*
X113922031Y-119222583D01*
X113908946Y-119228772D01*
X113895317Y-119233649D01*
X113881276Y-119237166D01*
X113866958Y-119239290D01*
X113852500Y-119240000D01*
X113507500Y-119240000D01*
X113493042Y-119239290D01*
X113478724Y-119237166D01*
X113464683Y-119233649D01*
X113451054Y-119228772D01*
X113437969Y-119222583D01*
X113425553Y-119215142D01*
X113413927Y-119206519D01*
X113403202Y-119196798D01*
X113393481Y-119186073D01*
X113384858Y-119174447D01*
X113377417Y-119162031D01*
X113371228Y-119148946D01*
X113366351Y-119135317D01*
X113362834Y-119121276D01*
X113360710Y-119106958D01*
X113360000Y-119092500D01*
X113360000Y-118797500D01*
X113360710Y-118783042D01*
X113362834Y-118768724D01*
X113366351Y-118754683D01*
X113371228Y-118741054D01*
X113377417Y-118727969D01*
X113384858Y-118715553D01*
X113393481Y-118703927D01*
X113403202Y-118693202D01*
X113413927Y-118683481D01*
X113425553Y-118674858D01*
X113437969Y-118667417D01*
X113451054Y-118661228D01*
X113464683Y-118656351D01*
X113478724Y-118652834D01*
X113493042Y-118650710D01*
X113507500Y-118650000D01*
X113852500Y-118650000D01*
X113866958Y-118650710D01*
X113866958Y-118650710D01*
G37*
D13*
X113680000Y-118945000D03*
D12*
G36*
X113866958Y-117680710D02*
G01*
X113881276Y-117682834D01*
X113895317Y-117686351D01*
X113908946Y-117691228D01*
X113922031Y-117697417D01*
X113934447Y-117704858D01*
X113946073Y-117713481D01*
X113956798Y-117723202D01*
X113966519Y-117733927D01*
X113975142Y-117745553D01*
X113982583Y-117757969D01*
X113988772Y-117771054D01*
X113993649Y-117784683D01*
X113997166Y-117798724D01*
X113999290Y-117813042D01*
X114000000Y-117827500D01*
X114000000Y-118122500D01*
X113999290Y-118136958D01*
X113997166Y-118151276D01*
X113993649Y-118165317D01*
X113988772Y-118178946D01*
X113982583Y-118192031D01*
X113975142Y-118204447D01*
X113966519Y-118216073D01*
X113956798Y-118226798D01*
X113946073Y-118236519D01*
X113934447Y-118245142D01*
X113922031Y-118252583D01*
X113908946Y-118258772D01*
X113895317Y-118263649D01*
X113881276Y-118267166D01*
X113866958Y-118269290D01*
X113852500Y-118270000D01*
X113507500Y-118270000D01*
X113493042Y-118269290D01*
X113478724Y-118267166D01*
X113464683Y-118263649D01*
X113451054Y-118258772D01*
X113437969Y-118252583D01*
X113425553Y-118245142D01*
X113413927Y-118236519D01*
X113403202Y-118226798D01*
X113393481Y-118216073D01*
X113384858Y-118204447D01*
X113377417Y-118192031D01*
X113371228Y-118178946D01*
X113366351Y-118165317D01*
X113362834Y-118151276D01*
X113360710Y-118136958D01*
X113360000Y-118122500D01*
X113360000Y-117827500D01*
X113360710Y-117813042D01*
X113362834Y-117798724D01*
X113366351Y-117784683D01*
X113371228Y-117771054D01*
X113377417Y-117757969D01*
X113384858Y-117745553D01*
X113393481Y-117733927D01*
X113403202Y-117723202D01*
X113413927Y-117713481D01*
X113425553Y-117704858D01*
X113437969Y-117697417D01*
X113451054Y-117691228D01*
X113464683Y-117686351D01*
X113478724Y-117682834D01*
X113493042Y-117680710D01*
X113507500Y-117680000D01*
X113852500Y-117680000D01*
X113866958Y-117680710D01*
X113866958Y-117680710D01*
G37*
D13*
X113680000Y-117975000D03*
D12*
G36*
X186926958Y-117240710D02*
G01*
X186941276Y-117242834D01*
X186955317Y-117246351D01*
X186968946Y-117251228D01*
X186982031Y-117257417D01*
X186994447Y-117264858D01*
X187006073Y-117273481D01*
X187016798Y-117283202D01*
X187026519Y-117293927D01*
X187035142Y-117305553D01*
X187042583Y-117317969D01*
X187048772Y-117331054D01*
X187053649Y-117344683D01*
X187057166Y-117358724D01*
X187059290Y-117373042D01*
X187060000Y-117387500D01*
X187060000Y-117732500D01*
X187059290Y-117746958D01*
X187057166Y-117761276D01*
X187053649Y-117775317D01*
X187048772Y-117788946D01*
X187042583Y-117802031D01*
X187035142Y-117814447D01*
X187026519Y-117826073D01*
X187016798Y-117836798D01*
X187006073Y-117846519D01*
X186994447Y-117855142D01*
X186982031Y-117862583D01*
X186968946Y-117868772D01*
X186955317Y-117873649D01*
X186941276Y-117877166D01*
X186926958Y-117879290D01*
X186912500Y-117880000D01*
X186617500Y-117880000D01*
X186603042Y-117879290D01*
X186588724Y-117877166D01*
X186574683Y-117873649D01*
X186561054Y-117868772D01*
X186547969Y-117862583D01*
X186535553Y-117855142D01*
X186523927Y-117846519D01*
X186513202Y-117836798D01*
X186503481Y-117826073D01*
X186494858Y-117814447D01*
X186487417Y-117802031D01*
X186481228Y-117788946D01*
X186476351Y-117775317D01*
X186472834Y-117761276D01*
X186470710Y-117746958D01*
X186470000Y-117732500D01*
X186470000Y-117387500D01*
X186470710Y-117373042D01*
X186472834Y-117358724D01*
X186476351Y-117344683D01*
X186481228Y-117331054D01*
X186487417Y-117317969D01*
X186494858Y-117305553D01*
X186503481Y-117293927D01*
X186513202Y-117283202D01*
X186523927Y-117273481D01*
X186535553Y-117264858D01*
X186547969Y-117257417D01*
X186561054Y-117251228D01*
X186574683Y-117246351D01*
X186588724Y-117242834D01*
X186603042Y-117240710D01*
X186617500Y-117240000D01*
X186912500Y-117240000D01*
X186926958Y-117240710D01*
X186926958Y-117240710D01*
G37*
D13*
X186765000Y-117560000D03*
D12*
G36*
X185956958Y-117240710D02*
G01*
X185971276Y-117242834D01*
X185985317Y-117246351D01*
X185998946Y-117251228D01*
X186012031Y-117257417D01*
X186024447Y-117264858D01*
X186036073Y-117273481D01*
X186046798Y-117283202D01*
X186056519Y-117293927D01*
X186065142Y-117305553D01*
X186072583Y-117317969D01*
X186078772Y-117331054D01*
X186083649Y-117344683D01*
X186087166Y-117358724D01*
X186089290Y-117373042D01*
X186090000Y-117387500D01*
X186090000Y-117732500D01*
X186089290Y-117746958D01*
X186087166Y-117761276D01*
X186083649Y-117775317D01*
X186078772Y-117788946D01*
X186072583Y-117802031D01*
X186065142Y-117814447D01*
X186056519Y-117826073D01*
X186046798Y-117836798D01*
X186036073Y-117846519D01*
X186024447Y-117855142D01*
X186012031Y-117862583D01*
X185998946Y-117868772D01*
X185985317Y-117873649D01*
X185971276Y-117877166D01*
X185956958Y-117879290D01*
X185942500Y-117880000D01*
X185647500Y-117880000D01*
X185633042Y-117879290D01*
X185618724Y-117877166D01*
X185604683Y-117873649D01*
X185591054Y-117868772D01*
X185577969Y-117862583D01*
X185565553Y-117855142D01*
X185553927Y-117846519D01*
X185543202Y-117836798D01*
X185533481Y-117826073D01*
X185524858Y-117814447D01*
X185517417Y-117802031D01*
X185511228Y-117788946D01*
X185506351Y-117775317D01*
X185502834Y-117761276D01*
X185500710Y-117746958D01*
X185500000Y-117732500D01*
X185500000Y-117387500D01*
X185500710Y-117373042D01*
X185502834Y-117358724D01*
X185506351Y-117344683D01*
X185511228Y-117331054D01*
X185517417Y-117317969D01*
X185524858Y-117305553D01*
X185533481Y-117293927D01*
X185543202Y-117283202D01*
X185553927Y-117273481D01*
X185565553Y-117264858D01*
X185577969Y-117257417D01*
X185591054Y-117251228D01*
X185604683Y-117246351D01*
X185618724Y-117242834D01*
X185633042Y-117240710D01*
X185647500Y-117240000D01*
X185942500Y-117240000D01*
X185956958Y-117240710D01*
X185956958Y-117240710D01*
G37*
D13*
X185795000Y-117560000D03*
D12*
G36*
X181326958Y-117140710D02*
G01*
X181341276Y-117142834D01*
X181355317Y-117146351D01*
X181368946Y-117151228D01*
X181382031Y-117157417D01*
X181394447Y-117164858D01*
X181406073Y-117173481D01*
X181416798Y-117183202D01*
X181426519Y-117193927D01*
X181435142Y-117205553D01*
X181442583Y-117217969D01*
X181448772Y-117231054D01*
X181453649Y-117244683D01*
X181457166Y-117258724D01*
X181459290Y-117273042D01*
X181460000Y-117287500D01*
X181460000Y-117632500D01*
X181459290Y-117646958D01*
X181457166Y-117661276D01*
X181453649Y-117675317D01*
X181448772Y-117688946D01*
X181442583Y-117702031D01*
X181435142Y-117714447D01*
X181426519Y-117726073D01*
X181416798Y-117736798D01*
X181406073Y-117746519D01*
X181394447Y-117755142D01*
X181382031Y-117762583D01*
X181368946Y-117768772D01*
X181355317Y-117773649D01*
X181341276Y-117777166D01*
X181326958Y-117779290D01*
X181312500Y-117780000D01*
X181017500Y-117780000D01*
X181003042Y-117779290D01*
X180988724Y-117777166D01*
X180974683Y-117773649D01*
X180961054Y-117768772D01*
X180947969Y-117762583D01*
X180935553Y-117755142D01*
X180923927Y-117746519D01*
X180913202Y-117736798D01*
X180903481Y-117726073D01*
X180894858Y-117714447D01*
X180887417Y-117702031D01*
X180881228Y-117688946D01*
X180876351Y-117675317D01*
X180872834Y-117661276D01*
X180870710Y-117646958D01*
X180870000Y-117632500D01*
X180870000Y-117287500D01*
X180870710Y-117273042D01*
X180872834Y-117258724D01*
X180876351Y-117244683D01*
X180881228Y-117231054D01*
X180887417Y-117217969D01*
X180894858Y-117205553D01*
X180903481Y-117193927D01*
X180913202Y-117183202D01*
X180923927Y-117173481D01*
X180935553Y-117164858D01*
X180947969Y-117157417D01*
X180961054Y-117151228D01*
X180974683Y-117146351D01*
X180988724Y-117142834D01*
X181003042Y-117140710D01*
X181017500Y-117140000D01*
X181312500Y-117140000D01*
X181326958Y-117140710D01*
X181326958Y-117140710D01*
G37*
D13*
X181165000Y-117460000D03*
D12*
G36*
X180356958Y-117140710D02*
G01*
X180371276Y-117142834D01*
X180385317Y-117146351D01*
X180398946Y-117151228D01*
X180412031Y-117157417D01*
X180424447Y-117164858D01*
X180436073Y-117173481D01*
X180446798Y-117183202D01*
X180456519Y-117193927D01*
X180465142Y-117205553D01*
X180472583Y-117217969D01*
X180478772Y-117231054D01*
X180483649Y-117244683D01*
X180487166Y-117258724D01*
X180489290Y-117273042D01*
X180490000Y-117287500D01*
X180490000Y-117632500D01*
X180489290Y-117646958D01*
X180487166Y-117661276D01*
X180483649Y-117675317D01*
X180478772Y-117688946D01*
X180472583Y-117702031D01*
X180465142Y-117714447D01*
X180456519Y-117726073D01*
X180446798Y-117736798D01*
X180436073Y-117746519D01*
X180424447Y-117755142D01*
X180412031Y-117762583D01*
X180398946Y-117768772D01*
X180385317Y-117773649D01*
X180371276Y-117777166D01*
X180356958Y-117779290D01*
X180342500Y-117780000D01*
X180047500Y-117780000D01*
X180033042Y-117779290D01*
X180018724Y-117777166D01*
X180004683Y-117773649D01*
X179991054Y-117768772D01*
X179977969Y-117762583D01*
X179965553Y-117755142D01*
X179953927Y-117746519D01*
X179943202Y-117736798D01*
X179933481Y-117726073D01*
X179924858Y-117714447D01*
X179917417Y-117702031D01*
X179911228Y-117688946D01*
X179906351Y-117675317D01*
X179902834Y-117661276D01*
X179900710Y-117646958D01*
X179900000Y-117632500D01*
X179900000Y-117287500D01*
X179900710Y-117273042D01*
X179902834Y-117258724D01*
X179906351Y-117244683D01*
X179911228Y-117231054D01*
X179917417Y-117217969D01*
X179924858Y-117205553D01*
X179933481Y-117193927D01*
X179943202Y-117183202D01*
X179953927Y-117173481D01*
X179965553Y-117164858D01*
X179977969Y-117157417D01*
X179991054Y-117151228D01*
X180004683Y-117146351D01*
X180018724Y-117142834D01*
X180033042Y-117140710D01*
X180047500Y-117140000D01*
X180342500Y-117140000D01*
X180356958Y-117140710D01*
X180356958Y-117140710D01*
G37*
D13*
X180195000Y-117460000D03*
D12*
G36*
X180356958Y-119140710D02*
G01*
X180371276Y-119142834D01*
X180385317Y-119146351D01*
X180398946Y-119151228D01*
X180412031Y-119157417D01*
X180424447Y-119164858D01*
X180436073Y-119173481D01*
X180446798Y-119183202D01*
X180456519Y-119193927D01*
X180465142Y-119205553D01*
X180472583Y-119217969D01*
X180478772Y-119231054D01*
X180483649Y-119244683D01*
X180487166Y-119258724D01*
X180489290Y-119273042D01*
X180490000Y-119287500D01*
X180490000Y-119632500D01*
X180489290Y-119646958D01*
X180487166Y-119661276D01*
X180483649Y-119675317D01*
X180478772Y-119688946D01*
X180472583Y-119702031D01*
X180465142Y-119714447D01*
X180456519Y-119726073D01*
X180446798Y-119736798D01*
X180436073Y-119746519D01*
X180424447Y-119755142D01*
X180412031Y-119762583D01*
X180398946Y-119768772D01*
X180385317Y-119773649D01*
X180371276Y-119777166D01*
X180356958Y-119779290D01*
X180342500Y-119780000D01*
X180047500Y-119780000D01*
X180033042Y-119779290D01*
X180018724Y-119777166D01*
X180004683Y-119773649D01*
X179991054Y-119768772D01*
X179977969Y-119762583D01*
X179965553Y-119755142D01*
X179953927Y-119746519D01*
X179943202Y-119736798D01*
X179933481Y-119726073D01*
X179924858Y-119714447D01*
X179917417Y-119702031D01*
X179911228Y-119688946D01*
X179906351Y-119675317D01*
X179902834Y-119661276D01*
X179900710Y-119646958D01*
X179900000Y-119632500D01*
X179900000Y-119287500D01*
X179900710Y-119273042D01*
X179902834Y-119258724D01*
X179906351Y-119244683D01*
X179911228Y-119231054D01*
X179917417Y-119217969D01*
X179924858Y-119205553D01*
X179933481Y-119193927D01*
X179943202Y-119183202D01*
X179953927Y-119173481D01*
X179965553Y-119164858D01*
X179977969Y-119157417D01*
X179991054Y-119151228D01*
X180004683Y-119146351D01*
X180018724Y-119142834D01*
X180033042Y-119140710D01*
X180047500Y-119140000D01*
X180342500Y-119140000D01*
X180356958Y-119140710D01*
X180356958Y-119140710D01*
G37*
D13*
X180195000Y-119460000D03*
D12*
G36*
X181326958Y-119140710D02*
G01*
X181341276Y-119142834D01*
X181355317Y-119146351D01*
X181368946Y-119151228D01*
X181382031Y-119157417D01*
X181394447Y-119164858D01*
X181406073Y-119173481D01*
X181416798Y-119183202D01*
X181426519Y-119193927D01*
X181435142Y-119205553D01*
X181442583Y-119217969D01*
X181448772Y-119231054D01*
X181453649Y-119244683D01*
X181457166Y-119258724D01*
X181459290Y-119273042D01*
X181460000Y-119287500D01*
X181460000Y-119632500D01*
X181459290Y-119646958D01*
X181457166Y-119661276D01*
X181453649Y-119675317D01*
X181448772Y-119688946D01*
X181442583Y-119702031D01*
X181435142Y-119714447D01*
X181426519Y-119726073D01*
X181416798Y-119736798D01*
X181406073Y-119746519D01*
X181394447Y-119755142D01*
X181382031Y-119762583D01*
X181368946Y-119768772D01*
X181355317Y-119773649D01*
X181341276Y-119777166D01*
X181326958Y-119779290D01*
X181312500Y-119780000D01*
X181017500Y-119780000D01*
X181003042Y-119779290D01*
X180988724Y-119777166D01*
X180974683Y-119773649D01*
X180961054Y-119768772D01*
X180947969Y-119762583D01*
X180935553Y-119755142D01*
X180923927Y-119746519D01*
X180913202Y-119736798D01*
X180903481Y-119726073D01*
X180894858Y-119714447D01*
X180887417Y-119702031D01*
X180881228Y-119688946D01*
X180876351Y-119675317D01*
X180872834Y-119661276D01*
X180870710Y-119646958D01*
X180870000Y-119632500D01*
X180870000Y-119287500D01*
X180870710Y-119273042D01*
X180872834Y-119258724D01*
X180876351Y-119244683D01*
X180881228Y-119231054D01*
X180887417Y-119217969D01*
X180894858Y-119205553D01*
X180903481Y-119193927D01*
X180913202Y-119183202D01*
X180923927Y-119173481D01*
X180935553Y-119164858D01*
X180947969Y-119157417D01*
X180961054Y-119151228D01*
X180974683Y-119146351D01*
X180988724Y-119142834D01*
X181003042Y-119140710D01*
X181017500Y-119140000D01*
X181312500Y-119140000D01*
X181326958Y-119140710D01*
X181326958Y-119140710D01*
G37*
D13*
X181165000Y-119460000D03*
D12*
G36*
X188866958Y-119650710D02*
G01*
X188881276Y-119652834D01*
X188895317Y-119656351D01*
X188908946Y-119661228D01*
X188922031Y-119667417D01*
X188934447Y-119674858D01*
X188946073Y-119683481D01*
X188956798Y-119693202D01*
X188966519Y-119703927D01*
X188975142Y-119715553D01*
X188982583Y-119727969D01*
X188988772Y-119741054D01*
X188993649Y-119754683D01*
X188997166Y-119768724D01*
X188999290Y-119783042D01*
X189000000Y-119797500D01*
X189000000Y-120092500D01*
X188999290Y-120106958D01*
X188997166Y-120121276D01*
X188993649Y-120135317D01*
X188988772Y-120148946D01*
X188982583Y-120162031D01*
X188975142Y-120174447D01*
X188966519Y-120186073D01*
X188956798Y-120196798D01*
X188946073Y-120206519D01*
X188934447Y-120215142D01*
X188922031Y-120222583D01*
X188908946Y-120228772D01*
X188895317Y-120233649D01*
X188881276Y-120237166D01*
X188866958Y-120239290D01*
X188852500Y-120240000D01*
X188507500Y-120240000D01*
X188493042Y-120239290D01*
X188478724Y-120237166D01*
X188464683Y-120233649D01*
X188451054Y-120228772D01*
X188437969Y-120222583D01*
X188425553Y-120215142D01*
X188413927Y-120206519D01*
X188403202Y-120196798D01*
X188393481Y-120186073D01*
X188384858Y-120174447D01*
X188377417Y-120162031D01*
X188371228Y-120148946D01*
X188366351Y-120135317D01*
X188362834Y-120121276D01*
X188360710Y-120106958D01*
X188360000Y-120092500D01*
X188360000Y-119797500D01*
X188360710Y-119783042D01*
X188362834Y-119768724D01*
X188366351Y-119754683D01*
X188371228Y-119741054D01*
X188377417Y-119727969D01*
X188384858Y-119715553D01*
X188393481Y-119703927D01*
X188403202Y-119693202D01*
X188413927Y-119683481D01*
X188425553Y-119674858D01*
X188437969Y-119667417D01*
X188451054Y-119661228D01*
X188464683Y-119656351D01*
X188478724Y-119652834D01*
X188493042Y-119650710D01*
X188507500Y-119650000D01*
X188852500Y-119650000D01*
X188866958Y-119650710D01*
X188866958Y-119650710D01*
G37*
D13*
X188680000Y-119945000D03*
D12*
G36*
X188866958Y-118680710D02*
G01*
X188881276Y-118682834D01*
X188895317Y-118686351D01*
X188908946Y-118691228D01*
X188922031Y-118697417D01*
X188934447Y-118704858D01*
X188946073Y-118713481D01*
X188956798Y-118723202D01*
X188966519Y-118733927D01*
X188975142Y-118745553D01*
X188982583Y-118757969D01*
X188988772Y-118771054D01*
X188993649Y-118784683D01*
X188997166Y-118798724D01*
X188999290Y-118813042D01*
X189000000Y-118827500D01*
X189000000Y-119122500D01*
X188999290Y-119136958D01*
X188997166Y-119151276D01*
X188993649Y-119165317D01*
X188988772Y-119178946D01*
X188982583Y-119192031D01*
X188975142Y-119204447D01*
X188966519Y-119216073D01*
X188956798Y-119226798D01*
X188946073Y-119236519D01*
X188934447Y-119245142D01*
X188922031Y-119252583D01*
X188908946Y-119258772D01*
X188895317Y-119263649D01*
X188881276Y-119267166D01*
X188866958Y-119269290D01*
X188852500Y-119270000D01*
X188507500Y-119270000D01*
X188493042Y-119269290D01*
X188478724Y-119267166D01*
X188464683Y-119263649D01*
X188451054Y-119258772D01*
X188437969Y-119252583D01*
X188425553Y-119245142D01*
X188413927Y-119236519D01*
X188403202Y-119226798D01*
X188393481Y-119216073D01*
X188384858Y-119204447D01*
X188377417Y-119192031D01*
X188371228Y-119178946D01*
X188366351Y-119165317D01*
X188362834Y-119151276D01*
X188360710Y-119136958D01*
X188360000Y-119122500D01*
X188360000Y-118827500D01*
X188360710Y-118813042D01*
X188362834Y-118798724D01*
X188366351Y-118784683D01*
X188371228Y-118771054D01*
X188377417Y-118757969D01*
X188384858Y-118745553D01*
X188393481Y-118733927D01*
X188403202Y-118723202D01*
X188413927Y-118713481D01*
X188425553Y-118704858D01*
X188437969Y-118697417D01*
X188451054Y-118691228D01*
X188464683Y-118686351D01*
X188478724Y-118682834D01*
X188493042Y-118680710D01*
X188507500Y-118680000D01*
X188852500Y-118680000D01*
X188866958Y-118680710D01*
X188866958Y-118680710D01*
G37*
D13*
X188680000Y-118975000D03*
D12*
G36*
X188866958Y-114680710D02*
G01*
X188881276Y-114682834D01*
X188895317Y-114686351D01*
X188908946Y-114691228D01*
X188922031Y-114697417D01*
X188934447Y-114704858D01*
X188946073Y-114713481D01*
X188956798Y-114723202D01*
X188966519Y-114733927D01*
X188975142Y-114745553D01*
X188982583Y-114757969D01*
X188988772Y-114771054D01*
X188993649Y-114784683D01*
X188997166Y-114798724D01*
X188999290Y-114813042D01*
X189000000Y-114827500D01*
X189000000Y-115122500D01*
X188999290Y-115136958D01*
X188997166Y-115151276D01*
X188993649Y-115165317D01*
X188988772Y-115178946D01*
X188982583Y-115192031D01*
X188975142Y-115204447D01*
X188966519Y-115216073D01*
X188956798Y-115226798D01*
X188946073Y-115236519D01*
X188934447Y-115245142D01*
X188922031Y-115252583D01*
X188908946Y-115258772D01*
X188895317Y-115263649D01*
X188881276Y-115267166D01*
X188866958Y-115269290D01*
X188852500Y-115270000D01*
X188507500Y-115270000D01*
X188493042Y-115269290D01*
X188478724Y-115267166D01*
X188464683Y-115263649D01*
X188451054Y-115258772D01*
X188437969Y-115252583D01*
X188425553Y-115245142D01*
X188413927Y-115236519D01*
X188403202Y-115226798D01*
X188393481Y-115216073D01*
X188384858Y-115204447D01*
X188377417Y-115192031D01*
X188371228Y-115178946D01*
X188366351Y-115165317D01*
X188362834Y-115151276D01*
X188360710Y-115136958D01*
X188360000Y-115122500D01*
X188360000Y-114827500D01*
X188360710Y-114813042D01*
X188362834Y-114798724D01*
X188366351Y-114784683D01*
X188371228Y-114771054D01*
X188377417Y-114757969D01*
X188384858Y-114745553D01*
X188393481Y-114733927D01*
X188403202Y-114723202D01*
X188413927Y-114713481D01*
X188425553Y-114704858D01*
X188437969Y-114697417D01*
X188451054Y-114691228D01*
X188464683Y-114686351D01*
X188478724Y-114682834D01*
X188493042Y-114680710D01*
X188507500Y-114680000D01*
X188852500Y-114680000D01*
X188866958Y-114680710D01*
X188866958Y-114680710D01*
G37*
D13*
X188680000Y-114975000D03*
D12*
G36*
X188866958Y-115650710D02*
G01*
X188881276Y-115652834D01*
X188895317Y-115656351D01*
X188908946Y-115661228D01*
X188922031Y-115667417D01*
X188934447Y-115674858D01*
X188946073Y-115683481D01*
X188956798Y-115693202D01*
X188966519Y-115703927D01*
X188975142Y-115715553D01*
X188982583Y-115727969D01*
X188988772Y-115741054D01*
X188993649Y-115754683D01*
X188997166Y-115768724D01*
X188999290Y-115783042D01*
X189000000Y-115797500D01*
X189000000Y-116092500D01*
X188999290Y-116106958D01*
X188997166Y-116121276D01*
X188993649Y-116135317D01*
X188988772Y-116148946D01*
X188982583Y-116162031D01*
X188975142Y-116174447D01*
X188966519Y-116186073D01*
X188956798Y-116196798D01*
X188946073Y-116206519D01*
X188934447Y-116215142D01*
X188922031Y-116222583D01*
X188908946Y-116228772D01*
X188895317Y-116233649D01*
X188881276Y-116237166D01*
X188866958Y-116239290D01*
X188852500Y-116240000D01*
X188507500Y-116240000D01*
X188493042Y-116239290D01*
X188478724Y-116237166D01*
X188464683Y-116233649D01*
X188451054Y-116228772D01*
X188437969Y-116222583D01*
X188425553Y-116215142D01*
X188413927Y-116206519D01*
X188403202Y-116196798D01*
X188393481Y-116186073D01*
X188384858Y-116174447D01*
X188377417Y-116162031D01*
X188371228Y-116148946D01*
X188366351Y-116135317D01*
X188362834Y-116121276D01*
X188360710Y-116106958D01*
X188360000Y-116092500D01*
X188360000Y-115797500D01*
X188360710Y-115783042D01*
X188362834Y-115768724D01*
X188366351Y-115754683D01*
X188371228Y-115741054D01*
X188377417Y-115727969D01*
X188384858Y-115715553D01*
X188393481Y-115703927D01*
X188403202Y-115693202D01*
X188413927Y-115683481D01*
X188425553Y-115674858D01*
X188437969Y-115667417D01*
X188451054Y-115661228D01*
X188464683Y-115656351D01*
X188478724Y-115652834D01*
X188493042Y-115650710D01*
X188507500Y-115650000D01*
X188852500Y-115650000D01*
X188866958Y-115650710D01*
X188866958Y-115650710D01*
G37*
D13*
X188680000Y-115945000D03*
D12*
G36*
X166866958Y-97680710D02*
G01*
X166881276Y-97682834D01*
X166895317Y-97686351D01*
X166908946Y-97691228D01*
X166922031Y-97697417D01*
X166934447Y-97704858D01*
X166946073Y-97713481D01*
X166956798Y-97723202D01*
X166966519Y-97733927D01*
X166975142Y-97745553D01*
X166982583Y-97757969D01*
X166988772Y-97771054D01*
X166993649Y-97784683D01*
X166997166Y-97798724D01*
X166999290Y-97813042D01*
X167000000Y-97827500D01*
X167000000Y-98122500D01*
X166999290Y-98136958D01*
X166997166Y-98151276D01*
X166993649Y-98165317D01*
X166988772Y-98178946D01*
X166982583Y-98192031D01*
X166975142Y-98204447D01*
X166966519Y-98216073D01*
X166956798Y-98226798D01*
X166946073Y-98236519D01*
X166934447Y-98245142D01*
X166922031Y-98252583D01*
X166908946Y-98258772D01*
X166895317Y-98263649D01*
X166881276Y-98267166D01*
X166866958Y-98269290D01*
X166852500Y-98270000D01*
X166507500Y-98270000D01*
X166493042Y-98269290D01*
X166478724Y-98267166D01*
X166464683Y-98263649D01*
X166451054Y-98258772D01*
X166437969Y-98252583D01*
X166425553Y-98245142D01*
X166413927Y-98236519D01*
X166403202Y-98226798D01*
X166393481Y-98216073D01*
X166384858Y-98204447D01*
X166377417Y-98192031D01*
X166371228Y-98178946D01*
X166366351Y-98165317D01*
X166362834Y-98151276D01*
X166360710Y-98136958D01*
X166360000Y-98122500D01*
X166360000Y-97827500D01*
X166360710Y-97813042D01*
X166362834Y-97798724D01*
X166366351Y-97784683D01*
X166371228Y-97771054D01*
X166377417Y-97757969D01*
X166384858Y-97745553D01*
X166393481Y-97733927D01*
X166403202Y-97723202D01*
X166413927Y-97713481D01*
X166425553Y-97704858D01*
X166437969Y-97697417D01*
X166451054Y-97691228D01*
X166464683Y-97686351D01*
X166478724Y-97682834D01*
X166493042Y-97680710D01*
X166507500Y-97680000D01*
X166852500Y-97680000D01*
X166866958Y-97680710D01*
X166866958Y-97680710D01*
G37*
D13*
X166680000Y-97975000D03*
D12*
G36*
X166866958Y-98650710D02*
G01*
X166881276Y-98652834D01*
X166895317Y-98656351D01*
X166908946Y-98661228D01*
X166922031Y-98667417D01*
X166934447Y-98674858D01*
X166946073Y-98683481D01*
X166956798Y-98693202D01*
X166966519Y-98703927D01*
X166975142Y-98715553D01*
X166982583Y-98727969D01*
X166988772Y-98741054D01*
X166993649Y-98754683D01*
X166997166Y-98768724D01*
X166999290Y-98783042D01*
X167000000Y-98797500D01*
X167000000Y-99092500D01*
X166999290Y-99106958D01*
X166997166Y-99121276D01*
X166993649Y-99135317D01*
X166988772Y-99148946D01*
X166982583Y-99162031D01*
X166975142Y-99174447D01*
X166966519Y-99186073D01*
X166956798Y-99196798D01*
X166946073Y-99206519D01*
X166934447Y-99215142D01*
X166922031Y-99222583D01*
X166908946Y-99228772D01*
X166895317Y-99233649D01*
X166881276Y-99237166D01*
X166866958Y-99239290D01*
X166852500Y-99240000D01*
X166507500Y-99240000D01*
X166493042Y-99239290D01*
X166478724Y-99237166D01*
X166464683Y-99233649D01*
X166451054Y-99228772D01*
X166437969Y-99222583D01*
X166425553Y-99215142D01*
X166413927Y-99206519D01*
X166403202Y-99196798D01*
X166393481Y-99186073D01*
X166384858Y-99174447D01*
X166377417Y-99162031D01*
X166371228Y-99148946D01*
X166366351Y-99135317D01*
X166362834Y-99121276D01*
X166360710Y-99106958D01*
X166360000Y-99092500D01*
X166360000Y-98797500D01*
X166360710Y-98783042D01*
X166362834Y-98768724D01*
X166366351Y-98754683D01*
X166371228Y-98741054D01*
X166377417Y-98727969D01*
X166384858Y-98715553D01*
X166393481Y-98703927D01*
X166403202Y-98693202D01*
X166413927Y-98683481D01*
X166425553Y-98674858D01*
X166437969Y-98667417D01*
X166451054Y-98661228D01*
X166464683Y-98656351D01*
X166478724Y-98652834D01*
X166493042Y-98650710D01*
X166507500Y-98650000D01*
X166852500Y-98650000D01*
X166866958Y-98650710D01*
X166866958Y-98650710D01*
G37*
D13*
X166680000Y-98945000D03*
D12*
G36*
X188957691Y-122811053D02*
G01*
X188978926Y-122814203D01*
X188999750Y-122819419D01*
X189019962Y-122826651D01*
X189039368Y-122835830D01*
X189057781Y-122846866D01*
X189075024Y-122859654D01*
X189090930Y-122874070D01*
X189105346Y-122889976D01*
X189118134Y-122907219D01*
X189129170Y-122925632D01*
X189138349Y-122945038D01*
X189145581Y-122965250D01*
X189150797Y-122986074D01*
X189153947Y-123007309D01*
X189155000Y-123028750D01*
X189155000Y-123466250D01*
X189153947Y-123487691D01*
X189150797Y-123508926D01*
X189145581Y-123529750D01*
X189138349Y-123549962D01*
X189129170Y-123569368D01*
X189118134Y-123587781D01*
X189105346Y-123605024D01*
X189090930Y-123620930D01*
X189075024Y-123635346D01*
X189057781Y-123648134D01*
X189039368Y-123659170D01*
X189019962Y-123668349D01*
X188999750Y-123675581D01*
X188978926Y-123680797D01*
X188957691Y-123683947D01*
X188936250Y-123685000D01*
X188423750Y-123685000D01*
X188402309Y-123683947D01*
X188381074Y-123680797D01*
X188360250Y-123675581D01*
X188340038Y-123668349D01*
X188320632Y-123659170D01*
X188302219Y-123648134D01*
X188284976Y-123635346D01*
X188269070Y-123620930D01*
X188254654Y-123605024D01*
X188241866Y-123587781D01*
X188230830Y-123569368D01*
X188221651Y-123549962D01*
X188214419Y-123529750D01*
X188209203Y-123508926D01*
X188206053Y-123487691D01*
X188205000Y-123466250D01*
X188205000Y-123028750D01*
X188206053Y-123007309D01*
X188209203Y-122986074D01*
X188214419Y-122965250D01*
X188221651Y-122945038D01*
X188230830Y-122925632D01*
X188241866Y-122907219D01*
X188254654Y-122889976D01*
X188269070Y-122874070D01*
X188284976Y-122859654D01*
X188302219Y-122846866D01*
X188320632Y-122835830D01*
X188340038Y-122826651D01*
X188360250Y-122819419D01*
X188381074Y-122814203D01*
X188402309Y-122811053D01*
X188423750Y-122810000D01*
X188936250Y-122810000D01*
X188957691Y-122811053D01*
X188957691Y-122811053D01*
G37*
D26*
X188680000Y-123247500D03*
D12*
G36*
X188957691Y-121236053D02*
G01*
X188978926Y-121239203D01*
X188999750Y-121244419D01*
X189019962Y-121251651D01*
X189039368Y-121260830D01*
X189057781Y-121271866D01*
X189075024Y-121284654D01*
X189090930Y-121299070D01*
X189105346Y-121314976D01*
X189118134Y-121332219D01*
X189129170Y-121350632D01*
X189138349Y-121370038D01*
X189145581Y-121390250D01*
X189150797Y-121411074D01*
X189153947Y-121432309D01*
X189155000Y-121453750D01*
X189155000Y-121891250D01*
X189153947Y-121912691D01*
X189150797Y-121933926D01*
X189145581Y-121954750D01*
X189138349Y-121974962D01*
X189129170Y-121994368D01*
X189118134Y-122012781D01*
X189105346Y-122030024D01*
X189090930Y-122045930D01*
X189075024Y-122060346D01*
X189057781Y-122073134D01*
X189039368Y-122084170D01*
X189019962Y-122093349D01*
X188999750Y-122100581D01*
X188978926Y-122105797D01*
X188957691Y-122108947D01*
X188936250Y-122110000D01*
X188423750Y-122110000D01*
X188402309Y-122108947D01*
X188381074Y-122105797D01*
X188360250Y-122100581D01*
X188340038Y-122093349D01*
X188320632Y-122084170D01*
X188302219Y-122073134D01*
X188284976Y-122060346D01*
X188269070Y-122045930D01*
X188254654Y-122030024D01*
X188241866Y-122012781D01*
X188230830Y-121994368D01*
X188221651Y-121974962D01*
X188214419Y-121954750D01*
X188209203Y-121933926D01*
X188206053Y-121912691D01*
X188205000Y-121891250D01*
X188205000Y-121453750D01*
X188206053Y-121432309D01*
X188209203Y-121411074D01*
X188214419Y-121390250D01*
X188221651Y-121370038D01*
X188230830Y-121350632D01*
X188241866Y-121332219D01*
X188254654Y-121314976D01*
X188269070Y-121299070D01*
X188284976Y-121284654D01*
X188302219Y-121271866D01*
X188320632Y-121260830D01*
X188340038Y-121251651D01*
X188360250Y-121244419D01*
X188381074Y-121239203D01*
X188402309Y-121236053D01*
X188423750Y-121235000D01*
X188936250Y-121235000D01*
X188957691Y-121236053D01*
X188957691Y-121236053D01*
G37*
D26*
X188680000Y-121672500D03*
D12*
G36*
X115957691Y-101811053D02*
G01*
X115978926Y-101814203D01*
X115999750Y-101819419D01*
X116019962Y-101826651D01*
X116039368Y-101835830D01*
X116057781Y-101846866D01*
X116075024Y-101859654D01*
X116090930Y-101874070D01*
X116105346Y-101889976D01*
X116118134Y-101907219D01*
X116129170Y-101925632D01*
X116138349Y-101945038D01*
X116145581Y-101965250D01*
X116150797Y-101986074D01*
X116153947Y-102007309D01*
X116155000Y-102028750D01*
X116155000Y-102466250D01*
X116153947Y-102487691D01*
X116150797Y-102508926D01*
X116145581Y-102529750D01*
X116138349Y-102549962D01*
X116129170Y-102569368D01*
X116118134Y-102587781D01*
X116105346Y-102605024D01*
X116090930Y-102620930D01*
X116075024Y-102635346D01*
X116057781Y-102648134D01*
X116039368Y-102659170D01*
X116019962Y-102668349D01*
X115999750Y-102675581D01*
X115978926Y-102680797D01*
X115957691Y-102683947D01*
X115936250Y-102685000D01*
X115423750Y-102685000D01*
X115402309Y-102683947D01*
X115381074Y-102680797D01*
X115360250Y-102675581D01*
X115340038Y-102668349D01*
X115320632Y-102659170D01*
X115302219Y-102648134D01*
X115284976Y-102635346D01*
X115269070Y-102620930D01*
X115254654Y-102605024D01*
X115241866Y-102587781D01*
X115230830Y-102569368D01*
X115221651Y-102549962D01*
X115214419Y-102529750D01*
X115209203Y-102508926D01*
X115206053Y-102487691D01*
X115205000Y-102466250D01*
X115205000Y-102028750D01*
X115206053Y-102007309D01*
X115209203Y-101986074D01*
X115214419Y-101965250D01*
X115221651Y-101945038D01*
X115230830Y-101925632D01*
X115241866Y-101907219D01*
X115254654Y-101889976D01*
X115269070Y-101874070D01*
X115284976Y-101859654D01*
X115302219Y-101846866D01*
X115320632Y-101835830D01*
X115340038Y-101826651D01*
X115360250Y-101819419D01*
X115381074Y-101814203D01*
X115402309Y-101811053D01*
X115423750Y-101810000D01*
X115936250Y-101810000D01*
X115957691Y-101811053D01*
X115957691Y-101811053D01*
G37*
D26*
X115680000Y-102247500D03*
D12*
G36*
X115957691Y-100236053D02*
G01*
X115978926Y-100239203D01*
X115999750Y-100244419D01*
X116019962Y-100251651D01*
X116039368Y-100260830D01*
X116057781Y-100271866D01*
X116075024Y-100284654D01*
X116090930Y-100299070D01*
X116105346Y-100314976D01*
X116118134Y-100332219D01*
X116129170Y-100350632D01*
X116138349Y-100370038D01*
X116145581Y-100390250D01*
X116150797Y-100411074D01*
X116153947Y-100432309D01*
X116155000Y-100453750D01*
X116155000Y-100891250D01*
X116153947Y-100912691D01*
X116150797Y-100933926D01*
X116145581Y-100954750D01*
X116138349Y-100974962D01*
X116129170Y-100994368D01*
X116118134Y-101012781D01*
X116105346Y-101030024D01*
X116090930Y-101045930D01*
X116075024Y-101060346D01*
X116057781Y-101073134D01*
X116039368Y-101084170D01*
X116019962Y-101093349D01*
X115999750Y-101100581D01*
X115978926Y-101105797D01*
X115957691Y-101108947D01*
X115936250Y-101110000D01*
X115423750Y-101110000D01*
X115402309Y-101108947D01*
X115381074Y-101105797D01*
X115360250Y-101100581D01*
X115340038Y-101093349D01*
X115320632Y-101084170D01*
X115302219Y-101073134D01*
X115284976Y-101060346D01*
X115269070Y-101045930D01*
X115254654Y-101030024D01*
X115241866Y-101012781D01*
X115230830Y-100994368D01*
X115221651Y-100974962D01*
X115214419Y-100954750D01*
X115209203Y-100933926D01*
X115206053Y-100912691D01*
X115205000Y-100891250D01*
X115205000Y-100453750D01*
X115206053Y-100432309D01*
X115209203Y-100411074D01*
X115214419Y-100390250D01*
X115221651Y-100370038D01*
X115230830Y-100350632D01*
X115241866Y-100332219D01*
X115254654Y-100314976D01*
X115269070Y-100299070D01*
X115284976Y-100284654D01*
X115302219Y-100271866D01*
X115320632Y-100260830D01*
X115340038Y-100251651D01*
X115360250Y-100244419D01*
X115381074Y-100239203D01*
X115402309Y-100236053D01*
X115423750Y-100235000D01*
X115936250Y-100235000D01*
X115957691Y-100236053D01*
X115957691Y-100236053D01*
G37*
D26*
X115680000Y-100672500D03*
D12*
G36*
X115957691Y-96236053D02*
G01*
X115978926Y-96239203D01*
X115999750Y-96244419D01*
X116019962Y-96251651D01*
X116039368Y-96260830D01*
X116057781Y-96271866D01*
X116075024Y-96284654D01*
X116090930Y-96299070D01*
X116105346Y-96314976D01*
X116118134Y-96332219D01*
X116129170Y-96350632D01*
X116138349Y-96370038D01*
X116145581Y-96390250D01*
X116150797Y-96411074D01*
X116153947Y-96432309D01*
X116155000Y-96453750D01*
X116155000Y-96891250D01*
X116153947Y-96912691D01*
X116150797Y-96933926D01*
X116145581Y-96954750D01*
X116138349Y-96974962D01*
X116129170Y-96994368D01*
X116118134Y-97012781D01*
X116105346Y-97030024D01*
X116090930Y-97045930D01*
X116075024Y-97060346D01*
X116057781Y-97073134D01*
X116039368Y-97084170D01*
X116019962Y-97093349D01*
X115999750Y-97100581D01*
X115978926Y-97105797D01*
X115957691Y-97108947D01*
X115936250Y-97110000D01*
X115423750Y-97110000D01*
X115402309Y-97108947D01*
X115381074Y-97105797D01*
X115360250Y-97100581D01*
X115340038Y-97093349D01*
X115320632Y-97084170D01*
X115302219Y-97073134D01*
X115284976Y-97060346D01*
X115269070Y-97045930D01*
X115254654Y-97030024D01*
X115241866Y-97012781D01*
X115230830Y-96994368D01*
X115221651Y-96974962D01*
X115214419Y-96954750D01*
X115209203Y-96933926D01*
X115206053Y-96912691D01*
X115205000Y-96891250D01*
X115205000Y-96453750D01*
X115206053Y-96432309D01*
X115209203Y-96411074D01*
X115214419Y-96390250D01*
X115221651Y-96370038D01*
X115230830Y-96350632D01*
X115241866Y-96332219D01*
X115254654Y-96314976D01*
X115269070Y-96299070D01*
X115284976Y-96284654D01*
X115302219Y-96271866D01*
X115320632Y-96260830D01*
X115340038Y-96251651D01*
X115360250Y-96244419D01*
X115381074Y-96239203D01*
X115402309Y-96236053D01*
X115423750Y-96235000D01*
X115936250Y-96235000D01*
X115957691Y-96236053D01*
X115957691Y-96236053D01*
G37*
D26*
X115680000Y-96672500D03*
D12*
G36*
X115957691Y-97811053D02*
G01*
X115978926Y-97814203D01*
X115999750Y-97819419D01*
X116019962Y-97826651D01*
X116039368Y-97835830D01*
X116057781Y-97846866D01*
X116075024Y-97859654D01*
X116090930Y-97874070D01*
X116105346Y-97889976D01*
X116118134Y-97907219D01*
X116129170Y-97925632D01*
X116138349Y-97945038D01*
X116145581Y-97965250D01*
X116150797Y-97986074D01*
X116153947Y-98007309D01*
X116155000Y-98028750D01*
X116155000Y-98466250D01*
X116153947Y-98487691D01*
X116150797Y-98508926D01*
X116145581Y-98529750D01*
X116138349Y-98549962D01*
X116129170Y-98569368D01*
X116118134Y-98587781D01*
X116105346Y-98605024D01*
X116090930Y-98620930D01*
X116075024Y-98635346D01*
X116057781Y-98648134D01*
X116039368Y-98659170D01*
X116019962Y-98668349D01*
X115999750Y-98675581D01*
X115978926Y-98680797D01*
X115957691Y-98683947D01*
X115936250Y-98685000D01*
X115423750Y-98685000D01*
X115402309Y-98683947D01*
X115381074Y-98680797D01*
X115360250Y-98675581D01*
X115340038Y-98668349D01*
X115320632Y-98659170D01*
X115302219Y-98648134D01*
X115284976Y-98635346D01*
X115269070Y-98620930D01*
X115254654Y-98605024D01*
X115241866Y-98587781D01*
X115230830Y-98569368D01*
X115221651Y-98549962D01*
X115214419Y-98529750D01*
X115209203Y-98508926D01*
X115206053Y-98487691D01*
X115205000Y-98466250D01*
X115205000Y-98028750D01*
X115206053Y-98007309D01*
X115209203Y-97986074D01*
X115214419Y-97965250D01*
X115221651Y-97945038D01*
X115230830Y-97925632D01*
X115241866Y-97907219D01*
X115254654Y-97889976D01*
X115269070Y-97874070D01*
X115284976Y-97859654D01*
X115302219Y-97846866D01*
X115320632Y-97835830D01*
X115340038Y-97826651D01*
X115360250Y-97819419D01*
X115381074Y-97814203D01*
X115402309Y-97811053D01*
X115423750Y-97810000D01*
X115936250Y-97810000D01*
X115957691Y-97811053D01*
X115957691Y-97811053D01*
G37*
D26*
X115680000Y-98247500D03*
D12*
G36*
X125957691Y-101811053D02*
G01*
X125978926Y-101814203D01*
X125999750Y-101819419D01*
X126019962Y-101826651D01*
X126039368Y-101835830D01*
X126057781Y-101846866D01*
X126075024Y-101859654D01*
X126090930Y-101874070D01*
X126105346Y-101889976D01*
X126118134Y-101907219D01*
X126129170Y-101925632D01*
X126138349Y-101945038D01*
X126145581Y-101965250D01*
X126150797Y-101986074D01*
X126153947Y-102007309D01*
X126155000Y-102028750D01*
X126155000Y-102466250D01*
X126153947Y-102487691D01*
X126150797Y-102508926D01*
X126145581Y-102529750D01*
X126138349Y-102549962D01*
X126129170Y-102569368D01*
X126118134Y-102587781D01*
X126105346Y-102605024D01*
X126090930Y-102620930D01*
X126075024Y-102635346D01*
X126057781Y-102648134D01*
X126039368Y-102659170D01*
X126019962Y-102668349D01*
X125999750Y-102675581D01*
X125978926Y-102680797D01*
X125957691Y-102683947D01*
X125936250Y-102685000D01*
X125423750Y-102685000D01*
X125402309Y-102683947D01*
X125381074Y-102680797D01*
X125360250Y-102675581D01*
X125340038Y-102668349D01*
X125320632Y-102659170D01*
X125302219Y-102648134D01*
X125284976Y-102635346D01*
X125269070Y-102620930D01*
X125254654Y-102605024D01*
X125241866Y-102587781D01*
X125230830Y-102569368D01*
X125221651Y-102549962D01*
X125214419Y-102529750D01*
X125209203Y-102508926D01*
X125206053Y-102487691D01*
X125205000Y-102466250D01*
X125205000Y-102028750D01*
X125206053Y-102007309D01*
X125209203Y-101986074D01*
X125214419Y-101965250D01*
X125221651Y-101945038D01*
X125230830Y-101925632D01*
X125241866Y-101907219D01*
X125254654Y-101889976D01*
X125269070Y-101874070D01*
X125284976Y-101859654D01*
X125302219Y-101846866D01*
X125320632Y-101835830D01*
X125340038Y-101826651D01*
X125360250Y-101819419D01*
X125381074Y-101814203D01*
X125402309Y-101811053D01*
X125423750Y-101810000D01*
X125936250Y-101810000D01*
X125957691Y-101811053D01*
X125957691Y-101811053D01*
G37*
D26*
X125680000Y-102247500D03*
D12*
G36*
X125957691Y-100236053D02*
G01*
X125978926Y-100239203D01*
X125999750Y-100244419D01*
X126019962Y-100251651D01*
X126039368Y-100260830D01*
X126057781Y-100271866D01*
X126075024Y-100284654D01*
X126090930Y-100299070D01*
X126105346Y-100314976D01*
X126118134Y-100332219D01*
X126129170Y-100350632D01*
X126138349Y-100370038D01*
X126145581Y-100390250D01*
X126150797Y-100411074D01*
X126153947Y-100432309D01*
X126155000Y-100453750D01*
X126155000Y-100891250D01*
X126153947Y-100912691D01*
X126150797Y-100933926D01*
X126145581Y-100954750D01*
X126138349Y-100974962D01*
X126129170Y-100994368D01*
X126118134Y-101012781D01*
X126105346Y-101030024D01*
X126090930Y-101045930D01*
X126075024Y-101060346D01*
X126057781Y-101073134D01*
X126039368Y-101084170D01*
X126019962Y-101093349D01*
X125999750Y-101100581D01*
X125978926Y-101105797D01*
X125957691Y-101108947D01*
X125936250Y-101110000D01*
X125423750Y-101110000D01*
X125402309Y-101108947D01*
X125381074Y-101105797D01*
X125360250Y-101100581D01*
X125340038Y-101093349D01*
X125320632Y-101084170D01*
X125302219Y-101073134D01*
X125284976Y-101060346D01*
X125269070Y-101045930D01*
X125254654Y-101030024D01*
X125241866Y-101012781D01*
X125230830Y-100994368D01*
X125221651Y-100974962D01*
X125214419Y-100954750D01*
X125209203Y-100933926D01*
X125206053Y-100912691D01*
X125205000Y-100891250D01*
X125205000Y-100453750D01*
X125206053Y-100432309D01*
X125209203Y-100411074D01*
X125214419Y-100390250D01*
X125221651Y-100370038D01*
X125230830Y-100350632D01*
X125241866Y-100332219D01*
X125254654Y-100314976D01*
X125269070Y-100299070D01*
X125284976Y-100284654D01*
X125302219Y-100271866D01*
X125320632Y-100260830D01*
X125340038Y-100251651D01*
X125360250Y-100244419D01*
X125381074Y-100239203D01*
X125402309Y-100236053D01*
X125423750Y-100235000D01*
X125936250Y-100235000D01*
X125957691Y-100236053D01*
X125957691Y-100236053D01*
G37*
D26*
X125680000Y-100672500D03*
D12*
G36*
X125957691Y-96236053D02*
G01*
X125978926Y-96239203D01*
X125999750Y-96244419D01*
X126019962Y-96251651D01*
X126039368Y-96260830D01*
X126057781Y-96271866D01*
X126075024Y-96284654D01*
X126090930Y-96299070D01*
X126105346Y-96314976D01*
X126118134Y-96332219D01*
X126129170Y-96350632D01*
X126138349Y-96370038D01*
X126145581Y-96390250D01*
X126150797Y-96411074D01*
X126153947Y-96432309D01*
X126155000Y-96453750D01*
X126155000Y-96891250D01*
X126153947Y-96912691D01*
X126150797Y-96933926D01*
X126145581Y-96954750D01*
X126138349Y-96974962D01*
X126129170Y-96994368D01*
X126118134Y-97012781D01*
X126105346Y-97030024D01*
X126090930Y-97045930D01*
X126075024Y-97060346D01*
X126057781Y-97073134D01*
X126039368Y-97084170D01*
X126019962Y-97093349D01*
X125999750Y-97100581D01*
X125978926Y-97105797D01*
X125957691Y-97108947D01*
X125936250Y-97110000D01*
X125423750Y-97110000D01*
X125402309Y-97108947D01*
X125381074Y-97105797D01*
X125360250Y-97100581D01*
X125340038Y-97093349D01*
X125320632Y-97084170D01*
X125302219Y-97073134D01*
X125284976Y-97060346D01*
X125269070Y-97045930D01*
X125254654Y-97030024D01*
X125241866Y-97012781D01*
X125230830Y-96994368D01*
X125221651Y-96974962D01*
X125214419Y-96954750D01*
X125209203Y-96933926D01*
X125206053Y-96912691D01*
X125205000Y-96891250D01*
X125205000Y-96453750D01*
X125206053Y-96432309D01*
X125209203Y-96411074D01*
X125214419Y-96390250D01*
X125221651Y-96370038D01*
X125230830Y-96350632D01*
X125241866Y-96332219D01*
X125254654Y-96314976D01*
X125269070Y-96299070D01*
X125284976Y-96284654D01*
X125302219Y-96271866D01*
X125320632Y-96260830D01*
X125340038Y-96251651D01*
X125360250Y-96244419D01*
X125381074Y-96239203D01*
X125402309Y-96236053D01*
X125423750Y-96235000D01*
X125936250Y-96235000D01*
X125957691Y-96236053D01*
X125957691Y-96236053D01*
G37*
D26*
X125680000Y-96672500D03*
D12*
G36*
X125957691Y-97811053D02*
G01*
X125978926Y-97814203D01*
X125999750Y-97819419D01*
X126019962Y-97826651D01*
X126039368Y-97835830D01*
X126057781Y-97846866D01*
X126075024Y-97859654D01*
X126090930Y-97874070D01*
X126105346Y-97889976D01*
X126118134Y-97907219D01*
X126129170Y-97925632D01*
X126138349Y-97945038D01*
X126145581Y-97965250D01*
X126150797Y-97986074D01*
X126153947Y-98007309D01*
X126155000Y-98028750D01*
X126155000Y-98466250D01*
X126153947Y-98487691D01*
X126150797Y-98508926D01*
X126145581Y-98529750D01*
X126138349Y-98549962D01*
X126129170Y-98569368D01*
X126118134Y-98587781D01*
X126105346Y-98605024D01*
X126090930Y-98620930D01*
X126075024Y-98635346D01*
X126057781Y-98648134D01*
X126039368Y-98659170D01*
X126019962Y-98668349D01*
X125999750Y-98675581D01*
X125978926Y-98680797D01*
X125957691Y-98683947D01*
X125936250Y-98685000D01*
X125423750Y-98685000D01*
X125402309Y-98683947D01*
X125381074Y-98680797D01*
X125360250Y-98675581D01*
X125340038Y-98668349D01*
X125320632Y-98659170D01*
X125302219Y-98648134D01*
X125284976Y-98635346D01*
X125269070Y-98620930D01*
X125254654Y-98605024D01*
X125241866Y-98587781D01*
X125230830Y-98569368D01*
X125221651Y-98549962D01*
X125214419Y-98529750D01*
X125209203Y-98508926D01*
X125206053Y-98487691D01*
X125205000Y-98466250D01*
X125205000Y-98028750D01*
X125206053Y-98007309D01*
X125209203Y-97986074D01*
X125214419Y-97965250D01*
X125221651Y-97945038D01*
X125230830Y-97925632D01*
X125241866Y-97907219D01*
X125254654Y-97889976D01*
X125269070Y-97874070D01*
X125284976Y-97859654D01*
X125302219Y-97846866D01*
X125320632Y-97835830D01*
X125340038Y-97826651D01*
X125360250Y-97819419D01*
X125381074Y-97814203D01*
X125402309Y-97811053D01*
X125423750Y-97810000D01*
X125936250Y-97810000D01*
X125957691Y-97811053D01*
X125957691Y-97811053D01*
G37*
D26*
X125680000Y-98247500D03*
D12*
G36*
X118866958Y-114165710D02*
G01*
X118881276Y-114167834D01*
X118895317Y-114171351D01*
X118908946Y-114176228D01*
X118922031Y-114182417D01*
X118934447Y-114189858D01*
X118946073Y-114198481D01*
X118956798Y-114208202D01*
X118966519Y-114218927D01*
X118975142Y-114230553D01*
X118982583Y-114242969D01*
X118988772Y-114256054D01*
X118993649Y-114269683D01*
X118997166Y-114283724D01*
X118999290Y-114298042D01*
X119000000Y-114312500D01*
X119000000Y-114607500D01*
X118999290Y-114621958D01*
X118997166Y-114636276D01*
X118993649Y-114650317D01*
X118988772Y-114663946D01*
X118982583Y-114677031D01*
X118975142Y-114689447D01*
X118966519Y-114701073D01*
X118956798Y-114711798D01*
X118946073Y-114721519D01*
X118934447Y-114730142D01*
X118922031Y-114737583D01*
X118908946Y-114743772D01*
X118895317Y-114748649D01*
X118881276Y-114752166D01*
X118866958Y-114754290D01*
X118852500Y-114755000D01*
X118507500Y-114755000D01*
X118493042Y-114754290D01*
X118478724Y-114752166D01*
X118464683Y-114748649D01*
X118451054Y-114743772D01*
X118437969Y-114737583D01*
X118425553Y-114730142D01*
X118413927Y-114721519D01*
X118403202Y-114711798D01*
X118393481Y-114701073D01*
X118384858Y-114689447D01*
X118377417Y-114677031D01*
X118371228Y-114663946D01*
X118366351Y-114650317D01*
X118362834Y-114636276D01*
X118360710Y-114621958D01*
X118360000Y-114607500D01*
X118360000Y-114312500D01*
X118360710Y-114298042D01*
X118362834Y-114283724D01*
X118366351Y-114269683D01*
X118371228Y-114256054D01*
X118377417Y-114242969D01*
X118384858Y-114230553D01*
X118393481Y-114218927D01*
X118403202Y-114208202D01*
X118413927Y-114198481D01*
X118425553Y-114189858D01*
X118437969Y-114182417D01*
X118451054Y-114176228D01*
X118464683Y-114171351D01*
X118478724Y-114167834D01*
X118493042Y-114165710D01*
X118507500Y-114165000D01*
X118852500Y-114165000D01*
X118866958Y-114165710D01*
X118866958Y-114165710D01*
G37*
D13*
X118680000Y-114460000D03*
D12*
G36*
X118866958Y-115135710D02*
G01*
X118881276Y-115137834D01*
X118895317Y-115141351D01*
X118908946Y-115146228D01*
X118922031Y-115152417D01*
X118934447Y-115159858D01*
X118946073Y-115168481D01*
X118956798Y-115178202D01*
X118966519Y-115188927D01*
X118975142Y-115200553D01*
X118982583Y-115212969D01*
X118988772Y-115226054D01*
X118993649Y-115239683D01*
X118997166Y-115253724D01*
X118999290Y-115268042D01*
X119000000Y-115282500D01*
X119000000Y-115577500D01*
X118999290Y-115591958D01*
X118997166Y-115606276D01*
X118993649Y-115620317D01*
X118988772Y-115633946D01*
X118982583Y-115647031D01*
X118975142Y-115659447D01*
X118966519Y-115671073D01*
X118956798Y-115681798D01*
X118946073Y-115691519D01*
X118934447Y-115700142D01*
X118922031Y-115707583D01*
X118908946Y-115713772D01*
X118895317Y-115718649D01*
X118881276Y-115722166D01*
X118866958Y-115724290D01*
X118852500Y-115725000D01*
X118507500Y-115725000D01*
X118493042Y-115724290D01*
X118478724Y-115722166D01*
X118464683Y-115718649D01*
X118451054Y-115713772D01*
X118437969Y-115707583D01*
X118425553Y-115700142D01*
X118413927Y-115691519D01*
X118403202Y-115681798D01*
X118393481Y-115671073D01*
X118384858Y-115659447D01*
X118377417Y-115647031D01*
X118371228Y-115633946D01*
X118366351Y-115620317D01*
X118362834Y-115606276D01*
X118360710Y-115591958D01*
X118360000Y-115577500D01*
X118360000Y-115282500D01*
X118360710Y-115268042D01*
X118362834Y-115253724D01*
X118366351Y-115239683D01*
X118371228Y-115226054D01*
X118377417Y-115212969D01*
X118384858Y-115200553D01*
X118393481Y-115188927D01*
X118403202Y-115178202D01*
X118413927Y-115168481D01*
X118425553Y-115159858D01*
X118437969Y-115152417D01*
X118451054Y-115146228D01*
X118464683Y-115141351D01*
X118478724Y-115137834D01*
X118493042Y-115135710D01*
X118507500Y-115135000D01*
X118852500Y-115135000D01*
X118866958Y-115135710D01*
X118866958Y-115135710D01*
G37*
D13*
X118680000Y-115430000D03*
D12*
G36*
X184626958Y-117240710D02*
G01*
X184641276Y-117242834D01*
X184655317Y-117246351D01*
X184668946Y-117251228D01*
X184682031Y-117257417D01*
X184694447Y-117264858D01*
X184706073Y-117273481D01*
X184716798Y-117283202D01*
X184726519Y-117293927D01*
X184735142Y-117305553D01*
X184742583Y-117317969D01*
X184748772Y-117331054D01*
X184753649Y-117344683D01*
X184757166Y-117358724D01*
X184759290Y-117373042D01*
X184760000Y-117387500D01*
X184760000Y-117732500D01*
X184759290Y-117746958D01*
X184757166Y-117761276D01*
X184753649Y-117775317D01*
X184748772Y-117788946D01*
X184742583Y-117802031D01*
X184735142Y-117814447D01*
X184726519Y-117826073D01*
X184716798Y-117836798D01*
X184706073Y-117846519D01*
X184694447Y-117855142D01*
X184682031Y-117862583D01*
X184668946Y-117868772D01*
X184655317Y-117873649D01*
X184641276Y-117877166D01*
X184626958Y-117879290D01*
X184612500Y-117880000D01*
X184317500Y-117880000D01*
X184303042Y-117879290D01*
X184288724Y-117877166D01*
X184274683Y-117873649D01*
X184261054Y-117868772D01*
X184247969Y-117862583D01*
X184235553Y-117855142D01*
X184223927Y-117846519D01*
X184213202Y-117836798D01*
X184203481Y-117826073D01*
X184194858Y-117814447D01*
X184187417Y-117802031D01*
X184181228Y-117788946D01*
X184176351Y-117775317D01*
X184172834Y-117761276D01*
X184170710Y-117746958D01*
X184170000Y-117732500D01*
X184170000Y-117387500D01*
X184170710Y-117373042D01*
X184172834Y-117358724D01*
X184176351Y-117344683D01*
X184181228Y-117331054D01*
X184187417Y-117317969D01*
X184194858Y-117305553D01*
X184203481Y-117293927D01*
X184213202Y-117283202D01*
X184223927Y-117273481D01*
X184235553Y-117264858D01*
X184247969Y-117257417D01*
X184261054Y-117251228D01*
X184274683Y-117246351D01*
X184288724Y-117242834D01*
X184303042Y-117240710D01*
X184317500Y-117240000D01*
X184612500Y-117240000D01*
X184626958Y-117240710D01*
X184626958Y-117240710D01*
G37*
D13*
X184465000Y-117560000D03*
D12*
G36*
X183656958Y-117240710D02*
G01*
X183671276Y-117242834D01*
X183685317Y-117246351D01*
X183698946Y-117251228D01*
X183712031Y-117257417D01*
X183724447Y-117264858D01*
X183736073Y-117273481D01*
X183746798Y-117283202D01*
X183756519Y-117293927D01*
X183765142Y-117305553D01*
X183772583Y-117317969D01*
X183778772Y-117331054D01*
X183783649Y-117344683D01*
X183787166Y-117358724D01*
X183789290Y-117373042D01*
X183790000Y-117387500D01*
X183790000Y-117732500D01*
X183789290Y-117746958D01*
X183787166Y-117761276D01*
X183783649Y-117775317D01*
X183778772Y-117788946D01*
X183772583Y-117802031D01*
X183765142Y-117814447D01*
X183756519Y-117826073D01*
X183746798Y-117836798D01*
X183736073Y-117846519D01*
X183724447Y-117855142D01*
X183712031Y-117862583D01*
X183698946Y-117868772D01*
X183685317Y-117873649D01*
X183671276Y-117877166D01*
X183656958Y-117879290D01*
X183642500Y-117880000D01*
X183347500Y-117880000D01*
X183333042Y-117879290D01*
X183318724Y-117877166D01*
X183304683Y-117873649D01*
X183291054Y-117868772D01*
X183277969Y-117862583D01*
X183265553Y-117855142D01*
X183253927Y-117846519D01*
X183243202Y-117836798D01*
X183233481Y-117826073D01*
X183224858Y-117814447D01*
X183217417Y-117802031D01*
X183211228Y-117788946D01*
X183206351Y-117775317D01*
X183202834Y-117761276D01*
X183200710Y-117746958D01*
X183200000Y-117732500D01*
X183200000Y-117387500D01*
X183200710Y-117373042D01*
X183202834Y-117358724D01*
X183206351Y-117344683D01*
X183211228Y-117331054D01*
X183217417Y-117317969D01*
X183224858Y-117305553D01*
X183233481Y-117293927D01*
X183243202Y-117283202D01*
X183253927Y-117273481D01*
X183265553Y-117264858D01*
X183277969Y-117257417D01*
X183291054Y-117251228D01*
X183304683Y-117246351D01*
X183318724Y-117242834D01*
X183333042Y-117240710D01*
X183347500Y-117240000D01*
X183642500Y-117240000D01*
X183656958Y-117240710D01*
X183656958Y-117240710D01*
G37*
D13*
X183495000Y-117560000D03*
D12*
G36*
X166866958Y-95680710D02*
G01*
X166881276Y-95682834D01*
X166895317Y-95686351D01*
X166908946Y-95691228D01*
X166922031Y-95697417D01*
X166934447Y-95704858D01*
X166946073Y-95713481D01*
X166956798Y-95723202D01*
X166966519Y-95733927D01*
X166975142Y-95745553D01*
X166982583Y-95757969D01*
X166988772Y-95771054D01*
X166993649Y-95784683D01*
X166997166Y-95798724D01*
X166999290Y-95813042D01*
X167000000Y-95827500D01*
X167000000Y-96122500D01*
X166999290Y-96136958D01*
X166997166Y-96151276D01*
X166993649Y-96165317D01*
X166988772Y-96178946D01*
X166982583Y-96192031D01*
X166975142Y-96204447D01*
X166966519Y-96216073D01*
X166956798Y-96226798D01*
X166946073Y-96236519D01*
X166934447Y-96245142D01*
X166922031Y-96252583D01*
X166908946Y-96258772D01*
X166895317Y-96263649D01*
X166881276Y-96267166D01*
X166866958Y-96269290D01*
X166852500Y-96270000D01*
X166507500Y-96270000D01*
X166493042Y-96269290D01*
X166478724Y-96267166D01*
X166464683Y-96263649D01*
X166451054Y-96258772D01*
X166437969Y-96252583D01*
X166425553Y-96245142D01*
X166413927Y-96236519D01*
X166403202Y-96226798D01*
X166393481Y-96216073D01*
X166384858Y-96204447D01*
X166377417Y-96192031D01*
X166371228Y-96178946D01*
X166366351Y-96165317D01*
X166362834Y-96151276D01*
X166360710Y-96136958D01*
X166360000Y-96122500D01*
X166360000Y-95827500D01*
X166360710Y-95813042D01*
X166362834Y-95798724D01*
X166366351Y-95784683D01*
X166371228Y-95771054D01*
X166377417Y-95757969D01*
X166384858Y-95745553D01*
X166393481Y-95733927D01*
X166403202Y-95723202D01*
X166413927Y-95713481D01*
X166425553Y-95704858D01*
X166437969Y-95697417D01*
X166451054Y-95691228D01*
X166464683Y-95686351D01*
X166478724Y-95682834D01*
X166493042Y-95680710D01*
X166507500Y-95680000D01*
X166852500Y-95680000D01*
X166866958Y-95680710D01*
X166866958Y-95680710D01*
G37*
D13*
X166680000Y-95975000D03*
D12*
G36*
X166866958Y-96650710D02*
G01*
X166881276Y-96652834D01*
X166895317Y-96656351D01*
X166908946Y-96661228D01*
X166922031Y-96667417D01*
X166934447Y-96674858D01*
X166946073Y-96683481D01*
X166956798Y-96693202D01*
X166966519Y-96703927D01*
X166975142Y-96715553D01*
X166982583Y-96727969D01*
X166988772Y-96741054D01*
X166993649Y-96754683D01*
X166997166Y-96768724D01*
X166999290Y-96783042D01*
X167000000Y-96797500D01*
X167000000Y-97092500D01*
X166999290Y-97106958D01*
X166997166Y-97121276D01*
X166993649Y-97135317D01*
X166988772Y-97148946D01*
X166982583Y-97162031D01*
X166975142Y-97174447D01*
X166966519Y-97186073D01*
X166956798Y-97196798D01*
X166946073Y-97206519D01*
X166934447Y-97215142D01*
X166922031Y-97222583D01*
X166908946Y-97228772D01*
X166895317Y-97233649D01*
X166881276Y-97237166D01*
X166866958Y-97239290D01*
X166852500Y-97240000D01*
X166507500Y-97240000D01*
X166493042Y-97239290D01*
X166478724Y-97237166D01*
X166464683Y-97233649D01*
X166451054Y-97228772D01*
X166437969Y-97222583D01*
X166425553Y-97215142D01*
X166413927Y-97206519D01*
X166403202Y-97196798D01*
X166393481Y-97186073D01*
X166384858Y-97174447D01*
X166377417Y-97162031D01*
X166371228Y-97148946D01*
X166366351Y-97135317D01*
X166362834Y-97121276D01*
X166360710Y-97106958D01*
X166360000Y-97092500D01*
X166360000Y-96797500D01*
X166360710Y-96783042D01*
X166362834Y-96768724D01*
X166366351Y-96754683D01*
X166371228Y-96741054D01*
X166377417Y-96727969D01*
X166384858Y-96715553D01*
X166393481Y-96703927D01*
X166403202Y-96693202D01*
X166413927Y-96683481D01*
X166425553Y-96674858D01*
X166437969Y-96667417D01*
X166451054Y-96661228D01*
X166464683Y-96656351D01*
X166478724Y-96652834D01*
X166493042Y-96650710D01*
X166507500Y-96650000D01*
X166852500Y-96650000D01*
X166866958Y-96650710D01*
X166866958Y-96650710D01*
G37*
D13*
X166680000Y-96945000D03*
M02*
