M48
; DRILL file {KiCad (5.1.0)-1} date 2019-07-24 4:13:01
; FORMAT={-:-/ absolute / inch / decimal}
; #@! TF.CreationDate,2019-07-24T04:13:01+08:00
; #@! TF.GenerationSoftware,Kicad,Pcbnew,(5.1.0)-1
; #@! TF.FileFunction,Plated,1,2,PTH
FMAT,2
INCH
T1C0.0157
T2C0.0394
T3C0.0591
T4C0.3150
T5C0.6299
%
G90
G05
T1
X4.3181Y-3.1677
X4.3181Y-3.3646
X4.3181Y-4.4276
X4.3181Y-4.6244
X4.3575Y-2.7346
X4.4165Y-3.9945
X4.5071Y-4.7268
X4.515Y-2.7346
X4.5543Y-4.1126
X4.5543Y-4.585
X4.5937Y-4.3488
X4.6331Y-4.3094
X4.6685Y-4.1323
X4.7118Y-4.4472
X4.7118Y-4.4472
X4.7906Y-4.5457
X4.8299Y-4.4984
X4.889Y-3.6362
X4.9087Y-4.1126
X4.9165Y-4.3528
X5.011Y-3.9906
X5.0346Y-4.526
X5.1016Y-4.7819
X5.3024Y-4.7819
X5.3417Y-2.7346
X5.3417Y-3.1677
X5.3417Y-3.3646
X5.3811Y-4.7819
X5.5386Y-2.7346
X5.6173Y-4.6638
X5.6173Y-4.7819
X5.8142Y-4.3488
X5.9717Y-4.3488
X6.1685Y-4.7031
X6.2079Y-2.7346
X6.2472Y-4.7031
X6.3102Y-4.7858
X6.326Y-4.8252
X6.3299Y-4.7386
X6.3417Y-4.3409
X6.3811Y-4.7268
X6.4047Y-2.7346
X6.4047Y-3.4039
X6.4047Y-3.5614
X6.4047Y-3.7189
X6.4047Y-3.8764
X6.4244Y-4.3173
X6.4283Y-4.3843
X6.4362Y-4.7307
X6.448Y-4.4433
X6.5543Y-4.648
X6.5622Y-3.4039
X6.6291Y-4.1638
X6.6409Y-4.0457
X6.6409Y-4.6835
X6.653Y-4.4283
X6.6803Y-4.7661
X6.7197Y-3.4039
X6.7945Y-4.8213
X6.7984Y-4.7425
X6.8024Y-3.9906
X6.8102Y-3.7661
X6.8339Y-3.9394
X6.8732Y-4.7583
X6.8772Y-4.6638
X6.9559Y-2.7346
X6.9559Y-4.2701
X6.9559Y-4.3488
X7.0346Y-4.2701
X7.0346Y-4.3488
X7.0661Y-3.8803
X7.0819Y-4.7701
X7.093Y-4.671
X7.1134Y-2.7346
X7.1134Y-4.2701
X7.1134Y-4.3488
X7.1488Y-3.8724
X7.2236Y-4.0693
X7.2472Y-3.1677
X7.2472Y-4.6638
X7.2591Y-3.8685
X7.2591Y-4.589
X7.263Y-4.1913
X7.3142Y-4.0693
X7.322Y-4.5654
X7.3317Y-3.4219
X7.3339Y-3.2504
X7.3378Y-3.8449
X7.3535Y-4.1008
X7.3535Y-4.1441
X7.389Y-4.6638
X7.4244Y-4.6165
X7.4756Y-3.7701
X7.4795Y-4.8252
X7.4835Y-3.4039
X7.4835Y-4.4906
X7.4874Y-4.648
X7.4982Y-3.8646
X7.4982Y-3.9709
X7.5139Y-3.2789
X7.5386Y-4.3252
X7.5465Y-3.1677
T2
X4.6724Y-2.9906
X4.6724Y-3.5614
X4.7709Y-3.5614
X4.8693Y-2.9906
X4.8693Y-3.5614
X5.7748Y-4.7213
X5.7748Y-4.8213
X5.8748Y-4.7213
X5.8748Y-4.8213
X5.9748Y-4.7213
X5.9748Y-4.8213
T4
X7.3693Y-2.9787
X6.7394Y-2.9787
X5.8929Y-2.9787
T5
X5.8929Y-3.774
T3
G00X4.5504Y-3.2917
M15
G01X4.5504Y-3.2406
M16
G05
G00X4.9913Y-3.2917
M15
G01X4.9913Y-3.2406
M16
G05
T0
M30
