G04 #@! TF.GenerationSoftware,KiCad,Pcbnew,5.1.2+dfsg1-1*
G04 #@! TF.CreationDate,2019-07-24T11:20:43+08:00*
G04 #@! TF.ProjectId,Power_Source,506f7765-725f-4536-9f75-7263652e6b69,rev?*
G04 #@! TF.SameCoordinates,Original*
G04 #@! TF.FileFunction,Soldermask,Top*
G04 #@! TF.FilePolarity,Negative*
%FSLAX46Y46*%
G04 Gerber Fmt 4.6, Leading zero omitted, Abs format (unit mm)*
G04 Created by KiCad (PCBNEW 5.1.2+dfsg1-1) date 2019-07-24 11:20:43*
%MOMM*%
%LPD*%
G04 APERTURE LIST*
%ADD10C,0.100000*%
G04 APERTURE END LIST*
D10*
G36*
X148079800Y-79876400D02*
G01*
X148079800Y-81705200D01*
X151254800Y-81705200D01*
X151254800Y-79876400D01*
X150924600Y-79876400D01*
X148079800Y-79876400D01*
G37*
X148079800Y-79876400D02*
X148079800Y-81705200D01*
X151254800Y-81705200D01*
X151254800Y-79876400D01*
X150924600Y-79876400D01*
X148079800Y-79876400D01*
G36*
X182963600Y-74059800D02*
G01*
X181134800Y-74059800D01*
X181134800Y-77234800D01*
X182963600Y-77234800D01*
X182963600Y-76904600D01*
X182963600Y-74059800D01*
G37*
X182963600Y-74059800D02*
X181134800Y-74059800D01*
X181134800Y-77234800D01*
X182963600Y-77234800D01*
X182963600Y-76904600D01*
X182963600Y-74059800D01*
G36*
X166963600Y-74059800D02*
G01*
X165134800Y-74059800D01*
X165134800Y-77234800D01*
X166963600Y-77234800D01*
X166963600Y-76904600D01*
X166963600Y-74059800D01*
G37*
X166963600Y-74059800D02*
X165134800Y-74059800D01*
X165134800Y-77234800D01*
X166963600Y-77234800D01*
X166963600Y-76904600D01*
X166963600Y-74059800D01*
G36*
X189059591Y-122763085D02*
G01*
X189093569Y-122773393D01*
X189124890Y-122790134D01*
X189152339Y-122812661D01*
X189174866Y-122840110D01*
X189191607Y-122871431D01*
X189201915Y-122905409D01*
X189206000Y-122946890D01*
X189206000Y-123548110D01*
X189201915Y-123589591D01*
X189191607Y-123623569D01*
X189174866Y-123654890D01*
X189152339Y-123682339D01*
X189124890Y-123704866D01*
X189093569Y-123721607D01*
X189059591Y-123731915D01*
X189018110Y-123736000D01*
X188341890Y-123736000D01*
X188300409Y-123731915D01*
X188266431Y-123721607D01*
X188235110Y-123704866D01*
X188207661Y-123682339D01*
X188185134Y-123654890D01*
X188168393Y-123623569D01*
X188158085Y-123589591D01*
X188154000Y-123548110D01*
X188154000Y-122946890D01*
X188158085Y-122905409D01*
X188168393Y-122871431D01*
X188185134Y-122840110D01*
X188207661Y-122812661D01*
X188235110Y-122790134D01*
X188266431Y-122773393D01*
X188300409Y-122763085D01*
X188341890Y-122759000D01*
X189018110Y-122759000D01*
X189059591Y-122763085D01*
X189059591Y-122763085D01*
G37*
G36*
X151870442Y-121565518D02*
G01*
X151936627Y-121572037D01*
X152106466Y-121623557D01*
X152106468Y-121623558D01*
X152184729Y-121665390D01*
X152262991Y-121707222D01*
X152273248Y-121715640D01*
X152400186Y-121819814D01*
X152479738Y-121916750D01*
X152512778Y-121957009D01*
X152596443Y-122113534D01*
X152647963Y-122283373D01*
X152665359Y-122460000D01*
X152647963Y-122636627D01*
X152596443Y-122806466D01*
X152512778Y-122962991D01*
X152491230Y-122989247D01*
X152400186Y-123100186D01*
X152298729Y-123183448D01*
X152262991Y-123212778D01*
X152106466Y-123296443D01*
X151936627Y-123347963D01*
X151870443Y-123354481D01*
X151804260Y-123361000D01*
X151715740Y-123361000D01*
X151649557Y-123354481D01*
X151583373Y-123347963D01*
X151413534Y-123296443D01*
X151257009Y-123212778D01*
X151221271Y-123183448D01*
X151119814Y-123100186D01*
X151028770Y-122989247D01*
X151007222Y-122962991D01*
X150923557Y-122806466D01*
X150872037Y-122636627D01*
X150854641Y-122460000D01*
X150872037Y-122283373D01*
X150923557Y-122113534D01*
X151007222Y-121957009D01*
X151040262Y-121916750D01*
X151119814Y-121819814D01*
X151246752Y-121715640D01*
X151257009Y-121707222D01*
X151335271Y-121665390D01*
X151413532Y-121623558D01*
X151413534Y-121623557D01*
X151583373Y-121572037D01*
X151649558Y-121565518D01*
X151715740Y-121559000D01*
X151804260Y-121559000D01*
X151870442Y-121565518D01*
X151870442Y-121565518D01*
G37*
G36*
X147581000Y-123361000D02*
G01*
X145779000Y-123361000D01*
X145779000Y-121559000D01*
X147581000Y-121559000D01*
X147581000Y-123361000D01*
X147581000Y-123361000D01*
G37*
G36*
X149330442Y-121565518D02*
G01*
X149396627Y-121572037D01*
X149566466Y-121623557D01*
X149566468Y-121623558D01*
X149644729Y-121665390D01*
X149722991Y-121707222D01*
X149733248Y-121715640D01*
X149860186Y-121819814D01*
X149939738Y-121916750D01*
X149972778Y-121957009D01*
X150056443Y-122113534D01*
X150107963Y-122283373D01*
X150125359Y-122460000D01*
X150107963Y-122636627D01*
X150056443Y-122806466D01*
X149972778Y-122962991D01*
X149951230Y-122989247D01*
X149860186Y-123100186D01*
X149758729Y-123183448D01*
X149722991Y-123212778D01*
X149566466Y-123296443D01*
X149396627Y-123347963D01*
X149330443Y-123354481D01*
X149264260Y-123361000D01*
X149175740Y-123361000D01*
X149109557Y-123354481D01*
X149043373Y-123347963D01*
X148873534Y-123296443D01*
X148717009Y-123212778D01*
X148681271Y-123183448D01*
X148579814Y-123100186D01*
X148488770Y-122989247D01*
X148467222Y-122962991D01*
X148383557Y-122806466D01*
X148332037Y-122636627D01*
X148314641Y-122460000D01*
X148332037Y-122283373D01*
X148383557Y-122113534D01*
X148467222Y-121957009D01*
X148500262Y-121916750D01*
X148579814Y-121819814D01*
X148706752Y-121715640D01*
X148717009Y-121707222D01*
X148795271Y-121665390D01*
X148873532Y-121623558D01*
X148873534Y-121623557D01*
X149043373Y-121572037D01*
X149109558Y-121565518D01*
X149175740Y-121559000D01*
X149264260Y-121559000D01*
X149330442Y-121565518D01*
X149330442Y-121565518D01*
G37*
G36*
X132334434Y-120413686D02*
G01*
X132374284Y-120425774D01*
X132410999Y-120445399D01*
X132443186Y-120471814D01*
X132469601Y-120504001D01*
X132489226Y-120540716D01*
X132501314Y-120580566D01*
X132506000Y-120628141D01*
X132506000Y-122991859D01*
X132501314Y-123039434D01*
X132489226Y-123079284D01*
X132469601Y-123115999D01*
X132443186Y-123148186D01*
X132410999Y-123174601D01*
X132374284Y-123194226D01*
X132334434Y-123206314D01*
X132286859Y-123211000D01*
X131623141Y-123211000D01*
X131575566Y-123206314D01*
X131535716Y-123194226D01*
X131499001Y-123174601D01*
X131466814Y-123148186D01*
X131440399Y-123115999D01*
X131420774Y-123079284D01*
X131408686Y-123039434D01*
X131404000Y-122991859D01*
X131404000Y-120628141D01*
X131408686Y-120580566D01*
X131420774Y-120540716D01*
X131440399Y-120504001D01*
X131466814Y-120471814D01*
X131499001Y-120445399D01*
X131535716Y-120425774D01*
X131575566Y-120413686D01*
X131623141Y-120409000D01*
X132286859Y-120409000D01*
X132334434Y-120413686D01*
X132334434Y-120413686D01*
G37*
G36*
X139784434Y-120413686D02*
G01*
X139824284Y-120425774D01*
X139860999Y-120445399D01*
X139893186Y-120471814D01*
X139919601Y-120504001D01*
X139939226Y-120540716D01*
X139951314Y-120580566D01*
X139956000Y-120628141D01*
X139956000Y-122991859D01*
X139951314Y-123039434D01*
X139939226Y-123079284D01*
X139919601Y-123115999D01*
X139893186Y-123148186D01*
X139860999Y-123174601D01*
X139824284Y-123194226D01*
X139784434Y-123206314D01*
X139736859Y-123211000D01*
X139073141Y-123211000D01*
X139025566Y-123206314D01*
X138985716Y-123194226D01*
X138949001Y-123174601D01*
X138916814Y-123148186D01*
X138890399Y-123115999D01*
X138870774Y-123079284D01*
X138858686Y-123039434D01*
X138854000Y-122991859D01*
X138854000Y-120628141D01*
X138858686Y-120580566D01*
X138870774Y-120540716D01*
X138890399Y-120504001D01*
X138916814Y-120471814D01*
X138949001Y-120445399D01*
X138985716Y-120425774D01*
X139025566Y-120413686D01*
X139073141Y-120409000D01*
X139736859Y-120409000D01*
X139784434Y-120413686D01*
X139784434Y-120413686D01*
G37*
G36*
X159334434Y-120413686D02*
G01*
X159374284Y-120425774D01*
X159410999Y-120445399D01*
X159443186Y-120471814D01*
X159469601Y-120504001D01*
X159489226Y-120540716D01*
X159501314Y-120580566D01*
X159506000Y-120628141D01*
X159506000Y-122991859D01*
X159501314Y-123039434D01*
X159489226Y-123079284D01*
X159469601Y-123115999D01*
X159443186Y-123148186D01*
X159410999Y-123174601D01*
X159374284Y-123194226D01*
X159334434Y-123206314D01*
X159286859Y-123211000D01*
X158623141Y-123211000D01*
X158575566Y-123206314D01*
X158535716Y-123194226D01*
X158499001Y-123174601D01*
X158466814Y-123148186D01*
X158440399Y-123115999D01*
X158420774Y-123079284D01*
X158408686Y-123039434D01*
X158404000Y-122991859D01*
X158404000Y-120628141D01*
X158408686Y-120580566D01*
X158420774Y-120540716D01*
X158440399Y-120504001D01*
X158466814Y-120471814D01*
X158499001Y-120445399D01*
X158535716Y-120425774D01*
X158575566Y-120413686D01*
X158623141Y-120409000D01*
X159286859Y-120409000D01*
X159334434Y-120413686D01*
X159334434Y-120413686D01*
G37*
G36*
X166784434Y-120413686D02*
G01*
X166824284Y-120425774D01*
X166860999Y-120445399D01*
X166893186Y-120471814D01*
X166919601Y-120504001D01*
X166939226Y-120540716D01*
X166951314Y-120580566D01*
X166956000Y-120628141D01*
X166956000Y-122991859D01*
X166951314Y-123039434D01*
X166939226Y-123079284D01*
X166919601Y-123115999D01*
X166893186Y-123148186D01*
X166860999Y-123174601D01*
X166824284Y-123194226D01*
X166784434Y-123206314D01*
X166736859Y-123211000D01*
X166073141Y-123211000D01*
X166025566Y-123206314D01*
X165985716Y-123194226D01*
X165949001Y-123174601D01*
X165916814Y-123148186D01*
X165890399Y-123115999D01*
X165870774Y-123079284D01*
X165858686Y-123039434D01*
X165854000Y-122991859D01*
X165854000Y-120628141D01*
X165858686Y-120580566D01*
X165870774Y-120540716D01*
X165890399Y-120504001D01*
X165916814Y-120471814D01*
X165949001Y-120445399D01*
X165985716Y-120425774D01*
X166025566Y-120413686D01*
X166073141Y-120409000D01*
X166736859Y-120409000D01*
X166784434Y-120413686D01*
X166784434Y-120413686D01*
G37*
G36*
X171806000Y-122716000D02*
G01*
X170154000Y-122716000D01*
X170154000Y-122014000D01*
X171806000Y-122014000D01*
X171806000Y-122716000D01*
X171806000Y-122716000D01*
G37*
G36*
X177206000Y-122716000D02*
G01*
X175554000Y-122716000D01*
X175554000Y-122014000D01*
X177206000Y-122014000D01*
X177206000Y-122716000D01*
X177206000Y-122716000D01*
G37*
G36*
X178961938Y-121601716D02*
G01*
X178982557Y-121607971D01*
X179001553Y-121618124D01*
X179018208Y-121631792D01*
X179031876Y-121648447D01*
X179042029Y-121667443D01*
X179048284Y-121688062D01*
X179051000Y-121715640D01*
X179051000Y-122174360D01*
X179048284Y-122201938D01*
X179042029Y-122222557D01*
X179031876Y-122241553D01*
X179018208Y-122258208D01*
X179001553Y-122271876D01*
X178982557Y-122282029D01*
X178961938Y-122288284D01*
X178934360Y-122291000D01*
X178425640Y-122291000D01*
X178398062Y-122288284D01*
X178377443Y-122282029D01*
X178358447Y-122271876D01*
X178341792Y-122258208D01*
X178328124Y-122241553D01*
X178317971Y-122222557D01*
X178311716Y-122201938D01*
X178309000Y-122174360D01*
X178309000Y-121715640D01*
X178311716Y-121688062D01*
X178317971Y-121667443D01*
X178328124Y-121648447D01*
X178341792Y-121631792D01*
X178358447Y-121618124D01*
X178377443Y-121607971D01*
X178398062Y-121601716D01*
X178425640Y-121599000D01*
X178934360Y-121599000D01*
X178961938Y-121601716D01*
X178961938Y-121601716D01*
G37*
G36*
X189059591Y-121188085D02*
G01*
X189093569Y-121198393D01*
X189124890Y-121215134D01*
X189152339Y-121237661D01*
X189174866Y-121265110D01*
X189191607Y-121296431D01*
X189201915Y-121330409D01*
X189206000Y-121371890D01*
X189206000Y-121973110D01*
X189201915Y-122014591D01*
X189191607Y-122048569D01*
X189174866Y-122079890D01*
X189152339Y-122107339D01*
X189124890Y-122129866D01*
X189093569Y-122146607D01*
X189059591Y-122156915D01*
X189018110Y-122161000D01*
X188341890Y-122161000D01*
X188300409Y-122156915D01*
X188266431Y-122146607D01*
X188235110Y-122129866D01*
X188207661Y-122107339D01*
X188185134Y-122079890D01*
X188168393Y-122048569D01*
X188158085Y-122014591D01*
X188154000Y-121973110D01*
X188154000Y-121371890D01*
X188158085Y-121330409D01*
X188168393Y-121296431D01*
X188185134Y-121265110D01*
X188207661Y-121237661D01*
X188235110Y-121215134D01*
X188266431Y-121198393D01*
X188300409Y-121188085D01*
X188341890Y-121184000D01*
X189018110Y-121184000D01*
X189059591Y-121188085D01*
X189059591Y-121188085D01*
G37*
G36*
X184181000Y-121961000D02*
G01*
X183179000Y-121961000D01*
X183179000Y-121059000D01*
X184181000Y-121059000D01*
X184181000Y-121961000D01*
X184181000Y-121961000D01*
G37*
G36*
X177206000Y-121446000D02*
G01*
X175554000Y-121446000D01*
X175554000Y-120744000D01*
X177206000Y-120744000D01*
X177206000Y-121446000D01*
X177206000Y-121446000D01*
G37*
G36*
X171806000Y-121446000D02*
G01*
X170154000Y-121446000D01*
X170154000Y-120744000D01*
X171806000Y-120744000D01*
X171806000Y-121446000D01*
X171806000Y-121446000D01*
G37*
G36*
X178961938Y-120631716D02*
G01*
X178982557Y-120637971D01*
X179001553Y-120648124D01*
X179018208Y-120661792D01*
X179031876Y-120678447D01*
X179042029Y-120697443D01*
X179048284Y-120718062D01*
X179051000Y-120745640D01*
X179051000Y-121204360D01*
X179048284Y-121231938D01*
X179042029Y-121252557D01*
X179031876Y-121271553D01*
X179018208Y-121288208D01*
X179001553Y-121301876D01*
X178982557Y-121312029D01*
X178961938Y-121318284D01*
X178934360Y-121321000D01*
X178425640Y-121321000D01*
X178398062Y-121318284D01*
X178377443Y-121312029D01*
X178358447Y-121301876D01*
X178341792Y-121288208D01*
X178328124Y-121271553D01*
X178317971Y-121252557D01*
X178311716Y-121231938D01*
X178309000Y-121204360D01*
X178309000Y-120745640D01*
X178311716Y-120718062D01*
X178317971Y-120697443D01*
X178328124Y-120678447D01*
X178341792Y-120661792D01*
X178358447Y-120648124D01*
X178377443Y-120637971D01*
X178398062Y-120631716D01*
X178425640Y-120629000D01*
X178934360Y-120629000D01*
X178961938Y-120631716D01*
X178961938Y-120631716D01*
G37*
G36*
X168961938Y-120601716D02*
G01*
X168982557Y-120607971D01*
X169001553Y-120618124D01*
X169018208Y-120631792D01*
X169031876Y-120648447D01*
X169042029Y-120667443D01*
X169048284Y-120688062D01*
X169051000Y-120715640D01*
X169051000Y-121174360D01*
X169048284Y-121201938D01*
X169042029Y-121222557D01*
X169031876Y-121241553D01*
X169018208Y-121258208D01*
X169001553Y-121271876D01*
X168982557Y-121282029D01*
X168961938Y-121288284D01*
X168934360Y-121291000D01*
X168425640Y-121291000D01*
X168398062Y-121288284D01*
X168377443Y-121282029D01*
X168358447Y-121271876D01*
X168341792Y-121258208D01*
X168328124Y-121241553D01*
X168317971Y-121222557D01*
X168311716Y-121201938D01*
X168309000Y-121174360D01*
X168309000Y-120715640D01*
X168311716Y-120688062D01*
X168317971Y-120667443D01*
X168328124Y-120648447D01*
X168341792Y-120631792D01*
X168358447Y-120618124D01*
X168377443Y-120607971D01*
X168398062Y-120601716D01*
X168425640Y-120599000D01*
X168934360Y-120599000D01*
X168961938Y-120601716D01*
X168961938Y-120601716D01*
G37*
G36*
X186181000Y-121011000D02*
G01*
X185179000Y-121011000D01*
X185179000Y-120109000D01*
X186181000Y-120109000D01*
X186181000Y-121011000D01*
X186181000Y-121011000D01*
G37*
G36*
X149330442Y-119025518D02*
G01*
X149396627Y-119032037D01*
X149566466Y-119083557D01*
X149566468Y-119083558D01*
X149601286Y-119102169D01*
X149722991Y-119167222D01*
X149743683Y-119184204D01*
X149860186Y-119279814D01*
X149943448Y-119381271D01*
X149972778Y-119417009D01*
X150056443Y-119573534D01*
X150107963Y-119743373D01*
X150125359Y-119920000D01*
X150107963Y-120096627D01*
X150064000Y-120241553D01*
X150056442Y-120266468D01*
X150027294Y-120321000D01*
X149972778Y-120422991D01*
X149954388Y-120445399D01*
X149860186Y-120560186D01*
X149772284Y-120632324D01*
X149722991Y-120672778D01*
X149566466Y-120756443D01*
X149396627Y-120807963D01*
X149330442Y-120814482D01*
X149264260Y-120821000D01*
X149175740Y-120821000D01*
X149109558Y-120814482D01*
X149043373Y-120807963D01*
X148873534Y-120756443D01*
X148717009Y-120672778D01*
X148667716Y-120632324D01*
X148579814Y-120560186D01*
X148485612Y-120445399D01*
X148467222Y-120422991D01*
X148412706Y-120321000D01*
X148383558Y-120266468D01*
X148376000Y-120241553D01*
X148332037Y-120096627D01*
X148314641Y-119920000D01*
X148332037Y-119743373D01*
X148383557Y-119573534D01*
X148467222Y-119417009D01*
X148496552Y-119381271D01*
X148579814Y-119279814D01*
X148696317Y-119184204D01*
X148717009Y-119167222D01*
X148838714Y-119102169D01*
X148873532Y-119083558D01*
X148873534Y-119083557D01*
X149043373Y-119032037D01*
X149109558Y-119025518D01*
X149175740Y-119019000D01*
X149264260Y-119019000D01*
X149330442Y-119025518D01*
X149330442Y-119025518D01*
G37*
G36*
X146790442Y-119025518D02*
G01*
X146856627Y-119032037D01*
X147026466Y-119083557D01*
X147026468Y-119083558D01*
X147061286Y-119102169D01*
X147182991Y-119167222D01*
X147203683Y-119184204D01*
X147320186Y-119279814D01*
X147403448Y-119381271D01*
X147432778Y-119417009D01*
X147516443Y-119573534D01*
X147567963Y-119743373D01*
X147585359Y-119920000D01*
X147567963Y-120096627D01*
X147524000Y-120241553D01*
X147516442Y-120266468D01*
X147487294Y-120321000D01*
X147432778Y-120422991D01*
X147414388Y-120445399D01*
X147320186Y-120560186D01*
X147232284Y-120632324D01*
X147182991Y-120672778D01*
X147026466Y-120756443D01*
X146856627Y-120807963D01*
X146790442Y-120814482D01*
X146724260Y-120821000D01*
X146635740Y-120821000D01*
X146569558Y-120814482D01*
X146503373Y-120807963D01*
X146333534Y-120756443D01*
X146177009Y-120672778D01*
X146127716Y-120632324D01*
X146039814Y-120560186D01*
X145945612Y-120445399D01*
X145927222Y-120422991D01*
X145872706Y-120321000D01*
X145843558Y-120266468D01*
X145836000Y-120241553D01*
X145792037Y-120096627D01*
X145774641Y-119920000D01*
X145792037Y-119743373D01*
X145843557Y-119573534D01*
X145927222Y-119417009D01*
X145956552Y-119381271D01*
X146039814Y-119279814D01*
X146156317Y-119184204D01*
X146177009Y-119167222D01*
X146298714Y-119102169D01*
X146333532Y-119083558D01*
X146333534Y-119083557D01*
X146503373Y-119032037D01*
X146569558Y-119025518D01*
X146635740Y-119019000D01*
X146724260Y-119019000D01*
X146790442Y-119025518D01*
X146790442Y-119025518D01*
G37*
G36*
X151870442Y-119025518D02*
G01*
X151936627Y-119032037D01*
X152106466Y-119083557D01*
X152106468Y-119083558D01*
X152141286Y-119102169D01*
X152262991Y-119167222D01*
X152283683Y-119184204D01*
X152400186Y-119279814D01*
X152483448Y-119381271D01*
X152512778Y-119417009D01*
X152596443Y-119573534D01*
X152647963Y-119743373D01*
X152665359Y-119920000D01*
X152647963Y-120096627D01*
X152604000Y-120241553D01*
X152596442Y-120266468D01*
X152567294Y-120321000D01*
X152512778Y-120422991D01*
X152494388Y-120445399D01*
X152400186Y-120560186D01*
X152312284Y-120632324D01*
X152262991Y-120672778D01*
X152106466Y-120756443D01*
X151936627Y-120807963D01*
X151870442Y-120814482D01*
X151804260Y-120821000D01*
X151715740Y-120821000D01*
X151649558Y-120814482D01*
X151583373Y-120807963D01*
X151413534Y-120756443D01*
X151257009Y-120672778D01*
X151207716Y-120632324D01*
X151119814Y-120560186D01*
X151025612Y-120445399D01*
X151007222Y-120422991D01*
X150952706Y-120321000D01*
X150923558Y-120266468D01*
X150916000Y-120241553D01*
X150872037Y-120096627D01*
X150854641Y-119920000D01*
X150872037Y-119743373D01*
X150923557Y-119573534D01*
X151007222Y-119417009D01*
X151036552Y-119381271D01*
X151119814Y-119279814D01*
X151236317Y-119184204D01*
X151257009Y-119167222D01*
X151378714Y-119102169D01*
X151413532Y-119083558D01*
X151413534Y-119083557D01*
X151583373Y-119032037D01*
X151649558Y-119025518D01*
X151715740Y-119019000D01*
X151804260Y-119019000D01*
X151870442Y-119025518D01*
X151870442Y-119025518D01*
G37*
G36*
X168961938Y-119631716D02*
G01*
X168982557Y-119637971D01*
X169001553Y-119648124D01*
X169018208Y-119661792D01*
X169031876Y-119678447D01*
X169042029Y-119697443D01*
X169048284Y-119718062D01*
X169051000Y-119745640D01*
X169051000Y-120204360D01*
X169048284Y-120231938D01*
X169042029Y-120252557D01*
X169031876Y-120271553D01*
X169018208Y-120288208D01*
X169001553Y-120301876D01*
X168982557Y-120312029D01*
X168961938Y-120318284D01*
X168934360Y-120321000D01*
X168425640Y-120321000D01*
X168398062Y-120318284D01*
X168377443Y-120312029D01*
X168358447Y-120301876D01*
X168341792Y-120288208D01*
X168328124Y-120271553D01*
X168317971Y-120252557D01*
X168311716Y-120231938D01*
X168309000Y-120204360D01*
X168309000Y-119745640D01*
X168311716Y-119718062D01*
X168317971Y-119697443D01*
X168328124Y-119678447D01*
X168341792Y-119661792D01*
X168358447Y-119648124D01*
X168377443Y-119637971D01*
X168398062Y-119631716D01*
X168425640Y-119629000D01*
X168934360Y-119629000D01*
X168961938Y-119631716D01*
X168961938Y-119631716D01*
G37*
G36*
X178961938Y-119601716D02*
G01*
X178982557Y-119607971D01*
X179001553Y-119618124D01*
X179018208Y-119631792D01*
X179031876Y-119648447D01*
X179042029Y-119667443D01*
X179048284Y-119688062D01*
X179051000Y-119715640D01*
X179051000Y-120174360D01*
X179048284Y-120201938D01*
X179042029Y-120222557D01*
X179031876Y-120241553D01*
X179018208Y-120258208D01*
X179001553Y-120271876D01*
X178982557Y-120282029D01*
X178961938Y-120288284D01*
X178934360Y-120291000D01*
X178425640Y-120291000D01*
X178398062Y-120288284D01*
X178377443Y-120282029D01*
X178358447Y-120271876D01*
X178341792Y-120258208D01*
X178328124Y-120241553D01*
X178317971Y-120222557D01*
X178311716Y-120201938D01*
X178309000Y-120174360D01*
X178309000Y-119715640D01*
X178311716Y-119688062D01*
X178317971Y-119667443D01*
X178328124Y-119648447D01*
X178341792Y-119631792D01*
X178358447Y-119618124D01*
X178377443Y-119607971D01*
X178398062Y-119601716D01*
X178425640Y-119599000D01*
X178934360Y-119599000D01*
X178961938Y-119601716D01*
X178961938Y-119601716D01*
G37*
G36*
X188961938Y-119601716D02*
G01*
X188982557Y-119607971D01*
X189001553Y-119618124D01*
X189018208Y-119631792D01*
X189031876Y-119648447D01*
X189042029Y-119667443D01*
X189048284Y-119688062D01*
X189051000Y-119715640D01*
X189051000Y-120174360D01*
X189048284Y-120201938D01*
X189042029Y-120222557D01*
X189031876Y-120241553D01*
X189018208Y-120258208D01*
X189001553Y-120271876D01*
X188982557Y-120282029D01*
X188961938Y-120288284D01*
X188934360Y-120291000D01*
X188425640Y-120291000D01*
X188398062Y-120288284D01*
X188377443Y-120282029D01*
X188358447Y-120271876D01*
X188341792Y-120258208D01*
X188328124Y-120241553D01*
X188317971Y-120222557D01*
X188311716Y-120201938D01*
X188309000Y-120174360D01*
X188309000Y-119715640D01*
X188311716Y-119688062D01*
X188317971Y-119667443D01*
X188328124Y-119648447D01*
X188341792Y-119631792D01*
X188358447Y-119618124D01*
X188377443Y-119607971D01*
X188398062Y-119601716D01*
X188425640Y-119599000D01*
X188934360Y-119599000D01*
X188961938Y-119601716D01*
X188961938Y-119601716D01*
G37*
G36*
X171806000Y-120176000D02*
G01*
X170154000Y-120176000D01*
X170154000Y-119474000D01*
X171806000Y-119474000D01*
X171806000Y-120176000D01*
X171806000Y-120176000D01*
G37*
G36*
X177206000Y-120176000D02*
G01*
X175554000Y-120176000D01*
X175554000Y-119474000D01*
X177206000Y-119474000D01*
X177206000Y-120176000D01*
X177206000Y-120176000D01*
G37*
G36*
X184181000Y-120061000D02*
G01*
X183179000Y-120061000D01*
X183179000Y-119159000D01*
X184181000Y-119159000D01*
X184181000Y-120061000D01*
X184181000Y-120061000D01*
G37*
G36*
X180451938Y-119091716D02*
G01*
X180472557Y-119097971D01*
X180491553Y-119108124D01*
X180508208Y-119121792D01*
X180521876Y-119138447D01*
X180532029Y-119157443D01*
X180538284Y-119178062D01*
X180541000Y-119205640D01*
X180541000Y-119714360D01*
X180538284Y-119741938D01*
X180532029Y-119762557D01*
X180521876Y-119781553D01*
X180508208Y-119798208D01*
X180491553Y-119811876D01*
X180472557Y-119822029D01*
X180451938Y-119828284D01*
X180424360Y-119831000D01*
X179965640Y-119831000D01*
X179938062Y-119828284D01*
X179917443Y-119822029D01*
X179898447Y-119811876D01*
X179881792Y-119798208D01*
X179868124Y-119781553D01*
X179857971Y-119762557D01*
X179851716Y-119741938D01*
X179849000Y-119714360D01*
X179849000Y-119205640D01*
X179851716Y-119178062D01*
X179857971Y-119157443D01*
X179868124Y-119138447D01*
X179881792Y-119121792D01*
X179898447Y-119108124D01*
X179917443Y-119097971D01*
X179938062Y-119091716D01*
X179965640Y-119089000D01*
X180424360Y-119089000D01*
X180451938Y-119091716D01*
X180451938Y-119091716D01*
G37*
G36*
X181421938Y-119091716D02*
G01*
X181442557Y-119097971D01*
X181461553Y-119108124D01*
X181478208Y-119121792D01*
X181491876Y-119138447D01*
X181502029Y-119157443D01*
X181508284Y-119178062D01*
X181511000Y-119205640D01*
X181511000Y-119714360D01*
X181508284Y-119741938D01*
X181502029Y-119762557D01*
X181491876Y-119781553D01*
X181478208Y-119798208D01*
X181461553Y-119811876D01*
X181442557Y-119822029D01*
X181421938Y-119828284D01*
X181394360Y-119831000D01*
X180935640Y-119831000D01*
X180908062Y-119828284D01*
X180887443Y-119822029D01*
X180868447Y-119811876D01*
X180851792Y-119798208D01*
X180838124Y-119781553D01*
X180827971Y-119762557D01*
X180821716Y-119741938D01*
X180819000Y-119714360D01*
X180819000Y-119205640D01*
X180821716Y-119178062D01*
X180827971Y-119157443D01*
X180838124Y-119138447D01*
X180851792Y-119121792D01*
X180868447Y-119108124D01*
X180887443Y-119097971D01*
X180908062Y-119091716D01*
X180935640Y-119089000D01*
X181394360Y-119089000D01*
X181421938Y-119091716D01*
X181421938Y-119091716D01*
G37*
G36*
X164814928Y-117711764D02*
G01*
X164836009Y-117718160D01*
X164855445Y-117728548D01*
X164872476Y-117742524D01*
X164886452Y-117759555D01*
X164896840Y-117778991D01*
X164903236Y-117800072D01*
X164906000Y-117828140D01*
X164906000Y-119391860D01*
X164903236Y-119419928D01*
X164896840Y-119441009D01*
X164886452Y-119460445D01*
X164872476Y-119477476D01*
X164855445Y-119491452D01*
X164836009Y-119501840D01*
X164814928Y-119508236D01*
X164786860Y-119511000D01*
X164323140Y-119511000D01*
X164295072Y-119508236D01*
X164273991Y-119501840D01*
X164254555Y-119491452D01*
X164237524Y-119477476D01*
X164223548Y-119460445D01*
X164213160Y-119441009D01*
X164206764Y-119419928D01*
X164204000Y-119391860D01*
X164204000Y-117828140D01*
X164206764Y-117800072D01*
X164213160Y-117778991D01*
X164223548Y-117759555D01*
X164237524Y-117742524D01*
X164254555Y-117728548D01*
X164273991Y-117718160D01*
X164295072Y-117711764D01*
X164323140Y-117709000D01*
X164786860Y-117709000D01*
X164814928Y-117711764D01*
X164814928Y-117711764D01*
G37*
G36*
X137814928Y-117711764D02*
G01*
X137836009Y-117718160D01*
X137855445Y-117728548D01*
X137872476Y-117742524D01*
X137886452Y-117759555D01*
X137896840Y-117778991D01*
X137903236Y-117800072D01*
X137906000Y-117828140D01*
X137906000Y-119391860D01*
X137903236Y-119419928D01*
X137896840Y-119441009D01*
X137886452Y-119460445D01*
X137872476Y-119477476D01*
X137855445Y-119491452D01*
X137836009Y-119501840D01*
X137814928Y-119508236D01*
X137786860Y-119511000D01*
X137323140Y-119511000D01*
X137295072Y-119508236D01*
X137273991Y-119501840D01*
X137254555Y-119491452D01*
X137237524Y-119477476D01*
X137223548Y-119460445D01*
X137213160Y-119441009D01*
X137206764Y-119419928D01*
X137204000Y-119391860D01*
X137204000Y-117828140D01*
X137206764Y-117800072D01*
X137213160Y-117778991D01*
X137223548Y-117759555D01*
X137237524Y-117742524D01*
X137254555Y-117728548D01*
X137273991Y-117718160D01*
X137295072Y-117711764D01*
X137323140Y-117709000D01*
X137786860Y-117709000D01*
X137814928Y-117711764D01*
X137814928Y-117711764D01*
G37*
G36*
X136564928Y-117711764D02*
G01*
X136586009Y-117718160D01*
X136605445Y-117728548D01*
X136622476Y-117742524D01*
X136636452Y-117759555D01*
X136646840Y-117778991D01*
X136653236Y-117800072D01*
X136656000Y-117828140D01*
X136656000Y-119391860D01*
X136653236Y-119419928D01*
X136646840Y-119441009D01*
X136636452Y-119460445D01*
X136622476Y-119477476D01*
X136605445Y-119491452D01*
X136586009Y-119501840D01*
X136564928Y-119508236D01*
X136536860Y-119511000D01*
X136073140Y-119511000D01*
X136045072Y-119508236D01*
X136023991Y-119501840D01*
X136004555Y-119491452D01*
X135987524Y-119477476D01*
X135973548Y-119460445D01*
X135963160Y-119441009D01*
X135956764Y-119419928D01*
X135954000Y-119391860D01*
X135954000Y-117828140D01*
X135956764Y-117800072D01*
X135963160Y-117778991D01*
X135973548Y-117759555D01*
X135987524Y-117742524D01*
X136004555Y-117728548D01*
X136023991Y-117718160D01*
X136045072Y-117711764D01*
X136073140Y-117709000D01*
X136536860Y-117709000D01*
X136564928Y-117711764D01*
X136564928Y-117711764D01*
G37*
G36*
X135314928Y-117711764D02*
G01*
X135336009Y-117718160D01*
X135355445Y-117728548D01*
X135372476Y-117742524D01*
X135386452Y-117759555D01*
X135396840Y-117778991D01*
X135403236Y-117800072D01*
X135406000Y-117828140D01*
X135406000Y-119391860D01*
X135403236Y-119419928D01*
X135396840Y-119441009D01*
X135386452Y-119460445D01*
X135372476Y-119477476D01*
X135355445Y-119491452D01*
X135336009Y-119501840D01*
X135314928Y-119508236D01*
X135286860Y-119511000D01*
X134823140Y-119511000D01*
X134795072Y-119508236D01*
X134773991Y-119501840D01*
X134754555Y-119491452D01*
X134737524Y-119477476D01*
X134723548Y-119460445D01*
X134713160Y-119441009D01*
X134706764Y-119419928D01*
X134704000Y-119391860D01*
X134704000Y-117828140D01*
X134706764Y-117800072D01*
X134713160Y-117778991D01*
X134723548Y-117759555D01*
X134737524Y-117742524D01*
X134754555Y-117728548D01*
X134773991Y-117718160D01*
X134795072Y-117711764D01*
X134823140Y-117709000D01*
X135286860Y-117709000D01*
X135314928Y-117711764D01*
X135314928Y-117711764D01*
G37*
G36*
X134064928Y-117711764D02*
G01*
X134086009Y-117718160D01*
X134105445Y-117728548D01*
X134122476Y-117742524D01*
X134136452Y-117759555D01*
X134146840Y-117778991D01*
X134153236Y-117800072D01*
X134156000Y-117828140D01*
X134156000Y-119391860D01*
X134153236Y-119419928D01*
X134146840Y-119441009D01*
X134136452Y-119460445D01*
X134122476Y-119477476D01*
X134105445Y-119491452D01*
X134086009Y-119501840D01*
X134064928Y-119508236D01*
X134036860Y-119511000D01*
X133573140Y-119511000D01*
X133545072Y-119508236D01*
X133523991Y-119501840D01*
X133504555Y-119491452D01*
X133487524Y-119477476D01*
X133473548Y-119460445D01*
X133463160Y-119441009D01*
X133456764Y-119419928D01*
X133454000Y-119391860D01*
X133454000Y-117828140D01*
X133456764Y-117800072D01*
X133463160Y-117778991D01*
X133473548Y-117759555D01*
X133487524Y-117742524D01*
X133504555Y-117728548D01*
X133523991Y-117718160D01*
X133545072Y-117711764D01*
X133573140Y-117709000D01*
X134036860Y-117709000D01*
X134064928Y-117711764D01*
X134064928Y-117711764D01*
G37*
G36*
X162314928Y-117711764D02*
G01*
X162336009Y-117718160D01*
X162355445Y-117728548D01*
X162372476Y-117742524D01*
X162386452Y-117759555D01*
X162396840Y-117778991D01*
X162403236Y-117800072D01*
X162406000Y-117828140D01*
X162406000Y-119391860D01*
X162403236Y-119419928D01*
X162396840Y-119441009D01*
X162386452Y-119460445D01*
X162372476Y-119477476D01*
X162355445Y-119491452D01*
X162336009Y-119501840D01*
X162314928Y-119508236D01*
X162286860Y-119511000D01*
X161823140Y-119511000D01*
X161795072Y-119508236D01*
X161773991Y-119501840D01*
X161754555Y-119491452D01*
X161737524Y-119477476D01*
X161723548Y-119460445D01*
X161713160Y-119441009D01*
X161706764Y-119419928D01*
X161704000Y-119391860D01*
X161704000Y-117828140D01*
X161706764Y-117800072D01*
X161713160Y-117778991D01*
X161723548Y-117759555D01*
X161737524Y-117742524D01*
X161754555Y-117728548D01*
X161773991Y-117718160D01*
X161795072Y-117711764D01*
X161823140Y-117709000D01*
X162286860Y-117709000D01*
X162314928Y-117711764D01*
X162314928Y-117711764D01*
G37*
G36*
X161064928Y-117711764D02*
G01*
X161086009Y-117718160D01*
X161105445Y-117728548D01*
X161122476Y-117742524D01*
X161136452Y-117759555D01*
X161146840Y-117778991D01*
X161153236Y-117800072D01*
X161156000Y-117828140D01*
X161156000Y-119391860D01*
X161153236Y-119419928D01*
X161146840Y-119441009D01*
X161136452Y-119460445D01*
X161122476Y-119477476D01*
X161105445Y-119491452D01*
X161086009Y-119501840D01*
X161064928Y-119508236D01*
X161036860Y-119511000D01*
X160573140Y-119511000D01*
X160545072Y-119508236D01*
X160523991Y-119501840D01*
X160504555Y-119491452D01*
X160487524Y-119477476D01*
X160473548Y-119460445D01*
X160463160Y-119441009D01*
X160456764Y-119419928D01*
X160454000Y-119391860D01*
X160454000Y-117828140D01*
X160456764Y-117800072D01*
X160463160Y-117778991D01*
X160473548Y-117759555D01*
X160487524Y-117742524D01*
X160504555Y-117728548D01*
X160523991Y-117718160D01*
X160545072Y-117711764D01*
X160573140Y-117709000D01*
X161036860Y-117709000D01*
X161064928Y-117711764D01*
X161064928Y-117711764D01*
G37*
G36*
X163564928Y-117711764D02*
G01*
X163586009Y-117718160D01*
X163605445Y-117728548D01*
X163622476Y-117742524D01*
X163636452Y-117759555D01*
X163646840Y-117778991D01*
X163653236Y-117800072D01*
X163656000Y-117828140D01*
X163656000Y-119391860D01*
X163653236Y-119419928D01*
X163646840Y-119441009D01*
X163636452Y-119460445D01*
X163622476Y-119477476D01*
X163605445Y-119491452D01*
X163586009Y-119501840D01*
X163564928Y-119508236D01*
X163536860Y-119511000D01*
X163073140Y-119511000D01*
X163045072Y-119508236D01*
X163023991Y-119501840D01*
X163004555Y-119491452D01*
X162987524Y-119477476D01*
X162973548Y-119460445D01*
X162963160Y-119441009D01*
X162956764Y-119419928D01*
X162954000Y-119391860D01*
X162954000Y-117828140D01*
X162956764Y-117800072D01*
X162963160Y-117778991D01*
X162973548Y-117759555D01*
X162987524Y-117742524D01*
X163004555Y-117728548D01*
X163023991Y-117718160D01*
X163045072Y-117711764D01*
X163073140Y-117709000D01*
X163536860Y-117709000D01*
X163564928Y-117711764D01*
X163564928Y-117711764D01*
G37*
G36*
X178961938Y-118631716D02*
G01*
X178982557Y-118637971D01*
X179001553Y-118648124D01*
X179018208Y-118661792D01*
X179031876Y-118678447D01*
X179042029Y-118697443D01*
X179048284Y-118718062D01*
X179051000Y-118745640D01*
X179051000Y-119204360D01*
X179048284Y-119231938D01*
X179042029Y-119252557D01*
X179031876Y-119271553D01*
X179018208Y-119288208D01*
X179001553Y-119301876D01*
X178982557Y-119312029D01*
X178961938Y-119318284D01*
X178934360Y-119321000D01*
X178425640Y-119321000D01*
X178398062Y-119318284D01*
X178377443Y-119312029D01*
X178358447Y-119301876D01*
X178341792Y-119288208D01*
X178328124Y-119271553D01*
X178317971Y-119252557D01*
X178311716Y-119231938D01*
X178309000Y-119204360D01*
X178309000Y-118745640D01*
X178311716Y-118718062D01*
X178317971Y-118697443D01*
X178328124Y-118678447D01*
X178341792Y-118661792D01*
X178358447Y-118648124D01*
X178377443Y-118637971D01*
X178398062Y-118631716D01*
X178425640Y-118629000D01*
X178934360Y-118629000D01*
X178961938Y-118631716D01*
X178961938Y-118631716D01*
G37*
G36*
X188961938Y-118631716D02*
G01*
X188982557Y-118637971D01*
X189001553Y-118648124D01*
X189018208Y-118661792D01*
X189031876Y-118678447D01*
X189042029Y-118697443D01*
X189048284Y-118718062D01*
X189051000Y-118745640D01*
X189051000Y-119204360D01*
X189048284Y-119231938D01*
X189042029Y-119252557D01*
X189031876Y-119271553D01*
X189018208Y-119288208D01*
X189001553Y-119301876D01*
X188982557Y-119312029D01*
X188961938Y-119318284D01*
X188934360Y-119321000D01*
X188425640Y-119321000D01*
X188398062Y-119318284D01*
X188377443Y-119312029D01*
X188358447Y-119301876D01*
X188341792Y-119288208D01*
X188328124Y-119271553D01*
X188317971Y-119252557D01*
X188311716Y-119231938D01*
X188309000Y-119204360D01*
X188309000Y-118745640D01*
X188311716Y-118718062D01*
X188317971Y-118697443D01*
X188328124Y-118678447D01*
X188341792Y-118661792D01*
X188358447Y-118648124D01*
X188377443Y-118637971D01*
X188398062Y-118631716D01*
X188425640Y-118629000D01*
X188934360Y-118629000D01*
X188961938Y-118631716D01*
X188961938Y-118631716D01*
G37*
G36*
X118961938Y-118601716D02*
G01*
X118982557Y-118607971D01*
X119001553Y-118618124D01*
X119018208Y-118631792D01*
X119031876Y-118648447D01*
X119042029Y-118667443D01*
X119048284Y-118688062D01*
X119051000Y-118715640D01*
X119051000Y-119174360D01*
X119048284Y-119201938D01*
X119042029Y-119222557D01*
X119031876Y-119241553D01*
X119018208Y-119258208D01*
X119001553Y-119271876D01*
X118982557Y-119282029D01*
X118961938Y-119288284D01*
X118934360Y-119291000D01*
X118425640Y-119291000D01*
X118398062Y-119288284D01*
X118377443Y-119282029D01*
X118358447Y-119271876D01*
X118341792Y-119258208D01*
X118328124Y-119241553D01*
X118317971Y-119222557D01*
X118311716Y-119201938D01*
X118309000Y-119174360D01*
X118309000Y-118715640D01*
X118311716Y-118688062D01*
X118317971Y-118667443D01*
X118328124Y-118648447D01*
X118341792Y-118631792D01*
X118358447Y-118618124D01*
X118377443Y-118607971D01*
X118398062Y-118601716D01*
X118425640Y-118599000D01*
X118934360Y-118599000D01*
X118961938Y-118601716D01*
X118961938Y-118601716D01*
G37*
G36*
X113961938Y-118601716D02*
G01*
X113982557Y-118607971D01*
X114001553Y-118618124D01*
X114018208Y-118631792D01*
X114031876Y-118648447D01*
X114042029Y-118667443D01*
X114048284Y-118688062D01*
X114051000Y-118715640D01*
X114051000Y-119174360D01*
X114048284Y-119201938D01*
X114042029Y-119222557D01*
X114031876Y-119241553D01*
X114018208Y-119258208D01*
X114001553Y-119271876D01*
X113982557Y-119282029D01*
X113961938Y-119288284D01*
X113934360Y-119291000D01*
X113425640Y-119291000D01*
X113398062Y-119288284D01*
X113377443Y-119282029D01*
X113358447Y-119271876D01*
X113341792Y-119258208D01*
X113328124Y-119241553D01*
X113317971Y-119222557D01*
X113311716Y-119201938D01*
X113309000Y-119174360D01*
X113309000Y-118715640D01*
X113311716Y-118688062D01*
X113317971Y-118667443D01*
X113328124Y-118648447D01*
X113341792Y-118631792D01*
X113358447Y-118618124D01*
X113377443Y-118607971D01*
X113398062Y-118601716D01*
X113425640Y-118599000D01*
X113934360Y-118599000D01*
X113961938Y-118601716D01*
X113961938Y-118601716D01*
G37*
G36*
X177206000Y-118906000D02*
G01*
X175554000Y-118906000D01*
X175554000Y-118204000D01*
X177206000Y-118204000D01*
X177206000Y-118906000D01*
X177206000Y-118906000D01*
G37*
G36*
X171806000Y-118906000D02*
G01*
X170154000Y-118906000D01*
X170154000Y-118204000D01*
X171806000Y-118204000D01*
X171806000Y-118906000D01*
X171806000Y-118906000D01*
G37*
G36*
X118961938Y-117631716D02*
G01*
X118982557Y-117637971D01*
X119001553Y-117648124D01*
X119018208Y-117661792D01*
X119031876Y-117678447D01*
X119042029Y-117697443D01*
X119048284Y-117718062D01*
X119051000Y-117745640D01*
X119051000Y-118204360D01*
X119048284Y-118231938D01*
X119042029Y-118252557D01*
X119031876Y-118271553D01*
X119018208Y-118288208D01*
X119001553Y-118301876D01*
X118982557Y-118312029D01*
X118961938Y-118318284D01*
X118934360Y-118321000D01*
X118425640Y-118321000D01*
X118398062Y-118318284D01*
X118377443Y-118312029D01*
X118358447Y-118301876D01*
X118341792Y-118288208D01*
X118328124Y-118271553D01*
X118317971Y-118252557D01*
X118311716Y-118231938D01*
X118309000Y-118204360D01*
X118309000Y-117745640D01*
X118311716Y-117718062D01*
X118317971Y-117697443D01*
X118328124Y-117678447D01*
X118341792Y-117661792D01*
X118358447Y-117648124D01*
X118377443Y-117637971D01*
X118398062Y-117631716D01*
X118425640Y-117629000D01*
X118934360Y-117629000D01*
X118961938Y-117631716D01*
X118961938Y-117631716D01*
G37*
G36*
X113961938Y-117631716D02*
G01*
X113982557Y-117637971D01*
X114001553Y-117648124D01*
X114018208Y-117661792D01*
X114031876Y-117678447D01*
X114042029Y-117697443D01*
X114048284Y-117718062D01*
X114051000Y-117745640D01*
X114051000Y-118204360D01*
X114048284Y-118231938D01*
X114042029Y-118252557D01*
X114031876Y-118271553D01*
X114018208Y-118288208D01*
X114001553Y-118301876D01*
X113982557Y-118312029D01*
X113961938Y-118318284D01*
X113934360Y-118321000D01*
X113425640Y-118321000D01*
X113398062Y-118318284D01*
X113377443Y-118312029D01*
X113358447Y-118301876D01*
X113341792Y-118288208D01*
X113328124Y-118271553D01*
X113317971Y-118252557D01*
X113311716Y-118231938D01*
X113309000Y-118204360D01*
X113309000Y-117745640D01*
X113311716Y-117718062D01*
X113317971Y-117697443D01*
X113328124Y-117678447D01*
X113341792Y-117661792D01*
X113358447Y-117648124D01*
X113377443Y-117637971D01*
X113398062Y-117631716D01*
X113425640Y-117629000D01*
X113934360Y-117629000D01*
X113961938Y-117631716D01*
X113961938Y-117631716D01*
G37*
G36*
X186051938Y-117191716D02*
G01*
X186072557Y-117197971D01*
X186091553Y-117208124D01*
X186108208Y-117221792D01*
X186121876Y-117238447D01*
X186132029Y-117257443D01*
X186138284Y-117278062D01*
X186141000Y-117305640D01*
X186141000Y-117814360D01*
X186138284Y-117841938D01*
X186132029Y-117862557D01*
X186121876Y-117881553D01*
X186108208Y-117898208D01*
X186091553Y-117911876D01*
X186072557Y-117922029D01*
X186051938Y-117928284D01*
X186024360Y-117931000D01*
X185565640Y-117931000D01*
X185538062Y-117928284D01*
X185517443Y-117922029D01*
X185498447Y-117911876D01*
X185481792Y-117898208D01*
X185468124Y-117881553D01*
X185457971Y-117862557D01*
X185451716Y-117841938D01*
X185449000Y-117814360D01*
X185449000Y-117305640D01*
X185451716Y-117278062D01*
X185457971Y-117257443D01*
X185468124Y-117238447D01*
X185481792Y-117221792D01*
X185498447Y-117208124D01*
X185517443Y-117197971D01*
X185538062Y-117191716D01*
X185565640Y-117189000D01*
X186024360Y-117189000D01*
X186051938Y-117191716D01*
X186051938Y-117191716D01*
G37*
G36*
X187021938Y-117191716D02*
G01*
X187042557Y-117197971D01*
X187061553Y-117208124D01*
X187078208Y-117221792D01*
X187091876Y-117238447D01*
X187102029Y-117257443D01*
X187108284Y-117278062D01*
X187111000Y-117305640D01*
X187111000Y-117814360D01*
X187108284Y-117841938D01*
X187102029Y-117862557D01*
X187091876Y-117881553D01*
X187078208Y-117898208D01*
X187061553Y-117911876D01*
X187042557Y-117922029D01*
X187021938Y-117928284D01*
X186994360Y-117931000D01*
X186535640Y-117931000D01*
X186508062Y-117928284D01*
X186487443Y-117922029D01*
X186468447Y-117911876D01*
X186451792Y-117898208D01*
X186438124Y-117881553D01*
X186427971Y-117862557D01*
X186421716Y-117841938D01*
X186419000Y-117814360D01*
X186419000Y-117305640D01*
X186421716Y-117278062D01*
X186427971Y-117257443D01*
X186438124Y-117238447D01*
X186451792Y-117221792D01*
X186468447Y-117208124D01*
X186487443Y-117197971D01*
X186508062Y-117191716D01*
X186535640Y-117189000D01*
X186994360Y-117189000D01*
X187021938Y-117191716D01*
X187021938Y-117191716D01*
G37*
G36*
X184721938Y-117191716D02*
G01*
X184742557Y-117197971D01*
X184761553Y-117208124D01*
X184778208Y-117221792D01*
X184791876Y-117238447D01*
X184802029Y-117257443D01*
X184808284Y-117278062D01*
X184811000Y-117305640D01*
X184811000Y-117814360D01*
X184808284Y-117841938D01*
X184802029Y-117862557D01*
X184791876Y-117881553D01*
X184778208Y-117898208D01*
X184761553Y-117911876D01*
X184742557Y-117922029D01*
X184721938Y-117928284D01*
X184694360Y-117931000D01*
X184235640Y-117931000D01*
X184208062Y-117928284D01*
X184187443Y-117922029D01*
X184168447Y-117911876D01*
X184151792Y-117898208D01*
X184138124Y-117881553D01*
X184127971Y-117862557D01*
X184121716Y-117841938D01*
X184119000Y-117814360D01*
X184119000Y-117305640D01*
X184121716Y-117278062D01*
X184127971Y-117257443D01*
X184138124Y-117238447D01*
X184151792Y-117221792D01*
X184168447Y-117208124D01*
X184187443Y-117197971D01*
X184208062Y-117191716D01*
X184235640Y-117189000D01*
X184694360Y-117189000D01*
X184721938Y-117191716D01*
X184721938Y-117191716D01*
G37*
G36*
X183751938Y-117191716D02*
G01*
X183772557Y-117197971D01*
X183791553Y-117208124D01*
X183808208Y-117221792D01*
X183821876Y-117238447D01*
X183832029Y-117257443D01*
X183838284Y-117278062D01*
X183841000Y-117305640D01*
X183841000Y-117814360D01*
X183838284Y-117841938D01*
X183832029Y-117862557D01*
X183821876Y-117881553D01*
X183808208Y-117898208D01*
X183791553Y-117911876D01*
X183772557Y-117922029D01*
X183751938Y-117928284D01*
X183724360Y-117931000D01*
X183265640Y-117931000D01*
X183238062Y-117928284D01*
X183217443Y-117922029D01*
X183198447Y-117911876D01*
X183181792Y-117898208D01*
X183168124Y-117881553D01*
X183157971Y-117862557D01*
X183151716Y-117841938D01*
X183149000Y-117814360D01*
X183149000Y-117305640D01*
X183151716Y-117278062D01*
X183157971Y-117257443D01*
X183168124Y-117238447D01*
X183181792Y-117221792D01*
X183198447Y-117208124D01*
X183217443Y-117197971D01*
X183238062Y-117191716D01*
X183265640Y-117189000D01*
X183724360Y-117189000D01*
X183751938Y-117191716D01*
X183751938Y-117191716D01*
G37*
G36*
X181421938Y-117091716D02*
G01*
X181442557Y-117097971D01*
X181461553Y-117108124D01*
X181478208Y-117121792D01*
X181491876Y-117138447D01*
X181502029Y-117157443D01*
X181508284Y-117178062D01*
X181511000Y-117205640D01*
X181511000Y-117714360D01*
X181508284Y-117741938D01*
X181502029Y-117762557D01*
X181491876Y-117781553D01*
X181478208Y-117798208D01*
X181461553Y-117811876D01*
X181442557Y-117822029D01*
X181421938Y-117828284D01*
X181394360Y-117831000D01*
X180935640Y-117831000D01*
X180908062Y-117828284D01*
X180887443Y-117822029D01*
X180868447Y-117811876D01*
X180851792Y-117798208D01*
X180838124Y-117781553D01*
X180827971Y-117762557D01*
X180821716Y-117741938D01*
X180819000Y-117714360D01*
X180819000Y-117205640D01*
X180821716Y-117178062D01*
X180827971Y-117157443D01*
X180838124Y-117138447D01*
X180851792Y-117121792D01*
X180868447Y-117108124D01*
X180887443Y-117097971D01*
X180908062Y-117091716D01*
X180935640Y-117089000D01*
X181394360Y-117089000D01*
X181421938Y-117091716D01*
X181421938Y-117091716D01*
G37*
G36*
X180451938Y-117091716D02*
G01*
X180472557Y-117097971D01*
X180491553Y-117108124D01*
X180508208Y-117121792D01*
X180521876Y-117138447D01*
X180532029Y-117157443D01*
X180538284Y-117178062D01*
X180541000Y-117205640D01*
X180541000Y-117714360D01*
X180538284Y-117741938D01*
X180532029Y-117762557D01*
X180521876Y-117781553D01*
X180508208Y-117798208D01*
X180491553Y-117811876D01*
X180472557Y-117822029D01*
X180451938Y-117828284D01*
X180424360Y-117831000D01*
X179965640Y-117831000D01*
X179938062Y-117828284D01*
X179917443Y-117822029D01*
X179898447Y-117811876D01*
X179881792Y-117798208D01*
X179868124Y-117781553D01*
X179857971Y-117762557D01*
X179851716Y-117741938D01*
X179849000Y-117714360D01*
X179849000Y-117205640D01*
X179851716Y-117178062D01*
X179857971Y-117157443D01*
X179868124Y-117138447D01*
X179881792Y-117121792D01*
X179898447Y-117108124D01*
X179917443Y-117097971D01*
X179938062Y-117091716D01*
X179965640Y-117089000D01*
X180424360Y-117089000D01*
X180451938Y-117091716D01*
X180451938Y-117091716D01*
G37*
G36*
X168181000Y-116861000D02*
G01*
X167179000Y-116861000D01*
X167179000Y-115959000D01*
X168181000Y-115959000D01*
X168181000Y-116861000D01*
X168181000Y-116861000D01*
G37*
G36*
X164421938Y-116091716D02*
G01*
X164442557Y-116097971D01*
X164461553Y-116108124D01*
X164478208Y-116121792D01*
X164491876Y-116138447D01*
X164502029Y-116157443D01*
X164508284Y-116178062D01*
X164511000Y-116205640D01*
X164511000Y-116714360D01*
X164508284Y-116741938D01*
X164502029Y-116762557D01*
X164491876Y-116781553D01*
X164478208Y-116798208D01*
X164461553Y-116811876D01*
X164442557Y-116822029D01*
X164421938Y-116828284D01*
X164394360Y-116831000D01*
X163935640Y-116831000D01*
X163908062Y-116828284D01*
X163887443Y-116822029D01*
X163868447Y-116811876D01*
X163851792Y-116798208D01*
X163838124Y-116781553D01*
X163827971Y-116762557D01*
X163821716Y-116741938D01*
X163819000Y-116714360D01*
X163819000Y-116205640D01*
X163821716Y-116178062D01*
X163827971Y-116157443D01*
X163838124Y-116138447D01*
X163851792Y-116121792D01*
X163868447Y-116108124D01*
X163887443Y-116097971D01*
X163908062Y-116091716D01*
X163935640Y-116089000D01*
X164394360Y-116089000D01*
X164421938Y-116091716D01*
X164421938Y-116091716D01*
G37*
G36*
X163451938Y-116091716D02*
G01*
X163472557Y-116097971D01*
X163491553Y-116108124D01*
X163508208Y-116121792D01*
X163521876Y-116138447D01*
X163532029Y-116157443D01*
X163538284Y-116178062D01*
X163541000Y-116205640D01*
X163541000Y-116714360D01*
X163538284Y-116741938D01*
X163532029Y-116762557D01*
X163521876Y-116781553D01*
X163508208Y-116798208D01*
X163491553Y-116811876D01*
X163472557Y-116822029D01*
X163451938Y-116828284D01*
X163424360Y-116831000D01*
X162965640Y-116831000D01*
X162938062Y-116828284D01*
X162917443Y-116822029D01*
X162898447Y-116811876D01*
X162881792Y-116798208D01*
X162868124Y-116781553D01*
X162857971Y-116762557D01*
X162851716Y-116741938D01*
X162849000Y-116714360D01*
X162849000Y-116205640D01*
X162851716Y-116178062D01*
X162857971Y-116157443D01*
X162868124Y-116138447D01*
X162881792Y-116121792D01*
X162898447Y-116108124D01*
X162917443Y-116097971D01*
X162938062Y-116091716D01*
X162965640Y-116089000D01*
X163424360Y-116089000D01*
X163451938Y-116091716D01*
X163451938Y-116091716D01*
G37*
G36*
X162421938Y-116091716D02*
G01*
X162442557Y-116097971D01*
X162461553Y-116108124D01*
X162478208Y-116121792D01*
X162491876Y-116138447D01*
X162502029Y-116157443D01*
X162508284Y-116178062D01*
X162511000Y-116205640D01*
X162511000Y-116714360D01*
X162508284Y-116741938D01*
X162502029Y-116762557D01*
X162491876Y-116781553D01*
X162478208Y-116798208D01*
X162461553Y-116811876D01*
X162442557Y-116822029D01*
X162421938Y-116828284D01*
X162394360Y-116831000D01*
X161935640Y-116831000D01*
X161908062Y-116828284D01*
X161887443Y-116822029D01*
X161868447Y-116811876D01*
X161851792Y-116798208D01*
X161838124Y-116781553D01*
X161827971Y-116762557D01*
X161821716Y-116741938D01*
X161819000Y-116714360D01*
X161819000Y-116205640D01*
X161821716Y-116178062D01*
X161827971Y-116157443D01*
X161838124Y-116138447D01*
X161851792Y-116121792D01*
X161868447Y-116108124D01*
X161887443Y-116097971D01*
X161908062Y-116091716D01*
X161935640Y-116089000D01*
X162394360Y-116089000D01*
X162421938Y-116091716D01*
X162421938Y-116091716D01*
G37*
G36*
X161451938Y-116091716D02*
G01*
X161472557Y-116097971D01*
X161491553Y-116108124D01*
X161508208Y-116121792D01*
X161521876Y-116138447D01*
X161532029Y-116157443D01*
X161538284Y-116178062D01*
X161541000Y-116205640D01*
X161541000Y-116714360D01*
X161538284Y-116741938D01*
X161532029Y-116762557D01*
X161521876Y-116781553D01*
X161508208Y-116798208D01*
X161491553Y-116811876D01*
X161472557Y-116822029D01*
X161451938Y-116828284D01*
X161424360Y-116831000D01*
X160965640Y-116831000D01*
X160938062Y-116828284D01*
X160917443Y-116822029D01*
X160898447Y-116811876D01*
X160881792Y-116798208D01*
X160868124Y-116781553D01*
X160857971Y-116762557D01*
X160851716Y-116741938D01*
X160849000Y-116714360D01*
X160849000Y-116205640D01*
X160851716Y-116178062D01*
X160857971Y-116157443D01*
X160868124Y-116138447D01*
X160881792Y-116121792D01*
X160898447Y-116108124D01*
X160917443Y-116097971D01*
X160938062Y-116091716D01*
X160965640Y-116089000D01*
X161424360Y-116089000D01*
X161451938Y-116091716D01*
X161451938Y-116091716D01*
G37*
G36*
X188961938Y-115601716D02*
G01*
X188982557Y-115607971D01*
X189001553Y-115618124D01*
X189018208Y-115631792D01*
X189031876Y-115648447D01*
X189042029Y-115667443D01*
X189048284Y-115688062D01*
X189051000Y-115715640D01*
X189051000Y-116174360D01*
X189048284Y-116201938D01*
X189042029Y-116222557D01*
X189031876Y-116241553D01*
X189018208Y-116258208D01*
X189001553Y-116271876D01*
X188982557Y-116282029D01*
X188961938Y-116288284D01*
X188934360Y-116291000D01*
X188425640Y-116291000D01*
X188398062Y-116288284D01*
X188377443Y-116282029D01*
X188358447Y-116271876D01*
X188341792Y-116258208D01*
X188328124Y-116241553D01*
X188317971Y-116222557D01*
X188311716Y-116201938D01*
X188309000Y-116174360D01*
X188309000Y-115715640D01*
X188311716Y-115688062D01*
X188317971Y-115667443D01*
X188328124Y-115648447D01*
X188341792Y-115631792D01*
X188358447Y-115618124D01*
X188377443Y-115607971D01*
X188398062Y-115601716D01*
X188425640Y-115599000D01*
X188934360Y-115599000D01*
X188961938Y-115601716D01*
X188961938Y-115601716D01*
G37*
G36*
X170181000Y-115911000D02*
G01*
X169179000Y-115911000D01*
X169179000Y-115009000D01*
X170181000Y-115009000D01*
X170181000Y-115911000D01*
X170181000Y-115911000D01*
G37*
G36*
X118961938Y-115086716D02*
G01*
X118982557Y-115092971D01*
X119001553Y-115103124D01*
X119018208Y-115116792D01*
X119031876Y-115133447D01*
X119042029Y-115152443D01*
X119048284Y-115173062D01*
X119051000Y-115200640D01*
X119051000Y-115659360D01*
X119048284Y-115686938D01*
X119042029Y-115707557D01*
X119031876Y-115726553D01*
X119018208Y-115743208D01*
X119001553Y-115756876D01*
X118982557Y-115767029D01*
X118961938Y-115773284D01*
X118934360Y-115776000D01*
X118425640Y-115776000D01*
X118398062Y-115773284D01*
X118377443Y-115767029D01*
X118358447Y-115756876D01*
X118341792Y-115743208D01*
X118328124Y-115726553D01*
X118317971Y-115707557D01*
X118311716Y-115686938D01*
X118309000Y-115659360D01*
X118309000Y-115200640D01*
X118311716Y-115173062D01*
X118317971Y-115152443D01*
X118328124Y-115133447D01*
X118341792Y-115116792D01*
X118358447Y-115103124D01*
X118377443Y-115092971D01*
X118398062Y-115086716D01*
X118425640Y-115084000D01*
X118934360Y-115084000D01*
X118961938Y-115086716D01*
X118961938Y-115086716D01*
G37*
G36*
X180513213Y-113016249D02*
G01*
X180607652Y-113044897D01*
X180694687Y-113091418D01*
X180770975Y-113154025D01*
X180833582Y-113230313D01*
X180880103Y-113317348D01*
X180908751Y-113411787D01*
X180916000Y-113485388D01*
X180916000Y-115134612D01*
X180908751Y-115208213D01*
X180880103Y-115302652D01*
X180833582Y-115389687D01*
X180770975Y-115465975D01*
X180694687Y-115528582D01*
X180607651Y-115575103D01*
X180513212Y-115603751D01*
X180415000Y-115613424D01*
X180316787Y-115603751D01*
X180222348Y-115575103D01*
X180135313Y-115528582D01*
X180059025Y-115465975D01*
X179996418Y-115389687D01*
X179949897Y-115302651D01*
X179921249Y-115208212D01*
X179914000Y-115134611D01*
X179914001Y-113485388D01*
X179921250Y-113411787D01*
X179949898Y-113317348D01*
X179996419Y-113230313D01*
X180059026Y-113154025D01*
X180135314Y-113091418D01*
X180222349Y-113044897D01*
X180316788Y-113016249D01*
X180415000Y-113006576D01*
X180513213Y-113016249D01*
X180513213Y-113016249D01*
G37*
G36*
X185593213Y-113016249D02*
G01*
X185687652Y-113044897D01*
X185774687Y-113091418D01*
X185850975Y-113154025D01*
X185913582Y-113230313D01*
X185960103Y-113317348D01*
X185988751Y-113411787D01*
X185996000Y-113485388D01*
X185996000Y-115134612D01*
X185988751Y-115208213D01*
X185960103Y-115302652D01*
X185913582Y-115389687D01*
X185850975Y-115465975D01*
X185774687Y-115528582D01*
X185687651Y-115575103D01*
X185593212Y-115603751D01*
X185495000Y-115613424D01*
X185396787Y-115603751D01*
X185302348Y-115575103D01*
X185215313Y-115528582D01*
X185139025Y-115465975D01*
X185076418Y-115389687D01*
X185029897Y-115302651D01*
X185001249Y-115208212D01*
X184994000Y-115134611D01*
X184994001Y-113485388D01*
X185001250Y-113411787D01*
X185029898Y-113317348D01*
X185076419Y-113230313D01*
X185139026Y-113154025D01*
X185215314Y-113091418D01*
X185302349Y-113044897D01*
X185396788Y-113016249D01*
X185495000Y-113006576D01*
X185593213Y-113016249D01*
X185593213Y-113016249D01*
G37*
G36*
X183053213Y-113016249D02*
G01*
X183147652Y-113044897D01*
X183234687Y-113091418D01*
X183310975Y-113154025D01*
X183373582Y-113230313D01*
X183420103Y-113317348D01*
X183448751Y-113411787D01*
X183456000Y-113485388D01*
X183456000Y-115134612D01*
X183448751Y-115208213D01*
X183420103Y-115302652D01*
X183373582Y-115389687D01*
X183310975Y-115465975D01*
X183234687Y-115528582D01*
X183147651Y-115575103D01*
X183053212Y-115603751D01*
X182955000Y-115613424D01*
X182856787Y-115603751D01*
X182762348Y-115575103D01*
X182675313Y-115528582D01*
X182599025Y-115465975D01*
X182536418Y-115389687D01*
X182489897Y-115302651D01*
X182461249Y-115208212D01*
X182454000Y-115134611D01*
X182454001Y-113485388D01*
X182461250Y-113411787D01*
X182489898Y-113317348D01*
X182536419Y-113230313D01*
X182599026Y-113154025D01*
X182675314Y-113091418D01*
X182762349Y-113044897D01*
X182856788Y-113016249D01*
X182955000Y-113006576D01*
X183053213Y-113016249D01*
X183053213Y-113016249D01*
G37*
G36*
X181783213Y-113016249D02*
G01*
X181877652Y-113044897D01*
X181964687Y-113091418D01*
X182040975Y-113154025D01*
X182103582Y-113230313D01*
X182150103Y-113317348D01*
X182178751Y-113411787D01*
X182186000Y-113485388D01*
X182186000Y-115134612D01*
X182178751Y-115208213D01*
X182150103Y-115302652D01*
X182103582Y-115389687D01*
X182040975Y-115465975D01*
X181964687Y-115528582D01*
X181877651Y-115575103D01*
X181783212Y-115603751D01*
X181685000Y-115613424D01*
X181586787Y-115603751D01*
X181492348Y-115575103D01*
X181405313Y-115528582D01*
X181329025Y-115465975D01*
X181266418Y-115389687D01*
X181219897Y-115302651D01*
X181191249Y-115208212D01*
X181184000Y-115134611D01*
X181184001Y-113485388D01*
X181191250Y-113411787D01*
X181219898Y-113317348D01*
X181266419Y-113230313D01*
X181329026Y-113154025D01*
X181405314Y-113091418D01*
X181492349Y-113044897D01*
X181586788Y-113016249D01*
X181685000Y-113006576D01*
X181783213Y-113016249D01*
X181783213Y-113016249D01*
G37*
G36*
X179243213Y-113016249D02*
G01*
X179337652Y-113044897D01*
X179424687Y-113091418D01*
X179500975Y-113154025D01*
X179563582Y-113230313D01*
X179610103Y-113317348D01*
X179638751Y-113411787D01*
X179646000Y-113485388D01*
X179646000Y-115134612D01*
X179638751Y-115208213D01*
X179610103Y-115302652D01*
X179563582Y-115389687D01*
X179500975Y-115465975D01*
X179424687Y-115528582D01*
X179337651Y-115575103D01*
X179243212Y-115603751D01*
X179145000Y-115613424D01*
X179046787Y-115603751D01*
X178952348Y-115575103D01*
X178865313Y-115528582D01*
X178789025Y-115465975D01*
X178726418Y-115389687D01*
X178679897Y-115302651D01*
X178651249Y-115208212D01*
X178644000Y-115134611D01*
X178644001Y-113485388D01*
X178651250Y-113411787D01*
X178679898Y-113317348D01*
X178726419Y-113230313D01*
X178789026Y-113154025D01*
X178865314Y-113091418D01*
X178952349Y-113044897D01*
X179046788Y-113016249D01*
X179145000Y-113006576D01*
X179243213Y-113016249D01*
X179243213Y-113016249D01*
G37*
G36*
X177973213Y-113016249D02*
G01*
X178067652Y-113044897D01*
X178154687Y-113091418D01*
X178230975Y-113154025D01*
X178293582Y-113230313D01*
X178340103Y-113317348D01*
X178368751Y-113411787D01*
X178376000Y-113485388D01*
X178376000Y-115134612D01*
X178368751Y-115208213D01*
X178340103Y-115302652D01*
X178293582Y-115389687D01*
X178230975Y-115465975D01*
X178154687Y-115528582D01*
X178067651Y-115575103D01*
X177973212Y-115603751D01*
X177875000Y-115613424D01*
X177776787Y-115603751D01*
X177682348Y-115575103D01*
X177595313Y-115528582D01*
X177519025Y-115465975D01*
X177456418Y-115389687D01*
X177409897Y-115302651D01*
X177381249Y-115208212D01*
X177374000Y-115134611D01*
X177374001Y-113485388D01*
X177381250Y-113411787D01*
X177409898Y-113317348D01*
X177456419Y-113230313D01*
X177519026Y-113154025D01*
X177595314Y-113091418D01*
X177682349Y-113044897D01*
X177776788Y-113016249D01*
X177875000Y-113006576D01*
X177973213Y-113016249D01*
X177973213Y-113016249D01*
G37*
G36*
X176703213Y-113016249D02*
G01*
X176797652Y-113044897D01*
X176884687Y-113091418D01*
X176960975Y-113154025D01*
X177023582Y-113230313D01*
X177070103Y-113317348D01*
X177098751Y-113411787D01*
X177106000Y-113485388D01*
X177106000Y-115134612D01*
X177098751Y-115208213D01*
X177070103Y-115302652D01*
X177023582Y-115389687D01*
X176960975Y-115465975D01*
X176884687Y-115528582D01*
X176797651Y-115575103D01*
X176703212Y-115603751D01*
X176605000Y-115613424D01*
X176506787Y-115603751D01*
X176412348Y-115575103D01*
X176325313Y-115528582D01*
X176249025Y-115465975D01*
X176186418Y-115389687D01*
X176139897Y-115302651D01*
X176111249Y-115208212D01*
X176104000Y-115134611D01*
X176104001Y-113485388D01*
X176111250Y-113411787D01*
X176139898Y-113317348D01*
X176186419Y-113230313D01*
X176249026Y-113154025D01*
X176325314Y-113091418D01*
X176412349Y-113044897D01*
X176506788Y-113016249D01*
X176605000Y-113006576D01*
X176703213Y-113016249D01*
X176703213Y-113016249D01*
G37*
G36*
X175433213Y-113016249D02*
G01*
X175527652Y-113044897D01*
X175614687Y-113091418D01*
X175690975Y-113154025D01*
X175753582Y-113230313D01*
X175800103Y-113317348D01*
X175828751Y-113411787D01*
X175836000Y-113485388D01*
X175836000Y-115134612D01*
X175828751Y-115208213D01*
X175800103Y-115302652D01*
X175753582Y-115389687D01*
X175690975Y-115465975D01*
X175614687Y-115528582D01*
X175527651Y-115575103D01*
X175433212Y-115603751D01*
X175335000Y-115613424D01*
X175236787Y-115603751D01*
X175142348Y-115575103D01*
X175055313Y-115528582D01*
X174979025Y-115465975D01*
X174916418Y-115389687D01*
X174869897Y-115302651D01*
X174841249Y-115208212D01*
X174834000Y-115134611D01*
X174834001Y-113485388D01*
X174841250Y-113411787D01*
X174869898Y-113317348D01*
X174916419Y-113230313D01*
X174979026Y-113154025D01*
X175055314Y-113091418D01*
X175142349Y-113044897D01*
X175236788Y-113016249D01*
X175335000Y-113006576D01*
X175433213Y-113016249D01*
X175433213Y-113016249D01*
G37*
G36*
X174163213Y-113016249D02*
G01*
X174257652Y-113044897D01*
X174344687Y-113091418D01*
X174420975Y-113154025D01*
X174483582Y-113230313D01*
X174530103Y-113317348D01*
X174558751Y-113411787D01*
X174566000Y-113485388D01*
X174566000Y-115134612D01*
X174558751Y-115208213D01*
X174530103Y-115302652D01*
X174483582Y-115389687D01*
X174420975Y-115465975D01*
X174344687Y-115528582D01*
X174257651Y-115575103D01*
X174163212Y-115603751D01*
X174065000Y-115613424D01*
X173966787Y-115603751D01*
X173872348Y-115575103D01*
X173785313Y-115528582D01*
X173709025Y-115465975D01*
X173646418Y-115389687D01*
X173599897Y-115302651D01*
X173571249Y-115208212D01*
X173564000Y-115134611D01*
X173564001Y-113485388D01*
X173571250Y-113411787D01*
X173599898Y-113317348D01*
X173646419Y-113230313D01*
X173709026Y-113154025D01*
X173785314Y-113091418D01*
X173872349Y-113044897D01*
X173966788Y-113016249D01*
X174065000Y-113006576D01*
X174163213Y-113016249D01*
X174163213Y-113016249D01*
G37*
G36*
X184323213Y-113016249D02*
G01*
X184417652Y-113044897D01*
X184504687Y-113091418D01*
X184580975Y-113154025D01*
X184643582Y-113230313D01*
X184690103Y-113317348D01*
X184718751Y-113411787D01*
X184726000Y-113485388D01*
X184726000Y-115134612D01*
X184718751Y-115208213D01*
X184690103Y-115302652D01*
X184643582Y-115389687D01*
X184580975Y-115465975D01*
X184504687Y-115528582D01*
X184417651Y-115575103D01*
X184323212Y-115603751D01*
X184225000Y-115613424D01*
X184126787Y-115603751D01*
X184032348Y-115575103D01*
X183945313Y-115528582D01*
X183869025Y-115465975D01*
X183806418Y-115389687D01*
X183759897Y-115302651D01*
X183731249Y-115208212D01*
X183724000Y-115134611D01*
X183724001Y-113485388D01*
X183731250Y-113411787D01*
X183759898Y-113317348D01*
X183806419Y-113230313D01*
X183869026Y-113154025D01*
X183945314Y-113091418D01*
X184032349Y-113044897D01*
X184126788Y-113016249D01*
X184225000Y-113006576D01*
X184323213Y-113016249D01*
X184323213Y-113016249D01*
G37*
G36*
X188961938Y-114631716D02*
G01*
X188982557Y-114637971D01*
X189001553Y-114648124D01*
X189018208Y-114661792D01*
X189031876Y-114678447D01*
X189042029Y-114697443D01*
X189048284Y-114718062D01*
X189051000Y-114745640D01*
X189051000Y-115204360D01*
X189048284Y-115231938D01*
X189042029Y-115252557D01*
X189031876Y-115271553D01*
X189018208Y-115288208D01*
X189001553Y-115301876D01*
X188982557Y-115312029D01*
X188961938Y-115318284D01*
X188934360Y-115321000D01*
X188425640Y-115321000D01*
X188398062Y-115318284D01*
X188377443Y-115312029D01*
X188358447Y-115301876D01*
X188341792Y-115288208D01*
X188328124Y-115271553D01*
X188317971Y-115252557D01*
X188311716Y-115231938D01*
X188309000Y-115204360D01*
X188309000Y-114745640D01*
X188311716Y-114718062D01*
X188317971Y-114697443D01*
X188328124Y-114678447D01*
X188341792Y-114661792D01*
X188358447Y-114648124D01*
X188377443Y-114637971D01*
X188398062Y-114631716D01*
X188425640Y-114629000D01*
X188934360Y-114629000D01*
X188961938Y-114631716D01*
X188961938Y-114631716D01*
G37*
G36*
X116081000Y-114961000D02*
G01*
X115179000Y-114961000D01*
X115179000Y-113959000D01*
X116081000Y-113959000D01*
X116081000Y-114961000D01*
X116081000Y-114961000D01*
G37*
G36*
X114181000Y-114961000D02*
G01*
X113279000Y-114961000D01*
X113279000Y-113959000D01*
X114181000Y-113959000D01*
X114181000Y-114961000D01*
X114181000Y-114961000D01*
G37*
G36*
X168181000Y-114961000D02*
G01*
X167179000Y-114961000D01*
X167179000Y-114059000D01*
X168181000Y-114059000D01*
X168181000Y-114961000D01*
X168181000Y-114961000D01*
G37*
G36*
X118961938Y-114116716D02*
G01*
X118982557Y-114122971D01*
X119001553Y-114133124D01*
X119018208Y-114146792D01*
X119031876Y-114163447D01*
X119042029Y-114182443D01*
X119048284Y-114203062D01*
X119051000Y-114230640D01*
X119051000Y-114689360D01*
X119048284Y-114716938D01*
X119042029Y-114737557D01*
X119031876Y-114756553D01*
X119018208Y-114773208D01*
X119001553Y-114786876D01*
X118982557Y-114797029D01*
X118961938Y-114803284D01*
X118934360Y-114806000D01*
X118425640Y-114806000D01*
X118398062Y-114803284D01*
X118377443Y-114797029D01*
X118358447Y-114786876D01*
X118341792Y-114773208D01*
X118328124Y-114756553D01*
X118317971Y-114737557D01*
X118311716Y-114716938D01*
X118309000Y-114689360D01*
X118309000Y-114230640D01*
X118311716Y-114203062D01*
X118317971Y-114182443D01*
X118328124Y-114163447D01*
X118341792Y-114146792D01*
X118358447Y-114133124D01*
X118377443Y-114122971D01*
X118398062Y-114116716D01*
X118425640Y-114114000D01*
X118934360Y-114114000D01*
X118961938Y-114116716D01*
X118961938Y-114116716D01*
G37*
G36*
X171678213Y-112326249D02*
G01*
X171772652Y-112354897D01*
X171859687Y-112401418D01*
X171935975Y-112464025D01*
X171998582Y-112540313D01*
X172045103Y-112627348D01*
X172073751Y-112721787D01*
X172083424Y-112820000D01*
X172073751Y-112918213D01*
X172045103Y-113012652D01*
X171998582Y-113099687D01*
X171935975Y-113175975D01*
X171859687Y-113238582D01*
X171772652Y-113285103D01*
X171678213Y-113313751D01*
X171604612Y-113321000D01*
X169955388Y-113321000D01*
X169881787Y-113313751D01*
X169787348Y-113285103D01*
X169700313Y-113238582D01*
X169624025Y-113175975D01*
X169561418Y-113099687D01*
X169514897Y-113012652D01*
X169486249Y-112918213D01*
X169476576Y-112820000D01*
X169486249Y-112721787D01*
X169514897Y-112627348D01*
X169561418Y-112540313D01*
X169624025Y-112464025D01*
X169700313Y-112401418D01*
X169787348Y-112354897D01*
X169881787Y-112326249D01*
X169955388Y-112319000D01*
X171604612Y-112319000D01*
X171678213Y-112326249D01*
X171678213Y-112326249D01*
G37*
G36*
X189678213Y-112326249D02*
G01*
X189772652Y-112354897D01*
X189859687Y-112401418D01*
X189935975Y-112464025D01*
X189998582Y-112540313D01*
X190045103Y-112627348D01*
X190073751Y-112721787D01*
X190083424Y-112820000D01*
X190073751Y-112918213D01*
X190045103Y-113012652D01*
X189998582Y-113099687D01*
X189935975Y-113175975D01*
X189859687Y-113238582D01*
X189772652Y-113285103D01*
X189678213Y-113313751D01*
X189604612Y-113321000D01*
X187955388Y-113321000D01*
X187881787Y-113313751D01*
X187787348Y-113285103D01*
X187700313Y-113238582D01*
X187624025Y-113175975D01*
X187561418Y-113099687D01*
X187514897Y-113012652D01*
X187486249Y-112918213D01*
X187476576Y-112820000D01*
X187486249Y-112721787D01*
X187514897Y-112627348D01*
X187561418Y-112540313D01*
X187624025Y-112464025D01*
X187700313Y-112401418D01*
X187787348Y-112354897D01*
X187881787Y-112326249D01*
X187955388Y-112319000D01*
X189604612Y-112319000D01*
X189678213Y-112326249D01*
X189678213Y-112326249D01*
G37*
G36*
X118961938Y-112601716D02*
G01*
X118982557Y-112607971D01*
X119001553Y-112618124D01*
X119018208Y-112631792D01*
X119031876Y-112648447D01*
X119042029Y-112667443D01*
X119048284Y-112688062D01*
X119051000Y-112715640D01*
X119051000Y-113174360D01*
X119048284Y-113201938D01*
X119042029Y-113222557D01*
X119031876Y-113241553D01*
X119018208Y-113258208D01*
X119001553Y-113271876D01*
X118982557Y-113282029D01*
X118961938Y-113288284D01*
X118934360Y-113291000D01*
X118425640Y-113291000D01*
X118398062Y-113288284D01*
X118377443Y-113282029D01*
X118358447Y-113271876D01*
X118341792Y-113258208D01*
X118328124Y-113241553D01*
X118317971Y-113222557D01*
X118311716Y-113201938D01*
X118309000Y-113174360D01*
X118309000Y-112715640D01*
X118311716Y-112688062D01*
X118317971Y-112667443D01*
X118328124Y-112648447D01*
X118341792Y-112631792D01*
X118358447Y-112618124D01*
X118377443Y-112607971D01*
X118398062Y-112601716D01*
X118425640Y-112599000D01*
X118934360Y-112599000D01*
X118961938Y-112601716D01*
X118961938Y-112601716D01*
G37*
G36*
X167961938Y-112601716D02*
G01*
X167982557Y-112607971D01*
X168001553Y-112618124D01*
X168018208Y-112631792D01*
X168031876Y-112648447D01*
X168042029Y-112667443D01*
X168048284Y-112688062D01*
X168051000Y-112715640D01*
X168051000Y-113174360D01*
X168048284Y-113201938D01*
X168042029Y-113222557D01*
X168031876Y-113241553D01*
X168018208Y-113258208D01*
X168001553Y-113271876D01*
X167982557Y-113282029D01*
X167961938Y-113288284D01*
X167934360Y-113291000D01*
X167425640Y-113291000D01*
X167398062Y-113288284D01*
X167377443Y-113282029D01*
X167358447Y-113271876D01*
X167341792Y-113258208D01*
X167328124Y-113241553D01*
X167317971Y-113222557D01*
X167311716Y-113201938D01*
X167309000Y-113174360D01*
X167309000Y-112715640D01*
X167311716Y-112688062D01*
X167317971Y-112667443D01*
X167328124Y-112648447D01*
X167341792Y-112631792D01*
X167358447Y-112618124D01*
X167377443Y-112607971D01*
X167398062Y-112601716D01*
X167425640Y-112599000D01*
X167934360Y-112599000D01*
X167961938Y-112601716D01*
X167961938Y-112601716D01*
G37*
G36*
X115131000Y-112961000D02*
G01*
X114229000Y-112961000D01*
X114229000Y-111959000D01*
X115131000Y-111959000D01*
X115131000Y-112961000D01*
X115131000Y-112961000D01*
G37*
G36*
X118961938Y-111631716D02*
G01*
X118982557Y-111637971D01*
X119001553Y-111648124D01*
X119018208Y-111661792D01*
X119031876Y-111678447D01*
X119042029Y-111697443D01*
X119048284Y-111718062D01*
X119051000Y-111745640D01*
X119051000Y-112204360D01*
X119048284Y-112231938D01*
X119042029Y-112252557D01*
X119031876Y-112271553D01*
X119018208Y-112288208D01*
X119001553Y-112301876D01*
X118982557Y-112312029D01*
X118961938Y-112318284D01*
X118934360Y-112321000D01*
X118425640Y-112321000D01*
X118398062Y-112318284D01*
X118377443Y-112312029D01*
X118358447Y-112301876D01*
X118341792Y-112288208D01*
X118328124Y-112271553D01*
X118317971Y-112252557D01*
X118311716Y-112231938D01*
X118309000Y-112204360D01*
X118309000Y-111745640D01*
X118311716Y-111718062D01*
X118317971Y-111697443D01*
X118328124Y-111678447D01*
X118341792Y-111661792D01*
X118358447Y-111648124D01*
X118377443Y-111637971D01*
X118398062Y-111631716D01*
X118425640Y-111629000D01*
X118934360Y-111629000D01*
X118961938Y-111631716D01*
X118961938Y-111631716D01*
G37*
G36*
X167961938Y-111631716D02*
G01*
X167982557Y-111637971D01*
X168001553Y-111648124D01*
X168018208Y-111661792D01*
X168031876Y-111678447D01*
X168042029Y-111697443D01*
X168048284Y-111718062D01*
X168051000Y-111745640D01*
X168051000Y-112204360D01*
X168048284Y-112231938D01*
X168042029Y-112252557D01*
X168031876Y-112271553D01*
X168018208Y-112288208D01*
X168001553Y-112301876D01*
X167982557Y-112312029D01*
X167961938Y-112318284D01*
X167934360Y-112321000D01*
X167425640Y-112321000D01*
X167398062Y-112318284D01*
X167377443Y-112312029D01*
X167358447Y-112301876D01*
X167341792Y-112288208D01*
X167328124Y-112271553D01*
X167317971Y-112252557D01*
X167311716Y-112231938D01*
X167309000Y-112204360D01*
X167309000Y-111745640D01*
X167311716Y-111718062D01*
X167317971Y-111697443D01*
X167328124Y-111678447D01*
X167341792Y-111661792D01*
X167358447Y-111648124D01*
X167377443Y-111637971D01*
X167398062Y-111631716D01*
X167425640Y-111629000D01*
X167934360Y-111629000D01*
X167961938Y-111631716D01*
X167961938Y-111631716D01*
G37*
G36*
X171678213Y-111056249D02*
G01*
X171772652Y-111084897D01*
X171859687Y-111131418D01*
X171935975Y-111194025D01*
X171998582Y-111270313D01*
X172045103Y-111357348D01*
X172073751Y-111451787D01*
X172083424Y-111550000D01*
X172073751Y-111648213D01*
X172045103Y-111742652D01*
X171998582Y-111829687D01*
X171935975Y-111905975D01*
X171859687Y-111968582D01*
X171772652Y-112015103D01*
X171678213Y-112043751D01*
X171604612Y-112051000D01*
X169955388Y-112051000D01*
X169881787Y-112043751D01*
X169787348Y-112015103D01*
X169700313Y-111968582D01*
X169624025Y-111905975D01*
X169561418Y-111829687D01*
X169514897Y-111742652D01*
X169486249Y-111648213D01*
X169476576Y-111550000D01*
X169486249Y-111451787D01*
X169514897Y-111357348D01*
X169561418Y-111270313D01*
X169624025Y-111194025D01*
X169700313Y-111131418D01*
X169787348Y-111084897D01*
X169881787Y-111056249D01*
X169955388Y-111049000D01*
X171604612Y-111049000D01*
X171678213Y-111056249D01*
X171678213Y-111056249D01*
G37*
G36*
X189678213Y-111056249D02*
G01*
X189772652Y-111084897D01*
X189859687Y-111131418D01*
X189935975Y-111194025D01*
X189998582Y-111270313D01*
X190045103Y-111357348D01*
X190073751Y-111451787D01*
X190083424Y-111550000D01*
X190073751Y-111648213D01*
X190045103Y-111742652D01*
X189998582Y-111829687D01*
X189935975Y-111905975D01*
X189859687Y-111968582D01*
X189772652Y-112015103D01*
X189678213Y-112043751D01*
X189604612Y-112051000D01*
X187955388Y-112051000D01*
X187881787Y-112043751D01*
X187787348Y-112015103D01*
X187700313Y-111968582D01*
X187624025Y-111905975D01*
X187561418Y-111829687D01*
X187514897Y-111742652D01*
X187486249Y-111648213D01*
X187476576Y-111550000D01*
X187486249Y-111451787D01*
X187514897Y-111357348D01*
X187561418Y-111270313D01*
X187624025Y-111194025D01*
X187700313Y-111131418D01*
X187787348Y-111084897D01*
X187881787Y-111056249D01*
X187955388Y-111049000D01*
X189604612Y-111049000D01*
X189678213Y-111056249D01*
X189678213Y-111056249D01*
G37*
G36*
X171678213Y-109786249D02*
G01*
X171772652Y-109814897D01*
X171859687Y-109861418D01*
X171935975Y-109924025D01*
X171998582Y-110000313D01*
X172045103Y-110087348D01*
X172073751Y-110181787D01*
X172083424Y-110280000D01*
X172073751Y-110378213D01*
X172045103Y-110472652D01*
X171998582Y-110559687D01*
X171935975Y-110635975D01*
X171859687Y-110698582D01*
X171772652Y-110745103D01*
X171678213Y-110773751D01*
X171604612Y-110781000D01*
X169955388Y-110781000D01*
X169881787Y-110773751D01*
X169787348Y-110745103D01*
X169700313Y-110698582D01*
X169624025Y-110635975D01*
X169561418Y-110559687D01*
X169514897Y-110472652D01*
X169486249Y-110378213D01*
X169476576Y-110280000D01*
X169486249Y-110181787D01*
X169514897Y-110087348D01*
X169561418Y-110000313D01*
X169624025Y-109924025D01*
X169700313Y-109861418D01*
X169787348Y-109814897D01*
X169881787Y-109786249D01*
X169955388Y-109779000D01*
X171604612Y-109779000D01*
X171678213Y-109786249D01*
X171678213Y-109786249D01*
G37*
G36*
X189678213Y-109786249D02*
G01*
X189772652Y-109814897D01*
X189859687Y-109861418D01*
X189935975Y-109924025D01*
X189998582Y-110000313D01*
X190045103Y-110087348D01*
X190073751Y-110181787D01*
X190083424Y-110280000D01*
X190073751Y-110378213D01*
X190045103Y-110472652D01*
X189998582Y-110559687D01*
X189935975Y-110635975D01*
X189859687Y-110698582D01*
X189772652Y-110745103D01*
X189678213Y-110773751D01*
X189604612Y-110781000D01*
X187955388Y-110781000D01*
X187881787Y-110773751D01*
X187787348Y-110745103D01*
X187700313Y-110698582D01*
X187624025Y-110635975D01*
X187561418Y-110559687D01*
X187514897Y-110472652D01*
X187486249Y-110378213D01*
X187476576Y-110280000D01*
X187486249Y-110181787D01*
X187514897Y-110087348D01*
X187561418Y-110000313D01*
X187624025Y-109924025D01*
X187700313Y-109861418D01*
X187787348Y-109814897D01*
X187881787Y-109786249D01*
X187955388Y-109779000D01*
X189604612Y-109779000D01*
X189678213Y-109786249D01*
X189678213Y-109786249D01*
G37*
G36*
X189678213Y-108516249D02*
G01*
X189772652Y-108544897D01*
X189859687Y-108591418D01*
X189935975Y-108654025D01*
X189998582Y-108730313D01*
X190045103Y-108817348D01*
X190073751Y-108911787D01*
X190083424Y-109010000D01*
X190073751Y-109108213D01*
X190045103Y-109202652D01*
X189998582Y-109289687D01*
X189935975Y-109365975D01*
X189859687Y-109428582D01*
X189772652Y-109475103D01*
X189678213Y-109503751D01*
X189604612Y-109511000D01*
X187955388Y-109511000D01*
X187881787Y-109503751D01*
X187787348Y-109475103D01*
X187700313Y-109428582D01*
X187624025Y-109365975D01*
X187561418Y-109289687D01*
X187514897Y-109202652D01*
X187486249Y-109108213D01*
X187476576Y-109010000D01*
X187486249Y-108911787D01*
X187514897Y-108817348D01*
X187561418Y-108730313D01*
X187624025Y-108654025D01*
X187700313Y-108591418D01*
X187787348Y-108544897D01*
X187881787Y-108516249D01*
X187955388Y-108509000D01*
X189604612Y-108509000D01*
X189678213Y-108516249D01*
X189678213Y-108516249D01*
G37*
G36*
X171678213Y-108516249D02*
G01*
X171772652Y-108544897D01*
X171859687Y-108591418D01*
X171935975Y-108654025D01*
X171998582Y-108730313D01*
X172045103Y-108817348D01*
X172073751Y-108911787D01*
X172083424Y-109010000D01*
X172073751Y-109108213D01*
X172045103Y-109202652D01*
X171998582Y-109289687D01*
X171935975Y-109365975D01*
X171859687Y-109428582D01*
X171772652Y-109475103D01*
X171678213Y-109503751D01*
X171604612Y-109511000D01*
X169955388Y-109511000D01*
X169881787Y-109503751D01*
X169787348Y-109475103D01*
X169700313Y-109428582D01*
X169624025Y-109365975D01*
X169561418Y-109289687D01*
X169514897Y-109202652D01*
X169486249Y-109108213D01*
X169476576Y-109010000D01*
X169486249Y-108911787D01*
X169514897Y-108817348D01*
X169561418Y-108730313D01*
X169624025Y-108654025D01*
X169700313Y-108591418D01*
X169787348Y-108544897D01*
X169881787Y-108516249D01*
X169955388Y-108509000D01*
X171604612Y-108509000D01*
X171678213Y-108516249D01*
X171678213Y-108516249D01*
G37*
G36*
X189678213Y-107246249D02*
G01*
X189772652Y-107274897D01*
X189859687Y-107321418D01*
X189935975Y-107384025D01*
X189998582Y-107460313D01*
X190045103Y-107547348D01*
X190073751Y-107641787D01*
X190083424Y-107740000D01*
X190073751Y-107838213D01*
X190045103Y-107932652D01*
X189998582Y-108019687D01*
X189935975Y-108095975D01*
X189859687Y-108158582D01*
X189772652Y-108205103D01*
X189678213Y-108233751D01*
X189604612Y-108241000D01*
X187955388Y-108241000D01*
X187881787Y-108233751D01*
X187787348Y-108205103D01*
X187700313Y-108158582D01*
X187624025Y-108095975D01*
X187561418Y-108019687D01*
X187514897Y-107932652D01*
X187486249Y-107838213D01*
X187476576Y-107740000D01*
X187486249Y-107641787D01*
X187514897Y-107547348D01*
X187561418Y-107460313D01*
X187624025Y-107384025D01*
X187700313Y-107321418D01*
X187787348Y-107274897D01*
X187881787Y-107246249D01*
X187955388Y-107239000D01*
X189604612Y-107239000D01*
X189678213Y-107246249D01*
X189678213Y-107246249D01*
G37*
G36*
X171678213Y-107246249D02*
G01*
X171772652Y-107274897D01*
X171859687Y-107321418D01*
X171935975Y-107384025D01*
X171998582Y-107460313D01*
X172045103Y-107547348D01*
X172073751Y-107641787D01*
X172083424Y-107740000D01*
X172073751Y-107838213D01*
X172045103Y-107932652D01*
X171998582Y-108019687D01*
X171935975Y-108095975D01*
X171859687Y-108158582D01*
X171772652Y-108205103D01*
X171678213Y-108233751D01*
X171604612Y-108241000D01*
X169955388Y-108241000D01*
X169881787Y-108233751D01*
X169787348Y-108205103D01*
X169700313Y-108158582D01*
X169624025Y-108095975D01*
X169561418Y-108019687D01*
X169514897Y-107932652D01*
X169486249Y-107838213D01*
X169476576Y-107740000D01*
X169486249Y-107641787D01*
X169514897Y-107547348D01*
X169561418Y-107460313D01*
X169624025Y-107384025D01*
X169700313Y-107321418D01*
X169787348Y-107274897D01*
X169881787Y-107246249D01*
X169955388Y-107239000D01*
X171604612Y-107239000D01*
X171678213Y-107246249D01*
X171678213Y-107246249D01*
G37*
G36*
X182531000Y-107061000D02*
G01*
X176429000Y-107061000D01*
X176429000Y-100959000D01*
X182531000Y-100959000D01*
X182531000Y-107061000D01*
X182531000Y-107061000D01*
G37*
G36*
X171678213Y-105976249D02*
G01*
X171772652Y-106004897D01*
X171859687Y-106051418D01*
X171935975Y-106114025D01*
X171998582Y-106190313D01*
X172045103Y-106277348D01*
X172073751Y-106371787D01*
X172083424Y-106470000D01*
X172073751Y-106568213D01*
X172045103Y-106662652D01*
X171998582Y-106749687D01*
X171935975Y-106825975D01*
X171859687Y-106888582D01*
X171772652Y-106935103D01*
X171678213Y-106963751D01*
X171604612Y-106971000D01*
X169955388Y-106971000D01*
X169881787Y-106963751D01*
X169787348Y-106935103D01*
X169700313Y-106888582D01*
X169624025Y-106825975D01*
X169561418Y-106749687D01*
X169514897Y-106662652D01*
X169486249Y-106568213D01*
X169476576Y-106470000D01*
X169486249Y-106371787D01*
X169514897Y-106277348D01*
X169561418Y-106190313D01*
X169624025Y-106114025D01*
X169700313Y-106051418D01*
X169787348Y-106004897D01*
X169881787Y-105976249D01*
X169955388Y-105969000D01*
X171604612Y-105969000D01*
X171678213Y-105976249D01*
X171678213Y-105976249D01*
G37*
G36*
X189678213Y-105976249D02*
G01*
X189772652Y-106004897D01*
X189859687Y-106051418D01*
X189935975Y-106114025D01*
X189998582Y-106190313D01*
X190045103Y-106277348D01*
X190073751Y-106371787D01*
X190083424Y-106470000D01*
X190073751Y-106568213D01*
X190045103Y-106662652D01*
X189998582Y-106749687D01*
X189935975Y-106825975D01*
X189859687Y-106888582D01*
X189772652Y-106935103D01*
X189678213Y-106963751D01*
X189604612Y-106971000D01*
X187955388Y-106971000D01*
X187881787Y-106963751D01*
X187787348Y-106935103D01*
X187700313Y-106888582D01*
X187624025Y-106825975D01*
X187561418Y-106749687D01*
X187514897Y-106662652D01*
X187486249Y-106568213D01*
X187476576Y-106470000D01*
X187486249Y-106371787D01*
X187514897Y-106277348D01*
X187561418Y-106190313D01*
X187624025Y-106114025D01*
X187700313Y-106051418D01*
X187787348Y-106004897D01*
X187881787Y-105976249D01*
X187955388Y-105969000D01*
X189604612Y-105969000D01*
X189678213Y-105976249D01*
X189678213Y-105976249D01*
G37*
G36*
X121891000Y-106261000D02*
G01*
X119969000Y-106261000D01*
X119969000Y-105659000D01*
X121891000Y-105659000D01*
X121891000Y-106261000D01*
X121891000Y-106261000D01*
G37*
G36*
X152611767Y-86195254D02*
G01*
X154440932Y-86952919D01*
X154440934Y-86952920D01*
X156087139Y-88052879D01*
X157487121Y-89452861D01*
X158364909Y-90766564D01*
X158587081Y-91099068D01*
X159344746Y-92928233D01*
X159731000Y-94870062D01*
X159731000Y-96849938D01*
X159344746Y-98791767D01*
X158647124Y-100475975D01*
X158587080Y-100620934D01*
X157487121Y-102267139D01*
X156087139Y-103667121D01*
X154440934Y-104767080D01*
X154440933Y-104767081D01*
X154440932Y-104767081D01*
X152611767Y-105524746D01*
X150669938Y-105911000D01*
X148690062Y-105911000D01*
X146748233Y-105524746D01*
X144919068Y-104767081D01*
X144919067Y-104767081D01*
X144919066Y-104767080D01*
X143272861Y-103667121D01*
X141872879Y-102267139D01*
X140772920Y-100620934D01*
X140712876Y-100475975D01*
X140015254Y-98791767D01*
X139629000Y-96849938D01*
X139629000Y-94870062D01*
X140015254Y-92928233D01*
X140772919Y-91099068D01*
X140995091Y-90766564D01*
X141872879Y-89452861D01*
X143272861Y-88052879D01*
X144919066Y-86952920D01*
X144919068Y-86952919D01*
X146748233Y-86195254D01*
X148690062Y-85809000D01*
X150669938Y-85809000D01*
X152611767Y-86195254D01*
X152611767Y-86195254D01*
G37*
G36*
X171678213Y-104706249D02*
G01*
X171772652Y-104734897D01*
X171859687Y-104781418D01*
X171935975Y-104844025D01*
X171998582Y-104920313D01*
X172045103Y-105007348D01*
X172073751Y-105101787D01*
X172083424Y-105200000D01*
X172073751Y-105298213D01*
X172045103Y-105392652D01*
X171998582Y-105479687D01*
X171935975Y-105555975D01*
X171859687Y-105618582D01*
X171772652Y-105665103D01*
X171678213Y-105693751D01*
X171604612Y-105701000D01*
X169955388Y-105701000D01*
X169881787Y-105693751D01*
X169787348Y-105665103D01*
X169700313Y-105618582D01*
X169624025Y-105555975D01*
X169561418Y-105479687D01*
X169514897Y-105392652D01*
X169486249Y-105298213D01*
X169476576Y-105200000D01*
X169486249Y-105101787D01*
X169514897Y-105007348D01*
X169561418Y-104920313D01*
X169624025Y-104844025D01*
X169700313Y-104781418D01*
X169787348Y-104734897D01*
X169881787Y-104706249D01*
X169955388Y-104699000D01*
X171604612Y-104699000D01*
X171678213Y-104706249D01*
X171678213Y-104706249D01*
G37*
G36*
X189678213Y-104706249D02*
G01*
X189772652Y-104734897D01*
X189859687Y-104781418D01*
X189935975Y-104844025D01*
X189998582Y-104920313D01*
X190045103Y-105007348D01*
X190073751Y-105101787D01*
X190083424Y-105200000D01*
X190073751Y-105298213D01*
X190045103Y-105392652D01*
X189998582Y-105479687D01*
X189935975Y-105555975D01*
X189859687Y-105618582D01*
X189772652Y-105665103D01*
X189678213Y-105693751D01*
X189604612Y-105701000D01*
X187955388Y-105701000D01*
X187881787Y-105693751D01*
X187787348Y-105665103D01*
X187700313Y-105618582D01*
X187624025Y-105555975D01*
X187561418Y-105479687D01*
X187514897Y-105392652D01*
X187486249Y-105298213D01*
X187476576Y-105200000D01*
X187486249Y-105101787D01*
X187514897Y-105007348D01*
X187561418Y-104920313D01*
X187624025Y-104844025D01*
X187700313Y-104781418D01*
X187787348Y-104734897D01*
X187881787Y-104706249D01*
X187955388Y-104699000D01*
X189604612Y-104699000D01*
X189678213Y-104706249D01*
X189678213Y-104706249D01*
G37*
G36*
X121891000Y-105261000D02*
G01*
X119969000Y-105261000D01*
X119969000Y-104659000D01*
X121891000Y-104659000D01*
X121891000Y-105261000D01*
X121891000Y-105261000D01*
G37*
G36*
X171678213Y-103436249D02*
G01*
X171772652Y-103464897D01*
X171859687Y-103511418D01*
X171935975Y-103574025D01*
X171998582Y-103650313D01*
X172045103Y-103737348D01*
X172073751Y-103831787D01*
X172083424Y-103930000D01*
X172073751Y-104028213D01*
X172045103Y-104122652D01*
X171998582Y-104209687D01*
X171935975Y-104285975D01*
X171859687Y-104348582D01*
X171772652Y-104395103D01*
X171678213Y-104423751D01*
X171604612Y-104431000D01*
X169955388Y-104431000D01*
X169881787Y-104423751D01*
X169787348Y-104395103D01*
X169700313Y-104348582D01*
X169624025Y-104285975D01*
X169561418Y-104209687D01*
X169514897Y-104122652D01*
X169486249Y-104028213D01*
X169476576Y-103930000D01*
X169486249Y-103831787D01*
X169514897Y-103737348D01*
X169561418Y-103650313D01*
X169624025Y-103574025D01*
X169700313Y-103511418D01*
X169787348Y-103464897D01*
X169881787Y-103436249D01*
X169955388Y-103429000D01*
X171604612Y-103429000D01*
X171678213Y-103436249D01*
X171678213Y-103436249D01*
G37*
G36*
X189678213Y-103436249D02*
G01*
X189772652Y-103464897D01*
X189859687Y-103511418D01*
X189935975Y-103574025D01*
X189998582Y-103650313D01*
X190045103Y-103737348D01*
X190073751Y-103831787D01*
X190083424Y-103930000D01*
X190073751Y-104028213D01*
X190045103Y-104122652D01*
X189998582Y-104209687D01*
X189935975Y-104285975D01*
X189859687Y-104348582D01*
X189772652Y-104395103D01*
X189678213Y-104423751D01*
X189604612Y-104431000D01*
X187955388Y-104431000D01*
X187881787Y-104423751D01*
X187787348Y-104395103D01*
X187700313Y-104348582D01*
X187624025Y-104285975D01*
X187561418Y-104209687D01*
X187514897Y-104122652D01*
X187486249Y-104028213D01*
X187476576Y-103930000D01*
X187486249Y-103831787D01*
X187514897Y-103737348D01*
X187561418Y-103650313D01*
X187624025Y-103574025D01*
X187700313Y-103511418D01*
X187787348Y-103464897D01*
X187881787Y-103436249D01*
X187955388Y-103429000D01*
X189604612Y-103429000D01*
X189678213Y-103436249D01*
X189678213Y-103436249D01*
G37*
G36*
X121481000Y-103661000D02*
G01*
X119879000Y-103661000D01*
X119879000Y-101559000D01*
X121481000Y-101559000D01*
X121481000Y-103661000D01*
X121481000Y-103661000D01*
G37*
G36*
X123781000Y-103661000D02*
G01*
X122179000Y-103661000D01*
X122179000Y-101559000D01*
X123781000Y-101559000D01*
X123781000Y-103661000D01*
X123781000Y-103661000D01*
G37*
G36*
X119181000Y-103661000D02*
G01*
X117579000Y-103661000D01*
X117579000Y-101559000D01*
X119181000Y-101559000D01*
X119181000Y-103661000D01*
X119181000Y-103661000D01*
G37*
G36*
X189678213Y-102166249D02*
G01*
X189772652Y-102194897D01*
X189859687Y-102241418D01*
X189935975Y-102304025D01*
X189998582Y-102380313D01*
X190045103Y-102467348D01*
X190073751Y-102561787D01*
X190083424Y-102660000D01*
X190073751Y-102758213D01*
X190045103Y-102852652D01*
X189998582Y-102939687D01*
X189935975Y-103015975D01*
X189859687Y-103078582D01*
X189772652Y-103125103D01*
X189678213Y-103153751D01*
X189604612Y-103161000D01*
X187955388Y-103161000D01*
X187881787Y-103153751D01*
X187787348Y-103125103D01*
X187700313Y-103078582D01*
X187624025Y-103015975D01*
X187561418Y-102939687D01*
X187514897Y-102852652D01*
X187486249Y-102758213D01*
X187476576Y-102660000D01*
X187486249Y-102561787D01*
X187514897Y-102467348D01*
X187561418Y-102380313D01*
X187624025Y-102304025D01*
X187700313Y-102241418D01*
X187787348Y-102194897D01*
X187881787Y-102166249D01*
X187955388Y-102159000D01*
X189604612Y-102159000D01*
X189678213Y-102166249D01*
X189678213Y-102166249D01*
G37*
G36*
X171678213Y-102166249D02*
G01*
X171772652Y-102194897D01*
X171859687Y-102241418D01*
X171935975Y-102304025D01*
X171998582Y-102380313D01*
X172045103Y-102467348D01*
X172073751Y-102561787D01*
X172083424Y-102660000D01*
X172073751Y-102758213D01*
X172045103Y-102852652D01*
X171998582Y-102939687D01*
X171935975Y-103015975D01*
X171859687Y-103078582D01*
X171772652Y-103125103D01*
X171678213Y-103153751D01*
X171604612Y-103161000D01*
X169955388Y-103161000D01*
X169881787Y-103153751D01*
X169787348Y-103125103D01*
X169700313Y-103078582D01*
X169624025Y-103015975D01*
X169561418Y-102939687D01*
X169514897Y-102852652D01*
X169486249Y-102758213D01*
X169476576Y-102660000D01*
X169486249Y-102561787D01*
X169514897Y-102467348D01*
X169561418Y-102380313D01*
X169624025Y-102304025D01*
X169700313Y-102241418D01*
X169787348Y-102194897D01*
X169881787Y-102166249D01*
X169955388Y-102159000D01*
X171604612Y-102159000D01*
X171678213Y-102166249D01*
X171678213Y-102166249D01*
G37*
G36*
X126059591Y-101763085D02*
G01*
X126093569Y-101773393D01*
X126124890Y-101790134D01*
X126152339Y-101812661D01*
X126174866Y-101840110D01*
X126191607Y-101871431D01*
X126201915Y-101905409D01*
X126206000Y-101946890D01*
X126206000Y-102548110D01*
X126201915Y-102589591D01*
X126191607Y-102623569D01*
X126174866Y-102654890D01*
X126152339Y-102682339D01*
X126124890Y-102704866D01*
X126093569Y-102721607D01*
X126059591Y-102731915D01*
X126018110Y-102736000D01*
X125341890Y-102736000D01*
X125300409Y-102731915D01*
X125266431Y-102721607D01*
X125235110Y-102704866D01*
X125207661Y-102682339D01*
X125185134Y-102654890D01*
X125168393Y-102623569D01*
X125158085Y-102589591D01*
X125154000Y-102548110D01*
X125154000Y-101946890D01*
X125158085Y-101905409D01*
X125168393Y-101871431D01*
X125185134Y-101840110D01*
X125207661Y-101812661D01*
X125235110Y-101790134D01*
X125266431Y-101773393D01*
X125300409Y-101763085D01*
X125341890Y-101759000D01*
X126018110Y-101759000D01*
X126059591Y-101763085D01*
X126059591Y-101763085D01*
G37*
G36*
X116059591Y-101763085D02*
G01*
X116093569Y-101773393D01*
X116124890Y-101790134D01*
X116152339Y-101812661D01*
X116174866Y-101840110D01*
X116191607Y-101871431D01*
X116201915Y-101905409D01*
X116206000Y-101946890D01*
X116206000Y-102548110D01*
X116201915Y-102589591D01*
X116191607Y-102623569D01*
X116174866Y-102654890D01*
X116152339Y-102682339D01*
X116124890Y-102704866D01*
X116093569Y-102721607D01*
X116059591Y-102731915D01*
X116018110Y-102736000D01*
X115341890Y-102736000D01*
X115300409Y-102731915D01*
X115266431Y-102721607D01*
X115235110Y-102704866D01*
X115207661Y-102682339D01*
X115185134Y-102654890D01*
X115168393Y-102623569D01*
X115158085Y-102589591D01*
X115154000Y-102548110D01*
X115154000Y-101946890D01*
X115158085Y-101905409D01*
X115168393Y-101871431D01*
X115185134Y-101840110D01*
X115207661Y-101812661D01*
X115235110Y-101790134D01*
X115266431Y-101773393D01*
X115300409Y-101763085D01*
X115341890Y-101759000D01*
X116018110Y-101759000D01*
X116059591Y-101763085D01*
X116059591Y-101763085D01*
G37*
G36*
X171678213Y-100896249D02*
G01*
X171772652Y-100924897D01*
X171859687Y-100971418D01*
X171935975Y-101034025D01*
X171998582Y-101110313D01*
X172045103Y-101197348D01*
X172073751Y-101291787D01*
X172083424Y-101390000D01*
X172073751Y-101488213D01*
X172045103Y-101582652D01*
X171998582Y-101669687D01*
X171935975Y-101745975D01*
X171859687Y-101808582D01*
X171772652Y-101855103D01*
X171678213Y-101883751D01*
X171604612Y-101891000D01*
X169955388Y-101891000D01*
X169881787Y-101883751D01*
X169787348Y-101855103D01*
X169700313Y-101808582D01*
X169624025Y-101745975D01*
X169561418Y-101669687D01*
X169514897Y-101582652D01*
X169486249Y-101488213D01*
X169476576Y-101390000D01*
X169486249Y-101291787D01*
X169514897Y-101197348D01*
X169561418Y-101110313D01*
X169624025Y-101034025D01*
X169700313Y-100971418D01*
X169787348Y-100924897D01*
X169881787Y-100896249D01*
X169955388Y-100889000D01*
X171604612Y-100889000D01*
X171678213Y-100896249D01*
X171678213Y-100896249D01*
G37*
G36*
X189678213Y-100896249D02*
G01*
X189772652Y-100924897D01*
X189859687Y-100971418D01*
X189935975Y-101034025D01*
X189998582Y-101110313D01*
X190045103Y-101197348D01*
X190073751Y-101291787D01*
X190083424Y-101390000D01*
X190073751Y-101488213D01*
X190045103Y-101582652D01*
X189998582Y-101669687D01*
X189935975Y-101745975D01*
X189859687Y-101808582D01*
X189772652Y-101855103D01*
X189678213Y-101883751D01*
X189604612Y-101891000D01*
X187955388Y-101891000D01*
X187881787Y-101883751D01*
X187787348Y-101855103D01*
X187700313Y-101808582D01*
X187624025Y-101745975D01*
X187561418Y-101669687D01*
X187514897Y-101582652D01*
X187486249Y-101488213D01*
X187476576Y-101390000D01*
X187486249Y-101291787D01*
X187514897Y-101197348D01*
X187561418Y-101110313D01*
X187624025Y-101034025D01*
X187700313Y-100971418D01*
X187787348Y-100924897D01*
X187881787Y-100896249D01*
X187955388Y-100889000D01*
X189604612Y-100889000D01*
X189678213Y-100896249D01*
X189678213Y-100896249D01*
G37*
G36*
X126059591Y-100188085D02*
G01*
X126093569Y-100198393D01*
X126124890Y-100215134D01*
X126152339Y-100237661D01*
X126174866Y-100265110D01*
X126191607Y-100296431D01*
X126201915Y-100330409D01*
X126206000Y-100371890D01*
X126206000Y-100973110D01*
X126201915Y-101014591D01*
X126191607Y-101048569D01*
X126174866Y-101079890D01*
X126152339Y-101107339D01*
X126124890Y-101129866D01*
X126093569Y-101146607D01*
X126059591Y-101156915D01*
X126018110Y-101161000D01*
X125341890Y-101161000D01*
X125300409Y-101156915D01*
X125266431Y-101146607D01*
X125235110Y-101129866D01*
X125207661Y-101107339D01*
X125185134Y-101079890D01*
X125168393Y-101048569D01*
X125158085Y-101014591D01*
X125154000Y-100973110D01*
X125154000Y-100371890D01*
X125158085Y-100330409D01*
X125168393Y-100296431D01*
X125185134Y-100265110D01*
X125207661Y-100237661D01*
X125235110Y-100215134D01*
X125266431Y-100198393D01*
X125300409Y-100188085D01*
X125341890Y-100184000D01*
X126018110Y-100184000D01*
X126059591Y-100188085D01*
X126059591Y-100188085D01*
G37*
G36*
X116059591Y-100188085D02*
G01*
X116093569Y-100198393D01*
X116124890Y-100215134D01*
X116152339Y-100237661D01*
X116174866Y-100265110D01*
X116191607Y-100296431D01*
X116201915Y-100330409D01*
X116206000Y-100371890D01*
X116206000Y-100973110D01*
X116201915Y-101014591D01*
X116191607Y-101048569D01*
X116174866Y-101079890D01*
X116152339Y-101107339D01*
X116124890Y-101129866D01*
X116093569Y-101146607D01*
X116059591Y-101156915D01*
X116018110Y-101161000D01*
X115341890Y-101161000D01*
X115300409Y-101156915D01*
X115266431Y-101146607D01*
X115235110Y-101129866D01*
X115207661Y-101107339D01*
X115185134Y-101079890D01*
X115168393Y-101048569D01*
X115158085Y-101014591D01*
X115154000Y-100973110D01*
X115154000Y-100371890D01*
X115158085Y-100330409D01*
X115168393Y-100296431D01*
X115185134Y-100265110D01*
X115207661Y-100237661D01*
X115235110Y-100215134D01*
X115266431Y-100198393D01*
X115300409Y-100188085D01*
X115341890Y-100184000D01*
X116018110Y-100184000D01*
X116059591Y-100188085D01*
X116059591Y-100188085D01*
G37*
G36*
X171678213Y-99626249D02*
G01*
X171772652Y-99654897D01*
X171859687Y-99701418D01*
X171935975Y-99764025D01*
X171998582Y-99840313D01*
X172045103Y-99927348D01*
X172073751Y-100021787D01*
X172083424Y-100120000D01*
X172073751Y-100218213D01*
X172045103Y-100312652D01*
X171998582Y-100399687D01*
X171935975Y-100475975D01*
X171859687Y-100538582D01*
X171772652Y-100585103D01*
X171678213Y-100613751D01*
X171604612Y-100621000D01*
X169955388Y-100621000D01*
X169881787Y-100613751D01*
X169787348Y-100585103D01*
X169700313Y-100538582D01*
X169624025Y-100475975D01*
X169561418Y-100399687D01*
X169514897Y-100312652D01*
X169486249Y-100218213D01*
X169476576Y-100120000D01*
X169486249Y-100021787D01*
X169514897Y-99927348D01*
X169561418Y-99840313D01*
X169624025Y-99764025D01*
X169700313Y-99701418D01*
X169787348Y-99654897D01*
X169881787Y-99626249D01*
X169955388Y-99619000D01*
X171604612Y-99619000D01*
X171678213Y-99626249D01*
X171678213Y-99626249D01*
G37*
G36*
X189678213Y-99626249D02*
G01*
X189772652Y-99654897D01*
X189859687Y-99701418D01*
X189935975Y-99764025D01*
X189998582Y-99840313D01*
X190045103Y-99927348D01*
X190073751Y-100021787D01*
X190083424Y-100120000D01*
X190073751Y-100218213D01*
X190045103Y-100312652D01*
X189998582Y-100399687D01*
X189935975Y-100475975D01*
X189859687Y-100538582D01*
X189772652Y-100585103D01*
X189678213Y-100613751D01*
X189604612Y-100621000D01*
X187955388Y-100621000D01*
X187881787Y-100613751D01*
X187787348Y-100585103D01*
X187700313Y-100538582D01*
X187624025Y-100475975D01*
X187561418Y-100399687D01*
X187514897Y-100312652D01*
X187486249Y-100218213D01*
X187476576Y-100120000D01*
X187486249Y-100021787D01*
X187514897Y-99927348D01*
X187561418Y-99840313D01*
X187624025Y-99764025D01*
X187700313Y-99701418D01*
X187787348Y-99654897D01*
X187881787Y-99626249D01*
X187955388Y-99619000D01*
X189604612Y-99619000D01*
X189678213Y-99626249D01*
X189678213Y-99626249D01*
G37*
G36*
X171678213Y-98356249D02*
G01*
X171772652Y-98384897D01*
X171859687Y-98431418D01*
X171935975Y-98494025D01*
X171998582Y-98570313D01*
X172045103Y-98657348D01*
X172073751Y-98751787D01*
X172083424Y-98850000D01*
X172073751Y-98948213D01*
X172045103Y-99042652D01*
X171998582Y-99129687D01*
X171935975Y-99205975D01*
X171859687Y-99268582D01*
X171772652Y-99315103D01*
X171678213Y-99343751D01*
X171604612Y-99351000D01*
X169955388Y-99351000D01*
X169881787Y-99343751D01*
X169787348Y-99315103D01*
X169700313Y-99268582D01*
X169624025Y-99205975D01*
X169561418Y-99129687D01*
X169514897Y-99042652D01*
X169486249Y-98948213D01*
X169476576Y-98850000D01*
X169486249Y-98751787D01*
X169514897Y-98657348D01*
X169561418Y-98570313D01*
X169624025Y-98494025D01*
X169700313Y-98431418D01*
X169787348Y-98384897D01*
X169881787Y-98356249D01*
X169955388Y-98349000D01*
X171604612Y-98349000D01*
X171678213Y-98356249D01*
X171678213Y-98356249D01*
G37*
G36*
X189678213Y-98356249D02*
G01*
X189772652Y-98384897D01*
X189859687Y-98431418D01*
X189935975Y-98494025D01*
X189998582Y-98570313D01*
X190045103Y-98657348D01*
X190073751Y-98751787D01*
X190083424Y-98850000D01*
X190073751Y-98948213D01*
X190045103Y-99042652D01*
X189998582Y-99129687D01*
X189935975Y-99205975D01*
X189859687Y-99268582D01*
X189772652Y-99315103D01*
X189678213Y-99343751D01*
X189604612Y-99351000D01*
X187955388Y-99351000D01*
X187881787Y-99343751D01*
X187787348Y-99315103D01*
X187700313Y-99268582D01*
X187624025Y-99205975D01*
X187561418Y-99129687D01*
X187514897Y-99042652D01*
X187486249Y-98948213D01*
X187476576Y-98850000D01*
X187486249Y-98751787D01*
X187514897Y-98657348D01*
X187561418Y-98570313D01*
X187624025Y-98494025D01*
X187700313Y-98431418D01*
X187787348Y-98384897D01*
X187881787Y-98356249D01*
X187955388Y-98349000D01*
X189604612Y-98349000D01*
X189678213Y-98356249D01*
X189678213Y-98356249D01*
G37*
G36*
X166961938Y-98601716D02*
G01*
X166982557Y-98607971D01*
X167001553Y-98618124D01*
X167018208Y-98631792D01*
X167031876Y-98648447D01*
X167042029Y-98667443D01*
X167048284Y-98688062D01*
X167051000Y-98715640D01*
X167051000Y-99174360D01*
X167048284Y-99201938D01*
X167042029Y-99222557D01*
X167031876Y-99241553D01*
X167018208Y-99258208D01*
X167001553Y-99271876D01*
X166982557Y-99282029D01*
X166961938Y-99288284D01*
X166934360Y-99291000D01*
X166425640Y-99291000D01*
X166398062Y-99288284D01*
X166377443Y-99282029D01*
X166358447Y-99271876D01*
X166341792Y-99258208D01*
X166328124Y-99241553D01*
X166317971Y-99222557D01*
X166311716Y-99201938D01*
X166309000Y-99174360D01*
X166309000Y-98715640D01*
X166311716Y-98688062D01*
X166317971Y-98667443D01*
X166328124Y-98648447D01*
X166341792Y-98631792D01*
X166358447Y-98618124D01*
X166377443Y-98607971D01*
X166398062Y-98601716D01*
X166425640Y-98599000D01*
X166934360Y-98599000D01*
X166961938Y-98601716D01*
X166961938Y-98601716D01*
G37*
G36*
X116059591Y-97763085D02*
G01*
X116093569Y-97773393D01*
X116124890Y-97790134D01*
X116152339Y-97812661D01*
X116174866Y-97840110D01*
X116191607Y-97871431D01*
X116201915Y-97905409D01*
X116206000Y-97946890D01*
X116206000Y-98548110D01*
X116201915Y-98589591D01*
X116191607Y-98623569D01*
X116174866Y-98654890D01*
X116152339Y-98682339D01*
X116124890Y-98704866D01*
X116093569Y-98721607D01*
X116059591Y-98731915D01*
X116018110Y-98736000D01*
X115341890Y-98736000D01*
X115300409Y-98731915D01*
X115266431Y-98721607D01*
X115235110Y-98704866D01*
X115207661Y-98682339D01*
X115185134Y-98654890D01*
X115168393Y-98623569D01*
X115158085Y-98589591D01*
X115154000Y-98548110D01*
X115154000Y-97946890D01*
X115158085Y-97905409D01*
X115168393Y-97871431D01*
X115185134Y-97840110D01*
X115207661Y-97812661D01*
X115235110Y-97790134D01*
X115266431Y-97773393D01*
X115300409Y-97763085D01*
X115341890Y-97759000D01*
X116018110Y-97759000D01*
X116059591Y-97763085D01*
X116059591Y-97763085D01*
G37*
G36*
X126059591Y-97763085D02*
G01*
X126093569Y-97773393D01*
X126124890Y-97790134D01*
X126152339Y-97812661D01*
X126174866Y-97840110D01*
X126191607Y-97871431D01*
X126201915Y-97905409D01*
X126206000Y-97946890D01*
X126206000Y-98548110D01*
X126201915Y-98589591D01*
X126191607Y-98623569D01*
X126174866Y-98654890D01*
X126152339Y-98682339D01*
X126124890Y-98704866D01*
X126093569Y-98721607D01*
X126059591Y-98731915D01*
X126018110Y-98736000D01*
X125341890Y-98736000D01*
X125300409Y-98731915D01*
X125266431Y-98721607D01*
X125235110Y-98704866D01*
X125207661Y-98682339D01*
X125185134Y-98654890D01*
X125168393Y-98623569D01*
X125158085Y-98589591D01*
X125154000Y-98548110D01*
X125154000Y-97946890D01*
X125158085Y-97905409D01*
X125168393Y-97871431D01*
X125185134Y-97840110D01*
X125207661Y-97812661D01*
X125235110Y-97790134D01*
X125266431Y-97773393D01*
X125300409Y-97763085D01*
X125341890Y-97759000D01*
X126018110Y-97759000D01*
X126059591Y-97763085D01*
X126059591Y-97763085D01*
G37*
G36*
X166961938Y-97631716D02*
G01*
X166982557Y-97637971D01*
X167001553Y-97648124D01*
X167018208Y-97661792D01*
X167031876Y-97678447D01*
X167042029Y-97697443D01*
X167048284Y-97718062D01*
X167051000Y-97745640D01*
X167051000Y-98204360D01*
X167048284Y-98231938D01*
X167042029Y-98252557D01*
X167031876Y-98271553D01*
X167018208Y-98288208D01*
X167001553Y-98301876D01*
X166982557Y-98312029D01*
X166961938Y-98318284D01*
X166934360Y-98321000D01*
X166425640Y-98321000D01*
X166398062Y-98318284D01*
X166377443Y-98312029D01*
X166358447Y-98301876D01*
X166341792Y-98288208D01*
X166328124Y-98271553D01*
X166317971Y-98252557D01*
X166311716Y-98231938D01*
X166309000Y-98204360D01*
X166309000Y-97745640D01*
X166311716Y-97718062D01*
X166317971Y-97697443D01*
X166328124Y-97678447D01*
X166341792Y-97661792D01*
X166358447Y-97648124D01*
X166377443Y-97637971D01*
X166398062Y-97631716D01*
X166425640Y-97629000D01*
X166934360Y-97629000D01*
X166961938Y-97631716D01*
X166961938Y-97631716D01*
G37*
G36*
X189678213Y-97086249D02*
G01*
X189772652Y-97114897D01*
X189859687Y-97161418D01*
X189935975Y-97224025D01*
X189998582Y-97300313D01*
X190045103Y-97387348D01*
X190073751Y-97481787D01*
X190083424Y-97580000D01*
X190073751Y-97678213D01*
X190045103Y-97772652D01*
X189998582Y-97859687D01*
X189935975Y-97935975D01*
X189859687Y-97998582D01*
X189772652Y-98045103D01*
X189678213Y-98073751D01*
X189604612Y-98081000D01*
X187955388Y-98081000D01*
X187881787Y-98073751D01*
X187787348Y-98045103D01*
X187700313Y-97998582D01*
X187624025Y-97935975D01*
X187561418Y-97859687D01*
X187514897Y-97772652D01*
X187486249Y-97678213D01*
X187476576Y-97580000D01*
X187486249Y-97481787D01*
X187514897Y-97387348D01*
X187561418Y-97300313D01*
X187624025Y-97224025D01*
X187700313Y-97161418D01*
X187787348Y-97114897D01*
X187881787Y-97086249D01*
X187955388Y-97079000D01*
X189604612Y-97079000D01*
X189678213Y-97086249D01*
X189678213Y-97086249D01*
G37*
G36*
X171678213Y-97086249D02*
G01*
X171772652Y-97114897D01*
X171859687Y-97161418D01*
X171935975Y-97224025D01*
X171998582Y-97300313D01*
X172045103Y-97387348D01*
X172073751Y-97481787D01*
X172083424Y-97580000D01*
X172073751Y-97678213D01*
X172045103Y-97772652D01*
X171998582Y-97859687D01*
X171935975Y-97935975D01*
X171859687Y-97998582D01*
X171772652Y-98045103D01*
X171678213Y-98073751D01*
X171604612Y-98081000D01*
X169955388Y-98081000D01*
X169881787Y-98073751D01*
X169787348Y-98045103D01*
X169700313Y-97998582D01*
X169624025Y-97935975D01*
X169561418Y-97859687D01*
X169514897Y-97772652D01*
X169486249Y-97678213D01*
X169476576Y-97580000D01*
X169486249Y-97481787D01*
X169514897Y-97387348D01*
X169561418Y-97300313D01*
X169624025Y-97224025D01*
X169700313Y-97161418D01*
X169787348Y-97114897D01*
X169881787Y-97086249D01*
X169955388Y-97079000D01*
X171604612Y-97079000D01*
X171678213Y-97086249D01*
X171678213Y-97086249D01*
G37*
G36*
X122631000Y-97361000D02*
G01*
X118729000Y-97361000D01*
X118729000Y-95259000D01*
X122631000Y-95259000D01*
X122631000Y-97361000D01*
X122631000Y-97361000D01*
G37*
G36*
X166961938Y-96601716D02*
G01*
X166982557Y-96607971D01*
X167001553Y-96618124D01*
X167018208Y-96631792D01*
X167031876Y-96648447D01*
X167042029Y-96667443D01*
X167048284Y-96688062D01*
X167051000Y-96715640D01*
X167051000Y-97174360D01*
X167048284Y-97201938D01*
X167042029Y-97222557D01*
X167031876Y-97241553D01*
X167018208Y-97258208D01*
X167001553Y-97271876D01*
X166982557Y-97282029D01*
X166961938Y-97288284D01*
X166934360Y-97291000D01*
X166425640Y-97291000D01*
X166398062Y-97288284D01*
X166377443Y-97282029D01*
X166358447Y-97271876D01*
X166341792Y-97258208D01*
X166328124Y-97241553D01*
X166317971Y-97222557D01*
X166311716Y-97201938D01*
X166309000Y-97174360D01*
X166309000Y-96715640D01*
X166311716Y-96688062D01*
X166317971Y-96667443D01*
X166328124Y-96648447D01*
X166341792Y-96631792D01*
X166358447Y-96618124D01*
X166377443Y-96607971D01*
X166398062Y-96601716D01*
X166425640Y-96599000D01*
X166934360Y-96599000D01*
X166961938Y-96601716D01*
X166961938Y-96601716D01*
G37*
G36*
X126059591Y-96188085D02*
G01*
X126093569Y-96198393D01*
X126124890Y-96215134D01*
X126152339Y-96237661D01*
X126174866Y-96265110D01*
X126191607Y-96296431D01*
X126201915Y-96330409D01*
X126206000Y-96371890D01*
X126206000Y-96973110D01*
X126201915Y-97014591D01*
X126191607Y-97048569D01*
X126174866Y-97079890D01*
X126152339Y-97107339D01*
X126124890Y-97129866D01*
X126093569Y-97146607D01*
X126059591Y-97156915D01*
X126018110Y-97161000D01*
X125341890Y-97161000D01*
X125300409Y-97156915D01*
X125266431Y-97146607D01*
X125235110Y-97129866D01*
X125207661Y-97107339D01*
X125185134Y-97079890D01*
X125168393Y-97048569D01*
X125158085Y-97014591D01*
X125154000Y-96973110D01*
X125154000Y-96371890D01*
X125158085Y-96330409D01*
X125168393Y-96296431D01*
X125185134Y-96265110D01*
X125207661Y-96237661D01*
X125235110Y-96215134D01*
X125266431Y-96198393D01*
X125300409Y-96188085D01*
X125341890Y-96184000D01*
X126018110Y-96184000D01*
X126059591Y-96188085D01*
X126059591Y-96188085D01*
G37*
G36*
X116059591Y-96188085D02*
G01*
X116093569Y-96198393D01*
X116124890Y-96215134D01*
X116152339Y-96237661D01*
X116174866Y-96265110D01*
X116191607Y-96296431D01*
X116201915Y-96330409D01*
X116206000Y-96371890D01*
X116206000Y-96973110D01*
X116201915Y-97014591D01*
X116191607Y-97048569D01*
X116174866Y-97079890D01*
X116152339Y-97107339D01*
X116124890Y-97129866D01*
X116093569Y-97146607D01*
X116059591Y-97156915D01*
X116018110Y-97161000D01*
X115341890Y-97161000D01*
X115300409Y-97156915D01*
X115266431Y-97146607D01*
X115235110Y-97129866D01*
X115207661Y-97107339D01*
X115185134Y-97079890D01*
X115168393Y-97048569D01*
X115158085Y-97014591D01*
X115154000Y-96973110D01*
X115154000Y-96371890D01*
X115158085Y-96330409D01*
X115168393Y-96296431D01*
X115185134Y-96265110D01*
X115207661Y-96237661D01*
X115235110Y-96215134D01*
X115266431Y-96198393D01*
X115300409Y-96188085D01*
X115341890Y-96184000D01*
X116018110Y-96184000D01*
X116059591Y-96188085D01*
X116059591Y-96188085D01*
G37*
G36*
X189678213Y-95816249D02*
G01*
X189772652Y-95844897D01*
X189859687Y-95891418D01*
X189935975Y-95954025D01*
X189998582Y-96030313D01*
X190045103Y-96117348D01*
X190073751Y-96211787D01*
X190083424Y-96310000D01*
X190073751Y-96408213D01*
X190045103Y-96502652D01*
X189998582Y-96589687D01*
X189935975Y-96665975D01*
X189859687Y-96728582D01*
X189772652Y-96775103D01*
X189678213Y-96803751D01*
X189604612Y-96811000D01*
X187955388Y-96811000D01*
X187881787Y-96803751D01*
X187787348Y-96775103D01*
X187700313Y-96728582D01*
X187624025Y-96665975D01*
X187561418Y-96589687D01*
X187514897Y-96502652D01*
X187486249Y-96408213D01*
X187476576Y-96310000D01*
X187486249Y-96211787D01*
X187514897Y-96117348D01*
X187561418Y-96030313D01*
X187624025Y-95954025D01*
X187700313Y-95891418D01*
X187787348Y-95844897D01*
X187881787Y-95816249D01*
X187955388Y-95809000D01*
X189604612Y-95809000D01*
X189678213Y-95816249D01*
X189678213Y-95816249D01*
G37*
G36*
X171678213Y-95816249D02*
G01*
X171772652Y-95844897D01*
X171859687Y-95891418D01*
X171935975Y-95954025D01*
X171998582Y-96030313D01*
X172045103Y-96117348D01*
X172073751Y-96211787D01*
X172083424Y-96310000D01*
X172073751Y-96408213D01*
X172045103Y-96502652D01*
X171998582Y-96589687D01*
X171935975Y-96665975D01*
X171859687Y-96728582D01*
X171772652Y-96775103D01*
X171678213Y-96803751D01*
X171604612Y-96811000D01*
X169955388Y-96811000D01*
X169881787Y-96803751D01*
X169787348Y-96775103D01*
X169700313Y-96728582D01*
X169624025Y-96665975D01*
X169561418Y-96589687D01*
X169514897Y-96502652D01*
X169486249Y-96408213D01*
X169476576Y-96310000D01*
X169486249Y-96211787D01*
X169514897Y-96117348D01*
X169561418Y-96030313D01*
X169624025Y-95954025D01*
X169700313Y-95891418D01*
X169787348Y-95844897D01*
X169881787Y-95816249D01*
X169955388Y-95809000D01*
X171604612Y-95809000D01*
X171678213Y-95816249D01*
X171678213Y-95816249D01*
G37*
G36*
X166961938Y-95631716D02*
G01*
X166982557Y-95637971D01*
X167001553Y-95648124D01*
X167018208Y-95661792D01*
X167031876Y-95678447D01*
X167042029Y-95697443D01*
X167048284Y-95718062D01*
X167051000Y-95745640D01*
X167051000Y-96204360D01*
X167048284Y-96231938D01*
X167042029Y-96252557D01*
X167031876Y-96271553D01*
X167018208Y-96288208D01*
X167001553Y-96301876D01*
X166982557Y-96312029D01*
X166961938Y-96318284D01*
X166934360Y-96321000D01*
X166425640Y-96321000D01*
X166398062Y-96318284D01*
X166377443Y-96312029D01*
X166358447Y-96301876D01*
X166341792Y-96288208D01*
X166328124Y-96271553D01*
X166317971Y-96252557D01*
X166311716Y-96231938D01*
X166309000Y-96204360D01*
X166309000Y-95745640D01*
X166311716Y-95718062D01*
X166317971Y-95697443D01*
X166328124Y-95678447D01*
X166341792Y-95661792D01*
X166358447Y-95648124D01*
X166377443Y-95637971D01*
X166398062Y-95631716D01*
X166425640Y-95629000D01*
X166934360Y-95629000D01*
X166961938Y-95631716D01*
X166961938Y-95631716D01*
G37*
G36*
X121641000Y-94261000D02*
G01*
X119719000Y-94261000D01*
X119719000Y-93659000D01*
X121641000Y-93659000D01*
X121641000Y-94261000D01*
X121641000Y-94261000D01*
G37*
G36*
X121641000Y-93261000D02*
G01*
X119719000Y-93261000D01*
X119719000Y-92659000D01*
X121641000Y-92659000D01*
X121641000Y-93261000D01*
X121641000Y-93261000D01*
G37*
G36*
X124731000Y-91511000D02*
G01*
X122629000Y-91511000D01*
X122629000Y-89409000D01*
X124731000Y-89409000D01*
X124731000Y-91511000D01*
X124731000Y-91511000D01*
G37*
G36*
X118986564Y-89449389D02*
G01*
X119177833Y-89528615D01*
X119177835Y-89528616D01*
X119349973Y-89643635D01*
X119496365Y-89790027D01*
X119611385Y-89962167D01*
X119690611Y-90153436D01*
X119731000Y-90356484D01*
X119731000Y-90563516D01*
X119690611Y-90766564D01*
X119611385Y-90957833D01*
X119611384Y-90957835D01*
X119496365Y-91129973D01*
X119349973Y-91276365D01*
X119177835Y-91391384D01*
X119177834Y-91391385D01*
X119177833Y-91391385D01*
X118986564Y-91470611D01*
X118783516Y-91511000D01*
X118576484Y-91511000D01*
X118373436Y-91470611D01*
X118182167Y-91391385D01*
X118182166Y-91391385D01*
X118182165Y-91391384D01*
X118010027Y-91276365D01*
X117863635Y-91129973D01*
X117748616Y-90957835D01*
X117748615Y-90957833D01*
X117669389Y-90766564D01*
X117629000Y-90563516D01*
X117629000Y-90356484D01*
X117669389Y-90153436D01*
X117748615Y-89962167D01*
X117863635Y-89790027D01*
X118010027Y-89643635D01*
X118182165Y-89528616D01*
X118182167Y-89528615D01*
X118373436Y-89449389D01*
X118576484Y-89409000D01*
X118783516Y-89409000D01*
X118986564Y-89449389D01*
X118986564Y-89449389D01*
G37*
G36*
X121486564Y-89449389D02*
G01*
X121677833Y-89528615D01*
X121677835Y-89528616D01*
X121849973Y-89643635D01*
X121996365Y-89790027D01*
X122111385Y-89962167D01*
X122190611Y-90153436D01*
X122231000Y-90356484D01*
X122231000Y-90563516D01*
X122190611Y-90766564D01*
X122111385Y-90957833D01*
X122111384Y-90957835D01*
X121996365Y-91129973D01*
X121849973Y-91276365D01*
X121677835Y-91391384D01*
X121677834Y-91391385D01*
X121677833Y-91391385D01*
X121486564Y-91470611D01*
X121283516Y-91511000D01*
X121076484Y-91511000D01*
X120873436Y-91470611D01*
X120682167Y-91391385D01*
X120682166Y-91391385D01*
X120682165Y-91391384D01*
X120510027Y-91276365D01*
X120363635Y-91129973D01*
X120248616Y-90957835D01*
X120248615Y-90957833D01*
X120169389Y-90766564D01*
X120129000Y-90563516D01*
X120129000Y-90356484D01*
X120169389Y-90153436D01*
X120248615Y-89962167D01*
X120363635Y-89790027D01*
X120510027Y-89643635D01*
X120682165Y-89528616D01*
X120682167Y-89528615D01*
X120873436Y-89449389D01*
X121076484Y-89409000D01*
X121283516Y-89409000D01*
X121486564Y-89449389D01*
X121486564Y-89449389D01*
G37*
G36*
X183152798Y-82738247D02*
G01*
X183188367Y-82749037D01*
X183221139Y-82766554D01*
X183249869Y-82790131D01*
X183273446Y-82818861D01*
X183290963Y-82851633D01*
X183301753Y-82887202D01*
X183306000Y-82930325D01*
X183306000Y-85989675D01*
X183301753Y-86032798D01*
X183290963Y-86068367D01*
X183273446Y-86101139D01*
X183249869Y-86129869D01*
X183221139Y-86153446D01*
X183188367Y-86170963D01*
X183152798Y-86181753D01*
X183109675Y-86186000D01*
X182050325Y-86186000D01*
X182007202Y-86181753D01*
X181971633Y-86170963D01*
X181938861Y-86153446D01*
X181910131Y-86129869D01*
X181886554Y-86101139D01*
X181869037Y-86068367D01*
X181858247Y-86032798D01*
X181854000Y-85989675D01*
X181854000Y-82930325D01*
X181858247Y-82887202D01*
X181869037Y-82851633D01*
X181886554Y-82818861D01*
X181910131Y-82790131D01*
X181938861Y-82766554D01*
X181971633Y-82749037D01*
X182007202Y-82738247D01*
X182050325Y-82734000D01*
X183109675Y-82734000D01*
X183152798Y-82738247D01*
X183152798Y-82738247D01*
G37*
G36*
X177352798Y-82738247D02*
G01*
X177388367Y-82749037D01*
X177421139Y-82766554D01*
X177449869Y-82790131D01*
X177473446Y-82818861D01*
X177490963Y-82851633D01*
X177501753Y-82887202D01*
X177506000Y-82930325D01*
X177506000Y-85989675D01*
X177501753Y-86032798D01*
X177490963Y-86068367D01*
X177473446Y-86101139D01*
X177449869Y-86129869D01*
X177421139Y-86153446D01*
X177388367Y-86170963D01*
X177352798Y-86181753D01*
X177309675Y-86186000D01*
X176250325Y-86186000D01*
X176207202Y-86181753D01*
X176171633Y-86170963D01*
X176138861Y-86153446D01*
X176110131Y-86129869D01*
X176086554Y-86101139D01*
X176069037Y-86068367D01*
X176058247Y-86032798D01*
X176054000Y-85989675D01*
X176054000Y-82930325D01*
X176058247Y-82887202D01*
X176069037Y-82851633D01*
X176086554Y-82818861D01*
X176110131Y-82790131D01*
X176138861Y-82766554D01*
X176171633Y-82749037D01*
X176207202Y-82738247D01*
X176250325Y-82734000D01*
X177309675Y-82734000D01*
X177352798Y-82738247D01*
X177352798Y-82738247D01*
G37*
G36*
X188361000Y-85691000D02*
G01*
X187199000Y-85691000D01*
X187199000Y-83229000D01*
X188361000Y-83229000D01*
X188361000Y-85691000D01*
X188361000Y-85691000D01*
G37*
G36*
X186161000Y-85691000D02*
G01*
X184999000Y-85691000D01*
X184999000Y-83229000D01*
X186161000Y-83229000D01*
X186161000Y-85691000D01*
X186161000Y-85691000D01*
G37*
G36*
X189481000Y-85421000D02*
G01*
X188879000Y-85421000D01*
X188879000Y-83499000D01*
X189481000Y-83499000D01*
X189481000Y-85421000D01*
X189481000Y-85421000D01*
G37*
G36*
X190481000Y-85421000D02*
G01*
X189879000Y-85421000D01*
X189879000Y-83499000D01*
X190481000Y-83499000D01*
X190481000Y-85421000D01*
X190481000Y-85421000D01*
G37*
G36*
X191961938Y-84601716D02*
G01*
X191982557Y-84607971D01*
X192001553Y-84618124D01*
X192018208Y-84631792D01*
X192031876Y-84648447D01*
X192042029Y-84667443D01*
X192048284Y-84688062D01*
X192051000Y-84715640D01*
X192051000Y-85174360D01*
X192048284Y-85201938D01*
X192042029Y-85222557D01*
X192031876Y-85241553D01*
X192018208Y-85258208D01*
X192001553Y-85271876D01*
X191982557Y-85282029D01*
X191961938Y-85288284D01*
X191934360Y-85291000D01*
X191425640Y-85291000D01*
X191398062Y-85288284D01*
X191377443Y-85282029D01*
X191358447Y-85271876D01*
X191341792Y-85258208D01*
X191328124Y-85241553D01*
X191317971Y-85222557D01*
X191311716Y-85201938D01*
X191309000Y-85174360D01*
X191309000Y-84715640D01*
X191311716Y-84688062D01*
X191317971Y-84667443D01*
X191328124Y-84648447D01*
X191341792Y-84631792D01*
X191358447Y-84618124D01*
X191377443Y-84607971D01*
X191398062Y-84601716D01*
X191425640Y-84599000D01*
X191934360Y-84599000D01*
X191961938Y-84601716D01*
X191961938Y-84601716D01*
G37*
G36*
X114631000Y-84611000D02*
G01*
X112529000Y-84611000D01*
X112529000Y-81309000D01*
X114631000Y-81309000D01*
X114631000Y-84611000D01*
X114631000Y-84611000D01*
G37*
G36*
X129831000Y-84611000D02*
G01*
X127729000Y-84611000D01*
X127729000Y-81309000D01*
X129831000Y-81309000D01*
X129831000Y-84611000D01*
X129831000Y-84611000D01*
G37*
G36*
X191961938Y-83631716D02*
G01*
X191982557Y-83637971D01*
X192001553Y-83648124D01*
X192018208Y-83661792D01*
X192031876Y-83678447D01*
X192042029Y-83697443D01*
X192048284Y-83718062D01*
X192051000Y-83745640D01*
X192051000Y-84204360D01*
X192048284Y-84231938D01*
X192042029Y-84252557D01*
X192031876Y-84271553D01*
X192018208Y-84288208D01*
X192001553Y-84301876D01*
X191982557Y-84312029D01*
X191961938Y-84318284D01*
X191934360Y-84321000D01*
X191425640Y-84321000D01*
X191398062Y-84318284D01*
X191377443Y-84312029D01*
X191358447Y-84301876D01*
X191341792Y-84288208D01*
X191328124Y-84271553D01*
X191317971Y-84252557D01*
X191311716Y-84231938D01*
X191309000Y-84204360D01*
X191309000Y-83745640D01*
X191311716Y-83718062D01*
X191317971Y-83697443D01*
X191328124Y-83678447D01*
X191341792Y-83661792D01*
X191358447Y-83648124D01*
X191377443Y-83637971D01*
X191398062Y-83631716D01*
X191425640Y-83629000D01*
X191934360Y-83629000D01*
X191961938Y-83631716D01*
X191961938Y-83631716D01*
G37*
G36*
X188507477Y-71283892D02*
G01*
X188850541Y-71425994D01*
X189335707Y-71626956D01*
X190081093Y-72125008D01*
X190714992Y-72758907D01*
X191213044Y-73504293D01*
X191414006Y-73989459D01*
X191556108Y-74332523D01*
X191731000Y-75211764D01*
X191731000Y-76108236D01*
X191556108Y-76987477D01*
X191546364Y-77011000D01*
X191213044Y-77815707D01*
X190714992Y-78561093D01*
X190081093Y-79194992D01*
X189335707Y-79693044D01*
X188850541Y-79894006D01*
X188507477Y-80036108D01*
X187628236Y-80211000D01*
X186731764Y-80211000D01*
X185852523Y-80036108D01*
X185509459Y-79894006D01*
X185024293Y-79693044D01*
X184278907Y-79194992D01*
X183645008Y-78561093D01*
X183146956Y-77815707D01*
X182813636Y-77011000D01*
X182803892Y-76987477D01*
X182629000Y-76108236D01*
X182629000Y-75211764D01*
X182803892Y-74332523D01*
X182945994Y-73989459D01*
X183146956Y-73504293D01*
X183645008Y-72758907D01*
X184278907Y-72125008D01*
X185024293Y-71626956D01*
X185509459Y-71425994D01*
X185852523Y-71283892D01*
X186731764Y-71109000D01*
X187628236Y-71109000D01*
X188507477Y-71283892D01*
X188507477Y-71283892D01*
G37*
G36*
X172507477Y-71283892D02*
G01*
X172850541Y-71425994D01*
X173335707Y-71626956D01*
X174081093Y-72125008D01*
X174714992Y-72758907D01*
X175213044Y-73504293D01*
X175414006Y-73989459D01*
X175556108Y-74332523D01*
X175731000Y-75211764D01*
X175731000Y-76108236D01*
X175556108Y-76987477D01*
X175546364Y-77011000D01*
X175213044Y-77815707D01*
X174714992Y-78561093D01*
X174081093Y-79194992D01*
X173335707Y-79693044D01*
X172850541Y-79894006D01*
X172507477Y-80036108D01*
X171628236Y-80211000D01*
X170731764Y-80211000D01*
X169852523Y-80036108D01*
X169509459Y-79894006D01*
X169024293Y-79693044D01*
X168278907Y-79194992D01*
X167645008Y-78561093D01*
X167146956Y-77815707D01*
X166813636Y-77011000D01*
X166803892Y-76987477D01*
X166629000Y-76108236D01*
X166629000Y-75211764D01*
X166803892Y-74332523D01*
X166945994Y-73989459D01*
X167146956Y-73504293D01*
X167645008Y-72758907D01*
X168278907Y-72125008D01*
X169024293Y-71626956D01*
X169509459Y-71425994D01*
X169852523Y-71283892D01*
X170731764Y-71109000D01*
X171628236Y-71109000D01*
X172507477Y-71283892D01*
X172507477Y-71283892D01*
G37*
G36*
X151007477Y-71283892D02*
G01*
X151350541Y-71425994D01*
X151835707Y-71626956D01*
X152581093Y-72125008D01*
X153214992Y-72758907D01*
X153713044Y-73504293D01*
X153914006Y-73989459D01*
X154056108Y-74332523D01*
X154231000Y-75211764D01*
X154231000Y-76108236D01*
X154056108Y-76987477D01*
X154046364Y-77011000D01*
X153713044Y-77815707D01*
X153214992Y-78561093D01*
X152581093Y-79194992D01*
X151835707Y-79693044D01*
X151350541Y-79894006D01*
X151007477Y-80036108D01*
X150128236Y-80211000D01*
X149231764Y-80211000D01*
X148352523Y-80036108D01*
X148009459Y-79894006D01*
X147524293Y-79693044D01*
X146778907Y-79194992D01*
X146145008Y-78561093D01*
X145646956Y-77815707D01*
X145313636Y-77011000D01*
X145303892Y-76987477D01*
X145129000Y-76108236D01*
X145129000Y-75211764D01*
X145303892Y-74332523D01*
X145445994Y-73989459D01*
X145646956Y-73504293D01*
X146145008Y-72758907D01*
X146778907Y-72125008D01*
X147524293Y-71626956D01*
X148009459Y-71425994D01*
X148352523Y-71283892D01*
X149231764Y-71109000D01*
X150128236Y-71109000D01*
X151007477Y-71283892D01*
X151007477Y-71283892D01*
G37*
G36*
X123986564Y-74949389D02*
G01*
X124177833Y-75028615D01*
X124177835Y-75028616D01*
X124349973Y-75143635D01*
X124496365Y-75290027D01*
X124611385Y-75462167D01*
X124690611Y-75653436D01*
X124731000Y-75856484D01*
X124731000Y-76063516D01*
X124690611Y-76266564D01*
X124611385Y-76457833D01*
X124611384Y-76457835D01*
X124496365Y-76629973D01*
X124349973Y-76776365D01*
X124177835Y-76891384D01*
X124177834Y-76891385D01*
X124177833Y-76891385D01*
X123986564Y-76970611D01*
X123783516Y-77011000D01*
X123576484Y-77011000D01*
X123373436Y-76970611D01*
X123182167Y-76891385D01*
X123182166Y-76891385D01*
X123182165Y-76891384D01*
X123010027Y-76776365D01*
X122863635Y-76629973D01*
X122748616Y-76457835D01*
X122748615Y-76457833D01*
X122669389Y-76266564D01*
X122629000Y-76063516D01*
X122629000Y-75856484D01*
X122669389Y-75653436D01*
X122748615Y-75462167D01*
X122863635Y-75290027D01*
X123010027Y-75143635D01*
X123182165Y-75028616D01*
X123182167Y-75028615D01*
X123373436Y-74949389D01*
X123576484Y-74909000D01*
X123783516Y-74909000D01*
X123986564Y-74949389D01*
X123986564Y-74949389D01*
G37*
G36*
X118986564Y-74949389D02*
G01*
X119177833Y-75028615D01*
X119177835Y-75028616D01*
X119349973Y-75143635D01*
X119496365Y-75290027D01*
X119611385Y-75462167D01*
X119690611Y-75653436D01*
X119731000Y-75856484D01*
X119731000Y-76063516D01*
X119690611Y-76266564D01*
X119611385Y-76457833D01*
X119611384Y-76457835D01*
X119496365Y-76629973D01*
X119349973Y-76776365D01*
X119177835Y-76891384D01*
X119177834Y-76891385D01*
X119177833Y-76891385D01*
X118986564Y-76970611D01*
X118783516Y-77011000D01*
X118576484Y-77011000D01*
X118373436Y-76970611D01*
X118182167Y-76891385D01*
X118182166Y-76891385D01*
X118182165Y-76891384D01*
X118010027Y-76776365D01*
X117863635Y-76629973D01*
X117748616Y-76457835D01*
X117748615Y-76457833D01*
X117669389Y-76266564D01*
X117629000Y-76063516D01*
X117629000Y-75856484D01*
X117669389Y-75653436D01*
X117748615Y-75462167D01*
X117863635Y-75290027D01*
X118010027Y-75143635D01*
X118182165Y-75028616D01*
X118182167Y-75028615D01*
X118373436Y-74949389D01*
X118576484Y-74909000D01*
X118783516Y-74909000D01*
X118986564Y-74949389D01*
X118986564Y-74949389D01*
G37*
M02*
