G04 #@! TF.GenerationSoftware,KiCad,Pcbnew,(5.1.0)-1*
G04 #@! TF.CreationDate,2019-07-24T04:12:41+08:00*
G04 #@! TF.ProjectId,Power_Source,506f7765-725f-4536-9f75-7263652e6b69,rev?*
G04 #@! TF.SameCoordinates,Original*
G04 #@! TF.FileFunction,Legend,Bot*
G04 #@! TF.FilePolarity,Positive*
%FSLAX46Y46*%
G04 Gerber Fmt 4.6, Leading zero omitted, Abs format (unit mm)*
G04 Created by KiCad (PCBNEW (5.1.0)-1) date 2019-07-24 04:12:41*
%MOMM*%
%LPD*%
G04 APERTURE LIST*
%ADD10C,0.010000*%
%ADD11C,0.150000*%
%ADD12C,0.120000*%
G04 APERTURE END LIST*
D10*
G36*
X141705292Y-109653591D02*
G01*
X141757857Y-109653056D01*
X141911881Y-109649340D01*
X142040875Y-109638301D01*
X142149237Y-109618754D01*
X142241362Y-109589517D01*
X142321647Y-109549403D01*
X142394488Y-109497231D01*
X142420505Y-109474567D01*
X142463663Y-109421538D01*
X142502579Y-109349579D01*
X142532573Y-109269816D01*
X142548965Y-109193375D01*
X142550668Y-109165128D01*
X142539995Y-109086826D01*
X142511393Y-109001295D01*
X142469989Y-108920337D01*
X142420905Y-108855754D01*
X142412933Y-108847962D01*
X142345400Y-108793192D01*
X142271448Y-108750437D01*
X142186812Y-108718577D01*
X142087229Y-108696492D01*
X141968434Y-108683062D01*
X141826166Y-108677166D01*
X141761000Y-108676666D01*
X141678145Y-108677065D01*
X141619877Y-108678734D01*
X141580730Y-108682378D01*
X141555237Y-108688707D01*
X141537932Y-108698426D01*
X141528656Y-108706726D01*
X141519894Y-108716808D01*
X141513021Y-108729815D01*
X141507808Y-108749231D01*
X141504027Y-108778540D01*
X141501449Y-108821227D01*
X141499846Y-108880775D01*
X141498989Y-108960670D01*
X141498649Y-109064395D01*
X141498597Y-109165128D01*
X141498266Y-109299481D01*
X141498338Y-109406808D01*
X141499616Y-109458205D01*
X141693981Y-109458205D01*
X141693981Y-108872051D01*
X141817975Y-108872165D01*
X141892585Y-108874304D01*
X141970728Y-108879817D01*
X142035926Y-108887528D01*
X142037910Y-108887845D01*
X142143283Y-108913322D01*
X142225014Y-108953000D01*
X142287184Y-109009462D01*
X142326686Y-109070594D01*
X142351026Y-109138407D01*
X142349139Y-109202081D01*
X142320891Y-109270335D01*
X142265638Y-109340944D01*
X142189073Y-109393265D01*
X142089551Y-109428237D01*
X142023039Y-109440614D01*
X141947539Y-109449306D01*
X141867521Y-109455596D01*
X141799462Y-109458212D01*
X141795431Y-109458224D01*
X141693981Y-109458205D01*
X141499616Y-109458205D01*
X141500410Y-109490119D01*
X141506085Y-109552421D01*
X141516959Y-109596725D01*
X141534632Y-109626040D01*
X141560703Y-109643375D01*
X141596771Y-109651739D01*
X141644434Y-109654141D01*
X141705292Y-109653591D01*
X141705292Y-109653591D01*
G37*
X141705292Y-109653591D02*
X141757857Y-109653056D01*
X141911881Y-109649340D01*
X142040875Y-109638301D01*
X142149237Y-109618754D01*
X142241362Y-109589517D01*
X142321647Y-109549403D01*
X142394488Y-109497231D01*
X142420505Y-109474567D01*
X142463663Y-109421538D01*
X142502579Y-109349579D01*
X142532573Y-109269816D01*
X142548965Y-109193375D01*
X142550668Y-109165128D01*
X142539995Y-109086826D01*
X142511393Y-109001295D01*
X142469989Y-108920337D01*
X142420905Y-108855754D01*
X142412933Y-108847962D01*
X142345400Y-108793192D01*
X142271448Y-108750437D01*
X142186812Y-108718577D01*
X142087229Y-108696492D01*
X141968434Y-108683062D01*
X141826166Y-108677166D01*
X141761000Y-108676666D01*
X141678145Y-108677065D01*
X141619877Y-108678734D01*
X141580730Y-108682378D01*
X141555237Y-108688707D01*
X141537932Y-108698426D01*
X141528656Y-108706726D01*
X141519894Y-108716808D01*
X141513021Y-108729815D01*
X141507808Y-108749231D01*
X141504027Y-108778540D01*
X141501449Y-108821227D01*
X141499846Y-108880775D01*
X141498989Y-108960670D01*
X141498649Y-109064395D01*
X141498597Y-109165128D01*
X141498266Y-109299481D01*
X141498338Y-109406808D01*
X141499616Y-109458205D01*
X141693981Y-109458205D01*
X141693981Y-108872051D01*
X141817975Y-108872165D01*
X141892585Y-108874304D01*
X141970728Y-108879817D01*
X142035926Y-108887528D01*
X142037910Y-108887845D01*
X142143283Y-108913322D01*
X142225014Y-108953000D01*
X142287184Y-109009462D01*
X142326686Y-109070594D01*
X142351026Y-109138407D01*
X142349139Y-109202081D01*
X142320891Y-109270335D01*
X142265638Y-109340944D01*
X142189073Y-109393265D01*
X142089551Y-109428237D01*
X142023039Y-109440614D01*
X141947539Y-109449306D01*
X141867521Y-109455596D01*
X141799462Y-109458212D01*
X141795431Y-109458224D01*
X141693981Y-109458205D01*
X141499616Y-109458205D01*
X141500410Y-109490119D01*
X141506085Y-109552421D01*
X141516959Y-109596725D01*
X141534632Y-109626040D01*
X141560703Y-109643375D01*
X141596771Y-109651739D01*
X141644434Y-109654141D01*
X141705292Y-109653591D01*
G36*
X143580616Y-109653484D02*
G01*
X143673024Y-109652988D01*
X143742773Y-109651835D01*
X143793563Y-109649756D01*
X143829095Y-109646485D01*
X143853068Y-109641753D01*
X143869182Y-109635293D01*
X143881137Y-109626837D01*
X143885467Y-109622945D01*
X143911795Y-109581596D01*
X143916535Y-109534084D01*
X143899216Y-109491905D01*
X143891207Y-109483380D01*
X143878254Y-109475115D01*
X143857398Y-109468739D01*
X143824770Y-109463941D01*
X143776504Y-109460412D01*
X143708732Y-109457842D01*
X143617586Y-109455919D01*
X143534255Y-109454749D01*
X143204454Y-109450690D01*
X143195440Y-109277850D01*
X143419304Y-109277850D01*
X143516492Y-109277011D01*
X143587643Y-109273504D01*
X143636755Y-109265841D01*
X143667829Y-109252533D01*
X143684862Y-109232095D01*
X143691854Y-109203037D01*
X143692916Y-109176069D01*
X143689616Y-109142979D01*
X143677163Y-109118596D01*
X143651726Y-109101647D01*
X143609475Y-109090857D01*
X143546580Y-109084952D01*
X143459211Y-109082659D01*
X143411525Y-109082465D01*
X143196940Y-109082465D01*
X143196940Y-108872051D01*
X143527591Y-108872051D01*
X143635976Y-108871900D01*
X143718349Y-108871222D01*
X143778757Y-108869680D01*
X143821247Y-108866937D01*
X143849865Y-108862655D01*
X143868658Y-108856497D01*
X143881672Y-108848127D01*
X143888301Y-108841992D01*
X143911039Y-108806187D01*
X143918360Y-108774359D01*
X143907907Y-108735482D01*
X143888301Y-108706726D01*
X143877841Y-108697673D01*
X143864338Y-108690643D01*
X143844160Y-108685382D01*
X143813675Y-108681635D01*
X143769251Y-108679146D01*
X143707255Y-108677661D01*
X143624055Y-108676925D01*
X143516019Y-108676682D01*
X143459957Y-108676666D01*
X143339902Y-108676773D01*
X143246272Y-108677261D01*
X143175437Y-108678387D01*
X143123765Y-108680405D01*
X143087623Y-108683570D01*
X143063378Y-108688137D01*
X143047399Y-108694360D01*
X143036053Y-108702496D01*
X143031614Y-108706726D01*
X143022829Y-108716840D01*
X143015942Y-108729888D01*
X143010725Y-108749366D01*
X143006947Y-108778772D01*
X143004376Y-108821602D01*
X143002782Y-108881352D01*
X143001935Y-108961519D01*
X143001604Y-109065599D01*
X143001555Y-109162508D01*
X143001600Y-109286613D01*
X143001912Y-109384170D01*
X143002758Y-109458690D01*
X143004404Y-109513685D01*
X143007117Y-109552666D01*
X143011163Y-109579143D01*
X143016809Y-109596630D01*
X143024320Y-109608636D01*
X143033964Y-109618673D01*
X143036340Y-109620910D01*
X143047871Y-109630817D01*
X143061268Y-109638488D01*
X143080250Y-109644210D01*
X143108531Y-109648268D01*
X143149828Y-109650948D01*
X143207858Y-109652534D01*
X143286337Y-109653312D01*
X143388980Y-109653568D01*
X143461850Y-109653590D01*
X143580616Y-109653484D01*
X143580616Y-109653484D01*
G37*
X143580616Y-109653484D02*
X143673024Y-109652988D01*
X143742773Y-109651835D01*
X143793563Y-109649756D01*
X143829095Y-109646485D01*
X143853068Y-109641753D01*
X143869182Y-109635293D01*
X143881137Y-109626837D01*
X143885467Y-109622945D01*
X143911795Y-109581596D01*
X143916535Y-109534084D01*
X143899216Y-109491905D01*
X143891207Y-109483380D01*
X143878254Y-109475115D01*
X143857398Y-109468739D01*
X143824770Y-109463941D01*
X143776504Y-109460412D01*
X143708732Y-109457842D01*
X143617586Y-109455919D01*
X143534255Y-109454749D01*
X143204454Y-109450690D01*
X143195440Y-109277850D01*
X143419304Y-109277850D01*
X143516492Y-109277011D01*
X143587643Y-109273504D01*
X143636755Y-109265841D01*
X143667829Y-109252533D01*
X143684862Y-109232095D01*
X143691854Y-109203037D01*
X143692916Y-109176069D01*
X143689616Y-109142979D01*
X143677163Y-109118596D01*
X143651726Y-109101647D01*
X143609475Y-109090857D01*
X143546580Y-109084952D01*
X143459211Y-109082659D01*
X143411525Y-109082465D01*
X143196940Y-109082465D01*
X143196940Y-108872051D01*
X143527591Y-108872051D01*
X143635976Y-108871900D01*
X143718349Y-108871222D01*
X143778757Y-108869680D01*
X143821247Y-108866937D01*
X143849865Y-108862655D01*
X143868658Y-108856497D01*
X143881672Y-108848127D01*
X143888301Y-108841992D01*
X143911039Y-108806187D01*
X143918360Y-108774359D01*
X143907907Y-108735482D01*
X143888301Y-108706726D01*
X143877841Y-108697673D01*
X143864338Y-108690643D01*
X143844160Y-108685382D01*
X143813675Y-108681635D01*
X143769251Y-108679146D01*
X143707255Y-108677661D01*
X143624055Y-108676925D01*
X143516019Y-108676682D01*
X143459957Y-108676666D01*
X143339902Y-108676773D01*
X143246272Y-108677261D01*
X143175437Y-108678387D01*
X143123765Y-108680405D01*
X143087623Y-108683570D01*
X143063378Y-108688137D01*
X143047399Y-108694360D01*
X143036053Y-108702496D01*
X143031614Y-108706726D01*
X143022829Y-108716840D01*
X143015942Y-108729888D01*
X143010725Y-108749366D01*
X143006947Y-108778772D01*
X143004376Y-108821602D01*
X143002782Y-108881352D01*
X143001935Y-108961519D01*
X143001604Y-109065599D01*
X143001555Y-109162508D01*
X143001600Y-109286613D01*
X143001912Y-109384170D01*
X143002758Y-109458690D01*
X143004404Y-109513685D01*
X143007117Y-109552666D01*
X143011163Y-109579143D01*
X143016809Y-109596630D01*
X143024320Y-109608636D01*
X143033964Y-109618673D01*
X143036340Y-109620910D01*
X143047871Y-109630817D01*
X143061268Y-109638488D01*
X143080250Y-109644210D01*
X143108531Y-109648268D01*
X143149828Y-109650948D01*
X143207858Y-109652534D01*
X143286337Y-109653312D01*
X143388980Y-109653568D01*
X143461850Y-109653590D01*
X143580616Y-109653484D01*
G36*
X144940058Y-109651879D02*
G01*
X145039663Y-109644916D01*
X145132302Y-109634041D01*
X145212588Y-109619662D01*
X145275138Y-109602190D01*
X145314565Y-109582034D01*
X145320617Y-109576101D01*
X145341662Y-109530061D01*
X145335280Y-109482796D01*
X145302639Y-109442358D01*
X145301082Y-109441199D01*
X145281883Y-109428739D01*
X145261841Y-109422187D01*
X145233886Y-109421392D01*
X145190947Y-109426200D01*
X145125955Y-109436461D01*
X145120727Y-109437325D01*
X145023885Y-109449222D01*
X144919402Y-109455091D01*
X144814611Y-109455148D01*
X144716844Y-109449609D01*
X144633434Y-109438691D01*
X144571713Y-109422611D01*
X144567658Y-109420995D01*
X144522882Y-109395907D01*
X144507150Y-109370518D01*
X144519466Y-109345549D01*
X144558831Y-109321720D01*
X144624248Y-109299754D01*
X144714720Y-109280370D01*
X144775046Y-109271038D01*
X144900446Y-109253087D01*
X145000181Y-109236677D01*
X145078500Y-109220388D01*
X145139653Y-109202798D01*
X145187887Y-109182487D01*
X145227451Y-109158033D01*
X145262594Y-109128016D01*
X145290835Y-109098540D01*
X145324338Y-109057469D01*
X145340827Y-109022154D01*
X145345983Y-108978643D01*
X145346170Y-108962708D01*
X145342298Y-108909831D01*
X145326819Y-108870493D01*
X145300031Y-108835576D01*
X145245587Y-108782202D01*
X145184876Y-108741498D01*
X145113388Y-108712136D01*
X145026610Y-108692789D01*
X144920032Y-108682130D01*
X144789143Y-108678831D01*
X144767531Y-108678887D01*
X144680248Y-108680696D01*
X144593687Y-108684807D01*
X144517284Y-108690630D01*
X144460476Y-108697575D01*
X144455882Y-108698372D01*
X144399401Y-108711752D01*
X144351494Y-108728654D01*
X144324373Y-108744105D01*
X144299135Y-108784870D01*
X144297377Y-108832338D01*
X144319134Y-108874641D01*
X144324002Y-108879424D01*
X144344124Y-108893637D01*
X144369288Y-108899760D01*
X144408233Y-108898718D01*
X144455511Y-108893302D01*
X144508341Y-108888463D01*
X144582398Y-108884381D01*
X144668855Y-108881418D01*
X144758883Y-108879939D01*
X144782561Y-108879842D01*
X144872924Y-108880206D01*
X144939057Y-108881960D01*
X144986779Y-108885713D01*
X145021908Y-108892073D01*
X145050264Y-108901649D01*
X145067305Y-108909625D01*
X145104750Y-108931771D01*
X145128625Y-108951828D01*
X145132114Y-108957513D01*
X145124753Y-108980991D01*
X145089759Y-109003719D01*
X145029558Y-109024666D01*
X144946575Y-109042800D01*
X144922126Y-109046839D01*
X144794424Y-109066897D01*
X144692506Y-109083662D01*
X144612440Y-109098353D01*
X144550292Y-109112188D01*
X144502128Y-109126385D01*
X144464014Y-109142163D01*
X144432016Y-109160740D01*
X144402202Y-109183334D01*
X144370636Y-109211163D01*
X144360014Y-109220920D01*
X144322773Y-109257334D01*
X144303059Y-109286184D01*
X144295347Y-109319198D01*
X144294099Y-109360801D01*
X144307831Y-109442385D01*
X144348868Y-109511702D01*
X144416976Y-109568528D01*
X144511919Y-109612639D01*
X144579662Y-109632424D01*
X144653287Y-109645203D01*
X144741485Y-109652432D01*
X144838870Y-109654521D01*
X144940058Y-109651879D01*
X144940058Y-109651879D01*
G37*
X144940058Y-109651879D02*
X145039663Y-109644916D01*
X145132302Y-109634041D01*
X145212588Y-109619662D01*
X145275138Y-109602190D01*
X145314565Y-109582034D01*
X145320617Y-109576101D01*
X145341662Y-109530061D01*
X145335280Y-109482796D01*
X145302639Y-109442358D01*
X145301082Y-109441199D01*
X145281883Y-109428739D01*
X145261841Y-109422187D01*
X145233886Y-109421392D01*
X145190947Y-109426200D01*
X145125955Y-109436461D01*
X145120727Y-109437325D01*
X145023885Y-109449222D01*
X144919402Y-109455091D01*
X144814611Y-109455148D01*
X144716844Y-109449609D01*
X144633434Y-109438691D01*
X144571713Y-109422611D01*
X144567658Y-109420995D01*
X144522882Y-109395907D01*
X144507150Y-109370518D01*
X144519466Y-109345549D01*
X144558831Y-109321720D01*
X144624248Y-109299754D01*
X144714720Y-109280370D01*
X144775046Y-109271038D01*
X144900446Y-109253087D01*
X145000181Y-109236677D01*
X145078500Y-109220388D01*
X145139653Y-109202798D01*
X145187887Y-109182487D01*
X145227451Y-109158033D01*
X145262594Y-109128016D01*
X145290835Y-109098540D01*
X145324338Y-109057469D01*
X145340827Y-109022154D01*
X145345983Y-108978643D01*
X145346170Y-108962708D01*
X145342298Y-108909831D01*
X145326819Y-108870493D01*
X145300031Y-108835576D01*
X145245587Y-108782202D01*
X145184876Y-108741498D01*
X145113388Y-108712136D01*
X145026610Y-108692789D01*
X144920032Y-108682130D01*
X144789143Y-108678831D01*
X144767531Y-108678887D01*
X144680248Y-108680696D01*
X144593687Y-108684807D01*
X144517284Y-108690630D01*
X144460476Y-108697575D01*
X144455882Y-108698372D01*
X144399401Y-108711752D01*
X144351494Y-108728654D01*
X144324373Y-108744105D01*
X144299135Y-108784870D01*
X144297377Y-108832338D01*
X144319134Y-108874641D01*
X144324002Y-108879424D01*
X144344124Y-108893637D01*
X144369288Y-108899760D01*
X144408233Y-108898718D01*
X144455511Y-108893302D01*
X144508341Y-108888463D01*
X144582398Y-108884381D01*
X144668855Y-108881418D01*
X144758883Y-108879939D01*
X144782561Y-108879842D01*
X144872924Y-108880206D01*
X144939057Y-108881960D01*
X144986779Y-108885713D01*
X145021908Y-108892073D01*
X145050264Y-108901649D01*
X145067305Y-108909625D01*
X145104750Y-108931771D01*
X145128625Y-108951828D01*
X145132114Y-108957513D01*
X145124753Y-108980991D01*
X145089759Y-109003719D01*
X145029558Y-109024666D01*
X144946575Y-109042800D01*
X144922126Y-109046839D01*
X144794424Y-109066897D01*
X144692506Y-109083662D01*
X144612440Y-109098353D01*
X144550292Y-109112188D01*
X144502128Y-109126385D01*
X144464014Y-109142163D01*
X144432016Y-109160740D01*
X144402202Y-109183334D01*
X144370636Y-109211163D01*
X144360014Y-109220920D01*
X144322773Y-109257334D01*
X144303059Y-109286184D01*
X144295347Y-109319198D01*
X144294099Y-109360801D01*
X144307831Y-109442385D01*
X144348868Y-109511702D01*
X144416976Y-109568528D01*
X144511919Y-109612639D01*
X144579662Y-109632424D01*
X144653287Y-109645203D01*
X144741485Y-109652432D01*
X144838870Y-109654521D01*
X144940058Y-109651879D01*
G36*
X145962383Y-109623530D02*
G01*
X145971145Y-109613448D01*
X145978018Y-109600441D01*
X145983231Y-109581025D01*
X145987012Y-109551716D01*
X145989590Y-109509029D01*
X145991193Y-109449481D01*
X145992051Y-109369586D01*
X145992390Y-109265860D01*
X145992443Y-109165128D01*
X145992350Y-109040184D01*
X145991919Y-108941815D01*
X145990923Y-108866535D01*
X145989131Y-108810862D01*
X145986317Y-108771310D01*
X145982250Y-108744395D01*
X145976704Y-108726633D01*
X145969449Y-108714539D01*
X145962383Y-108706726D01*
X145918444Y-108680524D01*
X145871626Y-108682875D01*
X145829737Y-108711452D01*
X145820112Y-108722609D01*
X145812591Y-108735553D01*
X145806912Y-108753864D01*
X145802819Y-108781118D01*
X145800051Y-108820896D01*
X145798350Y-108876774D01*
X145797457Y-108952332D01*
X145797113Y-109051148D01*
X145797058Y-109163022D01*
X145797058Y-109579808D01*
X145833949Y-109616699D01*
X145879421Y-109647736D01*
X145923530Y-109648855D01*
X145962383Y-109623530D01*
X145962383Y-109623530D01*
G37*
X145962383Y-109623530D02*
X145971145Y-109613448D01*
X145978018Y-109600441D01*
X145983231Y-109581025D01*
X145987012Y-109551716D01*
X145989590Y-109509029D01*
X145991193Y-109449481D01*
X145992051Y-109369586D01*
X145992390Y-109265860D01*
X145992443Y-109165128D01*
X145992350Y-109040184D01*
X145991919Y-108941815D01*
X145990923Y-108866535D01*
X145989131Y-108810862D01*
X145986317Y-108771310D01*
X145982250Y-108744395D01*
X145976704Y-108726633D01*
X145969449Y-108714539D01*
X145962383Y-108706726D01*
X145918444Y-108680524D01*
X145871626Y-108682875D01*
X145829737Y-108711452D01*
X145820112Y-108722609D01*
X145812591Y-108735553D01*
X145806912Y-108753864D01*
X145802819Y-108781118D01*
X145800051Y-108820896D01*
X145798350Y-108876774D01*
X145797457Y-108952332D01*
X145797113Y-109051148D01*
X145797058Y-109163022D01*
X145797058Y-109579808D01*
X145833949Y-109616699D01*
X145879421Y-109647736D01*
X145923530Y-109648855D01*
X145962383Y-109623530D01*
G36*
X147258784Y-109646224D02*
G01*
X147350005Y-109630918D01*
X147420064Y-109607125D01*
X147465642Y-109575796D01*
X147478062Y-109557922D01*
X147490692Y-109516351D01*
X147482193Y-109478744D01*
X147455361Y-109443081D01*
X147413670Y-109426397D01*
X147353176Y-109427752D01*
X147306387Y-109436791D01*
X147202418Y-109454013D01*
X147096166Y-109455649D01*
X146977237Y-109441671D01*
X146944386Y-109435748D01*
X146833801Y-109404569D01*
X146747287Y-109358190D01*
X146685793Y-109297401D01*
X146650268Y-109222992D01*
X146642921Y-109184522D01*
X146647730Y-109106473D01*
X146678780Y-109037419D01*
X146733240Y-108978707D01*
X146808282Y-108931683D01*
X146901076Y-108897693D01*
X147008794Y-108878082D01*
X147128605Y-108874195D01*
X147257681Y-108887380D01*
X147264969Y-108888624D01*
X147316308Y-108898186D01*
X147344774Y-108907422D01*
X147357112Y-108921127D01*
X147360068Y-108944094D01*
X147360135Y-108956257D01*
X147360135Y-109007317D01*
X147268969Y-109007317D01*
X147188464Y-109012832D01*
X147133525Y-109030406D01*
X147101560Y-109061583D01*
X147089974Y-109107906D01*
X147089833Y-109113952D01*
X147096611Y-109153547D01*
X147119855Y-109181819D01*
X147163116Y-109200529D01*
X147229945Y-109211436D01*
X147294676Y-109215446D01*
X147388759Y-109217747D01*
X147457002Y-109214236D01*
X147503545Y-109201281D01*
X147532528Y-109175250D01*
X147548091Y-109132509D01*
X147554375Y-109069426D01*
X147555520Y-108986572D01*
X147553644Y-108894090D01*
X147548000Y-108831182D01*
X147538564Y-108797597D01*
X147536733Y-108794967D01*
X147484921Y-108753002D01*
X147408956Y-108719768D01*
X147313654Y-108695977D01*
X147203830Y-108682337D01*
X147084300Y-108679558D01*
X146959880Y-108688351D01*
X146886703Y-108699151D01*
X146771926Y-108731638D01*
X146665250Y-108784750D01*
X146575935Y-108853681D01*
X146562360Y-108867458D01*
X146518254Y-108925378D01*
X146478457Y-108997160D01*
X146447619Y-109072417D01*
X146430389Y-109140759D01*
X146428312Y-109167007D01*
X146437153Y-109221759D01*
X146460651Y-109289881D01*
X146494297Y-109361586D01*
X146533582Y-109427087D01*
X146568291Y-109470838D01*
X146649443Y-109535917D01*
X146754348Y-109587715D01*
X146879246Y-109625062D01*
X147020379Y-109646783D01*
X147149721Y-109652091D01*
X147258784Y-109646224D01*
X147258784Y-109646224D01*
G37*
X147258784Y-109646224D02*
X147350005Y-109630918D01*
X147420064Y-109607125D01*
X147465642Y-109575796D01*
X147478062Y-109557922D01*
X147490692Y-109516351D01*
X147482193Y-109478744D01*
X147455361Y-109443081D01*
X147413670Y-109426397D01*
X147353176Y-109427752D01*
X147306387Y-109436791D01*
X147202418Y-109454013D01*
X147096166Y-109455649D01*
X146977237Y-109441671D01*
X146944386Y-109435748D01*
X146833801Y-109404569D01*
X146747287Y-109358190D01*
X146685793Y-109297401D01*
X146650268Y-109222992D01*
X146642921Y-109184522D01*
X146647730Y-109106473D01*
X146678780Y-109037419D01*
X146733240Y-108978707D01*
X146808282Y-108931683D01*
X146901076Y-108897693D01*
X147008794Y-108878082D01*
X147128605Y-108874195D01*
X147257681Y-108887380D01*
X147264969Y-108888624D01*
X147316308Y-108898186D01*
X147344774Y-108907422D01*
X147357112Y-108921127D01*
X147360068Y-108944094D01*
X147360135Y-108956257D01*
X147360135Y-109007317D01*
X147268969Y-109007317D01*
X147188464Y-109012832D01*
X147133525Y-109030406D01*
X147101560Y-109061583D01*
X147089974Y-109107906D01*
X147089833Y-109113952D01*
X147096611Y-109153547D01*
X147119855Y-109181819D01*
X147163116Y-109200529D01*
X147229945Y-109211436D01*
X147294676Y-109215446D01*
X147388759Y-109217747D01*
X147457002Y-109214236D01*
X147503545Y-109201281D01*
X147532528Y-109175250D01*
X147548091Y-109132509D01*
X147554375Y-109069426D01*
X147555520Y-108986572D01*
X147553644Y-108894090D01*
X147548000Y-108831182D01*
X147538564Y-108797597D01*
X147536733Y-108794967D01*
X147484921Y-108753002D01*
X147408956Y-108719768D01*
X147313654Y-108695977D01*
X147203830Y-108682337D01*
X147084300Y-108679558D01*
X146959880Y-108688351D01*
X146886703Y-108699151D01*
X146771926Y-108731638D01*
X146665250Y-108784750D01*
X146575935Y-108853681D01*
X146562360Y-108867458D01*
X146518254Y-108925378D01*
X146478457Y-108997160D01*
X146447619Y-109072417D01*
X146430389Y-109140759D01*
X146428312Y-109167007D01*
X146437153Y-109221759D01*
X146460651Y-109289881D01*
X146494297Y-109361586D01*
X146533582Y-109427087D01*
X146568291Y-109470838D01*
X146649443Y-109535917D01*
X146754348Y-109587715D01*
X146879246Y-109625062D01*
X147020379Y-109646783D01*
X147149721Y-109652091D01*
X147258784Y-109646224D01*
G36*
X148124126Y-109647756D02*
G01*
X148155501Y-109629351D01*
X148196524Y-109599251D01*
X148249322Y-109556040D01*
X148316021Y-109498298D01*
X148398747Y-109424608D01*
X148499626Y-109333552D01*
X148615105Y-109228862D01*
X148855579Y-109010793D01*
X148863094Y-109303492D01*
X148865807Y-109404246D01*
X148868424Y-109479278D01*
X148871526Y-109532916D01*
X148875690Y-109569490D01*
X148881495Y-109593329D01*
X148889522Y-109608762D01*
X148900349Y-109620118D01*
X148906090Y-109624890D01*
X148952063Y-109650123D01*
X148995809Y-109646434D01*
X149030511Y-109624877D01*
X149065993Y-109596165D01*
X149070406Y-109176850D01*
X149071627Y-109053529D01*
X149072249Y-108956652D01*
X149072056Y-108882606D01*
X149070832Y-108827779D01*
X149068362Y-108788557D01*
X149064432Y-108761327D01*
X149058826Y-108742477D01*
X149051328Y-108728395D01*
X149043013Y-108717101D01*
X149025024Y-108696154D01*
X149007125Y-108682269D01*
X148986834Y-108676940D01*
X148961668Y-108681660D01*
X148929146Y-108697923D01*
X148886783Y-108727223D01*
X148832098Y-108771054D01*
X148762609Y-108830909D01*
X148675831Y-108908282D01*
X148577531Y-108997186D01*
X148224336Y-109317565D01*
X148216821Y-109025823D01*
X148214103Y-108925253D01*
X148211479Y-108850396D01*
X148208367Y-108796916D01*
X148204184Y-108760474D01*
X148198349Y-108736732D01*
X148190280Y-108721354D01*
X148179395Y-108710000D01*
X148173825Y-108705374D01*
X148124590Y-108679958D01*
X148078069Y-108683791D01*
X148037557Y-108716267D01*
X148028290Y-108729333D01*
X148021067Y-108744591D01*
X148015634Y-108765704D01*
X148011738Y-108796331D01*
X148009125Y-108840134D01*
X148007539Y-108900773D01*
X148006728Y-108981909D01*
X148006438Y-109087203D01*
X148006407Y-109165128D01*
X148006505Y-109287012D01*
X148006967Y-109382497D01*
X148008049Y-109455245D01*
X148010003Y-109508917D01*
X148013084Y-109547173D01*
X148017546Y-109573673D01*
X148023643Y-109592080D01*
X148031629Y-109606052D01*
X148037557Y-109613989D01*
X148052584Y-109632788D01*
X148066628Y-109646983D01*
X148081816Y-109655154D01*
X148100273Y-109655884D01*
X148124126Y-109647756D01*
X148124126Y-109647756D01*
G37*
X148124126Y-109647756D02*
X148155501Y-109629351D01*
X148196524Y-109599251D01*
X148249322Y-109556040D01*
X148316021Y-109498298D01*
X148398747Y-109424608D01*
X148499626Y-109333552D01*
X148615105Y-109228862D01*
X148855579Y-109010793D01*
X148863094Y-109303492D01*
X148865807Y-109404246D01*
X148868424Y-109479278D01*
X148871526Y-109532916D01*
X148875690Y-109569490D01*
X148881495Y-109593329D01*
X148889522Y-109608762D01*
X148900349Y-109620118D01*
X148906090Y-109624890D01*
X148952063Y-109650123D01*
X148995809Y-109646434D01*
X149030511Y-109624877D01*
X149065993Y-109596165D01*
X149070406Y-109176850D01*
X149071627Y-109053529D01*
X149072249Y-108956652D01*
X149072056Y-108882606D01*
X149070832Y-108827779D01*
X149068362Y-108788557D01*
X149064432Y-108761327D01*
X149058826Y-108742477D01*
X149051328Y-108728395D01*
X149043013Y-108717101D01*
X149025024Y-108696154D01*
X149007125Y-108682269D01*
X148986834Y-108676940D01*
X148961668Y-108681660D01*
X148929146Y-108697923D01*
X148886783Y-108727223D01*
X148832098Y-108771054D01*
X148762609Y-108830909D01*
X148675831Y-108908282D01*
X148577531Y-108997186D01*
X148224336Y-109317565D01*
X148216821Y-109025823D01*
X148214103Y-108925253D01*
X148211479Y-108850396D01*
X148208367Y-108796916D01*
X148204184Y-108760474D01*
X148198349Y-108736732D01*
X148190280Y-108721354D01*
X148179395Y-108710000D01*
X148173825Y-108705374D01*
X148124590Y-108679958D01*
X148078069Y-108683791D01*
X148037557Y-108716267D01*
X148028290Y-108729333D01*
X148021067Y-108744591D01*
X148015634Y-108765704D01*
X148011738Y-108796331D01*
X148009125Y-108840134D01*
X148007539Y-108900773D01*
X148006728Y-108981909D01*
X148006438Y-109087203D01*
X148006407Y-109165128D01*
X148006505Y-109287012D01*
X148006967Y-109382497D01*
X148008049Y-109455245D01*
X148010003Y-109508917D01*
X148013084Y-109547173D01*
X148017546Y-109573673D01*
X148023643Y-109592080D01*
X148031629Y-109606052D01*
X148037557Y-109613989D01*
X148052584Y-109632788D01*
X148066628Y-109646983D01*
X148081816Y-109655154D01*
X148100273Y-109655884D01*
X148124126Y-109647756D01*
G36*
X150161716Y-109653333D02*
G01*
X150263377Y-109652116D01*
X150341282Y-109649270D01*
X150398581Y-109644126D01*
X150438427Y-109636016D01*
X150463968Y-109624269D01*
X150478357Y-109608218D01*
X150484745Y-109587192D01*
X150486281Y-109560524D01*
X150486289Y-109557374D01*
X150484955Y-109527210D01*
X150478651Y-109503897D01*
X150463922Y-109486494D01*
X150437315Y-109474060D01*
X150395374Y-109465655D01*
X150334646Y-109460335D01*
X150251676Y-109457161D01*
X150143011Y-109455191D01*
X150109705Y-109454755D01*
X149787413Y-109450690D01*
X149782906Y-109364270D01*
X149778398Y-109277850D01*
X150002263Y-109277850D01*
X150089721Y-109277527D01*
X150152169Y-109276163D01*
X150194654Y-109273161D01*
X150222223Y-109267927D01*
X150239922Y-109259865D01*
X150252797Y-109248380D01*
X150252880Y-109248289D01*
X150276230Y-109203529D01*
X150275386Y-109155153D01*
X150250879Y-109113914D01*
X150246029Y-109109675D01*
X150228815Y-109098751D01*
X150205226Y-109091151D01*
X150170007Y-109086303D01*
X150117900Y-109083634D01*
X150043650Y-109082572D01*
X149996162Y-109082465D01*
X149779898Y-109082465D01*
X149779898Y-108872051D01*
X150108220Y-108872051D01*
X150216618Y-108871861D01*
X150298935Y-108871086D01*
X150359149Y-108869416D01*
X150401235Y-108866542D01*
X150429171Y-108862153D01*
X150446934Y-108855941D01*
X150458500Y-108847596D01*
X150461415Y-108844566D01*
X150482936Y-108802566D01*
X150484510Y-108754786D01*
X150466855Y-108713358D01*
X150452885Y-108700063D01*
X150438354Y-108692744D01*
X150415838Y-108687081D01*
X150381776Y-108682877D01*
X150332607Y-108679932D01*
X150264768Y-108678049D01*
X150174698Y-108677030D01*
X150058837Y-108676675D01*
X150032643Y-108676666D01*
X149914839Y-108676744D01*
X149823396Y-108677169D01*
X149754614Y-108678234D01*
X149704796Y-108680231D01*
X149670240Y-108683450D01*
X149647250Y-108688184D01*
X149632126Y-108694723D01*
X149621169Y-108703359D01*
X149615158Y-108709560D01*
X149606110Y-108720543D01*
X149599042Y-108734148D01*
X149593709Y-108753944D01*
X149589868Y-108783498D01*
X149587275Y-108826379D01*
X149585687Y-108886155D01*
X149584861Y-108966393D01*
X149584552Y-109070661D01*
X149584514Y-109158420D01*
X149584608Y-109281392D01*
X149585057Y-109377931D01*
X149586108Y-109451661D01*
X149588010Y-109506210D01*
X149591009Y-109545201D01*
X149595355Y-109572261D01*
X149601294Y-109591016D01*
X149609075Y-109605090D01*
X149615664Y-109613989D01*
X149646814Y-109653590D01*
X150033148Y-109653590D01*
X150161716Y-109653333D01*
X150161716Y-109653333D01*
G37*
X150161716Y-109653333D02*
X150263377Y-109652116D01*
X150341282Y-109649270D01*
X150398581Y-109644126D01*
X150438427Y-109636016D01*
X150463968Y-109624269D01*
X150478357Y-109608218D01*
X150484745Y-109587192D01*
X150486281Y-109560524D01*
X150486289Y-109557374D01*
X150484955Y-109527210D01*
X150478651Y-109503897D01*
X150463922Y-109486494D01*
X150437315Y-109474060D01*
X150395374Y-109465655D01*
X150334646Y-109460335D01*
X150251676Y-109457161D01*
X150143011Y-109455191D01*
X150109705Y-109454755D01*
X149787413Y-109450690D01*
X149782906Y-109364270D01*
X149778398Y-109277850D01*
X150002263Y-109277850D01*
X150089721Y-109277527D01*
X150152169Y-109276163D01*
X150194654Y-109273161D01*
X150222223Y-109267927D01*
X150239922Y-109259865D01*
X150252797Y-109248380D01*
X150252880Y-109248289D01*
X150276230Y-109203529D01*
X150275386Y-109155153D01*
X150250879Y-109113914D01*
X150246029Y-109109675D01*
X150228815Y-109098751D01*
X150205226Y-109091151D01*
X150170007Y-109086303D01*
X150117900Y-109083634D01*
X150043650Y-109082572D01*
X149996162Y-109082465D01*
X149779898Y-109082465D01*
X149779898Y-108872051D01*
X150108220Y-108872051D01*
X150216618Y-108871861D01*
X150298935Y-108871086D01*
X150359149Y-108869416D01*
X150401235Y-108866542D01*
X150429171Y-108862153D01*
X150446934Y-108855941D01*
X150458500Y-108847596D01*
X150461415Y-108844566D01*
X150482936Y-108802566D01*
X150484510Y-108754786D01*
X150466855Y-108713358D01*
X150452885Y-108700063D01*
X150438354Y-108692744D01*
X150415838Y-108687081D01*
X150381776Y-108682877D01*
X150332607Y-108679932D01*
X150264768Y-108678049D01*
X150174698Y-108677030D01*
X150058837Y-108676675D01*
X150032643Y-108676666D01*
X149914839Y-108676744D01*
X149823396Y-108677169D01*
X149754614Y-108678234D01*
X149704796Y-108680231D01*
X149670240Y-108683450D01*
X149647250Y-108688184D01*
X149632126Y-108694723D01*
X149621169Y-108703359D01*
X149615158Y-108709560D01*
X149606110Y-108720543D01*
X149599042Y-108734148D01*
X149593709Y-108753944D01*
X149589868Y-108783498D01*
X149587275Y-108826379D01*
X149585687Y-108886155D01*
X149584861Y-108966393D01*
X149584552Y-109070661D01*
X149584514Y-109158420D01*
X149584608Y-109281392D01*
X149585057Y-109377931D01*
X149586108Y-109451661D01*
X149588010Y-109506210D01*
X149591009Y-109545201D01*
X149595355Y-109572261D01*
X149601294Y-109591016D01*
X149609075Y-109605090D01*
X149615664Y-109613989D01*
X149646814Y-109653590D01*
X150033148Y-109653590D01*
X150161716Y-109653333D01*
G36*
X151210783Y-109653313D02*
G01*
X151382501Y-109647507D01*
X151528555Y-109629899D01*
X151651353Y-109599437D01*
X151753303Y-109555065D01*
X151836814Y-109495729D01*
X151904293Y-109420376D01*
X151958149Y-109327950D01*
X151959208Y-109325696D01*
X151991349Y-109242976D01*
X152002801Y-109169716D01*
X151993520Y-109095988D01*
X151963461Y-109011865D01*
X151957761Y-108999063D01*
X151918885Y-108924138D01*
X151875195Y-108866243D01*
X151818806Y-108817028D01*
X151741838Y-108768143D01*
X151737366Y-108765591D01*
X151670363Y-108733405D01*
X151594631Y-108709368D01*
X151505304Y-108692649D01*
X151397515Y-108682421D01*
X151266398Y-108677854D01*
X151220072Y-108677457D01*
X150999476Y-108676666D01*
X150968326Y-108716267D01*
X150959086Y-108729289D01*
X150951878Y-108744496D01*
X150946450Y-108765534D01*
X150942551Y-108796050D01*
X150939929Y-108839689D01*
X150939074Y-108872051D01*
X151147591Y-108872051D01*
X151272582Y-108872051D01*
X151345723Y-108874190D01*
X151420807Y-108879819D01*
X151482430Y-108887757D01*
X151486149Y-108888425D01*
X151595599Y-108917788D01*
X151680494Y-108961903D01*
X151743518Y-109022817D01*
X151787360Y-109102576D01*
X151794983Y-109123716D01*
X151802456Y-109156638D01*
X151799221Y-109189164D01*
X151783479Y-109232436D01*
X151773990Y-109253693D01*
X151742917Y-109310180D01*
X151705479Y-109349809D01*
X151664287Y-109377406D01*
X151581776Y-109413318D01*
X151476179Y-109439332D01*
X151353164Y-109454312D01*
X151264070Y-109457608D01*
X151147591Y-109458205D01*
X151147591Y-108872051D01*
X150939074Y-108872051D01*
X150938332Y-108900100D01*
X150937510Y-108980928D01*
X150937210Y-109085819D01*
X150937176Y-109167838D01*
X150937176Y-109579808D01*
X150974067Y-109616699D01*
X150990440Y-109631652D01*
X151008143Y-109641892D01*
X151032865Y-109648299D01*
X151070294Y-109651753D01*
X151126119Y-109653133D01*
X151206028Y-109653319D01*
X151210783Y-109653313D01*
X151210783Y-109653313D01*
G37*
X151210783Y-109653313D02*
X151382501Y-109647507D01*
X151528555Y-109629899D01*
X151651353Y-109599437D01*
X151753303Y-109555065D01*
X151836814Y-109495729D01*
X151904293Y-109420376D01*
X151958149Y-109327950D01*
X151959208Y-109325696D01*
X151991349Y-109242976D01*
X152002801Y-109169716D01*
X151993520Y-109095988D01*
X151963461Y-109011865D01*
X151957761Y-108999063D01*
X151918885Y-108924138D01*
X151875195Y-108866243D01*
X151818806Y-108817028D01*
X151741838Y-108768143D01*
X151737366Y-108765591D01*
X151670363Y-108733405D01*
X151594631Y-108709368D01*
X151505304Y-108692649D01*
X151397515Y-108682421D01*
X151266398Y-108677854D01*
X151220072Y-108677457D01*
X150999476Y-108676666D01*
X150968326Y-108716267D01*
X150959086Y-108729289D01*
X150951878Y-108744496D01*
X150946450Y-108765534D01*
X150942551Y-108796050D01*
X150939929Y-108839689D01*
X150939074Y-108872051D01*
X151147591Y-108872051D01*
X151272582Y-108872051D01*
X151345723Y-108874190D01*
X151420807Y-108879819D01*
X151482430Y-108887757D01*
X151486149Y-108888425D01*
X151595599Y-108917788D01*
X151680494Y-108961903D01*
X151743518Y-109022817D01*
X151787360Y-109102576D01*
X151794983Y-109123716D01*
X151802456Y-109156638D01*
X151799221Y-109189164D01*
X151783479Y-109232436D01*
X151773990Y-109253693D01*
X151742917Y-109310180D01*
X151705479Y-109349809D01*
X151664287Y-109377406D01*
X151581776Y-109413318D01*
X151476179Y-109439332D01*
X151353164Y-109454312D01*
X151264070Y-109457608D01*
X151147591Y-109458205D01*
X151147591Y-108872051D01*
X150939074Y-108872051D01*
X150938332Y-108900100D01*
X150937510Y-108980928D01*
X150937210Y-109085819D01*
X150937176Y-109167838D01*
X150937176Y-109579808D01*
X150974067Y-109616699D01*
X150990440Y-109631652D01*
X151008143Y-109641892D01*
X151032865Y-109648299D01*
X151070294Y-109651753D01*
X151126119Y-109653133D01*
X151206028Y-109653319D01*
X151210783Y-109653313D01*
G36*
X154840547Y-109650970D02*
G01*
X154866628Y-109641650D01*
X154867634Y-109641194D01*
X154903052Y-109614166D01*
X154922566Y-109586364D01*
X154926384Y-109573328D01*
X154926195Y-109556008D01*
X154920822Y-109531333D01*
X154909088Y-109496236D01*
X154889813Y-109447647D01*
X154861822Y-109382498D01*
X154823936Y-109297719D01*
X154774978Y-109190241D01*
X154748031Y-109131497D01*
X154699370Y-109026627D01*
X154653690Y-108930186D01*
X154612734Y-108845702D01*
X154578246Y-108776700D01*
X154551969Y-108726706D01*
X154535646Y-108699246D01*
X154532416Y-108695453D01*
X154491089Y-108678720D01*
X154444409Y-108680961D01*
X154406970Y-108701313D01*
X154405444Y-108702968D01*
X154390551Y-108725514D01*
X154365569Y-108769429D01*
X154333579Y-108829060D01*
X154297660Y-108898754D01*
X154284752Y-108924437D01*
X154187314Y-109119603D01*
X154081106Y-108907593D01*
X154043197Y-108834339D01*
X154008027Y-108770810D01*
X153978468Y-108721869D01*
X153957394Y-108692378D01*
X153950252Y-108686124D01*
X153894738Y-108677655D01*
X153848929Y-108695453D01*
X153835454Y-108714475D01*
X153812136Y-108756751D01*
X153780877Y-108818120D01*
X153743580Y-108894424D01*
X153702146Y-108981501D01*
X153658478Y-109075193D01*
X153614478Y-109171339D01*
X153572048Y-109265779D01*
X153533090Y-109354355D01*
X153499507Y-109432904D01*
X153473201Y-109497269D01*
X153456074Y-109543289D01*
X153450029Y-109566803D01*
X153450091Y-109567655D01*
X153464800Y-109597244D01*
X153494202Y-109627380D01*
X153495933Y-109628692D01*
X153532070Y-109649118D01*
X153565494Y-109648920D01*
X153578022Y-109645069D01*
X153593287Y-109636747D01*
X153609498Y-109620375D01*
X153628599Y-109592558D01*
X153652535Y-109549900D01*
X153683251Y-109489005D01*
X153722691Y-109406475D01*
X153758258Y-109330293D01*
X153799177Y-109241986D01*
X153835844Y-109162574D01*
X153866354Y-109096204D01*
X153888802Y-109047025D01*
X153901283Y-109019187D01*
X153903103Y-109014832D01*
X153911290Y-109021951D01*
X153930105Y-109051759D01*
X153957046Y-109099904D01*
X153989608Y-109162037D01*
X154002566Y-109187672D01*
X154046460Y-109274235D01*
X154080311Y-109337275D01*
X154106897Y-109380458D01*
X154128995Y-109407448D01*
X154149384Y-109421912D01*
X154170840Y-109427513D01*
X154184823Y-109428146D01*
X154209488Y-109425960D01*
X154231102Y-109416921D01*
X154252578Y-109397303D01*
X154276830Y-109363383D01*
X154306770Y-109311438D01*
X154345313Y-109237742D01*
X154366578Y-109195820D01*
X154401072Y-109129006D01*
X154431156Y-109073599D01*
X154454177Y-109034273D01*
X154467480Y-109015704D01*
X154469289Y-109014931D01*
X154477880Y-109029545D01*
X154497114Y-109067493D01*
X154525065Y-109124804D01*
X154559807Y-109197504D01*
X154599413Y-109281624D01*
X154618896Y-109323406D01*
X154669580Y-109431237D01*
X154710393Y-109514210D01*
X154743454Y-109575034D01*
X154770881Y-109616415D01*
X154794792Y-109641060D01*
X154817308Y-109651676D01*
X154840547Y-109650970D01*
X154840547Y-109650970D01*
G37*
X154840547Y-109650970D02*
X154866628Y-109641650D01*
X154867634Y-109641194D01*
X154903052Y-109614166D01*
X154922566Y-109586364D01*
X154926384Y-109573328D01*
X154926195Y-109556008D01*
X154920822Y-109531333D01*
X154909088Y-109496236D01*
X154889813Y-109447647D01*
X154861822Y-109382498D01*
X154823936Y-109297719D01*
X154774978Y-109190241D01*
X154748031Y-109131497D01*
X154699370Y-109026627D01*
X154653690Y-108930186D01*
X154612734Y-108845702D01*
X154578246Y-108776700D01*
X154551969Y-108726706D01*
X154535646Y-108699246D01*
X154532416Y-108695453D01*
X154491089Y-108678720D01*
X154444409Y-108680961D01*
X154406970Y-108701313D01*
X154405444Y-108702968D01*
X154390551Y-108725514D01*
X154365569Y-108769429D01*
X154333579Y-108829060D01*
X154297660Y-108898754D01*
X154284752Y-108924437D01*
X154187314Y-109119603D01*
X154081106Y-108907593D01*
X154043197Y-108834339D01*
X154008027Y-108770810D01*
X153978468Y-108721869D01*
X153957394Y-108692378D01*
X153950252Y-108686124D01*
X153894738Y-108677655D01*
X153848929Y-108695453D01*
X153835454Y-108714475D01*
X153812136Y-108756751D01*
X153780877Y-108818120D01*
X153743580Y-108894424D01*
X153702146Y-108981501D01*
X153658478Y-109075193D01*
X153614478Y-109171339D01*
X153572048Y-109265779D01*
X153533090Y-109354355D01*
X153499507Y-109432904D01*
X153473201Y-109497269D01*
X153456074Y-109543289D01*
X153450029Y-109566803D01*
X153450091Y-109567655D01*
X153464800Y-109597244D01*
X153494202Y-109627380D01*
X153495933Y-109628692D01*
X153532070Y-109649118D01*
X153565494Y-109648920D01*
X153578022Y-109645069D01*
X153593287Y-109636747D01*
X153609498Y-109620375D01*
X153628599Y-109592558D01*
X153652535Y-109549900D01*
X153683251Y-109489005D01*
X153722691Y-109406475D01*
X153758258Y-109330293D01*
X153799177Y-109241986D01*
X153835844Y-109162574D01*
X153866354Y-109096204D01*
X153888802Y-109047025D01*
X153901283Y-109019187D01*
X153903103Y-109014832D01*
X153911290Y-109021951D01*
X153930105Y-109051759D01*
X153957046Y-109099904D01*
X153989608Y-109162037D01*
X154002566Y-109187672D01*
X154046460Y-109274235D01*
X154080311Y-109337275D01*
X154106897Y-109380458D01*
X154128995Y-109407448D01*
X154149384Y-109421912D01*
X154170840Y-109427513D01*
X154184823Y-109428146D01*
X154209488Y-109425960D01*
X154231102Y-109416921D01*
X154252578Y-109397303D01*
X154276830Y-109363383D01*
X154306770Y-109311438D01*
X154345313Y-109237742D01*
X154366578Y-109195820D01*
X154401072Y-109129006D01*
X154431156Y-109073599D01*
X154454177Y-109034273D01*
X154467480Y-109015704D01*
X154469289Y-109014931D01*
X154477880Y-109029545D01*
X154497114Y-109067493D01*
X154525065Y-109124804D01*
X154559807Y-109197504D01*
X154599413Y-109281624D01*
X154618896Y-109323406D01*
X154669580Y-109431237D01*
X154710393Y-109514210D01*
X154743454Y-109575034D01*
X154770881Y-109616415D01*
X154794792Y-109641060D01*
X154817308Y-109651676D01*
X154840547Y-109650970D01*
G36*
X155431604Y-109644523D02*
G01*
X155463174Y-109624858D01*
X155498656Y-109596127D01*
X155498656Y-109168034D01*
X155498543Y-109042810D01*
X155498059Y-108944153D01*
X155496986Y-108868570D01*
X155495108Y-108812567D01*
X155492206Y-108772653D01*
X155488063Y-108745334D01*
X155482462Y-108727119D01*
X155475185Y-108714514D01*
X155470024Y-108708304D01*
X155428168Y-108681020D01*
X155380505Y-108682133D01*
X155338753Y-108705398D01*
X155303271Y-108734129D01*
X155303271Y-109596127D01*
X155338753Y-109624858D01*
X155372998Y-109645758D01*
X155400963Y-109653590D01*
X155431604Y-109644523D01*
X155431604Y-109644523D01*
G37*
X155431604Y-109644523D02*
X155463174Y-109624858D01*
X155498656Y-109596127D01*
X155498656Y-109168034D01*
X155498543Y-109042810D01*
X155498059Y-108944153D01*
X155496986Y-108868570D01*
X155495108Y-108812567D01*
X155492206Y-108772653D01*
X155488063Y-108745334D01*
X155482462Y-108727119D01*
X155475185Y-108714514D01*
X155470024Y-108708304D01*
X155428168Y-108681020D01*
X155380505Y-108682133D01*
X155338753Y-108705398D01*
X155303271Y-108734129D01*
X155303271Y-109596127D01*
X155338753Y-109624858D01*
X155372998Y-109645758D01*
X155400963Y-109653590D01*
X155431604Y-109644523D01*
G36*
X156462677Y-109653461D02*
G01*
X156567465Y-109652957D01*
X156648799Y-109651904D01*
X156709980Y-109650124D01*
X156754311Y-109647443D01*
X156785094Y-109643686D01*
X156805631Y-109638675D01*
X156819225Y-109632237D01*
X156825803Y-109627288D01*
X156859944Y-109583971D01*
X156864074Y-109538997D01*
X156842976Y-109498140D01*
X156829179Y-109481814D01*
X156814332Y-109470682D01*
X156792815Y-109463750D01*
X156759008Y-109460023D01*
X156707292Y-109458506D01*
X156632047Y-109458206D01*
X156617269Y-109458205D01*
X156422975Y-109458205D01*
X156422975Y-109097495D01*
X156422847Y-108983799D01*
X156422266Y-108896315D01*
X156420936Y-108831198D01*
X156418560Y-108784602D01*
X156414844Y-108752681D01*
X156409492Y-108731588D01*
X156402207Y-108717477D01*
X156392916Y-108706726D01*
X156349071Y-108680304D01*
X156303300Y-108682386D01*
X156261790Y-108712531D01*
X156258741Y-108716267D01*
X156248812Y-108730390D01*
X156241248Y-108746914D01*
X156235729Y-108769854D01*
X156231933Y-108803227D01*
X156229542Y-108851045D01*
X156228234Y-108917326D01*
X156227691Y-109006082D01*
X156227591Y-109107037D01*
X156227591Y-109458205D01*
X156042050Y-109458205D01*
X155962427Y-109458744D01*
X155907304Y-109460843D01*
X155871132Y-109465229D01*
X155848362Y-109472624D01*
X155833447Y-109483755D01*
X155831636Y-109485690D01*
X155809858Y-109529943D01*
X155811784Y-109579971D01*
X155836821Y-109623530D01*
X155846504Y-109631980D01*
X155858988Y-109638679D01*
X155877603Y-109643831D01*
X155905677Y-109647639D01*
X155946541Y-109650303D01*
X156003522Y-109652028D01*
X156079952Y-109653016D01*
X156179157Y-109653468D01*
X156304469Y-109653588D01*
X156331133Y-109653590D01*
X156462677Y-109653461D01*
X156462677Y-109653461D01*
G37*
X156462677Y-109653461D02*
X156567465Y-109652957D01*
X156648799Y-109651904D01*
X156709980Y-109650124D01*
X156754311Y-109647443D01*
X156785094Y-109643686D01*
X156805631Y-109638675D01*
X156819225Y-109632237D01*
X156825803Y-109627288D01*
X156859944Y-109583971D01*
X156864074Y-109538997D01*
X156842976Y-109498140D01*
X156829179Y-109481814D01*
X156814332Y-109470682D01*
X156792815Y-109463750D01*
X156759008Y-109460023D01*
X156707292Y-109458506D01*
X156632047Y-109458206D01*
X156617269Y-109458205D01*
X156422975Y-109458205D01*
X156422975Y-109097495D01*
X156422847Y-108983799D01*
X156422266Y-108896315D01*
X156420936Y-108831198D01*
X156418560Y-108784602D01*
X156414844Y-108752681D01*
X156409492Y-108731588D01*
X156402207Y-108717477D01*
X156392916Y-108706726D01*
X156349071Y-108680304D01*
X156303300Y-108682386D01*
X156261790Y-108712531D01*
X156258741Y-108716267D01*
X156248812Y-108730390D01*
X156241248Y-108746914D01*
X156235729Y-108769854D01*
X156231933Y-108803227D01*
X156229542Y-108851045D01*
X156228234Y-108917326D01*
X156227691Y-109006082D01*
X156227591Y-109107037D01*
X156227591Y-109458205D01*
X156042050Y-109458205D01*
X155962427Y-109458744D01*
X155907304Y-109460843D01*
X155871132Y-109465229D01*
X155848362Y-109472624D01*
X155833447Y-109483755D01*
X155831636Y-109485690D01*
X155809858Y-109529943D01*
X155811784Y-109579971D01*
X155836821Y-109623530D01*
X155846504Y-109631980D01*
X155858988Y-109638679D01*
X155877603Y-109643831D01*
X155905677Y-109647639D01*
X155946541Y-109650303D01*
X156003522Y-109652028D01*
X156079952Y-109653016D01*
X156179157Y-109653468D01*
X156304469Y-109653588D01*
X156331133Y-109653590D01*
X156462677Y-109653461D01*
G36*
X158147859Y-109646312D02*
G01*
X158189635Y-109616699D01*
X158226525Y-109579808D01*
X158226525Y-109167838D01*
X158226429Y-109045514D01*
X158225972Y-108949602D01*
X158224903Y-108876456D01*
X158222971Y-108822430D01*
X158219923Y-108783877D01*
X158215509Y-108757152D01*
X158209476Y-108738606D01*
X158201574Y-108724595D01*
X158195375Y-108716267D01*
X158154461Y-108683551D01*
X158107482Y-108680000D01*
X158064544Y-108700063D01*
X158050356Y-108711908D01*
X158040872Y-108727642D01*
X158035151Y-108752978D01*
X158032253Y-108793630D01*
X158031238Y-108855312D01*
X158031141Y-108902962D01*
X158031141Y-109082465D01*
X157369839Y-109082465D01*
X157369839Y-108919167D01*
X157369155Y-108844495D01*
X157366419Y-108793176D01*
X157360604Y-108758523D01*
X157350684Y-108733845D01*
X157338689Y-108716267D01*
X157297546Y-108683643D01*
X157251017Y-108679780D01*
X157206473Y-108702968D01*
X157194312Y-108715124D01*
X157185723Y-108731239D01*
X157180058Y-108756340D01*
X157176669Y-108795456D01*
X157174908Y-108853614D01*
X157174128Y-108935842D01*
X157174036Y-108954714D01*
X157173392Y-109109643D01*
X157173060Y-109237326D01*
X157173168Y-109340573D01*
X157173845Y-109422197D01*
X157175218Y-109485008D01*
X157177416Y-109531819D01*
X157180566Y-109565441D01*
X157184798Y-109588685D01*
X157190238Y-109604364D01*
X157197015Y-109615289D01*
X157204514Y-109623530D01*
X157246933Y-109649893D01*
X157291172Y-109646312D01*
X157332948Y-109616699D01*
X157349853Y-109597593D01*
X157360629Y-109576489D01*
X157366641Y-109546432D01*
X157369256Y-109500467D01*
X157369839Y-109431640D01*
X157369839Y-109277850D01*
X158031141Y-109277850D01*
X158031141Y-109435661D01*
X158031816Y-109508364D01*
X158034526Y-109557455D01*
X158040301Y-109589364D01*
X158050169Y-109610522D01*
X158061200Y-109623530D01*
X158103619Y-109649893D01*
X158147859Y-109646312D01*
X158147859Y-109646312D01*
G37*
X158147859Y-109646312D02*
X158189635Y-109616699D01*
X158226525Y-109579808D01*
X158226525Y-109167838D01*
X158226429Y-109045514D01*
X158225972Y-108949602D01*
X158224903Y-108876456D01*
X158222971Y-108822430D01*
X158219923Y-108783877D01*
X158215509Y-108757152D01*
X158209476Y-108738606D01*
X158201574Y-108724595D01*
X158195375Y-108716267D01*
X158154461Y-108683551D01*
X158107482Y-108680000D01*
X158064544Y-108700063D01*
X158050356Y-108711908D01*
X158040872Y-108727642D01*
X158035151Y-108752978D01*
X158032253Y-108793630D01*
X158031238Y-108855312D01*
X158031141Y-108902962D01*
X158031141Y-109082465D01*
X157369839Y-109082465D01*
X157369839Y-108919167D01*
X157369155Y-108844495D01*
X157366419Y-108793176D01*
X157360604Y-108758523D01*
X157350684Y-108733845D01*
X157338689Y-108716267D01*
X157297546Y-108683643D01*
X157251017Y-108679780D01*
X157206473Y-108702968D01*
X157194312Y-108715124D01*
X157185723Y-108731239D01*
X157180058Y-108756340D01*
X157176669Y-108795456D01*
X157174908Y-108853614D01*
X157174128Y-108935842D01*
X157174036Y-108954714D01*
X157173392Y-109109643D01*
X157173060Y-109237326D01*
X157173168Y-109340573D01*
X157173845Y-109422197D01*
X157175218Y-109485008D01*
X157177416Y-109531819D01*
X157180566Y-109565441D01*
X157184798Y-109588685D01*
X157190238Y-109604364D01*
X157197015Y-109615289D01*
X157204514Y-109623530D01*
X157246933Y-109649893D01*
X157291172Y-109646312D01*
X157332948Y-109616699D01*
X157349853Y-109597593D01*
X157360629Y-109576489D01*
X157366641Y-109546432D01*
X157369256Y-109500467D01*
X157369839Y-109431640D01*
X157369839Y-109277850D01*
X158031141Y-109277850D01*
X158031141Y-109435661D01*
X158031816Y-109508364D01*
X158034526Y-109557455D01*
X158040301Y-109589364D01*
X158050169Y-109610522D01*
X158061200Y-109623530D01*
X158103619Y-109649893D01*
X158147859Y-109646312D01*
G36*
X146077682Y-118176067D02*
G01*
X146213929Y-118128828D01*
X146340779Y-118054473D01*
X146454067Y-117953013D01*
X146549628Y-117824457D01*
X146592554Y-117743428D01*
X146629705Y-117630092D01*
X146647712Y-117499249D01*
X146645717Y-117364735D01*
X146623577Y-117242842D01*
X146563064Y-117093893D01*
X146475314Y-116964691D01*
X146364788Y-116857777D01*
X146235946Y-116775694D01*
X146093247Y-116720984D01*
X145941151Y-116696190D01*
X145784119Y-116703853D01*
X145706714Y-116720228D01*
X145555859Y-116778911D01*
X145421875Y-116868457D01*
X145307994Y-116986107D01*
X145217448Y-117129098D01*
X145209788Y-117144714D01*
X145183306Y-117203314D01*
X145166678Y-117252666D01*
X145157650Y-117304730D01*
X145153968Y-117371461D01*
X145153357Y-117444071D01*
X145154367Y-117531309D01*
X145158928Y-117594376D01*
X145169334Y-117645364D01*
X145187879Y-117696367D01*
X145210770Y-117746687D01*
X145296154Y-117889530D01*
X145401301Y-118005190D01*
X145522045Y-118093675D01*
X145654221Y-118154995D01*
X145793663Y-118189161D01*
X145936205Y-118196182D01*
X146077682Y-118176067D01*
X146077682Y-118176067D01*
G37*
X146077682Y-118176067D02*
X146213929Y-118128828D01*
X146340779Y-118054473D01*
X146454067Y-117953013D01*
X146549628Y-117824457D01*
X146592554Y-117743428D01*
X146629705Y-117630092D01*
X146647712Y-117499249D01*
X146645717Y-117364735D01*
X146623577Y-117242842D01*
X146563064Y-117093893D01*
X146475314Y-116964691D01*
X146364788Y-116857777D01*
X146235946Y-116775694D01*
X146093247Y-116720984D01*
X145941151Y-116696190D01*
X145784119Y-116703853D01*
X145706714Y-116720228D01*
X145555859Y-116778911D01*
X145421875Y-116868457D01*
X145307994Y-116986107D01*
X145217448Y-117129098D01*
X145209788Y-117144714D01*
X145183306Y-117203314D01*
X145166678Y-117252666D01*
X145157650Y-117304730D01*
X145153968Y-117371461D01*
X145153357Y-117444071D01*
X145154367Y-117531309D01*
X145158928Y-117594376D01*
X145169334Y-117645364D01*
X145187879Y-117696367D01*
X145210770Y-117746687D01*
X145296154Y-117889530D01*
X145401301Y-118005190D01*
X145522045Y-118093675D01*
X145654221Y-118154995D01*
X145793663Y-118189161D01*
X145936205Y-118196182D01*
X146077682Y-118176067D01*
G36*
X158721571Y-116959911D02*
G01*
X158875876Y-116959277D01*
X158928321Y-116958958D01*
X159649500Y-116954214D01*
X159658571Y-114187428D01*
X159659769Y-113812244D01*
X159660832Y-113471583D01*
X159661827Y-113163682D01*
X159662823Y-112886779D01*
X159663888Y-112639112D01*
X159665091Y-112418919D01*
X159666499Y-112224438D01*
X159668182Y-112053906D01*
X159670206Y-111905560D01*
X159672641Y-111777639D01*
X159675554Y-111668380D01*
X159679015Y-111576021D01*
X159683090Y-111498800D01*
X159687849Y-111434954D01*
X159693360Y-111382722D01*
X159699691Y-111340340D01*
X159706910Y-111306047D01*
X159715085Y-111278080D01*
X159724285Y-111254676D01*
X159734577Y-111234075D01*
X159746031Y-111214513D01*
X159758715Y-111194228D01*
X159772695Y-111171457D01*
X159775561Y-111166607D01*
X159823640Y-111084567D01*
X158433928Y-111094071D01*
X158424857Y-111246705D01*
X158419918Y-111319955D01*
X158414771Y-111362304D01*
X158407786Y-111379108D01*
X158397337Y-111375723D01*
X158388571Y-111366040D01*
X158350388Y-111330771D01*
X158288155Y-111285437D01*
X158210641Y-111235454D01*
X158126613Y-111186239D01*
X158044839Y-111143209D01*
X157982052Y-111114899D01*
X157834954Y-111068376D01*
X157666180Y-111035421D01*
X157488191Y-111017293D01*
X157313447Y-111015250D01*
X157154407Y-111030553D01*
X157151788Y-111030991D01*
X156934168Y-111085598D01*
X156730455Y-111172599D01*
X156542613Y-111290124D01*
X156372607Y-111436303D01*
X156222402Y-111609266D01*
X156093964Y-111807143D01*
X155989257Y-112028064D01*
X155932246Y-112191714D01*
X155894651Y-112328625D01*
X155866771Y-112461202D01*
X155847753Y-112597498D01*
X155836745Y-112745567D01*
X155832895Y-112913463D01*
X155834600Y-113050560D01*
X157173359Y-113050560D01*
X157179694Y-112820671D01*
X157199679Y-112622889D01*
X157233927Y-112455461D01*
X157283055Y-112316631D01*
X157347676Y-112204642D01*
X157428405Y-112117741D01*
X157521591Y-112056308D01*
X157570080Y-112033374D01*
X157612134Y-112019625D01*
X157659020Y-112013334D01*
X157722004Y-112012778D01*
X157789857Y-112015227D01*
X157923295Y-112026996D01*
X158028832Y-112050045D01*
X158062000Y-112061590D01*
X158137735Y-112095689D01*
X158217614Y-112138509D01*
X158252500Y-112159943D01*
X158343214Y-112219444D01*
X158343214Y-114105416D01*
X158243428Y-114165229D01*
X158104267Y-114232815D01*
X157962087Y-114272786D01*
X157822090Y-114285378D01*
X157689474Y-114270827D01*
X157569440Y-114229368D01*
X157467188Y-114161237D01*
X157434195Y-114128534D01*
X157354667Y-114021381D01*
X157290299Y-113891673D01*
X157240553Y-113737186D01*
X157204891Y-113555698D01*
X157182775Y-113344985D01*
X157173667Y-113102825D01*
X157173359Y-113050560D01*
X155834600Y-113050560D01*
X155835310Y-113107626D01*
X155850605Y-113406287D01*
X155881358Y-113675675D01*
X155928381Y-113919715D01*
X155992482Y-114142330D01*
X156074472Y-114347444D01*
X156103730Y-114408254D01*
X156221581Y-114606560D01*
X156363996Y-114782788D01*
X156527629Y-114934092D01*
X156709131Y-115057629D01*
X156905153Y-115150553D01*
X157022655Y-115188885D01*
X157138054Y-115211641D01*
X157276907Y-115225180D01*
X157427574Y-115229508D01*
X157578413Y-115224632D01*
X157717785Y-115210556D01*
X157829691Y-115188475D01*
X157962884Y-115145172D01*
X158091979Y-115089489D01*
X158204928Y-115027064D01*
X158265043Y-114984697D01*
X158306510Y-114953193D01*
X158335545Y-114934010D01*
X158342150Y-114931286D01*
X158344198Y-114948837D01*
X158346107Y-114999125D01*
X158347836Y-115078600D01*
X158349341Y-115183714D01*
X158350581Y-115310917D01*
X158351513Y-115456661D01*
X158352095Y-115617397D01*
X158352286Y-115781116D01*
X158352179Y-115990812D01*
X158351658Y-116167604D01*
X158350416Y-116314874D01*
X158348148Y-116436003D01*
X158344550Y-116534373D01*
X158339317Y-116613366D01*
X158332144Y-116676362D01*
X158322726Y-116726745D01*
X158310758Y-116767895D01*
X158295935Y-116803194D01*
X158277952Y-116836023D01*
X158256505Y-116869765D01*
X158253745Y-116873943D01*
X158226083Y-116917644D01*
X158209382Y-116947695D01*
X158207143Y-116954033D01*
X158224643Y-116956033D01*
X158274574Y-116957660D01*
X158353085Y-116958888D01*
X158456323Y-116959689D01*
X158580436Y-116960039D01*
X158721571Y-116959911D01*
X158721571Y-116959911D01*
G37*
X158721571Y-116959911D02*
X158875876Y-116959277D01*
X158928321Y-116958958D01*
X159649500Y-116954214D01*
X159658571Y-114187428D01*
X159659769Y-113812244D01*
X159660832Y-113471583D01*
X159661827Y-113163682D01*
X159662823Y-112886779D01*
X159663888Y-112639112D01*
X159665091Y-112418919D01*
X159666499Y-112224438D01*
X159668182Y-112053906D01*
X159670206Y-111905560D01*
X159672641Y-111777639D01*
X159675554Y-111668380D01*
X159679015Y-111576021D01*
X159683090Y-111498800D01*
X159687849Y-111434954D01*
X159693360Y-111382722D01*
X159699691Y-111340340D01*
X159706910Y-111306047D01*
X159715085Y-111278080D01*
X159724285Y-111254676D01*
X159734577Y-111234075D01*
X159746031Y-111214513D01*
X159758715Y-111194228D01*
X159772695Y-111171457D01*
X159775561Y-111166607D01*
X159823640Y-111084567D01*
X158433928Y-111094071D01*
X158424857Y-111246705D01*
X158419918Y-111319955D01*
X158414771Y-111362304D01*
X158407786Y-111379108D01*
X158397337Y-111375723D01*
X158388571Y-111366040D01*
X158350388Y-111330771D01*
X158288155Y-111285437D01*
X158210641Y-111235454D01*
X158126613Y-111186239D01*
X158044839Y-111143209D01*
X157982052Y-111114899D01*
X157834954Y-111068376D01*
X157666180Y-111035421D01*
X157488191Y-111017293D01*
X157313447Y-111015250D01*
X157154407Y-111030553D01*
X157151788Y-111030991D01*
X156934168Y-111085598D01*
X156730455Y-111172599D01*
X156542613Y-111290124D01*
X156372607Y-111436303D01*
X156222402Y-111609266D01*
X156093964Y-111807143D01*
X155989257Y-112028064D01*
X155932246Y-112191714D01*
X155894651Y-112328625D01*
X155866771Y-112461202D01*
X155847753Y-112597498D01*
X155836745Y-112745567D01*
X155832895Y-112913463D01*
X155834600Y-113050560D01*
X157173359Y-113050560D01*
X157179694Y-112820671D01*
X157199679Y-112622889D01*
X157233927Y-112455461D01*
X157283055Y-112316631D01*
X157347676Y-112204642D01*
X157428405Y-112117741D01*
X157521591Y-112056308D01*
X157570080Y-112033374D01*
X157612134Y-112019625D01*
X157659020Y-112013334D01*
X157722004Y-112012778D01*
X157789857Y-112015227D01*
X157923295Y-112026996D01*
X158028832Y-112050045D01*
X158062000Y-112061590D01*
X158137735Y-112095689D01*
X158217614Y-112138509D01*
X158252500Y-112159943D01*
X158343214Y-112219444D01*
X158343214Y-114105416D01*
X158243428Y-114165229D01*
X158104267Y-114232815D01*
X157962087Y-114272786D01*
X157822090Y-114285378D01*
X157689474Y-114270827D01*
X157569440Y-114229368D01*
X157467188Y-114161237D01*
X157434195Y-114128534D01*
X157354667Y-114021381D01*
X157290299Y-113891673D01*
X157240553Y-113737186D01*
X157204891Y-113555698D01*
X157182775Y-113344985D01*
X157173667Y-113102825D01*
X157173359Y-113050560D01*
X155834600Y-113050560D01*
X155835310Y-113107626D01*
X155850605Y-113406287D01*
X155881358Y-113675675D01*
X155928381Y-113919715D01*
X155992482Y-114142330D01*
X156074472Y-114347444D01*
X156103730Y-114408254D01*
X156221581Y-114606560D01*
X156363996Y-114782788D01*
X156527629Y-114934092D01*
X156709131Y-115057629D01*
X156905153Y-115150553D01*
X157022655Y-115188885D01*
X157138054Y-115211641D01*
X157276907Y-115225180D01*
X157427574Y-115229508D01*
X157578413Y-115224632D01*
X157717785Y-115210556D01*
X157829691Y-115188475D01*
X157962884Y-115145172D01*
X158091979Y-115089489D01*
X158204928Y-115027064D01*
X158265043Y-114984697D01*
X158306510Y-114953193D01*
X158335545Y-114934010D01*
X158342150Y-114931286D01*
X158344198Y-114948837D01*
X158346107Y-114999125D01*
X158347836Y-115078600D01*
X158349341Y-115183714D01*
X158350581Y-115310917D01*
X158351513Y-115456661D01*
X158352095Y-115617397D01*
X158352286Y-115781116D01*
X158352179Y-115990812D01*
X158351658Y-116167604D01*
X158350416Y-116314874D01*
X158348148Y-116436003D01*
X158344550Y-116534373D01*
X158339317Y-116613366D01*
X158332144Y-116676362D01*
X158322726Y-116726745D01*
X158310758Y-116767895D01*
X158295935Y-116803194D01*
X158277952Y-116836023D01*
X158256505Y-116869765D01*
X158253745Y-116873943D01*
X158226083Y-116917644D01*
X158209382Y-116947695D01*
X158207143Y-116954033D01*
X158224643Y-116956033D01*
X158274574Y-116957660D01*
X158353085Y-116958888D01*
X158456323Y-116959689D01*
X158580436Y-116960039D01*
X158721571Y-116959911D01*
G36*
X153865632Y-115232270D02*
G01*
X153955523Y-115225465D01*
X154212715Y-115191247D01*
X154440485Y-115136669D01*
X154639943Y-115060980D01*
X154812197Y-114963430D01*
X154958359Y-114843268D01*
X155079536Y-114699742D01*
X155176839Y-114532102D01*
X155247891Y-114350714D01*
X155265927Y-114292854D01*
X155281632Y-114238671D01*
X155295192Y-114185248D01*
X155306792Y-114129667D01*
X155316617Y-114069012D01*
X155324853Y-114000365D01*
X155331684Y-113920810D01*
X155337295Y-113827428D01*
X155341872Y-113717304D01*
X155345600Y-113587519D01*
X155348665Y-113435158D01*
X155351250Y-113257302D01*
X155353542Y-113051035D01*
X155355725Y-112813439D01*
X155357286Y-112627143D01*
X155367785Y-111348071D01*
X155435821Y-111224982D01*
X155468038Y-111165683D01*
X155492012Y-111119623D01*
X155503450Y-111095107D01*
X155503857Y-111093447D01*
X155486375Y-111091546D01*
X155436574Y-111089795D01*
X155358421Y-111088242D01*
X155255882Y-111086938D01*
X155132922Y-111085930D01*
X154993510Y-111085269D01*
X154841611Y-111085003D01*
X154823500Y-111085000D01*
X154143143Y-111085000D01*
X154143143Y-111239214D01*
X154141982Y-111308906D01*
X154138887Y-111362206D01*
X154134432Y-111390783D01*
X154132463Y-111393428D01*
X154114455Y-111382347D01*
X154077393Y-111353264D01*
X154029222Y-111312421D01*
X154028141Y-111311476D01*
X153940235Y-111246029D01*
X153829217Y-111180312D01*
X153707631Y-111120781D01*
X153588021Y-111073891D01*
X153535357Y-111057867D01*
X153430551Y-111037515D01*
X153301950Y-111024528D01*
X153161325Y-111019091D01*
X153020448Y-111021389D01*
X152891093Y-111031608D01*
X152800571Y-111046311D01*
X152578580Y-111111501D01*
X152378729Y-111204406D01*
X152202319Y-111323874D01*
X152050650Y-111468753D01*
X151925024Y-111637890D01*
X151826741Y-111830133D01*
X151784341Y-111946786D01*
X151757768Y-112060167D01*
X151740158Y-112196278D01*
X151732010Y-112342563D01*
X151732278Y-112363849D01*
X152959321Y-112363849D01*
X152969496Y-112255150D01*
X153003378Y-112164815D01*
X153066000Y-112081005D01*
X153090052Y-112056429D01*
X153175551Y-111989989D01*
X153274373Y-111947426D01*
X153392768Y-111926823D01*
X153517445Y-111925306D01*
X153635698Y-111935323D01*
X153726239Y-111954915D01*
X153765560Y-111969630D01*
X153836432Y-112009735D01*
X153911525Y-112066137D01*
X153980038Y-112129439D01*
X154031172Y-112190245D01*
X154044750Y-112212551D01*
X154055305Y-112243788D01*
X154062810Y-112293493D01*
X154067613Y-112366413D01*
X154070065Y-112467297D01*
X154070571Y-112563311D01*
X154070228Y-112675250D01*
X154068843Y-112756191D01*
X154065881Y-112811415D01*
X154060808Y-112846206D01*
X154053090Y-112865846D01*
X154042192Y-112875620D01*
X154038821Y-112877176D01*
X154009529Y-112881971D01*
X153951756Y-112885892D01*
X153873304Y-112888586D01*
X153781974Y-112889701D01*
X153762143Y-112889702D01*
X153640063Y-112887754D01*
X153545749Y-112881959D01*
X153470807Y-112871525D01*
X153408903Y-112856286D01*
X153255349Y-112798216D01*
X153134932Y-112726821D01*
X153046610Y-112640961D01*
X152989339Y-112539493D01*
X152962078Y-112421275D01*
X152959321Y-112363849D01*
X151732278Y-112363849D01*
X151733823Y-112486467D01*
X151746096Y-112615435D01*
X151755670Y-112667540D01*
X151816801Y-112861003D01*
X151909757Y-113039007D01*
X152032783Y-113199845D01*
X152184124Y-113341810D01*
X152362025Y-113463194D01*
X152564732Y-113562291D01*
X152737071Y-113622467D01*
X152852253Y-113654081D01*
X152962423Y-113678646D01*
X153074719Y-113696961D01*
X153196275Y-113709822D01*
X153334229Y-113718028D01*
X153495715Y-113722376D01*
X153641715Y-113723600D01*
X154074645Y-113724785D01*
X154066351Y-113854920D01*
X154042801Y-113996117D01*
X153992703Y-114117482D01*
X153918191Y-114215983D01*
X153821399Y-114288591D01*
X153736171Y-114324021D01*
X153614056Y-114346350D01*
X153468683Y-114349557D01*
X153306867Y-114334823D01*
X153135422Y-114303330D01*
X152961163Y-114256260D01*
X152790904Y-114194797D01*
X152667176Y-114138583D01*
X152607647Y-114109717D01*
X152562242Y-114089557D01*
X152539150Y-114081690D01*
X152537897Y-114081942D01*
X152529929Y-114099563D01*
X152510031Y-114146267D01*
X152480077Y-114217582D01*
X152441939Y-114309031D01*
X152397488Y-114416141D01*
X152352305Y-114525451D01*
X152171667Y-114963260D01*
X152300155Y-114984364D01*
X152355846Y-114994953D01*
X152439564Y-115012737D01*
X152544139Y-115036102D01*
X152662399Y-115063435D01*
X152787172Y-115093119D01*
X152836857Y-115105182D01*
X153051807Y-115155038D01*
X153239995Y-115192416D01*
X153408446Y-115218073D01*
X153564186Y-115232765D01*
X153714240Y-115237245D01*
X153865632Y-115232270D01*
X153865632Y-115232270D01*
G37*
X153865632Y-115232270D02*
X153955523Y-115225465D01*
X154212715Y-115191247D01*
X154440485Y-115136669D01*
X154639943Y-115060980D01*
X154812197Y-114963430D01*
X154958359Y-114843268D01*
X155079536Y-114699742D01*
X155176839Y-114532102D01*
X155247891Y-114350714D01*
X155265927Y-114292854D01*
X155281632Y-114238671D01*
X155295192Y-114185248D01*
X155306792Y-114129667D01*
X155316617Y-114069012D01*
X155324853Y-114000365D01*
X155331684Y-113920810D01*
X155337295Y-113827428D01*
X155341872Y-113717304D01*
X155345600Y-113587519D01*
X155348665Y-113435158D01*
X155351250Y-113257302D01*
X155353542Y-113051035D01*
X155355725Y-112813439D01*
X155357286Y-112627143D01*
X155367785Y-111348071D01*
X155435821Y-111224982D01*
X155468038Y-111165683D01*
X155492012Y-111119623D01*
X155503450Y-111095107D01*
X155503857Y-111093447D01*
X155486375Y-111091546D01*
X155436574Y-111089795D01*
X155358421Y-111088242D01*
X155255882Y-111086938D01*
X155132922Y-111085930D01*
X154993510Y-111085269D01*
X154841611Y-111085003D01*
X154823500Y-111085000D01*
X154143143Y-111085000D01*
X154143143Y-111239214D01*
X154141982Y-111308906D01*
X154138887Y-111362206D01*
X154134432Y-111390783D01*
X154132463Y-111393428D01*
X154114455Y-111382347D01*
X154077393Y-111353264D01*
X154029222Y-111312421D01*
X154028141Y-111311476D01*
X153940235Y-111246029D01*
X153829217Y-111180312D01*
X153707631Y-111120781D01*
X153588021Y-111073891D01*
X153535357Y-111057867D01*
X153430551Y-111037515D01*
X153301950Y-111024528D01*
X153161325Y-111019091D01*
X153020448Y-111021389D01*
X152891093Y-111031608D01*
X152800571Y-111046311D01*
X152578580Y-111111501D01*
X152378729Y-111204406D01*
X152202319Y-111323874D01*
X152050650Y-111468753D01*
X151925024Y-111637890D01*
X151826741Y-111830133D01*
X151784341Y-111946786D01*
X151757768Y-112060167D01*
X151740158Y-112196278D01*
X151732010Y-112342563D01*
X151732278Y-112363849D01*
X152959321Y-112363849D01*
X152969496Y-112255150D01*
X153003378Y-112164815D01*
X153066000Y-112081005D01*
X153090052Y-112056429D01*
X153175551Y-111989989D01*
X153274373Y-111947426D01*
X153392768Y-111926823D01*
X153517445Y-111925306D01*
X153635698Y-111935323D01*
X153726239Y-111954915D01*
X153765560Y-111969630D01*
X153836432Y-112009735D01*
X153911525Y-112066137D01*
X153980038Y-112129439D01*
X154031172Y-112190245D01*
X154044750Y-112212551D01*
X154055305Y-112243788D01*
X154062810Y-112293493D01*
X154067613Y-112366413D01*
X154070065Y-112467297D01*
X154070571Y-112563311D01*
X154070228Y-112675250D01*
X154068843Y-112756191D01*
X154065881Y-112811415D01*
X154060808Y-112846206D01*
X154053090Y-112865846D01*
X154042192Y-112875620D01*
X154038821Y-112877176D01*
X154009529Y-112881971D01*
X153951756Y-112885892D01*
X153873304Y-112888586D01*
X153781974Y-112889701D01*
X153762143Y-112889702D01*
X153640063Y-112887754D01*
X153545749Y-112881959D01*
X153470807Y-112871525D01*
X153408903Y-112856286D01*
X153255349Y-112798216D01*
X153134932Y-112726821D01*
X153046610Y-112640961D01*
X152989339Y-112539493D01*
X152962078Y-112421275D01*
X152959321Y-112363849D01*
X151732278Y-112363849D01*
X151733823Y-112486467D01*
X151746096Y-112615435D01*
X151755670Y-112667540D01*
X151816801Y-112861003D01*
X151909757Y-113039007D01*
X152032783Y-113199845D01*
X152184124Y-113341810D01*
X152362025Y-113463194D01*
X152564732Y-113562291D01*
X152737071Y-113622467D01*
X152852253Y-113654081D01*
X152962423Y-113678646D01*
X153074719Y-113696961D01*
X153196275Y-113709822D01*
X153334229Y-113718028D01*
X153495715Y-113722376D01*
X153641715Y-113723600D01*
X154074645Y-113724785D01*
X154066351Y-113854920D01*
X154042801Y-113996117D01*
X153992703Y-114117482D01*
X153918191Y-114215983D01*
X153821399Y-114288591D01*
X153736171Y-114324021D01*
X153614056Y-114346350D01*
X153468683Y-114349557D01*
X153306867Y-114334823D01*
X153135422Y-114303330D01*
X152961163Y-114256260D01*
X152790904Y-114194797D01*
X152667176Y-114138583D01*
X152607647Y-114109717D01*
X152562242Y-114089557D01*
X152539150Y-114081690D01*
X152537897Y-114081942D01*
X152529929Y-114099563D01*
X152510031Y-114146267D01*
X152480077Y-114217582D01*
X152441939Y-114309031D01*
X152397488Y-114416141D01*
X152352305Y-114525451D01*
X152171667Y-114963260D01*
X152300155Y-114984364D01*
X152355846Y-114994953D01*
X152439564Y-115012737D01*
X152544139Y-115036102D01*
X152662399Y-115063435D01*
X152787172Y-115093119D01*
X152836857Y-115105182D01*
X153051807Y-115155038D01*
X153239995Y-115192416D01*
X153408446Y-115218073D01*
X153564186Y-115232765D01*
X153714240Y-115237245D01*
X153865632Y-115232270D01*
G36*
X150261378Y-116690769D02*
G01*
X150457019Y-116669351D01*
X150646562Y-116631015D01*
X150837717Y-116573762D01*
X151038196Y-116495591D01*
X151255708Y-116394504D01*
X151294880Y-116374924D01*
X151384772Y-116330638D01*
X151469553Y-116290761D01*
X151540855Y-116259102D01*
X151590310Y-116239468D01*
X151597908Y-116236996D01*
X151670714Y-116215183D01*
X151344803Y-115741056D01*
X151265123Y-115625177D01*
X151192272Y-115519306D01*
X151128730Y-115427038D01*
X151076972Y-115351967D01*
X151039477Y-115297687D01*
X151018723Y-115267793D01*
X151015351Y-115263059D01*
X151001655Y-115272958D01*
X150967943Y-115302715D01*
X150920244Y-115346927D01*
X150893920Y-115371916D01*
X150744772Y-115490544D01*
X150577268Y-115580687D01*
X150432928Y-115630064D01*
X150346283Y-115645571D01*
X150237796Y-115655021D01*
X150120227Y-115658239D01*
X150006334Y-115655049D01*
X149908879Y-115645276D01*
X149869990Y-115637791D01*
X149694712Y-115577488D01*
X149536765Y-115485410D01*
X149396268Y-115361727D01*
X149273335Y-115206607D01*
X149168085Y-115020219D01*
X149080635Y-114802730D01*
X149011100Y-114554308D01*
X148969775Y-114341643D01*
X148958994Y-114247759D01*
X148951648Y-114126476D01*
X148947667Y-113986507D01*
X148946979Y-113836569D01*
X148949514Y-113685378D01*
X148955200Y-113541649D01*
X148963967Y-113414097D01*
X148975744Y-113311438D01*
X148978293Y-113295599D01*
X149034481Y-113040464D01*
X149111036Y-112814658D01*
X149208426Y-112617169D01*
X149327114Y-112446986D01*
X149411363Y-112354978D01*
X149562770Y-112230057D01*
X149728817Y-112137460D01*
X149906701Y-112077691D01*
X150093622Y-112051254D01*
X150286778Y-112058652D01*
X150483369Y-112100389D01*
X150599597Y-112141229D01*
X150760438Y-112223010D01*
X150926213Y-112340322D01*
X151019073Y-112419655D01*
X151071214Y-112465571D01*
X151112180Y-112499258D01*
X151135498Y-112515490D01*
X151138393Y-112515985D01*
X151148800Y-112499399D01*
X151175767Y-112455568D01*
X151216996Y-112388252D01*
X151270189Y-112301206D01*
X151333050Y-112198190D01*
X151403281Y-112082959D01*
X151442372Y-112018769D01*
X151740964Y-111528323D01*
X151368161Y-111344085D01*
X151233369Y-111277907D01*
X151124175Y-111225722D01*
X151033907Y-111184940D01*
X150955888Y-111152967D01*
X150883444Y-111127213D01*
X150809901Y-111105086D01*
X150728584Y-111083993D01*
X150650643Y-111065470D01*
X150581366Y-111051137D01*
X150508917Y-111040306D01*
X150426042Y-111032374D01*
X150325488Y-111026742D01*
X150200003Y-111022808D01*
X150115428Y-111021109D01*
X149994754Y-111019950D01*
X149879042Y-111020535D01*
X149775951Y-111022696D01*
X149693138Y-111026268D01*
X149638260Y-111031083D01*
X149635008Y-111031563D01*
X149350043Y-111093214D01*
X149082442Y-111186715D01*
X148832297Y-111312007D01*
X148599704Y-111469026D01*
X148384757Y-111657711D01*
X148187550Y-111878000D01*
X148044727Y-112073786D01*
X147892680Y-112330051D01*
X147769773Y-112600683D01*
X147675410Y-112887851D01*
X147608999Y-113193724D01*
X147569944Y-113520472D01*
X147557640Y-113852261D01*
X147567759Y-114173221D01*
X147599561Y-114469354D01*
X147654054Y-114745655D01*
X147732250Y-115007119D01*
X147835159Y-115258742D01*
X147847447Y-115284810D01*
X147982820Y-115528493D01*
X148149089Y-115760382D01*
X148341541Y-115975677D01*
X148555466Y-116169578D01*
X148786155Y-116337285D01*
X149001109Y-116460304D01*
X149218258Y-116556655D01*
X149435868Y-116626449D01*
X149662362Y-116671587D01*
X149906166Y-116693969D01*
X150051928Y-116697269D01*
X150261378Y-116690769D01*
X150261378Y-116690769D01*
G37*
X150261378Y-116690769D02*
X150457019Y-116669351D01*
X150646562Y-116631015D01*
X150837717Y-116573762D01*
X151038196Y-116495591D01*
X151255708Y-116394504D01*
X151294880Y-116374924D01*
X151384772Y-116330638D01*
X151469553Y-116290761D01*
X151540855Y-116259102D01*
X151590310Y-116239468D01*
X151597908Y-116236996D01*
X151670714Y-116215183D01*
X151344803Y-115741056D01*
X151265123Y-115625177D01*
X151192272Y-115519306D01*
X151128730Y-115427038D01*
X151076972Y-115351967D01*
X151039477Y-115297687D01*
X151018723Y-115267793D01*
X151015351Y-115263059D01*
X151001655Y-115272958D01*
X150967943Y-115302715D01*
X150920244Y-115346927D01*
X150893920Y-115371916D01*
X150744772Y-115490544D01*
X150577268Y-115580687D01*
X150432928Y-115630064D01*
X150346283Y-115645571D01*
X150237796Y-115655021D01*
X150120227Y-115658239D01*
X150006334Y-115655049D01*
X149908879Y-115645276D01*
X149869990Y-115637791D01*
X149694712Y-115577488D01*
X149536765Y-115485410D01*
X149396268Y-115361727D01*
X149273335Y-115206607D01*
X149168085Y-115020219D01*
X149080635Y-114802730D01*
X149011100Y-114554308D01*
X148969775Y-114341643D01*
X148958994Y-114247759D01*
X148951648Y-114126476D01*
X148947667Y-113986507D01*
X148946979Y-113836569D01*
X148949514Y-113685378D01*
X148955200Y-113541649D01*
X148963967Y-113414097D01*
X148975744Y-113311438D01*
X148978293Y-113295599D01*
X149034481Y-113040464D01*
X149111036Y-112814658D01*
X149208426Y-112617169D01*
X149327114Y-112446986D01*
X149411363Y-112354978D01*
X149562770Y-112230057D01*
X149728817Y-112137460D01*
X149906701Y-112077691D01*
X150093622Y-112051254D01*
X150286778Y-112058652D01*
X150483369Y-112100389D01*
X150599597Y-112141229D01*
X150760438Y-112223010D01*
X150926213Y-112340322D01*
X151019073Y-112419655D01*
X151071214Y-112465571D01*
X151112180Y-112499258D01*
X151135498Y-112515490D01*
X151138393Y-112515985D01*
X151148800Y-112499399D01*
X151175767Y-112455568D01*
X151216996Y-112388252D01*
X151270189Y-112301206D01*
X151333050Y-112198190D01*
X151403281Y-112082959D01*
X151442372Y-112018769D01*
X151740964Y-111528323D01*
X151368161Y-111344085D01*
X151233369Y-111277907D01*
X151124175Y-111225722D01*
X151033907Y-111184940D01*
X150955888Y-111152967D01*
X150883444Y-111127213D01*
X150809901Y-111105086D01*
X150728584Y-111083993D01*
X150650643Y-111065470D01*
X150581366Y-111051137D01*
X150508917Y-111040306D01*
X150426042Y-111032374D01*
X150325488Y-111026742D01*
X150200003Y-111022808D01*
X150115428Y-111021109D01*
X149994754Y-111019950D01*
X149879042Y-111020535D01*
X149775951Y-111022696D01*
X149693138Y-111026268D01*
X149638260Y-111031083D01*
X149635008Y-111031563D01*
X149350043Y-111093214D01*
X149082442Y-111186715D01*
X148832297Y-111312007D01*
X148599704Y-111469026D01*
X148384757Y-111657711D01*
X148187550Y-111878000D01*
X148044727Y-112073786D01*
X147892680Y-112330051D01*
X147769773Y-112600683D01*
X147675410Y-112887851D01*
X147608999Y-113193724D01*
X147569944Y-113520472D01*
X147557640Y-113852261D01*
X147567759Y-114173221D01*
X147599561Y-114469354D01*
X147654054Y-114745655D01*
X147732250Y-115007119D01*
X147835159Y-115258742D01*
X147847447Y-115284810D01*
X147982820Y-115528493D01*
X148149089Y-115760382D01*
X148341541Y-115975677D01*
X148555466Y-116169578D01*
X148786155Y-116337285D01*
X149001109Y-116460304D01*
X149218258Y-116556655D01*
X149435868Y-116626449D01*
X149662362Y-116671587D01*
X149906166Y-116693969D01*
X150051928Y-116697269D01*
X150261378Y-116690769D01*
G36*
X141809911Y-117598340D02*
G01*
X142159460Y-117598293D01*
X142322170Y-117598286D01*
X144926571Y-117598285D01*
X144926571Y-117444762D01*
X144942957Y-117257937D01*
X144992412Y-117085633D01*
X145075380Y-116926825D01*
X145192305Y-116780490D01*
X145231864Y-116740968D01*
X145374170Y-116628862D01*
X145531078Y-116547101D01*
X145697928Y-116495647D01*
X145870061Y-116474463D01*
X146042815Y-116483513D01*
X146211530Y-116522758D01*
X146371546Y-116592162D01*
X146518202Y-116691689D01*
X146584068Y-116751735D01*
X146706808Y-116898957D01*
X146796812Y-117060853D01*
X146853294Y-117235573D01*
X146875471Y-117421265D01*
X146875766Y-117439533D01*
X146876928Y-117598280D01*
X146946700Y-117598283D01*
X147008595Y-117589882D01*
X147065135Y-117569444D01*
X147068872Y-117567333D01*
X147081642Y-117560707D01*
X147093368Y-117555546D01*
X147104094Y-117550349D01*
X147113861Y-117543610D01*
X147122712Y-117533829D01*
X147130689Y-117519500D01*
X147137835Y-117499122D01*
X147144192Y-117471192D01*
X147149802Y-117434205D01*
X147154707Y-117386660D01*
X147158951Y-117327053D01*
X147162576Y-117253881D01*
X147165623Y-117165641D01*
X147168136Y-117060830D01*
X147170156Y-116937945D01*
X147171726Y-116795483D01*
X147172888Y-116631940D01*
X147173686Y-116445814D01*
X147174160Y-116235602D01*
X147174354Y-115999800D01*
X147174310Y-115736906D01*
X147174070Y-115445416D01*
X147173677Y-115123828D01*
X147173173Y-114770638D01*
X147172600Y-114384343D01*
X147172001Y-113963440D01*
X147171932Y-113912160D01*
X147171395Y-113488574D01*
X147170939Y-113099770D01*
X147170516Y-112744247D01*
X147170079Y-112420502D01*
X147169578Y-112127034D01*
X147168965Y-111862339D01*
X147168192Y-111624915D01*
X147167211Y-111413260D01*
X147165974Y-111225871D01*
X147164432Y-111061246D01*
X147162537Y-110917883D01*
X147160241Y-110794280D01*
X147157496Y-110688933D01*
X147154253Y-110600341D01*
X147150464Y-110527000D01*
X147146081Y-110467410D01*
X147141055Y-110420067D01*
X147135339Y-110383469D01*
X147128884Y-110356114D01*
X147121641Y-110336498D01*
X147113563Y-110323121D01*
X147104602Y-110314479D01*
X147094708Y-110309070D01*
X147083835Y-110305392D01*
X147071933Y-110301942D01*
X147058954Y-110297218D01*
X147055783Y-110295780D01*
X147045819Y-110292549D01*
X147029141Y-110289580D01*
X147004293Y-110286863D01*
X146969820Y-110284387D01*
X146924264Y-110282142D01*
X146866170Y-110280117D01*
X146794081Y-110278302D01*
X146706542Y-110276685D01*
X146602095Y-110275257D01*
X146479285Y-110274007D01*
X146336655Y-110272924D01*
X146172749Y-110271998D01*
X145986110Y-110271218D01*
X145775284Y-110270574D01*
X145538812Y-110270054D01*
X145275239Y-110269649D01*
X144983110Y-110269348D01*
X144660966Y-110269140D01*
X144307353Y-110269015D01*
X143920814Y-110268962D01*
X143499892Y-110268971D01*
X143363544Y-110268984D01*
X142933284Y-110269053D01*
X142537836Y-110269166D01*
X142175727Y-110269335D01*
X141845483Y-110269570D01*
X141545629Y-110269884D01*
X141274692Y-110270287D01*
X141031200Y-110270793D01*
X140813677Y-110271411D01*
X140620650Y-110272154D01*
X140450646Y-110273032D01*
X140302190Y-110274059D01*
X140173810Y-110275244D01*
X140064031Y-110276600D01*
X139971380Y-110278138D01*
X139894383Y-110279870D01*
X139831566Y-110281806D01*
X139781456Y-110283960D01*
X139742579Y-110286341D01*
X139713462Y-110288963D01*
X139692629Y-110291835D01*
X139678609Y-110294970D01*
X139670966Y-110297841D01*
X139657382Y-110303570D01*
X139644910Y-110307794D01*
X139633502Y-110312015D01*
X139623111Y-110317732D01*
X139613691Y-110326445D01*
X139605192Y-110339655D01*
X139597570Y-110358863D01*
X139590775Y-110385567D01*
X139584762Y-110421270D01*
X139579483Y-110467470D01*
X139574890Y-110525668D01*
X139570936Y-110597365D01*
X139567575Y-110684060D01*
X139564759Y-110787254D01*
X139562440Y-110908447D01*
X139560572Y-111049140D01*
X139560084Y-111103143D01*
X140044296Y-111103143D01*
X141755744Y-111103143D01*
X141722813Y-111153036D01*
X141690053Y-111204307D01*
X141662311Y-111253131D01*
X141639193Y-111302924D01*
X141620303Y-111357102D01*
X141605249Y-111419084D01*
X141593633Y-111492285D01*
X141585064Y-111580122D01*
X141579144Y-111686012D01*
X141575481Y-111813372D01*
X141573679Y-111965619D01*
X141573344Y-112146168D01*
X141574081Y-112358438D01*
X141574499Y-112437245D01*
X141579214Y-113282089D01*
X142114428Y-112553443D01*
X142266054Y-112346735D01*
X142397419Y-112166740D01*
X142509943Y-112011075D01*
X142605043Y-111877353D01*
X142684138Y-111763191D01*
X142748647Y-111666203D01*
X142799988Y-111584006D01*
X142839580Y-111514214D01*
X142868840Y-111454442D01*
X142889188Y-111402307D01*
X142902042Y-111355424D01*
X142908819Y-111311407D01*
X142910940Y-111267873D01*
X142909821Y-111222436D01*
X142909536Y-111216725D01*
X142903643Y-111103067D01*
X144779229Y-111103143D01*
X144639722Y-111243811D01*
X144601865Y-111282285D01*
X144565953Y-111319721D01*
X144530407Y-111358186D01*
X144493653Y-111399742D01*
X144454114Y-111446455D01*
X144410214Y-111500390D01*
X144360377Y-111563610D01*
X144303028Y-111638182D01*
X144236589Y-111726168D01*
X144159485Y-111829635D01*
X144070139Y-111950646D01*
X143966976Y-112091266D01*
X143848420Y-112253560D01*
X143712895Y-112439593D01*
X143558823Y-112651429D01*
X143432538Y-112825196D01*
X143274046Y-113043499D01*
X143135784Y-113234371D01*
X143016501Y-113399626D01*
X142914943Y-113541074D01*
X142829859Y-113660529D01*
X142759995Y-113759802D01*
X142704100Y-113840705D01*
X142660920Y-113905051D01*
X142629203Y-113954653D01*
X142607698Y-113991321D01*
X142595150Y-114016868D01*
X142590308Y-114033107D01*
X142591763Y-114041645D01*
X142609401Y-114064365D01*
X142647534Y-114112457D01*
X142703862Y-114183062D01*
X142776084Y-114273322D01*
X142861899Y-114380379D01*
X142959006Y-114501373D01*
X143065104Y-114633446D01*
X143177891Y-114773740D01*
X143295068Y-114919397D01*
X143414333Y-115067556D01*
X143479933Y-115149000D01*
X145108686Y-115149000D01*
X145176379Y-115026535D01*
X145244071Y-114904071D01*
X145244071Y-111348071D01*
X145176379Y-111225607D01*
X145108686Y-111103143D01*
X145909441Y-111103143D01*
X146100602Y-111103198D01*
X146258499Y-111103449D01*
X146386152Y-111104021D01*
X146486581Y-111105041D01*
X146562807Y-111106635D01*
X146617852Y-111108930D01*
X146654736Y-111112050D01*
X146676479Y-111116123D01*
X146686102Y-111121275D01*
X146686627Y-111127633D01*
X146681074Y-111135321D01*
X146681016Y-111135385D01*
X146658140Y-111168476D01*
X146627849Y-111222281D01*
X146601097Y-111275992D01*
X146550357Y-111384357D01*
X146545182Y-113266678D01*
X146540007Y-115149000D01*
X145108686Y-115149000D01*
X143479933Y-115149000D01*
X143533385Y-115215361D01*
X143649923Y-115359953D01*
X143761646Y-115498472D01*
X143866254Y-115628061D01*
X143961444Y-115745860D01*
X144044917Y-115849012D01*
X144114371Y-115934657D01*
X144167506Y-115999938D01*
X144198715Y-116038000D01*
X144319903Y-116180330D01*
X144436493Y-116308770D01*
X144544397Y-116419114D01*
X144639530Y-116507159D01*
X144707043Y-116561138D01*
X144786873Y-116618571D01*
X142950892Y-116618571D01*
X142951408Y-116510835D01*
X142946276Y-116431628D01*
X142926985Y-116358195D01*
X142897123Y-116288585D01*
X142877712Y-116249259D01*
X142856841Y-116210293D01*
X142832604Y-116169099D01*
X142803094Y-116123092D01*
X142766406Y-116069683D01*
X142720632Y-116006286D01*
X142663865Y-115930315D01*
X142594200Y-115839183D01*
X142509730Y-115730302D01*
X142408547Y-115601086D01*
X142288747Y-115448948D01*
X142148421Y-115271302D01*
X142132571Y-115251258D01*
X141579214Y-114551492D01*
X141573857Y-115326496D01*
X141572779Y-115558632D01*
X141573008Y-115755154D01*
X141574557Y-115916708D01*
X141577437Y-116043944D01*
X141581659Y-116137508D01*
X141587234Y-116198048D01*
X141589107Y-116209532D01*
X141618505Y-116330501D01*
X141657022Y-116439554D01*
X141700974Y-116527237D01*
X141727379Y-116564426D01*
X141772940Y-116618571D01*
X140908470Y-116618571D01*
X140702255Y-116618395D01*
X140529812Y-116617821D01*
X140388627Y-116616783D01*
X140276188Y-116615213D01*
X140189983Y-116613046D01*
X140127498Y-116610212D01*
X140086221Y-116606647D01*
X140063640Y-116602282D01*
X140057241Y-116597051D01*
X140057683Y-116595893D01*
X140076009Y-116568231D01*
X140106604Y-116524385D01*
X140122433Y-116502209D01*
X140138798Y-116480080D01*
X140153508Y-116460291D01*
X140166656Y-116440894D01*
X140178333Y-116419942D01*
X140188632Y-116395488D01*
X140197646Y-116365584D01*
X140205468Y-116328283D01*
X140212191Y-116281637D01*
X140217906Y-116223699D01*
X140222707Y-116152521D01*
X140226685Y-116066156D01*
X140229935Y-115962656D01*
X140232548Y-115840075D01*
X140234617Y-115696463D01*
X140236234Y-115529875D01*
X140237493Y-115338363D01*
X140238485Y-115119978D01*
X140239304Y-114872774D01*
X140240042Y-114594804D01*
X140240791Y-114284119D01*
X140241492Y-113998700D01*
X140242153Y-113680508D01*
X140242497Y-113376923D01*
X140242532Y-113089885D01*
X140242268Y-112821331D01*
X140241715Y-112573202D01*
X140240880Y-112347437D01*
X140239773Y-112145974D01*
X140238404Y-111970754D01*
X140236781Y-111823714D01*
X140234913Y-111706794D01*
X140232811Y-111621933D01*
X140230482Y-111571071D01*
X140230041Y-111565696D01*
X140213992Y-111442387D01*
X140188936Y-111343356D01*
X140150779Y-111256930D01*
X140095428Y-111171435D01*
X140088504Y-111162107D01*
X140044296Y-111103143D01*
X139560084Y-111103143D01*
X139559108Y-111210832D01*
X139557999Y-111395024D01*
X139557199Y-111603216D01*
X139556661Y-111836909D01*
X139556338Y-112097602D01*
X139556183Y-112386796D01*
X139556146Y-112705991D01*
X139556183Y-113056687D01*
X139556245Y-113440386D01*
X139556285Y-113858586D01*
X139556286Y-113941607D01*
X139556309Y-114364211D01*
X139556388Y-114752019D01*
X139556533Y-115106520D01*
X139556756Y-115429203D01*
X139557069Y-115721558D01*
X139557483Y-115985073D01*
X139558009Y-116221238D01*
X139558660Y-116431542D01*
X139559447Y-116617474D01*
X139560381Y-116780525D01*
X139561474Y-116922182D01*
X139562737Y-117043936D01*
X139564183Y-117147275D01*
X139565821Y-117233689D01*
X139567666Y-117304667D01*
X139569726Y-117361699D01*
X139572015Y-117406273D01*
X139574544Y-117439879D01*
X139577324Y-117464007D01*
X139580367Y-117480144D01*
X139583684Y-117489782D01*
X139583807Y-117490022D01*
X139590640Y-117504745D01*
X139596330Y-117518074D01*
X139602626Y-117530078D01*
X139611272Y-117540827D01*
X139624014Y-117550389D01*
X139642600Y-117558833D01*
X139668774Y-117566229D01*
X139704284Y-117572646D01*
X139750875Y-117578152D01*
X139810293Y-117582817D01*
X139884285Y-117586709D01*
X139974597Y-117589898D01*
X140082975Y-117592453D01*
X140211165Y-117594442D01*
X140360913Y-117595935D01*
X140533966Y-117597002D01*
X140732069Y-117597709D01*
X140956969Y-117598128D01*
X141210412Y-117598327D01*
X141494144Y-117598374D01*
X141809911Y-117598340D01*
X141809911Y-117598340D01*
G37*
X141809911Y-117598340D02*
X142159460Y-117598293D01*
X142322170Y-117598286D01*
X144926571Y-117598285D01*
X144926571Y-117444762D01*
X144942957Y-117257937D01*
X144992412Y-117085633D01*
X145075380Y-116926825D01*
X145192305Y-116780490D01*
X145231864Y-116740968D01*
X145374170Y-116628862D01*
X145531078Y-116547101D01*
X145697928Y-116495647D01*
X145870061Y-116474463D01*
X146042815Y-116483513D01*
X146211530Y-116522758D01*
X146371546Y-116592162D01*
X146518202Y-116691689D01*
X146584068Y-116751735D01*
X146706808Y-116898957D01*
X146796812Y-117060853D01*
X146853294Y-117235573D01*
X146875471Y-117421265D01*
X146875766Y-117439533D01*
X146876928Y-117598280D01*
X146946700Y-117598283D01*
X147008595Y-117589882D01*
X147065135Y-117569444D01*
X147068872Y-117567333D01*
X147081642Y-117560707D01*
X147093368Y-117555546D01*
X147104094Y-117550349D01*
X147113861Y-117543610D01*
X147122712Y-117533829D01*
X147130689Y-117519500D01*
X147137835Y-117499122D01*
X147144192Y-117471192D01*
X147149802Y-117434205D01*
X147154707Y-117386660D01*
X147158951Y-117327053D01*
X147162576Y-117253881D01*
X147165623Y-117165641D01*
X147168136Y-117060830D01*
X147170156Y-116937945D01*
X147171726Y-116795483D01*
X147172888Y-116631940D01*
X147173686Y-116445814D01*
X147174160Y-116235602D01*
X147174354Y-115999800D01*
X147174310Y-115736906D01*
X147174070Y-115445416D01*
X147173677Y-115123828D01*
X147173173Y-114770638D01*
X147172600Y-114384343D01*
X147172001Y-113963440D01*
X147171932Y-113912160D01*
X147171395Y-113488574D01*
X147170939Y-113099770D01*
X147170516Y-112744247D01*
X147170079Y-112420502D01*
X147169578Y-112127034D01*
X147168965Y-111862339D01*
X147168192Y-111624915D01*
X147167211Y-111413260D01*
X147165974Y-111225871D01*
X147164432Y-111061246D01*
X147162537Y-110917883D01*
X147160241Y-110794280D01*
X147157496Y-110688933D01*
X147154253Y-110600341D01*
X147150464Y-110527000D01*
X147146081Y-110467410D01*
X147141055Y-110420067D01*
X147135339Y-110383469D01*
X147128884Y-110356114D01*
X147121641Y-110336498D01*
X147113563Y-110323121D01*
X147104602Y-110314479D01*
X147094708Y-110309070D01*
X147083835Y-110305392D01*
X147071933Y-110301942D01*
X147058954Y-110297218D01*
X147055783Y-110295780D01*
X147045819Y-110292549D01*
X147029141Y-110289580D01*
X147004293Y-110286863D01*
X146969820Y-110284387D01*
X146924264Y-110282142D01*
X146866170Y-110280117D01*
X146794081Y-110278302D01*
X146706542Y-110276685D01*
X146602095Y-110275257D01*
X146479285Y-110274007D01*
X146336655Y-110272924D01*
X146172749Y-110271998D01*
X145986110Y-110271218D01*
X145775284Y-110270574D01*
X145538812Y-110270054D01*
X145275239Y-110269649D01*
X144983110Y-110269348D01*
X144660966Y-110269140D01*
X144307353Y-110269015D01*
X143920814Y-110268962D01*
X143499892Y-110268971D01*
X143363544Y-110268984D01*
X142933284Y-110269053D01*
X142537836Y-110269166D01*
X142175727Y-110269335D01*
X141845483Y-110269570D01*
X141545629Y-110269884D01*
X141274692Y-110270287D01*
X141031200Y-110270793D01*
X140813677Y-110271411D01*
X140620650Y-110272154D01*
X140450646Y-110273032D01*
X140302190Y-110274059D01*
X140173810Y-110275244D01*
X140064031Y-110276600D01*
X139971380Y-110278138D01*
X139894383Y-110279870D01*
X139831566Y-110281806D01*
X139781456Y-110283960D01*
X139742579Y-110286341D01*
X139713462Y-110288963D01*
X139692629Y-110291835D01*
X139678609Y-110294970D01*
X139670966Y-110297841D01*
X139657382Y-110303570D01*
X139644910Y-110307794D01*
X139633502Y-110312015D01*
X139623111Y-110317732D01*
X139613691Y-110326445D01*
X139605192Y-110339655D01*
X139597570Y-110358863D01*
X139590775Y-110385567D01*
X139584762Y-110421270D01*
X139579483Y-110467470D01*
X139574890Y-110525668D01*
X139570936Y-110597365D01*
X139567575Y-110684060D01*
X139564759Y-110787254D01*
X139562440Y-110908447D01*
X139560572Y-111049140D01*
X139560084Y-111103143D01*
X140044296Y-111103143D01*
X141755744Y-111103143D01*
X141722813Y-111153036D01*
X141690053Y-111204307D01*
X141662311Y-111253131D01*
X141639193Y-111302924D01*
X141620303Y-111357102D01*
X141605249Y-111419084D01*
X141593633Y-111492285D01*
X141585064Y-111580122D01*
X141579144Y-111686012D01*
X141575481Y-111813372D01*
X141573679Y-111965619D01*
X141573344Y-112146168D01*
X141574081Y-112358438D01*
X141574499Y-112437245D01*
X141579214Y-113282089D01*
X142114428Y-112553443D01*
X142266054Y-112346735D01*
X142397419Y-112166740D01*
X142509943Y-112011075D01*
X142605043Y-111877353D01*
X142684138Y-111763191D01*
X142748647Y-111666203D01*
X142799988Y-111584006D01*
X142839580Y-111514214D01*
X142868840Y-111454442D01*
X142889188Y-111402307D01*
X142902042Y-111355424D01*
X142908819Y-111311407D01*
X142910940Y-111267873D01*
X142909821Y-111222436D01*
X142909536Y-111216725D01*
X142903643Y-111103067D01*
X144779229Y-111103143D01*
X144639722Y-111243811D01*
X144601865Y-111282285D01*
X144565953Y-111319721D01*
X144530407Y-111358186D01*
X144493653Y-111399742D01*
X144454114Y-111446455D01*
X144410214Y-111500390D01*
X144360377Y-111563610D01*
X144303028Y-111638182D01*
X144236589Y-111726168D01*
X144159485Y-111829635D01*
X144070139Y-111950646D01*
X143966976Y-112091266D01*
X143848420Y-112253560D01*
X143712895Y-112439593D01*
X143558823Y-112651429D01*
X143432538Y-112825196D01*
X143274046Y-113043499D01*
X143135784Y-113234371D01*
X143016501Y-113399626D01*
X142914943Y-113541074D01*
X142829859Y-113660529D01*
X142759995Y-113759802D01*
X142704100Y-113840705D01*
X142660920Y-113905051D01*
X142629203Y-113954653D01*
X142607698Y-113991321D01*
X142595150Y-114016868D01*
X142590308Y-114033107D01*
X142591763Y-114041645D01*
X142609401Y-114064365D01*
X142647534Y-114112457D01*
X142703862Y-114183062D01*
X142776084Y-114273322D01*
X142861899Y-114380379D01*
X142959006Y-114501373D01*
X143065104Y-114633446D01*
X143177891Y-114773740D01*
X143295068Y-114919397D01*
X143414333Y-115067556D01*
X143479933Y-115149000D01*
X145108686Y-115149000D01*
X145176379Y-115026535D01*
X145244071Y-114904071D01*
X145244071Y-111348071D01*
X145176379Y-111225607D01*
X145108686Y-111103143D01*
X145909441Y-111103143D01*
X146100602Y-111103198D01*
X146258499Y-111103449D01*
X146386152Y-111104021D01*
X146486581Y-111105041D01*
X146562807Y-111106635D01*
X146617852Y-111108930D01*
X146654736Y-111112050D01*
X146676479Y-111116123D01*
X146686102Y-111121275D01*
X146686627Y-111127633D01*
X146681074Y-111135321D01*
X146681016Y-111135385D01*
X146658140Y-111168476D01*
X146627849Y-111222281D01*
X146601097Y-111275992D01*
X146550357Y-111384357D01*
X146545182Y-113266678D01*
X146540007Y-115149000D01*
X145108686Y-115149000D01*
X143479933Y-115149000D01*
X143533385Y-115215361D01*
X143649923Y-115359953D01*
X143761646Y-115498472D01*
X143866254Y-115628061D01*
X143961444Y-115745860D01*
X144044917Y-115849012D01*
X144114371Y-115934657D01*
X144167506Y-115999938D01*
X144198715Y-116038000D01*
X144319903Y-116180330D01*
X144436493Y-116308770D01*
X144544397Y-116419114D01*
X144639530Y-116507159D01*
X144707043Y-116561138D01*
X144786873Y-116618571D01*
X142950892Y-116618571D01*
X142951408Y-116510835D01*
X142946276Y-116431628D01*
X142926985Y-116358195D01*
X142897123Y-116288585D01*
X142877712Y-116249259D01*
X142856841Y-116210293D01*
X142832604Y-116169099D01*
X142803094Y-116123092D01*
X142766406Y-116069683D01*
X142720632Y-116006286D01*
X142663865Y-115930315D01*
X142594200Y-115839183D01*
X142509730Y-115730302D01*
X142408547Y-115601086D01*
X142288747Y-115448948D01*
X142148421Y-115271302D01*
X142132571Y-115251258D01*
X141579214Y-114551492D01*
X141573857Y-115326496D01*
X141572779Y-115558632D01*
X141573008Y-115755154D01*
X141574557Y-115916708D01*
X141577437Y-116043944D01*
X141581659Y-116137508D01*
X141587234Y-116198048D01*
X141589107Y-116209532D01*
X141618505Y-116330501D01*
X141657022Y-116439554D01*
X141700974Y-116527237D01*
X141727379Y-116564426D01*
X141772940Y-116618571D01*
X140908470Y-116618571D01*
X140702255Y-116618395D01*
X140529812Y-116617821D01*
X140388627Y-116616783D01*
X140276188Y-116615213D01*
X140189983Y-116613046D01*
X140127498Y-116610212D01*
X140086221Y-116606647D01*
X140063640Y-116602282D01*
X140057241Y-116597051D01*
X140057683Y-116595893D01*
X140076009Y-116568231D01*
X140106604Y-116524385D01*
X140122433Y-116502209D01*
X140138798Y-116480080D01*
X140153508Y-116460291D01*
X140166656Y-116440894D01*
X140178333Y-116419942D01*
X140188632Y-116395488D01*
X140197646Y-116365584D01*
X140205468Y-116328283D01*
X140212191Y-116281637D01*
X140217906Y-116223699D01*
X140222707Y-116152521D01*
X140226685Y-116066156D01*
X140229935Y-115962656D01*
X140232548Y-115840075D01*
X140234617Y-115696463D01*
X140236234Y-115529875D01*
X140237493Y-115338363D01*
X140238485Y-115119978D01*
X140239304Y-114872774D01*
X140240042Y-114594804D01*
X140240791Y-114284119D01*
X140241492Y-113998700D01*
X140242153Y-113680508D01*
X140242497Y-113376923D01*
X140242532Y-113089885D01*
X140242268Y-112821331D01*
X140241715Y-112573202D01*
X140240880Y-112347437D01*
X140239773Y-112145974D01*
X140238404Y-111970754D01*
X140236781Y-111823714D01*
X140234913Y-111706794D01*
X140232811Y-111621933D01*
X140230482Y-111571071D01*
X140230041Y-111565696D01*
X140213992Y-111442387D01*
X140188936Y-111343356D01*
X140150779Y-111256930D01*
X140095428Y-111171435D01*
X140088504Y-111162107D01*
X140044296Y-111103143D01*
X139560084Y-111103143D01*
X139559108Y-111210832D01*
X139557999Y-111395024D01*
X139557199Y-111603216D01*
X139556661Y-111836909D01*
X139556338Y-112097602D01*
X139556183Y-112386796D01*
X139556146Y-112705991D01*
X139556183Y-113056687D01*
X139556245Y-113440386D01*
X139556285Y-113858586D01*
X139556286Y-113941607D01*
X139556309Y-114364211D01*
X139556388Y-114752019D01*
X139556533Y-115106520D01*
X139556756Y-115429203D01*
X139557069Y-115721558D01*
X139557483Y-115985073D01*
X139558009Y-116221238D01*
X139558660Y-116431542D01*
X139559447Y-116617474D01*
X139560381Y-116780525D01*
X139561474Y-116922182D01*
X139562737Y-117043936D01*
X139564183Y-117147275D01*
X139565821Y-117233689D01*
X139567666Y-117304667D01*
X139569726Y-117361699D01*
X139572015Y-117406273D01*
X139574544Y-117439879D01*
X139577324Y-117464007D01*
X139580367Y-117480144D01*
X139583684Y-117489782D01*
X139583807Y-117490022D01*
X139590640Y-117504745D01*
X139596330Y-117518074D01*
X139602626Y-117530078D01*
X139611272Y-117540827D01*
X139624014Y-117550389D01*
X139642600Y-117558833D01*
X139668774Y-117566229D01*
X139704284Y-117572646D01*
X139750875Y-117578152D01*
X139810293Y-117582817D01*
X139884285Y-117586709D01*
X139974597Y-117589898D01*
X140082975Y-117592453D01*
X140211165Y-117594442D01*
X140360913Y-117595935D01*
X140533966Y-117597002D01*
X140732069Y-117597709D01*
X140956969Y-117598128D01*
X141210412Y-117598327D01*
X141494144Y-117598374D01*
X141809911Y-117598340D01*
D11*
X191980000Y-98030000D02*
X165843400Y-98030000D01*
D12*
X177957400Y-100917400D02*
X177957400Y-102287400D01*
X186357400Y-100917400D02*
X186357400Y-102287400D01*
D11*
X191980000Y-94610000D02*
X191980000Y-123830000D01*
X191980000Y-123830000D02*
X165820000Y-123830000D01*
X165820000Y-94610000D02*
X165820000Y-123830000D01*
X191980000Y-94610000D02*
X165820000Y-94610000D01*
D12*
X177957400Y-100917400D02*
X177957400Y-99427400D01*
X186357400Y-100917400D02*
X186357400Y-99427400D01*
X186357400Y-102287400D02*
X177957400Y-102287400D01*
X186357400Y-99427400D02*
X177957400Y-99427400D01*
X130680000Y-100460000D02*
X126680000Y-100460000D01*
X130680000Y-96460000D02*
X130680000Y-100460000D01*
X126680000Y-96460000D02*
X130680000Y-96460000D01*
X126680000Y-100460000D02*
X126680000Y-96460000D01*
X115680000Y-100460000D02*
X111680000Y-100460000D01*
X115680000Y-96460000D02*
X115680000Y-100460000D01*
X111680000Y-96460000D02*
X115680000Y-96460000D01*
X111680000Y-100460000D02*
X111680000Y-96460000D01*
X121180000Y-83460000D02*
X121180000Y-82460000D01*
X121680000Y-82960000D02*
X120680000Y-82960000D01*
X117680000Y-76860000D02*
X115280000Y-76860000D01*
X122480000Y-76860000D02*
X119880000Y-76860000D01*
X127080000Y-76860000D02*
X124680000Y-76860000D01*
X125280000Y-90160000D02*
X124980000Y-90460000D01*
X125280000Y-90760000D02*
X125280000Y-90160000D01*
X124980000Y-90460000D02*
X125280000Y-90760000D01*
X127080000Y-89060000D02*
X115280000Y-89060000D01*
X127080000Y-84960000D02*
X127080000Y-89060000D01*
X115280000Y-84960000D02*
X115280000Y-89060000D01*
X115280000Y-76860000D02*
X115280000Y-80960000D01*
X127080000Y-80960000D02*
X127080000Y-76860000D01*
X124180000Y-82960000D02*
G75*
G03X124180000Y-82960000I-3000000J0D01*
G01*
D11*
X135340000Y-123860000D02*
X135340000Y-106260000D01*
D12*
X125571000Y-111118600D02*
X124201000Y-111118600D01*
X125571000Y-120218600D02*
X124201000Y-120218600D01*
D11*
X138330000Y-123860000D02*
X107330000Y-123860000D01*
X107330000Y-123860000D02*
X107330000Y-106260000D01*
X138330000Y-106260000D02*
X107330000Y-106260000D01*
X138330000Y-123860000D02*
X138330000Y-106260000D01*
D12*
X125571000Y-111118600D02*
X127061000Y-111118600D01*
X125571000Y-120218600D02*
X127061000Y-120218600D01*
X124201000Y-120218600D02*
X124201000Y-111118600D01*
X127061000Y-120218600D02*
X127061000Y-111118600D01*
M02*
