G04 #@! TF.GenerationSoftware,KiCad,Pcbnew,5.1.2+dfsg1-1*
G04 #@! TF.CreationDate,2019-07-24T11:20:43+08:00*
G04 #@! TF.ProjectId,Power_Source,506f7765-725f-4536-9f75-7263652e6b69,rev?*
G04 #@! TF.SameCoordinates,Original*
G04 #@! TF.FileFunction,Legend,Top*
G04 #@! TF.FilePolarity,Positive*
%FSLAX46Y46*%
G04 Gerber Fmt 4.6, Leading zero omitted, Abs format (unit mm)*
G04 Created by KiCad (PCBNEW 5.1.2+dfsg1-1) date 2019-07-24 11:20:43*
%MOMM*%
%LPD*%
G04 APERTURE LIST*
%ADD10C,0.010000*%
%ADD11C,0.120000*%
%ADD12C,0.150000*%
%ADD13C,0.500000*%
G04 APERTURE END LIST*
D10*
G36*
X107855570Y-122995152D02*
G01*
X107856189Y-122908069D01*
X108307914Y-122449109D01*
X108759639Y-121990148D01*
X108759968Y-121779529D01*
X108760297Y-121568911D01*
X109035390Y-121568911D01*
X109042478Y-121515470D01*
X109045162Y-121491112D01*
X109049687Y-121445241D01*
X109055809Y-121380595D01*
X109063288Y-121299909D01*
X109071881Y-121205919D01*
X109081346Y-121101363D01*
X109091442Y-120988975D01*
X109101926Y-120871493D01*
X109112556Y-120751652D01*
X109123091Y-120632189D01*
X109133287Y-120515841D01*
X109142905Y-120405343D01*
X109151700Y-120303431D01*
X109159432Y-120212842D01*
X109165858Y-120136313D01*
X109170737Y-120076579D01*
X109173825Y-120036376D01*
X109174883Y-120018441D01*
X109174882Y-120018356D01*
X109167173Y-120003965D01*
X109144019Y-119974252D01*
X109105105Y-119928869D01*
X109050116Y-119867471D01*
X108978736Y-119789712D01*
X108890651Y-119695246D01*
X108785546Y-119583728D01*
X108663105Y-119454812D01*
X108628690Y-119418713D01*
X108082863Y-118846584D01*
X108171119Y-118758564D01*
X108242515Y-118836242D01*
X108268634Y-118864314D01*
X108309434Y-118907726D01*
X108362223Y-118963634D01*
X108424309Y-119029192D01*
X108493000Y-119101559D01*
X108565604Y-119177888D01*
X108609040Y-119223476D01*
X108690584Y-119308881D01*
X108756496Y-119377290D01*
X108808456Y-119429947D01*
X108848145Y-119468095D01*
X108877243Y-119492980D01*
X108897431Y-119505844D01*
X108910390Y-119507932D01*
X108917800Y-119500487D01*
X108921342Y-119484754D01*
X108922697Y-119461977D01*
X108922879Y-119455761D01*
X108932297Y-119412939D01*
X108955503Y-119361181D01*
X108987864Y-119308672D01*
X109024748Y-119263597D01*
X109039507Y-119249672D01*
X109115233Y-119200953D01*
X109203692Y-119173694D01*
X109281900Y-119167227D01*
X109370532Y-119179424D01*
X109452388Y-119215187D01*
X109524836Y-119273278D01*
X109538203Y-119287738D01*
X109587082Y-119343267D01*
X110432674Y-119343267D01*
X110432674Y-119167227D01*
X110659010Y-119167227D01*
X110659010Y-119249469D01*
X110661850Y-119305614D01*
X110671393Y-119344584D01*
X110682991Y-119365781D01*
X110691277Y-119380948D01*
X110698373Y-119402938D01*
X110704748Y-119435013D01*
X110710872Y-119480431D01*
X110717216Y-119542452D01*
X110724250Y-119624338D01*
X110729066Y-119685254D01*
X110751161Y-119970657D01*
X111293565Y-119421195D01*
X111391637Y-119321772D01*
X111485784Y-119226185D01*
X111574285Y-119136190D01*
X111655420Y-119053543D01*
X111727469Y-118979999D01*
X111788712Y-118917316D01*
X111837427Y-118867248D01*
X111871896Y-118831552D01*
X111890379Y-118812005D01*
X111920743Y-118781056D01*
X111946071Y-118759470D01*
X111959695Y-118752277D01*
X111977095Y-118760703D01*
X112002460Y-118781755D01*
X112011058Y-118790329D01*
X112047514Y-118828380D01*
X111846802Y-119032342D01*
X111795596Y-119084301D01*
X111729569Y-119151180D01*
X111651618Y-119230050D01*
X111564638Y-119317986D01*
X111471526Y-119412059D01*
X111375179Y-119509342D01*
X111278492Y-119606907D01*
X111209134Y-119676855D01*
X111103703Y-119783450D01*
X111015129Y-119873693D01*
X110942281Y-119948808D01*
X110884023Y-120010014D01*
X110839225Y-120058534D01*
X110817021Y-120083871D01*
X110638724Y-120083871D01*
X110616401Y-119798445D01*
X110609669Y-119714781D01*
X110603157Y-119638273D01*
X110597234Y-119572919D01*
X110592268Y-119522719D01*
X110588629Y-119491671D01*
X110587458Y-119484727D01*
X110580838Y-119456435D01*
X109631364Y-119456435D01*
X109625026Y-119535394D01*
X109605890Y-119628685D01*
X109565846Y-119711209D01*
X109507418Y-119779962D01*
X109433129Y-119831937D01*
X109349748Y-119863137D01*
X109322698Y-119877772D01*
X109309156Y-119909181D01*
X109308872Y-119910566D01*
X109307247Y-119923826D01*
X109309256Y-119937405D01*
X109316858Y-119953819D01*
X109332016Y-119975589D01*
X109356688Y-120005233D01*
X109392836Y-120045268D01*
X109442420Y-120098215D01*
X109507401Y-120166591D01*
X109511599Y-120170995D01*
X109581493Y-120244389D01*
X109655800Y-120322563D01*
X109729414Y-120400136D01*
X109797229Y-120471725D01*
X109854140Y-120531949D01*
X109866832Y-120545413D01*
X109915487Y-120596180D01*
X109958709Y-120639625D01*
X109993395Y-120672759D01*
X110016444Y-120692595D01*
X110024182Y-120696954D01*
X110035722Y-120687830D01*
X110062710Y-120662800D01*
X110103021Y-120623948D01*
X110154529Y-120573357D01*
X110215109Y-120513112D01*
X110282636Y-120445296D01*
X110337826Y-120389435D01*
X110638724Y-120083871D01*
X110817021Y-120083871D01*
X110806751Y-120095589D01*
X110785471Y-120122401D01*
X110774251Y-120140192D01*
X110771754Y-120148430D01*
X110772700Y-120166410D01*
X110775573Y-120207108D01*
X110780187Y-120268181D01*
X110786358Y-120347287D01*
X110793898Y-120442086D01*
X110802621Y-120550233D01*
X110812343Y-120669388D01*
X110822876Y-120797209D01*
X110831365Y-120899365D01*
X110879396Y-121475326D01*
X110755805Y-121475326D01*
X110755273Y-121462896D01*
X110752769Y-121427890D01*
X110748496Y-121372785D01*
X110742653Y-121300057D01*
X110735443Y-121212186D01*
X110727066Y-121111649D01*
X110717723Y-121000923D01*
X110708758Y-120895795D01*
X110698602Y-120776517D01*
X110689142Y-120663920D01*
X110680596Y-120560695D01*
X110673179Y-120469527D01*
X110667108Y-120393105D01*
X110662601Y-120334117D01*
X110659873Y-120295251D01*
X110659116Y-120280156D01*
X110657935Y-120270762D01*
X110653256Y-120267034D01*
X110643276Y-120270529D01*
X110626190Y-120282801D01*
X110600196Y-120305406D01*
X110563490Y-120339900D01*
X110514267Y-120387838D01*
X110450726Y-120450776D01*
X110383305Y-120518032D01*
X110107601Y-120793523D01*
X110109533Y-120795594D01*
X109927290Y-120795594D01*
X109918984Y-120784220D01*
X109895733Y-120757437D01*
X109859865Y-120717708D01*
X109813713Y-120667493D01*
X109759606Y-120609254D01*
X109699874Y-120545453D01*
X109636848Y-120478551D01*
X109572858Y-120411010D01*
X109510236Y-120345290D01*
X109451310Y-120283854D01*
X109398412Y-120229163D01*
X109353872Y-120183678D01*
X109320020Y-120149862D01*
X109299188Y-120130174D01*
X109293506Y-120126163D01*
X109291634Y-120139109D01*
X109287746Y-120174866D01*
X109282057Y-120231196D01*
X109274781Y-120305860D01*
X109266131Y-120396620D01*
X109256322Y-120501238D01*
X109245566Y-120617474D01*
X109234079Y-120743092D01*
X109224907Y-120844382D01*
X109213174Y-120975721D01*
X109202335Y-121099448D01*
X109192570Y-121213319D01*
X109184063Y-121315089D01*
X109176995Y-121402513D01*
X109171549Y-121473347D01*
X109167908Y-121525347D01*
X109166253Y-121556268D01*
X109166442Y-121564297D01*
X109176334Y-121557146D01*
X109201524Y-121534159D01*
X109239810Y-121497561D01*
X109288989Y-121449578D01*
X109346861Y-121392434D01*
X109411222Y-121328353D01*
X109479871Y-121259562D01*
X109550605Y-121188284D01*
X109621222Y-121116745D01*
X109689520Y-121047170D01*
X109753296Y-120981783D01*
X109810350Y-120922809D01*
X109858478Y-120872473D01*
X109895478Y-120833001D01*
X109919148Y-120806617D01*
X109927290Y-120795594D01*
X110109533Y-120795594D01*
X110210409Y-120903705D01*
X110262768Y-120959623D01*
X110321535Y-121022052D01*
X110384385Y-121088557D01*
X110448995Y-121156702D01*
X110513042Y-121224052D01*
X110574203Y-121288172D01*
X110630153Y-121346628D01*
X110678570Y-121396982D01*
X110717130Y-121436802D01*
X110743509Y-121463650D01*
X110755384Y-121475092D01*
X110755805Y-121475326D01*
X110879396Y-121475326D01*
X110891401Y-121619274D01*
X111491938Y-122250842D01*
X112092475Y-122882411D01*
X112092034Y-122970685D01*
X112091592Y-123058960D01*
X111994583Y-122955334D01*
X111940291Y-122897537D01*
X111876192Y-122829632D01*
X111804016Y-122753428D01*
X111725492Y-122670731D01*
X111642349Y-122583347D01*
X111556319Y-122493085D01*
X111469130Y-122401750D01*
X111382513Y-122311151D01*
X111298197Y-122223093D01*
X111217912Y-122139385D01*
X111143387Y-122061833D01*
X111076354Y-121992243D01*
X111018541Y-121932424D01*
X110971679Y-121884182D01*
X110937496Y-121849324D01*
X110917724Y-121829657D01*
X110913390Y-121825884D01*
X110913092Y-121839008D01*
X110914731Y-121872611D01*
X110918023Y-121922120D01*
X110922682Y-121982963D01*
X110924682Y-122007268D01*
X110939577Y-122185049D01*
X110822955Y-122185049D01*
X110816934Y-122156757D01*
X110813863Y-122134382D01*
X110809548Y-122092283D01*
X110804488Y-122035822D01*
X110799181Y-121970365D01*
X110797344Y-121946138D01*
X110791927Y-121876579D01*
X110786459Y-121811982D01*
X110781488Y-121758452D01*
X110777561Y-121722090D01*
X110776675Y-121715491D01*
X110773334Y-121701944D01*
X110766101Y-121686086D01*
X110753440Y-121666139D01*
X110733811Y-121640327D01*
X110705678Y-121606871D01*
X110667502Y-121563993D01*
X110617746Y-121509917D01*
X110554871Y-121442864D01*
X110477341Y-121361057D01*
X110398251Y-121278050D01*
X110319564Y-121195906D01*
X110246112Y-121119831D01*
X110179724Y-121051675D01*
X110122227Y-120993288D01*
X110075451Y-120946519D01*
X110041224Y-120913218D01*
X110021373Y-120895233D01*
X110017140Y-120892558D01*
X110006003Y-120902259D01*
X109979971Y-120927559D01*
X109941570Y-120965918D01*
X109893328Y-121014800D01*
X109837770Y-121071666D01*
X109797592Y-121113094D01*
X109587831Y-121330000D01*
X110206337Y-121330000D01*
X110206337Y-121568911D01*
X109451881Y-121568911D01*
X109451881Y-121462458D01*
X109313565Y-121600346D01*
X109215447Y-121698160D01*
X109024357Y-121698160D01*
X109022529Y-121682730D01*
X109013277Y-121674133D01*
X108990950Y-121670387D01*
X108949895Y-121669511D01*
X108942624Y-121669505D01*
X108860891Y-121669505D01*
X108860891Y-121888828D01*
X108942624Y-121807821D01*
X108988730Y-121758572D01*
X109016306Y-121720841D01*
X109024357Y-121698160D01*
X109215447Y-121698160D01*
X109175248Y-121738234D01*
X109175248Y-121861048D01*
X109174863Y-121917550D01*
X109173100Y-121953495D01*
X109169050Y-121973470D01*
X109161801Y-121982063D01*
X109150870Y-121983861D01*
X109138712Y-121986502D01*
X109129727Y-121997088D01*
X109122826Y-122019619D01*
X109116924Y-122058091D01*
X109110935Y-122116502D01*
X109109013Y-122137896D01*
X109104852Y-122185049D01*
X110822955Y-122185049D01*
X110939577Y-122185049D01*
X111099109Y-122185049D01*
X111099109Y-122298218D01*
X111031314Y-122298218D01*
X110991662Y-122299304D01*
X110970116Y-122304546D01*
X110967480Y-122307666D01*
X110828616Y-122307666D01*
X110821308Y-122300538D01*
X110795993Y-122298338D01*
X110778908Y-122298218D01*
X110721881Y-122298218D01*
X110509221Y-122298218D01*
X109094698Y-122298218D01*
X109142542Y-122347214D01*
X109216850Y-122407676D01*
X109308816Y-122454309D01*
X109419998Y-122487751D01*
X109530471Y-122506247D01*
X109602773Y-122514878D01*
X109602773Y-122423960D01*
X110181188Y-122423960D01*
X110181188Y-122527107D01*
X110266065Y-122518504D01*
X110325368Y-122511244D01*
X110388551Y-122501621D01*
X110426386Y-122494748D01*
X110501832Y-122479593D01*
X110505526Y-122388905D01*
X110509221Y-122298218D01*
X110721881Y-122298218D01*
X110721881Y-122348515D01*
X110723544Y-122380024D01*
X110727697Y-122397537D01*
X110729371Y-122398812D01*
X110747987Y-122390746D01*
X110775183Y-122371180D01*
X110802448Y-122347056D01*
X110821267Y-122325318D01*
X110822943Y-122322492D01*
X110828616Y-122307666D01*
X110967480Y-122307666D01*
X110959662Y-122316919D01*
X110955442Y-122330396D01*
X110938219Y-122365373D01*
X110905138Y-122407421D01*
X110861893Y-122450644D01*
X110814174Y-122489146D01*
X110782830Y-122509199D01*
X110747123Y-122531149D01*
X110728819Y-122549589D01*
X110722388Y-122571332D01*
X110721894Y-122584282D01*
X110721894Y-122587425D01*
X110080594Y-122587425D01*
X110080594Y-122524554D01*
X109703367Y-122524554D01*
X109703367Y-122587425D01*
X110080594Y-122587425D01*
X110721894Y-122587425D01*
X110721881Y-122625148D01*
X110616048Y-122625148D01*
X110567355Y-122623971D01*
X110529405Y-122620835D01*
X110508308Y-122616329D01*
X110506023Y-122614505D01*
X110492641Y-122611705D01*
X110460074Y-122612852D01*
X110413916Y-122617607D01*
X110382376Y-122621997D01*
X110325188Y-122630622D01*
X110272886Y-122638409D01*
X110233582Y-122644153D01*
X110222055Y-122645785D01*
X110191937Y-122655112D01*
X110181188Y-122669728D01*
X110177920Y-122675680D01*
X110166230Y-122680222D01*
X110143288Y-122683530D01*
X110106265Y-122685785D01*
X110052332Y-122687166D01*
X109978660Y-122687850D01*
X109891980Y-122688020D01*
X109799471Y-122687923D01*
X109729094Y-122687470D01*
X109677836Y-122686410D01*
X109642680Y-122684497D01*
X109620611Y-122681481D01*
X109608615Y-122677115D01*
X109603676Y-122671151D01*
X109602773Y-122664216D01*
X109595079Y-122642205D01*
X109569879Y-122629679D01*
X109523991Y-122625212D01*
X109515736Y-122625148D01*
X109438027Y-122617132D01*
X109349767Y-122595064D01*
X109258915Y-122561916D01*
X109173430Y-122520661D01*
X109101274Y-122474269D01*
X109091928Y-122466918D01*
X109061467Y-122443002D01*
X109043428Y-122433424D01*
X109030831Y-122436520D01*
X109017900Y-122449296D01*
X108979707Y-122474322D01*
X108930002Y-122483929D01*
X108876476Y-122478933D01*
X108826822Y-122460149D01*
X108788733Y-122428394D01*
X108785975Y-122424703D01*
X108757474Y-122365425D01*
X108752172Y-122304066D01*
X108769482Y-122245573D01*
X108808820Y-122194896D01*
X108813630Y-122190711D01*
X108841560Y-122170833D01*
X108869898Y-122162079D01*
X108909737Y-122161447D01*
X108919689Y-122162008D01*
X108958668Y-122163438D01*
X108978746Y-122160161D01*
X108986015Y-122150272D01*
X108986760Y-122141039D01*
X108988284Y-122114256D01*
X108992065Y-122073975D01*
X108994782Y-122049876D01*
X108998723Y-122011599D01*
X108997084Y-121992004D01*
X108987579Y-121984842D01*
X108970649Y-121983861D01*
X108960608Y-121987099D01*
X108944410Y-121997580D01*
X108920855Y-122016452D01*
X108888743Y-122044865D01*
X108846872Y-122083965D01*
X108794043Y-122134903D01*
X108729055Y-122198827D01*
X108650709Y-122276886D01*
X108557803Y-122370228D01*
X108449137Y-122480002D01*
X108396769Y-122533048D01*
X107854951Y-123082233D01*
X107855570Y-122995152D01*
X107855570Y-122995152D01*
G37*
X107855570Y-122995152D02*
X107856189Y-122908069D01*
X108307914Y-122449109D01*
X108759639Y-121990148D01*
X108759968Y-121779529D01*
X108760297Y-121568911D01*
X109035390Y-121568911D01*
X109042478Y-121515470D01*
X109045162Y-121491112D01*
X109049687Y-121445241D01*
X109055809Y-121380595D01*
X109063288Y-121299909D01*
X109071881Y-121205919D01*
X109081346Y-121101363D01*
X109091442Y-120988975D01*
X109101926Y-120871493D01*
X109112556Y-120751652D01*
X109123091Y-120632189D01*
X109133287Y-120515841D01*
X109142905Y-120405343D01*
X109151700Y-120303431D01*
X109159432Y-120212842D01*
X109165858Y-120136313D01*
X109170737Y-120076579D01*
X109173825Y-120036376D01*
X109174883Y-120018441D01*
X109174882Y-120018356D01*
X109167173Y-120003965D01*
X109144019Y-119974252D01*
X109105105Y-119928869D01*
X109050116Y-119867471D01*
X108978736Y-119789712D01*
X108890651Y-119695246D01*
X108785546Y-119583728D01*
X108663105Y-119454812D01*
X108628690Y-119418713D01*
X108082863Y-118846584D01*
X108171119Y-118758564D01*
X108242515Y-118836242D01*
X108268634Y-118864314D01*
X108309434Y-118907726D01*
X108362223Y-118963634D01*
X108424309Y-119029192D01*
X108493000Y-119101559D01*
X108565604Y-119177888D01*
X108609040Y-119223476D01*
X108690584Y-119308881D01*
X108756496Y-119377290D01*
X108808456Y-119429947D01*
X108848145Y-119468095D01*
X108877243Y-119492980D01*
X108897431Y-119505844D01*
X108910390Y-119507932D01*
X108917800Y-119500487D01*
X108921342Y-119484754D01*
X108922697Y-119461977D01*
X108922879Y-119455761D01*
X108932297Y-119412939D01*
X108955503Y-119361181D01*
X108987864Y-119308672D01*
X109024748Y-119263597D01*
X109039507Y-119249672D01*
X109115233Y-119200953D01*
X109203692Y-119173694D01*
X109281900Y-119167227D01*
X109370532Y-119179424D01*
X109452388Y-119215187D01*
X109524836Y-119273278D01*
X109538203Y-119287738D01*
X109587082Y-119343267D01*
X110432674Y-119343267D01*
X110432674Y-119167227D01*
X110659010Y-119167227D01*
X110659010Y-119249469D01*
X110661850Y-119305614D01*
X110671393Y-119344584D01*
X110682991Y-119365781D01*
X110691277Y-119380948D01*
X110698373Y-119402938D01*
X110704748Y-119435013D01*
X110710872Y-119480431D01*
X110717216Y-119542452D01*
X110724250Y-119624338D01*
X110729066Y-119685254D01*
X110751161Y-119970657D01*
X111293565Y-119421195D01*
X111391637Y-119321772D01*
X111485784Y-119226185D01*
X111574285Y-119136190D01*
X111655420Y-119053543D01*
X111727469Y-118979999D01*
X111788712Y-118917316D01*
X111837427Y-118867248D01*
X111871896Y-118831552D01*
X111890379Y-118812005D01*
X111920743Y-118781056D01*
X111946071Y-118759470D01*
X111959695Y-118752277D01*
X111977095Y-118760703D01*
X112002460Y-118781755D01*
X112011058Y-118790329D01*
X112047514Y-118828380D01*
X111846802Y-119032342D01*
X111795596Y-119084301D01*
X111729569Y-119151180D01*
X111651618Y-119230050D01*
X111564638Y-119317986D01*
X111471526Y-119412059D01*
X111375179Y-119509342D01*
X111278492Y-119606907D01*
X111209134Y-119676855D01*
X111103703Y-119783450D01*
X111015129Y-119873693D01*
X110942281Y-119948808D01*
X110884023Y-120010014D01*
X110839225Y-120058534D01*
X110817021Y-120083871D01*
X110638724Y-120083871D01*
X110616401Y-119798445D01*
X110609669Y-119714781D01*
X110603157Y-119638273D01*
X110597234Y-119572919D01*
X110592268Y-119522719D01*
X110588629Y-119491671D01*
X110587458Y-119484727D01*
X110580838Y-119456435D01*
X109631364Y-119456435D01*
X109625026Y-119535394D01*
X109605890Y-119628685D01*
X109565846Y-119711209D01*
X109507418Y-119779962D01*
X109433129Y-119831937D01*
X109349748Y-119863137D01*
X109322698Y-119877772D01*
X109309156Y-119909181D01*
X109308872Y-119910566D01*
X109307247Y-119923826D01*
X109309256Y-119937405D01*
X109316858Y-119953819D01*
X109332016Y-119975589D01*
X109356688Y-120005233D01*
X109392836Y-120045268D01*
X109442420Y-120098215D01*
X109507401Y-120166591D01*
X109511599Y-120170995D01*
X109581493Y-120244389D01*
X109655800Y-120322563D01*
X109729414Y-120400136D01*
X109797229Y-120471725D01*
X109854140Y-120531949D01*
X109866832Y-120545413D01*
X109915487Y-120596180D01*
X109958709Y-120639625D01*
X109993395Y-120672759D01*
X110016444Y-120692595D01*
X110024182Y-120696954D01*
X110035722Y-120687830D01*
X110062710Y-120662800D01*
X110103021Y-120623948D01*
X110154529Y-120573357D01*
X110215109Y-120513112D01*
X110282636Y-120445296D01*
X110337826Y-120389435D01*
X110638724Y-120083871D01*
X110817021Y-120083871D01*
X110806751Y-120095589D01*
X110785471Y-120122401D01*
X110774251Y-120140192D01*
X110771754Y-120148430D01*
X110772700Y-120166410D01*
X110775573Y-120207108D01*
X110780187Y-120268181D01*
X110786358Y-120347287D01*
X110793898Y-120442086D01*
X110802621Y-120550233D01*
X110812343Y-120669388D01*
X110822876Y-120797209D01*
X110831365Y-120899365D01*
X110879396Y-121475326D01*
X110755805Y-121475326D01*
X110755273Y-121462896D01*
X110752769Y-121427890D01*
X110748496Y-121372785D01*
X110742653Y-121300057D01*
X110735443Y-121212186D01*
X110727066Y-121111649D01*
X110717723Y-121000923D01*
X110708758Y-120895795D01*
X110698602Y-120776517D01*
X110689142Y-120663920D01*
X110680596Y-120560695D01*
X110673179Y-120469527D01*
X110667108Y-120393105D01*
X110662601Y-120334117D01*
X110659873Y-120295251D01*
X110659116Y-120280156D01*
X110657935Y-120270762D01*
X110653256Y-120267034D01*
X110643276Y-120270529D01*
X110626190Y-120282801D01*
X110600196Y-120305406D01*
X110563490Y-120339900D01*
X110514267Y-120387838D01*
X110450726Y-120450776D01*
X110383305Y-120518032D01*
X110107601Y-120793523D01*
X110109533Y-120795594D01*
X109927290Y-120795594D01*
X109918984Y-120784220D01*
X109895733Y-120757437D01*
X109859865Y-120717708D01*
X109813713Y-120667493D01*
X109759606Y-120609254D01*
X109699874Y-120545453D01*
X109636848Y-120478551D01*
X109572858Y-120411010D01*
X109510236Y-120345290D01*
X109451310Y-120283854D01*
X109398412Y-120229163D01*
X109353872Y-120183678D01*
X109320020Y-120149862D01*
X109299188Y-120130174D01*
X109293506Y-120126163D01*
X109291634Y-120139109D01*
X109287746Y-120174866D01*
X109282057Y-120231196D01*
X109274781Y-120305860D01*
X109266131Y-120396620D01*
X109256322Y-120501238D01*
X109245566Y-120617474D01*
X109234079Y-120743092D01*
X109224907Y-120844382D01*
X109213174Y-120975721D01*
X109202335Y-121099448D01*
X109192570Y-121213319D01*
X109184063Y-121315089D01*
X109176995Y-121402513D01*
X109171549Y-121473347D01*
X109167908Y-121525347D01*
X109166253Y-121556268D01*
X109166442Y-121564297D01*
X109176334Y-121557146D01*
X109201524Y-121534159D01*
X109239810Y-121497561D01*
X109288989Y-121449578D01*
X109346861Y-121392434D01*
X109411222Y-121328353D01*
X109479871Y-121259562D01*
X109550605Y-121188284D01*
X109621222Y-121116745D01*
X109689520Y-121047170D01*
X109753296Y-120981783D01*
X109810350Y-120922809D01*
X109858478Y-120872473D01*
X109895478Y-120833001D01*
X109919148Y-120806617D01*
X109927290Y-120795594D01*
X110109533Y-120795594D01*
X110210409Y-120903705D01*
X110262768Y-120959623D01*
X110321535Y-121022052D01*
X110384385Y-121088557D01*
X110448995Y-121156702D01*
X110513042Y-121224052D01*
X110574203Y-121288172D01*
X110630153Y-121346628D01*
X110678570Y-121396982D01*
X110717130Y-121436802D01*
X110743509Y-121463650D01*
X110755384Y-121475092D01*
X110755805Y-121475326D01*
X110879396Y-121475326D01*
X110891401Y-121619274D01*
X111491938Y-122250842D01*
X112092475Y-122882411D01*
X112092034Y-122970685D01*
X112091592Y-123058960D01*
X111994583Y-122955334D01*
X111940291Y-122897537D01*
X111876192Y-122829632D01*
X111804016Y-122753428D01*
X111725492Y-122670731D01*
X111642349Y-122583347D01*
X111556319Y-122493085D01*
X111469130Y-122401750D01*
X111382513Y-122311151D01*
X111298197Y-122223093D01*
X111217912Y-122139385D01*
X111143387Y-122061833D01*
X111076354Y-121992243D01*
X111018541Y-121932424D01*
X110971679Y-121884182D01*
X110937496Y-121849324D01*
X110917724Y-121829657D01*
X110913390Y-121825884D01*
X110913092Y-121839008D01*
X110914731Y-121872611D01*
X110918023Y-121922120D01*
X110922682Y-121982963D01*
X110924682Y-122007268D01*
X110939577Y-122185049D01*
X110822955Y-122185049D01*
X110816934Y-122156757D01*
X110813863Y-122134382D01*
X110809548Y-122092283D01*
X110804488Y-122035822D01*
X110799181Y-121970365D01*
X110797344Y-121946138D01*
X110791927Y-121876579D01*
X110786459Y-121811982D01*
X110781488Y-121758452D01*
X110777561Y-121722090D01*
X110776675Y-121715491D01*
X110773334Y-121701944D01*
X110766101Y-121686086D01*
X110753440Y-121666139D01*
X110733811Y-121640327D01*
X110705678Y-121606871D01*
X110667502Y-121563993D01*
X110617746Y-121509917D01*
X110554871Y-121442864D01*
X110477341Y-121361057D01*
X110398251Y-121278050D01*
X110319564Y-121195906D01*
X110246112Y-121119831D01*
X110179724Y-121051675D01*
X110122227Y-120993288D01*
X110075451Y-120946519D01*
X110041224Y-120913218D01*
X110021373Y-120895233D01*
X110017140Y-120892558D01*
X110006003Y-120902259D01*
X109979971Y-120927559D01*
X109941570Y-120965918D01*
X109893328Y-121014800D01*
X109837770Y-121071666D01*
X109797592Y-121113094D01*
X109587831Y-121330000D01*
X110206337Y-121330000D01*
X110206337Y-121568911D01*
X109451881Y-121568911D01*
X109451881Y-121462458D01*
X109313565Y-121600346D01*
X109215447Y-121698160D01*
X109024357Y-121698160D01*
X109022529Y-121682730D01*
X109013277Y-121674133D01*
X108990950Y-121670387D01*
X108949895Y-121669511D01*
X108942624Y-121669505D01*
X108860891Y-121669505D01*
X108860891Y-121888828D01*
X108942624Y-121807821D01*
X108988730Y-121758572D01*
X109016306Y-121720841D01*
X109024357Y-121698160D01*
X109215447Y-121698160D01*
X109175248Y-121738234D01*
X109175248Y-121861048D01*
X109174863Y-121917550D01*
X109173100Y-121953495D01*
X109169050Y-121973470D01*
X109161801Y-121982063D01*
X109150870Y-121983861D01*
X109138712Y-121986502D01*
X109129727Y-121997088D01*
X109122826Y-122019619D01*
X109116924Y-122058091D01*
X109110935Y-122116502D01*
X109109013Y-122137896D01*
X109104852Y-122185049D01*
X110822955Y-122185049D01*
X110939577Y-122185049D01*
X111099109Y-122185049D01*
X111099109Y-122298218D01*
X111031314Y-122298218D01*
X110991662Y-122299304D01*
X110970116Y-122304546D01*
X110967480Y-122307666D01*
X110828616Y-122307666D01*
X110821308Y-122300538D01*
X110795993Y-122298338D01*
X110778908Y-122298218D01*
X110721881Y-122298218D01*
X110509221Y-122298218D01*
X109094698Y-122298218D01*
X109142542Y-122347214D01*
X109216850Y-122407676D01*
X109308816Y-122454309D01*
X109419998Y-122487751D01*
X109530471Y-122506247D01*
X109602773Y-122514878D01*
X109602773Y-122423960D01*
X110181188Y-122423960D01*
X110181188Y-122527107D01*
X110266065Y-122518504D01*
X110325368Y-122511244D01*
X110388551Y-122501621D01*
X110426386Y-122494748D01*
X110501832Y-122479593D01*
X110505526Y-122388905D01*
X110509221Y-122298218D01*
X110721881Y-122298218D01*
X110721881Y-122348515D01*
X110723544Y-122380024D01*
X110727697Y-122397537D01*
X110729371Y-122398812D01*
X110747987Y-122390746D01*
X110775183Y-122371180D01*
X110802448Y-122347056D01*
X110821267Y-122325318D01*
X110822943Y-122322492D01*
X110828616Y-122307666D01*
X110967480Y-122307666D01*
X110959662Y-122316919D01*
X110955442Y-122330396D01*
X110938219Y-122365373D01*
X110905138Y-122407421D01*
X110861893Y-122450644D01*
X110814174Y-122489146D01*
X110782830Y-122509199D01*
X110747123Y-122531149D01*
X110728819Y-122549589D01*
X110722388Y-122571332D01*
X110721894Y-122584282D01*
X110721894Y-122587425D01*
X110080594Y-122587425D01*
X110080594Y-122524554D01*
X109703367Y-122524554D01*
X109703367Y-122587425D01*
X110080594Y-122587425D01*
X110721894Y-122587425D01*
X110721881Y-122625148D01*
X110616048Y-122625148D01*
X110567355Y-122623971D01*
X110529405Y-122620835D01*
X110508308Y-122616329D01*
X110506023Y-122614505D01*
X110492641Y-122611705D01*
X110460074Y-122612852D01*
X110413916Y-122617607D01*
X110382376Y-122621997D01*
X110325188Y-122630622D01*
X110272886Y-122638409D01*
X110233582Y-122644153D01*
X110222055Y-122645785D01*
X110191937Y-122655112D01*
X110181188Y-122669728D01*
X110177920Y-122675680D01*
X110166230Y-122680222D01*
X110143288Y-122683530D01*
X110106265Y-122685785D01*
X110052332Y-122687166D01*
X109978660Y-122687850D01*
X109891980Y-122688020D01*
X109799471Y-122687923D01*
X109729094Y-122687470D01*
X109677836Y-122686410D01*
X109642680Y-122684497D01*
X109620611Y-122681481D01*
X109608615Y-122677115D01*
X109603676Y-122671151D01*
X109602773Y-122664216D01*
X109595079Y-122642205D01*
X109569879Y-122629679D01*
X109523991Y-122625212D01*
X109515736Y-122625148D01*
X109438027Y-122617132D01*
X109349767Y-122595064D01*
X109258915Y-122561916D01*
X109173430Y-122520661D01*
X109101274Y-122474269D01*
X109091928Y-122466918D01*
X109061467Y-122443002D01*
X109043428Y-122433424D01*
X109030831Y-122436520D01*
X109017900Y-122449296D01*
X108979707Y-122474322D01*
X108930002Y-122483929D01*
X108876476Y-122478933D01*
X108826822Y-122460149D01*
X108788733Y-122428394D01*
X108785975Y-122424703D01*
X108757474Y-122365425D01*
X108752172Y-122304066D01*
X108769482Y-122245573D01*
X108808820Y-122194896D01*
X108813630Y-122190711D01*
X108841560Y-122170833D01*
X108869898Y-122162079D01*
X108909737Y-122161447D01*
X108919689Y-122162008D01*
X108958668Y-122163438D01*
X108978746Y-122160161D01*
X108986015Y-122150272D01*
X108986760Y-122141039D01*
X108988284Y-122114256D01*
X108992065Y-122073975D01*
X108994782Y-122049876D01*
X108998723Y-122011599D01*
X108997084Y-121992004D01*
X108987579Y-121984842D01*
X108970649Y-121983861D01*
X108960608Y-121987099D01*
X108944410Y-121997580D01*
X108920855Y-122016452D01*
X108888743Y-122044865D01*
X108846872Y-122083965D01*
X108794043Y-122134903D01*
X108729055Y-122198827D01*
X108650709Y-122276886D01*
X108557803Y-122370228D01*
X108449137Y-122480002D01*
X108396769Y-122533048D01*
X107854951Y-123082233D01*
X107855570Y-122995152D01*
G36*
X108232178Y-117042178D02*
G01*
X111752971Y-117042178D01*
X111752971Y-117909802D01*
X108232178Y-117909802D01*
X108232178Y-117042178D01*
X108232178Y-117042178D01*
G37*
X108232178Y-117042178D02*
X111752971Y-117042178D01*
X111752971Y-117909802D01*
X108232178Y-117909802D01*
X108232178Y-117042178D01*
G36*
X134833465Y-89426828D02*
G01*
X134720883Y-88829637D01*
X134305469Y-88658390D01*
X133890056Y-88487143D01*
X133391698Y-88826022D01*
X133252132Y-88920378D01*
X133125972Y-89004625D01*
X133019105Y-89074917D01*
X132937418Y-89127408D01*
X132886799Y-89158251D01*
X132873014Y-89164902D01*
X132848180Y-89147797D01*
X132795112Y-89100511D01*
X132719760Y-89029083D01*
X132628071Y-88939555D01*
X132525993Y-88837966D01*
X132419474Y-88730357D01*
X132314464Y-88622768D01*
X132216909Y-88521240D01*
X132132758Y-88431814D01*
X132067960Y-88360529D01*
X132028462Y-88313427D01*
X132019020Y-88297663D01*
X132032609Y-88268602D01*
X132070707Y-88204934D01*
X132129306Y-88112888D01*
X132204403Y-87998691D01*
X132291991Y-87868571D01*
X132342746Y-87794354D01*
X132435255Y-87658833D01*
X132517460Y-87536539D01*
X132585370Y-87433560D01*
X132635000Y-87355982D01*
X132662360Y-87309894D01*
X132666471Y-87300208D01*
X132657151Y-87272681D01*
X132631746Y-87208527D01*
X132594089Y-87116765D01*
X132548014Y-87006416D01*
X132497354Y-86886500D01*
X132445941Y-86766036D01*
X132397611Y-86654046D01*
X132356194Y-86559548D01*
X132325526Y-86491563D01*
X132309438Y-86459112D01*
X132308489Y-86457835D01*
X132283228Y-86451638D01*
X132215954Y-86437815D01*
X132113640Y-86417723D01*
X131983259Y-86392721D01*
X131831784Y-86364169D01*
X131743406Y-86347704D01*
X131581548Y-86316886D01*
X131435351Y-86287561D01*
X131312213Y-86261334D01*
X131219531Y-86239809D01*
X131164699Y-86224590D01*
X131153677Y-86219762D01*
X131142881Y-86187081D01*
X131134171Y-86113270D01*
X131127540Y-86006963D01*
X131122982Y-85876788D01*
X131120491Y-85731379D01*
X131120062Y-85579365D01*
X131121689Y-85429378D01*
X131125365Y-85290049D01*
X131131085Y-85170010D01*
X131138842Y-85077890D01*
X131148632Y-85022323D01*
X131154504Y-85010755D01*
X131189601Y-84996890D01*
X131263972Y-84977067D01*
X131367777Y-84953616D01*
X131491181Y-84928864D01*
X131534259Y-84920857D01*
X131741953Y-84882814D01*
X131906016Y-84852176D01*
X132031870Y-84827726D01*
X132124935Y-84808246D01*
X132190633Y-84792519D01*
X132234383Y-84779327D01*
X132261608Y-84767451D01*
X132277728Y-84755675D01*
X132279983Y-84753347D01*
X132302497Y-84715855D01*
X132336842Y-84642890D01*
X132379589Y-84543388D01*
X132427308Y-84426282D01*
X132476570Y-84300507D01*
X132523945Y-84174998D01*
X132566005Y-84058690D01*
X132599320Y-83960516D01*
X132620459Y-83889412D01*
X132625995Y-83854313D01*
X132625534Y-83853083D01*
X132606777Y-83824394D01*
X132564224Y-83761270D01*
X132502347Y-83670282D01*
X132425618Y-83558000D01*
X132338509Y-83430995D01*
X132313701Y-83394902D01*
X132225247Y-83264052D01*
X132147412Y-83144664D01*
X132084434Y-83043593D01*
X132040555Y-82967696D01*
X132020015Y-82923828D01*
X132019020Y-82918438D01*
X132036278Y-82890111D01*
X132083964Y-82833994D01*
X132155950Y-82756118D01*
X132246103Y-82662515D01*
X132348295Y-82559214D01*
X132456394Y-82452249D01*
X132564272Y-82347649D01*
X132665796Y-82251446D01*
X132754838Y-82169671D01*
X132825267Y-82108355D01*
X132870953Y-82073529D01*
X132883591Y-82067843D01*
X132913009Y-82081235D01*
X132973239Y-82117356D01*
X133054470Y-82170119D01*
X133116970Y-82212588D01*
X133230215Y-82290515D01*
X133364326Y-82382271D01*
X133498845Y-82473880D01*
X133571167Y-82522909D01*
X133815962Y-82688485D01*
X134021449Y-82577380D01*
X134115064Y-82528707D01*
X134194670Y-82490874D01*
X134248533Y-82469297D01*
X134262243Y-82466294D01*
X134278730Y-82488462D01*
X134311255Y-82551106D01*
X134357391Y-82648446D01*
X134414710Y-82774706D01*
X134480784Y-82924105D01*
X134553185Y-83090867D01*
X134629484Y-83269213D01*
X134707254Y-83453364D01*
X134784066Y-83637543D01*
X134857494Y-83815970D01*
X134925108Y-83982868D01*
X134984480Y-84132458D01*
X135033184Y-84258962D01*
X135068790Y-84356601D01*
X135088870Y-84419598D01*
X135092100Y-84441234D01*
X135066504Y-84468831D01*
X135010461Y-84513630D01*
X134935689Y-84566321D01*
X134929413Y-84570490D01*
X134736155Y-84725186D01*
X134580326Y-84905664D01*
X134463276Y-85106153D01*
X134386355Y-85320881D01*
X134350914Y-85544078D01*
X134358303Y-85769974D01*
X134409873Y-85992796D01*
X134506974Y-86206776D01*
X134535542Y-86253591D01*
X134684132Y-86442637D01*
X134859673Y-86594443D01*
X135056090Y-86708221D01*
X135267307Y-86783180D01*
X135487247Y-86818533D01*
X135709837Y-86813488D01*
X135928999Y-86767256D01*
X136138658Y-86679049D01*
X136332739Y-86548076D01*
X136392774Y-86494918D01*
X136545565Y-86328516D01*
X136656903Y-86153343D01*
X136733277Y-85956989D01*
X136775813Y-85762538D01*
X136786314Y-85543913D01*
X136751299Y-85324203D01*
X136674327Y-85110835D01*
X136558953Y-84911233D01*
X136408734Y-84732826D01*
X136227227Y-84583038D01*
X136203373Y-84567249D01*
X136127799Y-84515543D01*
X136070349Y-84470743D01*
X136042883Y-84442138D01*
X136042483Y-84441234D01*
X136048380Y-84410291D01*
X136071755Y-84340064D01*
X136110179Y-84236330D01*
X136161223Y-84104865D01*
X136222458Y-83951448D01*
X136291456Y-83781854D01*
X136365786Y-83601862D01*
X136443022Y-83417247D01*
X136520732Y-83233787D01*
X136596489Y-83057259D01*
X136667863Y-82893441D01*
X136732426Y-82748108D01*
X136787748Y-82627038D01*
X136831400Y-82536008D01*
X136860954Y-82480795D01*
X136872856Y-82466294D01*
X136909223Y-82477586D01*
X136977270Y-82507870D01*
X137065263Y-82551735D01*
X137113649Y-82577380D01*
X137319137Y-82688485D01*
X137563932Y-82522909D01*
X137688894Y-82438085D01*
X137825705Y-82344739D01*
X137953911Y-82256847D01*
X138018129Y-82212588D01*
X138108449Y-82151937D01*
X138184929Y-82103874D01*
X138237593Y-82074485D01*
X138254698Y-82068273D01*
X138279595Y-82085032D01*
X138334695Y-82131819D01*
X138414657Y-82203775D01*
X138514139Y-82296043D01*
X138627800Y-82403765D01*
X138699685Y-82472929D01*
X138825449Y-82596498D01*
X138934137Y-82707021D01*
X139021355Y-82799770D01*
X139082711Y-82870018D01*
X139113809Y-82913035D01*
X139116792Y-82921765D01*
X139102947Y-82954971D01*
X139064688Y-83022113D01*
X139006258Y-83116392D01*
X138931903Y-83231010D01*
X138845865Y-83359172D01*
X138821397Y-83394902D01*
X138732245Y-83524766D01*
X138652262Y-83641686D01*
X138585920Y-83739093D01*
X138537689Y-83810416D01*
X138512043Y-83849085D01*
X138509565Y-83853083D01*
X138513271Y-83883900D01*
X138532939Y-83951656D01*
X138565140Y-84047416D01*
X138606445Y-84162246D01*
X138653425Y-84287211D01*
X138702651Y-84413376D01*
X138750692Y-84531807D01*
X138794119Y-84633570D01*
X138829504Y-84709729D01*
X138853416Y-84751351D01*
X138855116Y-84753347D01*
X138869738Y-84765242D01*
X138894435Y-84777005D01*
X138934628Y-84789854D01*
X138995737Y-84805006D01*
X139083183Y-84823679D01*
X139202388Y-84847090D01*
X139358773Y-84876458D01*
X139557757Y-84913000D01*
X139600840Y-84920857D01*
X139728529Y-84945528D01*
X139839847Y-84969662D01*
X139924955Y-84990931D01*
X139974017Y-85007007D01*
X139980595Y-85010755D01*
X139991436Y-85043982D01*
X140000247Y-85118234D01*
X140007024Y-85224879D01*
X140011760Y-85355288D01*
X140014450Y-85500828D01*
X140015087Y-85652869D01*
X140013666Y-85802779D01*
X140010180Y-85941927D01*
X140004624Y-86061683D01*
X139996992Y-86153414D01*
X139987278Y-86208489D01*
X139981422Y-86219762D01*
X139948820Y-86231132D01*
X139874582Y-86249631D01*
X139766104Y-86273653D01*
X139630783Y-86301593D01*
X139476015Y-86331847D01*
X139391692Y-86347704D01*
X139231704Y-86377611D01*
X139089033Y-86404705D01*
X138970652Y-86427624D01*
X138883535Y-86445012D01*
X138834655Y-86455508D01*
X138826610Y-86457835D01*
X138813013Y-86484069D01*
X138784271Y-86547260D01*
X138744215Y-86638378D01*
X138696676Y-86748398D01*
X138645485Y-86868290D01*
X138594474Y-86989028D01*
X138547474Y-87101584D01*
X138508316Y-87196929D01*
X138480831Y-87266038D01*
X138468851Y-87299881D01*
X138468628Y-87301360D01*
X138482209Y-87328058D01*
X138520285Y-87389495D01*
X138578853Y-87479566D01*
X138653912Y-87592165D01*
X138741460Y-87721185D01*
X138792353Y-87795294D01*
X138885091Y-87931178D01*
X138967459Y-88054546D01*
X139035439Y-88159158D01*
X139085012Y-88238772D01*
X139112158Y-88287148D01*
X139116079Y-88297993D01*
X139099225Y-88323235D01*
X139052632Y-88377131D01*
X138982251Y-88453642D01*
X138894035Y-88546732D01*
X138793935Y-88650360D01*
X138687902Y-88758491D01*
X138581889Y-88865085D01*
X138481848Y-88964105D01*
X138393730Y-89049513D01*
X138323487Y-89115270D01*
X138277072Y-89155339D01*
X138261544Y-89164902D01*
X138236261Y-89151455D01*
X138175789Y-89113680D01*
X138086008Y-89055420D01*
X137972797Y-88980521D01*
X137842036Y-88892830D01*
X137743400Y-88826022D01*
X137245043Y-88487143D01*
X136829629Y-88658390D01*
X136414216Y-88829637D01*
X136301634Y-89426828D01*
X136189051Y-90024020D01*
X134946048Y-90024020D01*
X134833465Y-89426828D01*
X134833465Y-89426828D01*
G37*
X134833465Y-89426828D02*
X134720883Y-88829637D01*
X134305469Y-88658390D01*
X133890056Y-88487143D01*
X133391698Y-88826022D01*
X133252132Y-88920378D01*
X133125972Y-89004625D01*
X133019105Y-89074917D01*
X132937418Y-89127408D01*
X132886799Y-89158251D01*
X132873014Y-89164902D01*
X132848180Y-89147797D01*
X132795112Y-89100511D01*
X132719760Y-89029083D01*
X132628071Y-88939555D01*
X132525993Y-88837966D01*
X132419474Y-88730357D01*
X132314464Y-88622768D01*
X132216909Y-88521240D01*
X132132758Y-88431814D01*
X132067960Y-88360529D01*
X132028462Y-88313427D01*
X132019020Y-88297663D01*
X132032609Y-88268602D01*
X132070707Y-88204934D01*
X132129306Y-88112888D01*
X132204403Y-87998691D01*
X132291991Y-87868571D01*
X132342746Y-87794354D01*
X132435255Y-87658833D01*
X132517460Y-87536539D01*
X132585370Y-87433560D01*
X132635000Y-87355982D01*
X132662360Y-87309894D01*
X132666471Y-87300208D01*
X132657151Y-87272681D01*
X132631746Y-87208527D01*
X132594089Y-87116765D01*
X132548014Y-87006416D01*
X132497354Y-86886500D01*
X132445941Y-86766036D01*
X132397611Y-86654046D01*
X132356194Y-86559548D01*
X132325526Y-86491563D01*
X132309438Y-86459112D01*
X132308489Y-86457835D01*
X132283228Y-86451638D01*
X132215954Y-86437815D01*
X132113640Y-86417723D01*
X131983259Y-86392721D01*
X131831784Y-86364169D01*
X131743406Y-86347704D01*
X131581548Y-86316886D01*
X131435351Y-86287561D01*
X131312213Y-86261334D01*
X131219531Y-86239809D01*
X131164699Y-86224590D01*
X131153677Y-86219762D01*
X131142881Y-86187081D01*
X131134171Y-86113270D01*
X131127540Y-86006963D01*
X131122982Y-85876788D01*
X131120491Y-85731379D01*
X131120062Y-85579365D01*
X131121689Y-85429378D01*
X131125365Y-85290049D01*
X131131085Y-85170010D01*
X131138842Y-85077890D01*
X131148632Y-85022323D01*
X131154504Y-85010755D01*
X131189601Y-84996890D01*
X131263972Y-84977067D01*
X131367777Y-84953616D01*
X131491181Y-84928864D01*
X131534259Y-84920857D01*
X131741953Y-84882814D01*
X131906016Y-84852176D01*
X132031870Y-84827726D01*
X132124935Y-84808246D01*
X132190633Y-84792519D01*
X132234383Y-84779327D01*
X132261608Y-84767451D01*
X132277728Y-84755675D01*
X132279983Y-84753347D01*
X132302497Y-84715855D01*
X132336842Y-84642890D01*
X132379589Y-84543388D01*
X132427308Y-84426282D01*
X132476570Y-84300507D01*
X132523945Y-84174998D01*
X132566005Y-84058690D01*
X132599320Y-83960516D01*
X132620459Y-83889412D01*
X132625995Y-83854313D01*
X132625534Y-83853083D01*
X132606777Y-83824394D01*
X132564224Y-83761270D01*
X132502347Y-83670282D01*
X132425618Y-83558000D01*
X132338509Y-83430995D01*
X132313701Y-83394902D01*
X132225247Y-83264052D01*
X132147412Y-83144664D01*
X132084434Y-83043593D01*
X132040555Y-82967696D01*
X132020015Y-82923828D01*
X132019020Y-82918438D01*
X132036278Y-82890111D01*
X132083964Y-82833994D01*
X132155950Y-82756118D01*
X132246103Y-82662515D01*
X132348295Y-82559214D01*
X132456394Y-82452249D01*
X132564272Y-82347649D01*
X132665796Y-82251446D01*
X132754838Y-82169671D01*
X132825267Y-82108355D01*
X132870953Y-82073529D01*
X132883591Y-82067843D01*
X132913009Y-82081235D01*
X132973239Y-82117356D01*
X133054470Y-82170119D01*
X133116970Y-82212588D01*
X133230215Y-82290515D01*
X133364326Y-82382271D01*
X133498845Y-82473880D01*
X133571167Y-82522909D01*
X133815962Y-82688485D01*
X134021449Y-82577380D01*
X134115064Y-82528707D01*
X134194670Y-82490874D01*
X134248533Y-82469297D01*
X134262243Y-82466294D01*
X134278730Y-82488462D01*
X134311255Y-82551106D01*
X134357391Y-82648446D01*
X134414710Y-82774706D01*
X134480784Y-82924105D01*
X134553185Y-83090867D01*
X134629484Y-83269213D01*
X134707254Y-83453364D01*
X134784066Y-83637543D01*
X134857494Y-83815970D01*
X134925108Y-83982868D01*
X134984480Y-84132458D01*
X135033184Y-84258962D01*
X135068790Y-84356601D01*
X135088870Y-84419598D01*
X135092100Y-84441234D01*
X135066504Y-84468831D01*
X135010461Y-84513630D01*
X134935689Y-84566321D01*
X134929413Y-84570490D01*
X134736155Y-84725186D01*
X134580326Y-84905664D01*
X134463276Y-85106153D01*
X134386355Y-85320881D01*
X134350914Y-85544078D01*
X134358303Y-85769974D01*
X134409873Y-85992796D01*
X134506974Y-86206776D01*
X134535542Y-86253591D01*
X134684132Y-86442637D01*
X134859673Y-86594443D01*
X135056090Y-86708221D01*
X135267307Y-86783180D01*
X135487247Y-86818533D01*
X135709837Y-86813488D01*
X135928999Y-86767256D01*
X136138658Y-86679049D01*
X136332739Y-86548076D01*
X136392774Y-86494918D01*
X136545565Y-86328516D01*
X136656903Y-86153343D01*
X136733277Y-85956989D01*
X136775813Y-85762538D01*
X136786314Y-85543913D01*
X136751299Y-85324203D01*
X136674327Y-85110835D01*
X136558953Y-84911233D01*
X136408734Y-84732826D01*
X136227227Y-84583038D01*
X136203373Y-84567249D01*
X136127799Y-84515543D01*
X136070349Y-84470743D01*
X136042883Y-84442138D01*
X136042483Y-84441234D01*
X136048380Y-84410291D01*
X136071755Y-84340064D01*
X136110179Y-84236330D01*
X136161223Y-84104865D01*
X136222458Y-83951448D01*
X136291456Y-83781854D01*
X136365786Y-83601862D01*
X136443022Y-83417247D01*
X136520732Y-83233787D01*
X136596489Y-83057259D01*
X136667863Y-82893441D01*
X136732426Y-82748108D01*
X136787748Y-82627038D01*
X136831400Y-82536008D01*
X136860954Y-82480795D01*
X136872856Y-82466294D01*
X136909223Y-82477586D01*
X136977270Y-82507870D01*
X137065263Y-82551735D01*
X137113649Y-82577380D01*
X137319137Y-82688485D01*
X137563932Y-82522909D01*
X137688894Y-82438085D01*
X137825705Y-82344739D01*
X137953911Y-82256847D01*
X138018129Y-82212588D01*
X138108449Y-82151937D01*
X138184929Y-82103874D01*
X138237593Y-82074485D01*
X138254698Y-82068273D01*
X138279595Y-82085032D01*
X138334695Y-82131819D01*
X138414657Y-82203775D01*
X138514139Y-82296043D01*
X138627800Y-82403765D01*
X138699685Y-82472929D01*
X138825449Y-82596498D01*
X138934137Y-82707021D01*
X139021355Y-82799770D01*
X139082711Y-82870018D01*
X139113809Y-82913035D01*
X139116792Y-82921765D01*
X139102947Y-82954971D01*
X139064688Y-83022113D01*
X139006258Y-83116392D01*
X138931903Y-83231010D01*
X138845865Y-83359172D01*
X138821397Y-83394902D01*
X138732245Y-83524766D01*
X138652262Y-83641686D01*
X138585920Y-83739093D01*
X138537689Y-83810416D01*
X138512043Y-83849085D01*
X138509565Y-83853083D01*
X138513271Y-83883900D01*
X138532939Y-83951656D01*
X138565140Y-84047416D01*
X138606445Y-84162246D01*
X138653425Y-84287211D01*
X138702651Y-84413376D01*
X138750692Y-84531807D01*
X138794119Y-84633570D01*
X138829504Y-84709729D01*
X138853416Y-84751351D01*
X138855116Y-84753347D01*
X138869738Y-84765242D01*
X138894435Y-84777005D01*
X138934628Y-84789854D01*
X138995737Y-84805006D01*
X139083183Y-84823679D01*
X139202388Y-84847090D01*
X139358773Y-84876458D01*
X139557757Y-84913000D01*
X139600840Y-84920857D01*
X139728529Y-84945528D01*
X139839847Y-84969662D01*
X139924955Y-84990931D01*
X139974017Y-85007007D01*
X139980595Y-85010755D01*
X139991436Y-85043982D01*
X140000247Y-85118234D01*
X140007024Y-85224879D01*
X140011760Y-85355288D01*
X140014450Y-85500828D01*
X140015087Y-85652869D01*
X140013666Y-85802779D01*
X140010180Y-85941927D01*
X140004624Y-86061683D01*
X139996992Y-86153414D01*
X139987278Y-86208489D01*
X139981422Y-86219762D01*
X139948820Y-86231132D01*
X139874582Y-86249631D01*
X139766104Y-86273653D01*
X139630783Y-86301593D01*
X139476015Y-86331847D01*
X139391692Y-86347704D01*
X139231704Y-86377611D01*
X139089033Y-86404705D01*
X138970652Y-86427624D01*
X138883535Y-86445012D01*
X138834655Y-86455508D01*
X138826610Y-86457835D01*
X138813013Y-86484069D01*
X138784271Y-86547260D01*
X138744215Y-86638378D01*
X138696676Y-86748398D01*
X138645485Y-86868290D01*
X138594474Y-86989028D01*
X138547474Y-87101584D01*
X138508316Y-87196929D01*
X138480831Y-87266038D01*
X138468851Y-87299881D01*
X138468628Y-87301360D01*
X138482209Y-87328058D01*
X138520285Y-87389495D01*
X138578853Y-87479566D01*
X138653912Y-87592165D01*
X138741460Y-87721185D01*
X138792353Y-87795294D01*
X138885091Y-87931178D01*
X138967459Y-88054546D01*
X139035439Y-88159158D01*
X139085012Y-88238772D01*
X139112158Y-88287148D01*
X139116079Y-88297993D01*
X139099225Y-88323235D01*
X139052632Y-88377131D01*
X138982251Y-88453642D01*
X138894035Y-88546732D01*
X138793935Y-88650360D01*
X138687902Y-88758491D01*
X138581889Y-88865085D01*
X138481848Y-88964105D01*
X138393730Y-89049513D01*
X138323487Y-89115270D01*
X138277072Y-89155339D01*
X138261544Y-89164902D01*
X138236261Y-89151455D01*
X138175789Y-89113680D01*
X138086008Y-89055420D01*
X137972797Y-88980521D01*
X137842036Y-88892830D01*
X137743400Y-88826022D01*
X137245043Y-88487143D01*
X136829629Y-88658390D01*
X136414216Y-88829637D01*
X136301634Y-89426828D01*
X136189051Y-90024020D01*
X134946048Y-90024020D01*
X134833465Y-89426828D01*
G36*
X132016363Y-81172528D02*
G01*
X131930710Y-81146359D01*
X131875563Y-81113293D01*
X131857599Y-81087145D01*
X131862543Y-81056148D01*
X131894628Y-81007453D01*
X131921757Y-80972965D01*
X131977683Y-80910617D01*
X132019701Y-80884385D01*
X132055520Y-80886097D01*
X132161776Y-80913137D01*
X132239811Y-80911909D01*
X132303180Y-80881265D01*
X132324454Y-80863330D01*
X132392549Y-80800221D01*
X132392549Y-79976078D01*
X132666471Y-79976078D01*
X132666471Y-81171372D01*
X132529510Y-81171372D01*
X132447281Y-81168121D01*
X132404856Y-81156574D01*
X132392555Y-81134048D01*
X132392549Y-81133380D01*
X132386740Y-81109785D01*
X132360469Y-81112862D01*
X132324069Y-81129885D01*
X132248889Y-81161561D01*
X132187842Y-81180619D01*
X132109292Y-81185504D01*
X132016363Y-81172528D01*
X132016363Y-81172528D01*
G37*
X132016363Y-81172528D02*
X131930710Y-81146359D01*
X131875563Y-81113293D01*
X131857599Y-81087145D01*
X131862543Y-81056148D01*
X131894628Y-81007453D01*
X131921757Y-80972965D01*
X131977683Y-80910617D01*
X132019701Y-80884385D01*
X132055520Y-80886097D01*
X132161776Y-80913137D01*
X132239811Y-80911909D01*
X132303180Y-80881265D01*
X132324454Y-80863330D01*
X132392549Y-80800221D01*
X132392549Y-79976078D01*
X132666471Y-79976078D01*
X132666471Y-81171372D01*
X132529510Y-81171372D01*
X132447281Y-81168121D01*
X132404856Y-81156574D01*
X132392555Y-81134048D01*
X132392549Y-81133380D01*
X132386740Y-81109785D01*
X132360469Y-81112862D01*
X132324069Y-81129885D01*
X132248889Y-81161561D01*
X132187842Y-81180619D01*
X132109292Y-81185504D01*
X132016363Y-81172528D01*
G36*
X137073240Y-81150801D02*
G01*
X137011264Y-81121198D01*
X136951241Y-81078439D01*
X136905514Y-81029225D01*
X136872207Y-80966456D01*
X136849445Y-80883029D01*
X136835353Y-80771841D01*
X136828058Y-80625791D01*
X136825682Y-80437777D01*
X136825645Y-80418088D01*
X136825098Y-79976078D01*
X137099020Y-79976078D01*
X137099020Y-80383565D01*
X137099215Y-80534529D01*
X137100564Y-80643944D01*
X137104212Y-80720067D01*
X137111304Y-80771152D01*
X137122987Y-80805455D01*
X137140406Y-80831232D01*
X137164671Y-80856702D01*
X137249565Y-80911429D01*
X137342239Y-80921584D01*
X137430527Y-80886983D01*
X137461230Y-80861230D01*
X137483771Y-80837018D01*
X137499954Y-80811088D01*
X137510832Y-80775292D01*
X137517458Y-80721481D01*
X137520885Y-80641507D01*
X137522166Y-80527221D01*
X137522353Y-80388093D01*
X137522353Y-79976078D01*
X137796275Y-79976078D01*
X137796275Y-81171372D01*
X137659314Y-81171372D01*
X137577084Y-81168121D01*
X137534660Y-81156574D01*
X137522359Y-81134048D01*
X137522353Y-81133380D01*
X137516646Y-81111319D01*
X137491473Y-81113823D01*
X137441422Y-81138063D01*
X137327906Y-81173729D01*
X137198055Y-81177695D01*
X137073240Y-81150801D01*
X137073240Y-81150801D01*
G37*
X137073240Y-81150801D02*
X137011264Y-81121198D01*
X136951241Y-81078439D01*
X136905514Y-81029225D01*
X136872207Y-80966456D01*
X136849445Y-80883029D01*
X136835353Y-80771841D01*
X136828058Y-80625791D01*
X136825682Y-80437777D01*
X136825645Y-80418088D01*
X136825098Y-79976078D01*
X137099020Y-79976078D01*
X137099020Y-80383565D01*
X137099215Y-80534529D01*
X137100564Y-80643944D01*
X137104212Y-80720067D01*
X137111304Y-80771152D01*
X137122987Y-80805455D01*
X137140406Y-80831232D01*
X137164671Y-80856702D01*
X137249565Y-80911429D01*
X137342239Y-80921584D01*
X137430527Y-80886983D01*
X137461230Y-80861230D01*
X137483771Y-80837018D01*
X137499954Y-80811088D01*
X137510832Y-80775292D01*
X137517458Y-80721481D01*
X137520885Y-80641507D01*
X137522166Y-80527221D01*
X137522353Y-80388093D01*
X137522353Y-79976078D01*
X137796275Y-79976078D01*
X137796275Y-81171372D01*
X137659314Y-81171372D01*
X137577084Y-81168121D01*
X137534660Y-81156574D01*
X137522359Y-81134048D01*
X137522353Y-81133380D01*
X137516646Y-81111319D01*
X137491473Y-81113823D01*
X137441422Y-81138063D01*
X137327906Y-81173729D01*
X137198055Y-81177695D01*
X137073240Y-81150801D01*
G36*
X130276713Y-81175645D02*
G01*
X130212949Y-81160155D01*
X130090700Y-81103431D01*
X129986166Y-81016798D01*
X129913820Y-80912926D01*
X129903881Y-80889604D01*
X129890246Y-80828516D01*
X129880702Y-80738147D01*
X129877451Y-80646810D01*
X129877451Y-80474118D01*
X130238530Y-80474118D01*
X130387454Y-80473555D01*
X130492368Y-80470136D01*
X130559063Y-80461269D01*
X130593334Y-80444359D01*
X130600972Y-80416811D01*
X130587771Y-80376032D01*
X130564123Y-80328317D01*
X130498157Y-80248686D01*
X130406488Y-80209013D01*
X130294445Y-80210305D01*
X130167528Y-80253486D01*
X130057842Y-80306776D01*
X129966827Y-80234809D01*
X129875812Y-80162843D01*
X129961437Y-80083731D01*
X130075750Y-80008983D01*
X130216334Y-79963916D01*
X130367551Y-79951304D01*
X130513764Y-79973921D01*
X130537353Y-79981595D01*
X130665859Y-80048704D01*
X130761449Y-80148753D01*
X130826139Y-80284729D01*
X130861943Y-80459620D01*
X130862360Y-80463368D01*
X130865566Y-80653968D01*
X130852607Y-80721965D01*
X130599608Y-80721965D01*
X130576373Y-80711509D01*
X130513290Y-80703500D01*
X130420294Y-80698927D01*
X130361362Y-80698235D01*
X130251463Y-80698668D01*
X130182748Y-80701422D01*
X130146595Y-80708679D01*
X130134385Y-80722624D01*
X130137496Y-80745438D01*
X130140106Y-80754265D01*
X130184656Y-80837200D01*
X130254721Y-80904040D01*
X130316554Y-80933411D01*
X130398699Y-80931638D01*
X130481938Y-80895010D01*
X130551762Y-80834366D01*
X130593663Y-80760544D01*
X130599608Y-80721965D01*
X130852607Y-80721965D01*
X130833615Y-80821605D01*
X130770227Y-80962289D01*
X130679122Y-81072026D01*
X130564022Y-81146826D01*
X130428645Y-81182696D01*
X130276713Y-81175645D01*
X130276713Y-81175645D01*
G37*
X130276713Y-81175645D02*
X130212949Y-81160155D01*
X130090700Y-81103431D01*
X129986166Y-81016798D01*
X129913820Y-80912926D01*
X129903881Y-80889604D01*
X129890246Y-80828516D01*
X129880702Y-80738147D01*
X129877451Y-80646810D01*
X129877451Y-80474118D01*
X130238530Y-80474118D01*
X130387454Y-80473555D01*
X130492368Y-80470136D01*
X130559063Y-80461269D01*
X130593334Y-80444359D01*
X130600972Y-80416811D01*
X130587771Y-80376032D01*
X130564123Y-80328317D01*
X130498157Y-80248686D01*
X130406488Y-80209013D01*
X130294445Y-80210305D01*
X130167528Y-80253486D01*
X130057842Y-80306776D01*
X129966827Y-80234809D01*
X129875812Y-80162843D01*
X129961437Y-80083731D01*
X130075750Y-80008983D01*
X130216334Y-79963916D01*
X130367551Y-79951304D01*
X130513764Y-79973921D01*
X130537353Y-79981595D01*
X130665859Y-80048704D01*
X130761449Y-80148753D01*
X130826139Y-80284729D01*
X130861943Y-80459620D01*
X130862360Y-80463368D01*
X130865566Y-80653968D01*
X130852607Y-80721965D01*
X130599608Y-80721965D01*
X130576373Y-80711509D01*
X130513290Y-80703500D01*
X130420294Y-80698927D01*
X130361362Y-80698235D01*
X130251463Y-80698668D01*
X130182748Y-80701422D01*
X130146595Y-80708679D01*
X130134385Y-80722624D01*
X130137496Y-80745438D01*
X130140106Y-80754265D01*
X130184656Y-80837200D01*
X130254721Y-80904040D01*
X130316554Y-80933411D01*
X130398699Y-80931638D01*
X130481938Y-80895010D01*
X130551762Y-80834366D01*
X130593663Y-80760544D01*
X130599608Y-80721965D01*
X130852607Y-80721965D01*
X130833615Y-80821605D01*
X130770227Y-80962289D01*
X130679122Y-81072026D01*
X130564022Y-81146826D01*
X130428645Y-81182696D01*
X130276713Y-81175645D01*
G36*
X131189024Y-81160944D02*
G01*
X131044744Y-81099652D01*
X130999301Y-81069815D01*
X130941221Y-81023964D01*
X130904762Y-80987911D01*
X130898432Y-80976168D01*
X130916307Y-80950111D01*
X130962050Y-80905895D01*
X130998672Y-80875035D01*
X131098912Y-80794480D01*
X131178065Y-80861082D01*
X131239231Y-80904079D01*
X131298871Y-80918921D01*
X131367128Y-80915296D01*
X131475518Y-80888348D01*
X131550128Y-80832413D01*
X131595470Y-80741986D01*
X131616053Y-80611565D01*
X131616058Y-80611483D01*
X131614278Y-80465710D01*
X131586613Y-80358755D01*
X131531429Y-80285936D01*
X131493808Y-80261277D01*
X131393895Y-80230569D01*
X131287178Y-80230551D01*
X131194331Y-80260345D01*
X131172353Y-80274902D01*
X131117235Y-80312086D01*
X131074141Y-80318180D01*
X131027665Y-80290504D01*
X130976284Y-80240795D01*
X130894954Y-80156884D01*
X130985251Y-80082454D01*
X131124764Y-79998451D01*
X131282088Y-79957053D01*
X131446497Y-79960050D01*
X131554469Y-79987500D01*
X131680669Y-80055380D01*
X131781599Y-80162169D01*
X131827452Y-80237549D01*
X131864590Y-80345703D01*
X131883173Y-80482682D01*
X131883316Y-80631136D01*
X131865135Y-80773719D01*
X131828745Y-80893082D01*
X131823013Y-80905320D01*
X131738135Y-81025345D01*
X131623218Y-81112733D01*
X131487341Y-81165671D01*
X131339583Y-81182346D01*
X131189024Y-81160944D01*
X131189024Y-81160944D01*
G37*
X131189024Y-81160944D02*
X131044744Y-81099652D01*
X130999301Y-81069815D01*
X130941221Y-81023964D01*
X130904762Y-80987911D01*
X130898432Y-80976168D01*
X130916307Y-80950111D01*
X130962050Y-80905895D01*
X130998672Y-80875035D01*
X131098912Y-80794480D01*
X131178065Y-80861082D01*
X131239231Y-80904079D01*
X131298871Y-80918921D01*
X131367128Y-80915296D01*
X131475518Y-80888348D01*
X131550128Y-80832413D01*
X131595470Y-80741986D01*
X131616053Y-80611565D01*
X131616058Y-80611483D01*
X131614278Y-80465710D01*
X131586613Y-80358755D01*
X131531429Y-80285936D01*
X131493808Y-80261277D01*
X131393895Y-80230569D01*
X131287178Y-80230551D01*
X131194331Y-80260345D01*
X131172353Y-80274902D01*
X131117235Y-80312086D01*
X131074141Y-80318180D01*
X131027665Y-80290504D01*
X130976284Y-80240795D01*
X130894954Y-80156884D01*
X130985251Y-80082454D01*
X131124764Y-79998451D01*
X131282088Y-79957053D01*
X131446497Y-79960050D01*
X131554469Y-79987500D01*
X131680669Y-80055380D01*
X131781599Y-80162169D01*
X131827452Y-80237549D01*
X131864590Y-80345703D01*
X131883173Y-80482682D01*
X131883316Y-80631136D01*
X131865135Y-80773719D01*
X131828745Y-80893082D01*
X131823013Y-80905320D01*
X131738135Y-81025345D01*
X131623218Y-81112733D01*
X131487341Y-81165671D01*
X131339583Y-81182346D01*
X131189024Y-81160944D01*
G36*
X133612746Y-80783755D02*
G01*
X133610392Y-80601121D01*
X133601793Y-80462400D01*
X133584640Y-80361853D01*
X133556626Y-80293746D01*
X133515443Y-80252341D01*
X133458783Y-80231903D01*
X133388628Y-80226682D01*
X133315152Y-80232532D01*
X133259343Y-80253907D01*
X133218891Y-80296542D01*
X133191491Y-80366175D01*
X133174833Y-80468540D01*
X133166611Y-80609376D01*
X133164510Y-80783755D01*
X133164510Y-81171372D01*
X132890589Y-81171372D01*
X132890589Y-79976078D01*
X133027549Y-79976078D01*
X133110116Y-79979424D01*
X133152632Y-79991174D01*
X133164510Y-80013480D01*
X133171664Y-80033346D01*
X133200135Y-80029143D01*
X133257524Y-80001029D01*
X133389055Y-79957658D01*
X133528562Y-79960730D01*
X133662235Y-80007826D01*
X133725892Y-80045029D01*
X133774447Y-80085309D01*
X133809919Y-80135709D01*
X133834326Y-80203271D01*
X133849687Y-80295035D01*
X133858018Y-80418045D01*
X133861338Y-80579341D01*
X133861765Y-80704072D01*
X133861765Y-81171372D01*
X133612746Y-81171372D01*
X133612746Y-80783755D01*
X133612746Y-80783755D01*
G37*
X133612746Y-80783755D02*
X133610392Y-80601121D01*
X133601793Y-80462400D01*
X133584640Y-80361853D01*
X133556626Y-80293746D01*
X133515443Y-80252341D01*
X133458783Y-80231903D01*
X133388628Y-80226682D01*
X133315152Y-80232532D01*
X133259343Y-80253907D01*
X133218891Y-80296542D01*
X133191491Y-80366175D01*
X133174833Y-80468540D01*
X133166611Y-80609376D01*
X133164510Y-80783755D01*
X133164510Y-81171372D01*
X132890589Y-81171372D01*
X132890589Y-79976078D01*
X133027549Y-79976078D01*
X133110116Y-79979424D01*
X133152632Y-79991174D01*
X133164510Y-80013480D01*
X133171664Y-80033346D01*
X133200135Y-80029143D01*
X133257524Y-80001029D01*
X133389055Y-79957658D01*
X133528562Y-79960730D01*
X133662235Y-80007826D01*
X133725892Y-80045029D01*
X133774447Y-80085309D01*
X133809919Y-80135709D01*
X133834326Y-80203271D01*
X133849687Y-80295035D01*
X133858018Y-80418045D01*
X133861338Y-80579341D01*
X133861765Y-80704072D01*
X133861765Y-81171372D01*
X133612746Y-81171372D01*
X133612746Y-80783755D01*
G36*
X134370453Y-81156636D02*
G01*
X134244498Y-81088041D01*
X134145953Y-80979755D01*
X134099522Y-80891685D01*
X134079588Y-80813899D01*
X134066672Y-80703007D01*
X134061137Y-80575262D01*
X134063346Y-80446916D01*
X134073663Y-80334221D01*
X134085714Y-80274031D01*
X134126366Y-80191689D01*
X134196770Y-80104230D01*
X134281618Y-80027749D01*
X134365603Y-79978345D01*
X134367651Y-79977561D01*
X134471866Y-79955973D01*
X134595373Y-79955438D01*
X134712739Y-79975092D01*
X134758058Y-79990845D01*
X134874780Y-80057034D01*
X134958376Y-80143754D01*
X135013299Y-80258562D01*
X135044005Y-80409018D01*
X135050953Y-80487827D01*
X135050067Y-80586855D01*
X134783138Y-80586855D01*
X134774146Y-80442355D01*
X134748264Y-80332240D01*
X134707132Y-80261884D01*
X134677828Y-80241765D01*
X134602749Y-80227735D01*
X134513506Y-80231889D01*
X134436350Y-80252078D01*
X134416117Y-80263185D01*
X134362735Y-80327877D01*
X134327500Y-80426881D01*
X134312502Y-80547368D01*
X134319828Y-80676506D01*
X134336201Y-80754225D01*
X134383210Y-80844229D01*
X134457418Y-80900491D01*
X134546791Y-80919943D01*
X134639293Y-80899519D01*
X134710347Y-80849563D01*
X134747688Y-80808345D01*
X134769482Y-80767719D01*
X134779870Y-80712736D01*
X134782994Y-80628451D01*
X134783138Y-80586855D01*
X135050067Y-80586855D01*
X135049070Y-80698126D01*
X135014820Y-80870577D01*
X134948198Y-81005186D01*
X134849201Y-81101960D01*
X134717825Y-81160906D01*
X134689615Y-81167741D01*
X134520074Y-81183787D01*
X134370453Y-81156636D01*
X134370453Y-81156636D01*
G37*
X134370453Y-81156636D02*
X134244498Y-81088041D01*
X134145953Y-80979755D01*
X134099522Y-80891685D01*
X134079588Y-80813899D01*
X134066672Y-80703007D01*
X134061137Y-80575262D01*
X134063346Y-80446916D01*
X134073663Y-80334221D01*
X134085714Y-80274031D01*
X134126366Y-80191689D01*
X134196770Y-80104230D01*
X134281618Y-80027749D01*
X134365603Y-79978345D01*
X134367651Y-79977561D01*
X134471866Y-79955973D01*
X134595373Y-79955438D01*
X134712739Y-79975092D01*
X134758058Y-79990845D01*
X134874780Y-80057034D01*
X134958376Y-80143754D01*
X135013299Y-80258562D01*
X135044005Y-80409018D01*
X135050953Y-80487827D01*
X135050067Y-80586855D01*
X134783138Y-80586855D01*
X134774146Y-80442355D01*
X134748264Y-80332240D01*
X134707132Y-80261884D01*
X134677828Y-80241765D01*
X134602749Y-80227735D01*
X134513506Y-80231889D01*
X134436350Y-80252078D01*
X134416117Y-80263185D01*
X134362735Y-80327877D01*
X134327500Y-80426881D01*
X134312502Y-80547368D01*
X134319828Y-80676506D01*
X134336201Y-80754225D01*
X134383210Y-80844229D01*
X134457418Y-80900491D01*
X134546791Y-80919943D01*
X134639293Y-80899519D01*
X134710347Y-80849563D01*
X134747688Y-80808345D01*
X134769482Y-80767719D01*
X134779870Y-80712736D01*
X134782994Y-80628451D01*
X134783138Y-80586855D01*
X135050067Y-80586855D01*
X135049070Y-80698126D01*
X135014820Y-80870577D01*
X134948198Y-81005186D01*
X134849201Y-81101960D01*
X134717825Y-81160906D01*
X134689615Y-81167741D01*
X134520074Y-81183787D01*
X134370453Y-81156636D01*
G36*
X135552241Y-81175655D02*
G01*
X135457941Y-81157771D01*
X135360110Y-81120367D01*
X135349657Y-81115598D01*
X135275469Y-81076588D01*
X135224090Y-81040336D01*
X135207483Y-81017113D01*
X135223298Y-80979239D01*
X135261712Y-80923356D01*
X135278763Y-80902495D01*
X135349031Y-80820382D01*
X135439621Y-80873832D01*
X135525836Y-80909439D01*
X135625451Y-80928471D01*
X135720981Y-80929674D01*
X135794939Y-80911790D01*
X135812688Y-80900627D01*
X135846488Y-80849447D01*
X135850596Y-80790491D01*
X135825304Y-80744433D01*
X135810344Y-80735501D01*
X135765514Y-80724408D01*
X135686714Y-80711370D01*
X135589574Y-80698912D01*
X135571654Y-80696958D01*
X135415635Y-80669970D01*
X135302477Y-80624127D01*
X135227431Y-80555197D01*
X135185747Y-80458946D01*
X135172762Y-80341383D01*
X135190701Y-80207746D01*
X135248950Y-80102805D01*
X135347745Y-80026370D01*
X135487318Y-79978252D01*
X135642255Y-79959268D01*
X135768602Y-79959496D01*
X135871087Y-79976738D01*
X135941079Y-80000543D01*
X136029517Y-80042022D01*
X136111246Y-80090158D01*
X136140295Y-80111345D01*
X136215000Y-80172324D01*
X136124902Y-80263492D01*
X136034804Y-80354661D01*
X135932368Y-80286872D01*
X135829626Y-80235958D01*
X135719913Y-80209327D01*
X135614449Y-80206517D01*
X135524454Y-80227065D01*
X135461146Y-80270507D01*
X135440704Y-80307162D01*
X135443771Y-80365947D01*
X135494566Y-80410901D01*
X135592952Y-80441943D01*
X135700744Y-80456290D01*
X135866635Y-80483663D01*
X135989876Y-80535307D01*
X136072114Y-80612734D01*
X136114999Y-80717456D01*
X136120940Y-80841613D01*
X136091594Y-80971298D01*
X136024691Y-81069323D01*
X135919629Y-81136134D01*
X135775810Y-81172180D01*
X135669262Y-81179246D01*
X135552241Y-81175655D01*
X135552241Y-81175655D01*
G37*
X135552241Y-81175655D02*
X135457941Y-81157771D01*
X135360110Y-81120367D01*
X135349657Y-81115598D01*
X135275469Y-81076588D01*
X135224090Y-81040336D01*
X135207483Y-81017113D01*
X135223298Y-80979239D01*
X135261712Y-80923356D01*
X135278763Y-80902495D01*
X135349031Y-80820382D01*
X135439621Y-80873832D01*
X135525836Y-80909439D01*
X135625451Y-80928471D01*
X135720981Y-80929674D01*
X135794939Y-80911790D01*
X135812688Y-80900627D01*
X135846488Y-80849447D01*
X135850596Y-80790491D01*
X135825304Y-80744433D01*
X135810344Y-80735501D01*
X135765514Y-80724408D01*
X135686714Y-80711370D01*
X135589574Y-80698912D01*
X135571654Y-80696958D01*
X135415635Y-80669970D01*
X135302477Y-80624127D01*
X135227431Y-80555197D01*
X135185747Y-80458946D01*
X135172762Y-80341383D01*
X135190701Y-80207746D01*
X135248950Y-80102805D01*
X135347745Y-80026370D01*
X135487318Y-79978252D01*
X135642255Y-79959268D01*
X135768602Y-79959496D01*
X135871087Y-79976738D01*
X135941079Y-80000543D01*
X136029517Y-80042022D01*
X136111246Y-80090158D01*
X136140295Y-80111345D01*
X136215000Y-80172324D01*
X136124902Y-80263492D01*
X136034804Y-80354661D01*
X135932368Y-80286872D01*
X135829626Y-80235958D01*
X135719913Y-80209327D01*
X135614449Y-80206517D01*
X135524454Y-80227065D01*
X135461146Y-80270507D01*
X135440704Y-80307162D01*
X135443771Y-80365947D01*
X135494566Y-80410901D01*
X135592952Y-80441943D01*
X135700744Y-80456290D01*
X135866635Y-80483663D01*
X135989876Y-80535307D01*
X136072114Y-80612734D01*
X136114999Y-80717456D01*
X136120940Y-80841613D01*
X136091594Y-80971298D01*
X136024691Y-81069323D01*
X135919629Y-81136134D01*
X135775810Y-81172180D01*
X135669262Y-81179246D01*
X135552241Y-81175655D01*
G36*
X138266796Y-81143646D02*
G01*
X138241981Y-81131963D01*
X138156094Y-81069049D01*
X138074879Y-80977231D01*
X138014236Y-80876132D01*
X137996988Y-80829651D01*
X137981251Y-80746624D01*
X137971867Y-80646287D01*
X137970728Y-80604853D01*
X137970589Y-80474118D01*
X138723047Y-80474118D01*
X138707007Y-80405637D01*
X138667637Y-80324645D01*
X138598806Y-80254649D01*
X138516919Y-80209559D01*
X138464737Y-80200196D01*
X138393971Y-80211559D01*
X138309540Y-80240057D01*
X138280858Y-80253169D01*
X138174791Y-80306142D01*
X138084272Y-80237099D01*
X138032039Y-80190403D01*
X138004247Y-80151860D01*
X138002840Y-80140548D01*
X138027668Y-80113132D01*
X138082083Y-80071468D01*
X138131472Y-80038963D01*
X138264748Y-79980532D01*
X138414161Y-79954085D01*
X138562249Y-79960961D01*
X138680295Y-79996904D01*
X138801982Y-80073899D01*
X138888460Y-80175272D01*
X138942559Y-80306430D01*
X138967109Y-80472776D01*
X138969286Y-80548892D01*
X138960573Y-80723315D01*
X138959503Y-80728389D01*
X138710173Y-80728389D01*
X138703306Y-80712032D01*
X138675083Y-80703012D01*
X138616873Y-80699146D01*
X138520042Y-80698251D01*
X138482757Y-80698235D01*
X138369317Y-80699587D01*
X138297378Y-80704495D01*
X138258687Y-80714240D01*
X138244995Y-80730101D01*
X138244510Y-80735195D01*
X138260137Y-80775674D01*
X138299247Y-80832379D01*
X138316061Y-80852234D01*
X138378481Y-80908389D01*
X138443547Y-80930468D01*
X138478603Y-80932314D01*
X138573442Y-80909234D01*
X138652973Y-80847241D01*
X138703423Y-80757198D01*
X138704317Y-80754265D01*
X138710173Y-80728389D01*
X138959503Y-80728389D01*
X138931601Y-80860657D01*
X138879410Y-80970539D01*
X138815579Y-81048539D01*
X138697567Y-81133118D01*
X138558842Y-81178314D01*
X138411290Y-81182400D01*
X138266796Y-81143646D01*
X138266796Y-81143646D01*
G37*
X138266796Y-81143646D02*
X138241981Y-81131963D01*
X138156094Y-81069049D01*
X138074879Y-80977231D01*
X138014236Y-80876132D01*
X137996988Y-80829651D01*
X137981251Y-80746624D01*
X137971867Y-80646287D01*
X137970728Y-80604853D01*
X137970589Y-80474118D01*
X138723047Y-80474118D01*
X138707007Y-80405637D01*
X138667637Y-80324645D01*
X138598806Y-80254649D01*
X138516919Y-80209559D01*
X138464737Y-80200196D01*
X138393971Y-80211559D01*
X138309540Y-80240057D01*
X138280858Y-80253169D01*
X138174791Y-80306142D01*
X138084272Y-80237099D01*
X138032039Y-80190403D01*
X138004247Y-80151860D01*
X138002840Y-80140548D01*
X138027668Y-80113132D01*
X138082083Y-80071468D01*
X138131472Y-80038963D01*
X138264748Y-79980532D01*
X138414161Y-79954085D01*
X138562249Y-79960961D01*
X138680295Y-79996904D01*
X138801982Y-80073899D01*
X138888460Y-80175272D01*
X138942559Y-80306430D01*
X138967109Y-80472776D01*
X138969286Y-80548892D01*
X138960573Y-80723315D01*
X138959503Y-80728389D01*
X138710173Y-80728389D01*
X138703306Y-80712032D01*
X138675083Y-80703012D01*
X138616873Y-80699146D01*
X138520042Y-80698251D01*
X138482757Y-80698235D01*
X138369317Y-80699587D01*
X138297378Y-80704495D01*
X138258687Y-80714240D01*
X138244995Y-80730101D01*
X138244510Y-80735195D01*
X138260137Y-80775674D01*
X138299247Y-80832379D01*
X138316061Y-80852234D01*
X138378481Y-80908389D01*
X138443547Y-80930468D01*
X138478603Y-80932314D01*
X138573442Y-80909234D01*
X138652973Y-80847241D01*
X138703423Y-80757198D01*
X138704317Y-80754265D01*
X138710173Y-80728389D01*
X138959503Y-80728389D01*
X138931601Y-80860657D01*
X138879410Y-80970539D01*
X138815579Y-81048539D01*
X138697567Y-81133118D01*
X138558842Y-81178314D01*
X138411290Y-81182400D01*
X138266796Y-81143646D01*
G36*
X140606753Y-81158432D02*
G01*
X140476478Y-81100837D01*
X140377581Y-81004666D01*
X140309918Y-80869771D01*
X140273345Y-80696004D01*
X140270724Y-80668874D01*
X140268670Y-80477592D01*
X140295301Y-80309927D01*
X140348999Y-80174033D01*
X140377753Y-80130319D01*
X140477909Y-80037802D01*
X140605463Y-79977881D01*
X140748163Y-79953015D01*
X140893760Y-79965661D01*
X141004438Y-80004609D01*
X141099616Y-80070245D01*
X141177406Y-80156301D01*
X141178751Y-80158315D01*
X141210343Y-80211430D01*
X141230873Y-80264840D01*
X141243305Y-80332246D01*
X141250603Y-80427347D01*
X141253818Y-80505334D01*
X141255156Y-80576056D01*
X141006186Y-80576056D01*
X141003753Y-80505652D01*
X140994920Y-80411932D01*
X140979336Y-80351786D01*
X140951234Y-80308994D01*
X140924914Y-80283998D01*
X140831608Y-80231662D01*
X140733980Y-80224667D01*
X140643058Y-80262324D01*
X140597598Y-80304521D01*
X140564838Y-80347044D01*
X140545677Y-80387733D01*
X140537267Y-80440686D01*
X140536763Y-80520003D01*
X140539355Y-80593050D01*
X140544929Y-80697399D01*
X140553766Y-80765080D01*
X140569693Y-80809226D01*
X140596538Y-80842969D01*
X140617811Y-80862254D01*
X140706794Y-80912914D01*
X140802789Y-80915440D01*
X140883281Y-80885433D01*
X140951947Y-80822769D01*
X140992856Y-80719832D01*
X141006186Y-80576056D01*
X141255156Y-80576056D01*
X141256754Y-80660418D01*
X141251740Y-80776400D01*
X141236717Y-80863633D01*
X141209624Y-80932470D01*
X141168400Y-80993263D01*
X141153115Y-81011314D01*
X141057546Y-81101254D01*
X140955039Y-81153789D01*
X140829679Y-81175799D01*
X140768550Y-81177598D01*
X140606753Y-81158432D01*
X140606753Y-81158432D01*
G37*
X140606753Y-81158432D02*
X140476478Y-81100837D01*
X140377581Y-81004666D01*
X140309918Y-80869771D01*
X140273345Y-80696004D01*
X140270724Y-80668874D01*
X140268670Y-80477592D01*
X140295301Y-80309927D01*
X140348999Y-80174033D01*
X140377753Y-80130319D01*
X140477909Y-80037802D01*
X140605463Y-79977881D01*
X140748163Y-79953015D01*
X140893760Y-79965661D01*
X141004438Y-80004609D01*
X141099616Y-80070245D01*
X141177406Y-80156301D01*
X141178751Y-80158315D01*
X141210343Y-80211430D01*
X141230873Y-80264840D01*
X141243305Y-80332246D01*
X141250603Y-80427347D01*
X141253818Y-80505334D01*
X141255156Y-80576056D01*
X141006186Y-80576056D01*
X141003753Y-80505652D01*
X140994920Y-80411932D01*
X140979336Y-80351786D01*
X140951234Y-80308994D01*
X140924914Y-80283998D01*
X140831608Y-80231662D01*
X140733980Y-80224667D01*
X140643058Y-80262324D01*
X140597598Y-80304521D01*
X140564838Y-80347044D01*
X140545677Y-80387733D01*
X140537267Y-80440686D01*
X140536763Y-80520003D01*
X140539355Y-80593050D01*
X140544929Y-80697399D01*
X140553766Y-80765080D01*
X140569693Y-80809226D01*
X140596538Y-80842969D01*
X140617811Y-80862254D01*
X140706794Y-80912914D01*
X140802789Y-80915440D01*
X140883281Y-80885433D01*
X140951947Y-80822769D01*
X140992856Y-80719832D01*
X141006186Y-80576056D01*
X141255156Y-80576056D01*
X141256754Y-80660418D01*
X141251740Y-80776400D01*
X141236717Y-80863633D01*
X141209624Y-80932470D01*
X141168400Y-80993263D01*
X141153115Y-81011314D01*
X141057546Y-81101254D01*
X140955039Y-81153789D01*
X140829679Y-81175799D01*
X140768550Y-81177598D01*
X140606753Y-81158432D01*
G36*
X131554693Y-79297216D02*
G01*
X131435663Y-79266269D01*
X131335979Y-79202400D01*
X131287712Y-79154687D01*
X131208592Y-79041894D01*
X131163248Y-78911050D01*
X131147670Y-78750208D01*
X131147590Y-78737206D01*
X131147451Y-78606470D01*
X131899909Y-78606470D01*
X131883870Y-78537990D01*
X131854909Y-78475969D01*
X131804222Y-78411346D01*
X131793621Y-78401029D01*
X131702506Y-78345195D01*
X131598600Y-78335725D01*
X131479000Y-78372460D01*
X131458726Y-78382353D01*
X131396544Y-78412426D01*
X131354894Y-78429560D01*
X131347627Y-78431145D01*
X131322260Y-78415758D01*
X131273880Y-78378113D01*
X131249321Y-78357541D01*
X131198430Y-78310286D01*
X131181719Y-78279083D01*
X131193317Y-78250380D01*
X131199517Y-78242532D01*
X131241507Y-78208181D01*
X131310794Y-78166435D01*
X131359118Y-78142065D01*
X131496289Y-78099127D01*
X131648153Y-78085214D01*
X131791976Y-78101700D01*
X131832255Y-78113504D01*
X131956922Y-78180311D01*
X132049329Y-78283108D01*
X132110010Y-78422895D01*
X132139502Y-78600670D01*
X132142740Y-78693627D01*
X132133286Y-78828967D01*
X131894510Y-78828967D01*
X131871416Y-78818962D01*
X131809338Y-78811112D01*
X131719086Y-78806479D01*
X131657942Y-78805686D01*
X131547960Y-78806451D01*
X131478543Y-78810030D01*
X131440462Y-78818351D01*
X131424485Y-78833343D01*
X131421373Y-78855097D01*
X131442722Y-78922108D01*
X131496471Y-78988336D01*
X131567178Y-79039168D01*
X131637911Y-79059962D01*
X131733984Y-79041516D01*
X131817151Y-78988189D01*
X131874814Y-78911323D01*
X131894510Y-78828967D01*
X132133286Y-78828967D01*
X132128972Y-78890709D01*
X132086480Y-79047729D01*
X132014365Y-79165931D01*
X131911727Y-79246560D01*
X131777668Y-79290861D01*
X131705043Y-79299393D01*
X131554693Y-79297216D01*
X131554693Y-79297216D01*
G37*
X131554693Y-79297216D02*
X131435663Y-79266269D01*
X131335979Y-79202400D01*
X131287712Y-79154687D01*
X131208592Y-79041894D01*
X131163248Y-78911050D01*
X131147670Y-78750208D01*
X131147590Y-78737206D01*
X131147451Y-78606470D01*
X131899909Y-78606470D01*
X131883870Y-78537990D01*
X131854909Y-78475969D01*
X131804222Y-78411346D01*
X131793621Y-78401029D01*
X131702506Y-78345195D01*
X131598600Y-78335725D01*
X131479000Y-78372460D01*
X131458726Y-78382353D01*
X131396544Y-78412426D01*
X131354894Y-78429560D01*
X131347627Y-78431145D01*
X131322260Y-78415758D01*
X131273880Y-78378113D01*
X131249321Y-78357541D01*
X131198430Y-78310286D01*
X131181719Y-78279083D01*
X131193317Y-78250380D01*
X131199517Y-78242532D01*
X131241507Y-78208181D01*
X131310794Y-78166435D01*
X131359118Y-78142065D01*
X131496289Y-78099127D01*
X131648153Y-78085214D01*
X131791976Y-78101700D01*
X131832255Y-78113504D01*
X131956922Y-78180311D01*
X132049329Y-78283108D01*
X132110010Y-78422895D01*
X132139502Y-78600670D01*
X132142740Y-78693627D01*
X132133286Y-78828967D01*
X131894510Y-78828967D01*
X131871416Y-78818962D01*
X131809338Y-78811112D01*
X131719086Y-78806479D01*
X131657942Y-78805686D01*
X131547960Y-78806451D01*
X131478543Y-78810030D01*
X131440462Y-78818351D01*
X131424485Y-78833343D01*
X131421373Y-78855097D01*
X131442722Y-78922108D01*
X131496471Y-78988336D01*
X131567178Y-79039168D01*
X131637911Y-79059962D01*
X131733984Y-79041516D01*
X131817151Y-78988189D01*
X131874814Y-78911323D01*
X131894510Y-78828967D01*
X132133286Y-78828967D01*
X132128972Y-78890709D01*
X132086480Y-79047729D01*
X132014365Y-79165931D01*
X131911727Y-79246560D01*
X131777668Y-79290861D01*
X131705043Y-79299393D01*
X131554693Y-79297216D01*
G36*
X132341554Y-79304117D02*
G01*
X132245823Y-79285245D01*
X132191323Y-79257301D01*
X132133992Y-79210877D01*
X132215559Y-79107889D01*
X132265850Y-79045521D01*
X132299999Y-79015093D01*
X132333937Y-79010445D01*
X132383594Y-79025414D01*
X132406904Y-79033883D01*
X132501937Y-79046378D01*
X132588968Y-79019594D01*
X132652862Y-78959085D01*
X132663241Y-78939792D01*
X132674544Y-78888686D01*
X132683268Y-78794500D01*
X132689003Y-78663911D01*
X132691340Y-78503595D01*
X132691373Y-78480789D01*
X132691373Y-78083529D01*
X132965295Y-78083529D01*
X132965295Y-79303725D01*
X132828334Y-79303725D01*
X132749362Y-79301663D01*
X132708221Y-79292487D01*
X132693008Y-79271710D01*
X132691373Y-79252114D01*
X132691373Y-79200503D01*
X132625760Y-79252114D01*
X132550525Y-79287325D01*
X132449456Y-79304735D01*
X132341554Y-79304117D01*
X132341554Y-79304117D01*
G37*
X132341554Y-79304117D02*
X132245823Y-79285245D01*
X132191323Y-79257301D01*
X132133992Y-79210877D01*
X132215559Y-79107889D01*
X132265850Y-79045521D01*
X132299999Y-79015093D01*
X132333937Y-79010445D01*
X132383594Y-79025414D01*
X132406904Y-79033883D01*
X132501937Y-79046378D01*
X132588968Y-79019594D01*
X132652862Y-78959085D01*
X132663241Y-78939792D01*
X132674544Y-78888686D01*
X132683268Y-78794500D01*
X132689003Y-78663911D01*
X132691340Y-78503595D01*
X132691373Y-78480789D01*
X132691373Y-78083529D01*
X132965295Y-78083529D01*
X132965295Y-79303725D01*
X132828334Y-79303725D01*
X132749362Y-79301663D01*
X132708221Y-79292487D01*
X132693008Y-79271710D01*
X132691373Y-79252114D01*
X132691373Y-79200503D01*
X132625760Y-79252114D01*
X132550525Y-79287325D01*
X132449456Y-79304735D01*
X132341554Y-79304117D01*
G36*
X133523541Y-79296331D02*
G01*
X133418580Y-79270837D01*
X133388239Y-79257331D01*
X133329427Y-79221954D01*
X133284291Y-79182110D01*
X133250894Y-79130880D01*
X133227299Y-79061346D01*
X133211567Y-78966591D01*
X133201761Y-78839695D01*
X133195943Y-78673742D01*
X133193734Y-78562892D01*
X133185604Y-78083529D01*
X133324469Y-78083529D01*
X133408713Y-78087062D01*
X133452116Y-78099134D01*
X133463334Y-78119406D01*
X133469256Y-78141326D01*
X133495734Y-78137135D01*
X133531814Y-78119559D01*
X133622138Y-78092618D01*
X133738223Y-78085358D01*
X133860320Y-78097233D01*
X133968679Y-78127695D01*
X133978398Y-78131923D01*
X134077432Y-78201495D01*
X134142719Y-78298211D01*
X134172760Y-78411262D01*
X134170465Y-78451878D01*
X133925367Y-78451878D01*
X133903771Y-78397218D01*
X133839741Y-78358048D01*
X133736435Y-78337026D01*
X133681226Y-78334234D01*
X133589218Y-78341380D01*
X133528059Y-78369152D01*
X133513138Y-78382353D01*
X133472713Y-78454171D01*
X133463334Y-78519314D01*
X133463334Y-78606470D01*
X133584731Y-78606470D01*
X133725847Y-78599278D01*
X133824827Y-78576655D01*
X133887367Y-78537036D01*
X133901369Y-78519372D01*
X133925367Y-78451878D01*
X134170465Y-78451878D01*
X134166059Y-78529843D01*
X134121120Y-78643145D01*
X134059804Y-78719715D01*
X134022668Y-78752819D01*
X133986313Y-78774575D01*
X133939010Y-78787839D01*
X133869027Y-78795472D01*
X133764636Y-78800330D01*
X133723230Y-78801727D01*
X133463334Y-78810220D01*
X133463715Y-78888884D01*
X133473781Y-78971572D01*
X133510171Y-79021569D01*
X133583689Y-79053511D01*
X133585661Y-79054080D01*
X133689895Y-79066639D01*
X133791892Y-79050234D01*
X133867695Y-79010343D01*
X133898110Y-78990646D01*
X133930868Y-78993371D01*
X133981279Y-79021909D01*
X134010881Y-79042050D01*
X134068782Y-79085081D01*
X134104648Y-79117338D01*
X134110403Y-79126573D01*
X134086705Y-79174364D01*
X134016687Y-79231438D01*
X133986275Y-79250695D01*
X133898845Y-79283860D01*
X133781017Y-79302650D01*
X133650134Y-79306871D01*
X133523541Y-79296331D01*
X133523541Y-79296331D01*
G37*
X133523541Y-79296331D02*
X133418580Y-79270837D01*
X133388239Y-79257331D01*
X133329427Y-79221954D01*
X133284291Y-79182110D01*
X133250894Y-79130880D01*
X133227299Y-79061346D01*
X133211567Y-78966591D01*
X133201761Y-78839695D01*
X133195943Y-78673742D01*
X133193734Y-78562892D01*
X133185604Y-78083529D01*
X133324469Y-78083529D01*
X133408713Y-78087062D01*
X133452116Y-78099134D01*
X133463334Y-78119406D01*
X133469256Y-78141326D01*
X133495734Y-78137135D01*
X133531814Y-78119559D01*
X133622138Y-78092618D01*
X133738223Y-78085358D01*
X133860320Y-78097233D01*
X133968679Y-78127695D01*
X133978398Y-78131923D01*
X134077432Y-78201495D01*
X134142719Y-78298211D01*
X134172760Y-78411262D01*
X134170465Y-78451878D01*
X133925367Y-78451878D01*
X133903771Y-78397218D01*
X133839741Y-78358048D01*
X133736435Y-78337026D01*
X133681226Y-78334234D01*
X133589218Y-78341380D01*
X133528059Y-78369152D01*
X133513138Y-78382353D01*
X133472713Y-78454171D01*
X133463334Y-78519314D01*
X133463334Y-78606470D01*
X133584731Y-78606470D01*
X133725847Y-78599278D01*
X133824827Y-78576655D01*
X133887367Y-78537036D01*
X133901369Y-78519372D01*
X133925367Y-78451878D01*
X134170465Y-78451878D01*
X134166059Y-78529843D01*
X134121120Y-78643145D01*
X134059804Y-78719715D01*
X134022668Y-78752819D01*
X133986313Y-78774575D01*
X133939010Y-78787839D01*
X133869027Y-78795472D01*
X133764636Y-78800330D01*
X133723230Y-78801727D01*
X133463334Y-78810220D01*
X133463715Y-78888884D01*
X133473781Y-78971572D01*
X133510171Y-79021569D01*
X133583689Y-79053511D01*
X133585661Y-79054080D01*
X133689895Y-79066639D01*
X133791892Y-79050234D01*
X133867695Y-79010343D01*
X133898110Y-78990646D01*
X133930868Y-78993371D01*
X133981279Y-79021909D01*
X134010881Y-79042050D01*
X134068782Y-79085081D01*
X134104648Y-79117338D01*
X134110403Y-79126573D01*
X134086705Y-79174364D01*
X134016687Y-79231438D01*
X133986275Y-79250695D01*
X133898845Y-79283860D01*
X133781017Y-79302650D01*
X133650134Y-79306871D01*
X133523541Y-79296331D01*
G36*
X135022472Y-79298668D02*
G01*
X134923986Y-79291274D01*
X134795224Y-78905294D01*
X134666463Y-78519314D01*
X134626089Y-78656274D01*
X134601793Y-78740917D01*
X134569833Y-78855303D01*
X134535321Y-78981037D01*
X134517072Y-79048480D01*
X134448429Y-79303725D01*
X134165227Y-79303725D01*
X134249878Y-79036029D01*
X134291565Y-78904362D01*
X134341926Y-78745542D01*
X134394519Y-78579872D01*
X134441470Y-78432157D01*
X134548411Y-78095980D01*
X134779339Y-78080956D01*
X134841950Y-78287684D01*
X134880562Y-78416104D01*
X134922700Y-78557678D01*
X134959528Y-78682715D01*
X134960982Y-78687691D01*
X134988489Y-78772414D01*
X135012758Y-78830222D01*
X135029757Y-78852082D01*
X135033250Y-78849554D01*
X135045510Y-78815664D01*
X135068805Y-78743070D01*
X135100300Y-78640899D01*
X135137158Y-78518280D01*
X135157101Y-78450833D01*
X135265105Y-78083529D01*
X135494321Y-78083529D01*
X135677561Y-78662500D01*
X135729037Y-78824909D01*
X135775930Y-78972398D01*
X135816023Y-79098040D01*
X135847103Y-79194905D01*
X135866955Y-79256066D01*
X135872989Y-79273935D01*
X135868212Y-79292232D01*
X135830703Y-79300245D01*
X135752645Y-79299443D01*
X135740426Y-79298837D01*
X135595674Y-79291274D01*
X135500870Y-78942647D01*
X135466023Y-78815503D01*
X135434883Y-78703735D01*
X135410191Y-78617047D01*
X135394688Y-78565144D01*
X135391824Y-78556682D01*
X135379954Y-78566413D01*
X135356017Y-78616828D01*
X135322761Y-78701065D01*
X135282936Y-78812259D01*
X135249270Y-78912703D01*
X135120959Y-79306061D01*
X135022472Y-79298668D01*
X135022472Y-79298668D01*
G37*
X135022472Y-79298668D02*
X134923986Y-79291274D01*
X134795224Y-78905294D01*
X134666463Y-78519314D01*
X134626089Y-78656274D01*
X134601793Y-78740917D01*
X134569833Y-78855303D01*
X134535321Y-78981037D01*
X134517072Y-79048480D01*
X134448429Y-79303725D01*
X134165227Y-79303725D01*
X134249878Y-79036029D01*
X134291565Y-78904362D01*
X134341926Y-78745542D01*
X134394519Y-78579872D01*
X134441470Y-78432157D01*
X134548411Y-78095980D01*
X134779339Y-78080956D01*
X134841950Y-78287684D01*
X134880562Y-78416104D01*
X134922700Y-78557678D01*
X134959528Y-78682715D01*
X134960982Y-78687691D01*
X134988489Y-78772414D01*
X135012758Y-78830222D01*
X135029757Y-78852082D01*
X135033250Y-78849554D01*
X135045510Y-78815664D01*
X135068805Y-78743070D01*
X135100300Y-78640899D01*
X135137158Y-78518280D01*
X135157101Y-78450833D01*
X135265105Y-78083529D01*
X135494321Y-78083529D01*
X135677561Y-78662500D01*
X135729037Y-78824909D01*
X135775930Y-78972398D01*
X135816023Y-79098040D01*
X135847103Y-79194905D01*
X135866955Y-79256066D01*
X135872989Y-79273935D01*
X135868212Y-79292232D01*
X135830703Y-79300245D01*
X135752645Y-79299443D01*
X135740426Y-79298837D01*
X135595674Y-79291274D01*
X135500870Y-78942647D01*
X135466023Y-78815503D01*
X135434883Y-78703735D01*
X135410191Y-78617047D01*
X135394688Y-78565144D01*
X135391824Y-78556682D01*
X135379954Y-78566413D01*
X135356017Y-78616828D01*
X135322761Y-78701065D01*
X135282936Y-78812259D01*
X135249270Y-78912703D01*
X135120959Y-79306061D01*
X135022472Y-79298668D01*
G36*
X135978432Y-78083529D02*
G01*
X136115393Y-78083529D01*
X136194889Y-78085860D01*
X136236292Y-78095512D01*
X136251199Y-78116475D01*
X136252353Y-78130649D01*
X136254867Y-78159073D01*
X136270720Y-78164525D01*
X136312379Y-78147002D01*
X136344776Y-78130649D01*
X136469151Y-78091897D01*
X136604354Y-78089654D01*
X136714274Y-78118556D01*
X136816634Y-78188381D01*
X136894660Y-78291445D01*
X136937386Y-78413011D01*
X136938474Y-78419808D01*
X136944822Y-78493968D01*
X136947979Y-78600430D01*
X136947725Y-78680948D01*
X136675711Y-78680948D01*
X136669410Y-78573930D01*
X136655075Y-78485722D01*
X136635669Y-78435910D01*
X136562254Y-78367838D01*
X136475086Y-78343436D01*
X136385196Y-78363169D01*
X136308383Y-78422032D01*
X136279292Y-78461621D01*
X136262283Y-78508862D01*
X136254316Y-78577819D01*
X136252353Y-78681393D01*
X136255866Y-78783961D01*
X136265143Y-78874079D01*
X136278294Y-78934387D01*
X136280486Y-78939792D01*
X136333522Y-79004060D01*
X136410933Y-79039344D01*
X136497546Y-79045041D01*
X136578193Y-79020547D01*
X136637703Y-78965258D01*
X136643876Y-78954257D01*
X136663199Y-78887173D01*
X136673726Y-78790716D01*
X136675711Y-78680948D01*
X136947725Y-78680948D01*
X136947596Y-78721775D01*
X136945806Y-78787082D01*
X136933627Y-78948645D01*
X136908315Y-79069947D01*
X136866207Y-79159621D01*
X136803641Y-79226301D01*
X136742900Y-79265443D01*
X136658036Y-79292960D01*
X136552485Y-79302397D01*
X136444402Y-79294710D01*
X136351942Y-79270854D01*
X136303090Y-79242315D01*
X136252353Y-79196399D01*
X136252353Y-79776863D01*
X135978432Y-79776863D01*
X135978432Y-78083529D01*
X135978432Y-78083529D01*
G37*
X135978432Y-78083529D02*
X136115393Y-78083529D01*
X136194889Y-78085860D01*
X136236292Y-78095512D01*
X136251199Y-78116475D01*
X136252353Y-78130649D01*
X136254867Y-78159073D01*
X136270720Y-78164525D01*
X136312379Y-78147002D01*
X136344776Y-78130649D01*
X136469151Y-78091897D01*
X136604354Y-78089654D01*
X136714274Y-78118556D01*
X136816634Y-78188381D01*
X136894660Y-78291445D01*
X136937386Y-78413011D01*
X136938474Y-78419808D01*
X136944822Y-78493968D01*
X136947979Y-78600430D01*
X136947725Y-78680948D01*
X136675711Y-78680948D01*
X136669410Y-78573930D01*
X136655075Y-78485722D01*
X136635669Y-78435910D01*
X136562254Y-78367838D01*
X136475086Y-78343436D01*
X136385196Y-78363169D01*
X136308383Y-78422032D01*
X136279292Y-78461621D01*
X136262283Y-78508862D01*
X136254316Y-78577819D01*
X136252353Y-78681393D01*
X136255866Y-78783961D01*
X136265143Y-78874079D01*
X136278294Y-78934387D01*
X136280486Y-78939792D01*
X136333522Y-79004060D01*
X136410933Y-79039344D01*
X136497546Y-79045041D01*
X136578193Y-79020547D01*
X136637703Y-78965258D01*
X136643876Y-78954257D01*
X136663199Y-78887173D01*
X136673726Y-78790716D01*
X136675711Y-78680948D01*
X136947725Y-78680948D01*
X136947596Y-78721775D01*
X136945806Y-78787082D01*
X136933627Y-78948645D01*
X136908315Y-79069947D01*
X136866207Y-79159621D01*
X136803641Y-79226301D01*
X136742900Y-79265443D01*
X136658036Y-79292960D01*
X136552485Y-79302397D01*
X136444402Y-79294710D01*
X136351942Y-79270854D01*
X136303090Y-79242315D01*
X136252353Y-79196399D01*
X136252353Y-79776863D01*
X135978432Y-79776863D01*
X135978432Y-78083529D01*
G36*
X137547236Y-79301079D02*
G01*
X137509970Y-79289909D01*
X137497957Y-79265367D01*
X137497451Y-79254288D01*
X137495296Y-79223428D01*
X137480449Y-79218583D01*
X137440343Y-79239740D01*
X137416520Y-79254194D01*
X137341362Y-79285150D01*
X137251594Y-79300456D01*
X137157471Y-79301633D01*
X137069246Y-79290201D01*
X136997174Y-79267680D01*
X136951508Y-79235591D01*
X136942502Y-79195455D01*
X136947047Y-79184585D01*
X136980179Y-79139466D01*
X137031555Y-79083974D01*
X137040848Y-79075004D01*
X137089818Y-79033755D01*
X137132069Y-79020428D01*
X137191159Y-79029729D01*
X137214831Y-79035910D01*
X137288496Y-79050754D01*
X137340290Y-79044079D01*
X137384031Y-79020535D01*
X137424098Y-78988939D01*
X137453608Y-78949202D01*
X137474116Y-78893748D01*
X137487176Y-78814997D01*
X137494344Y-78705371D01*
X137497176Y-78557294D01*
X137497451Y-78467889D01*
X137497451Y-78083529D01*
X137746471Y-78083529D01*
X137746471Y-79303725D01*
X137621961Y-79303725D01*
X137547236Y-79301079D01*
X137547236Y-79301079D01*
G37*
X137547236Y-79301079D02*
X137509970Y-79289909D01*
X137497957Y-79265367D01*
X137497451Y-79254288D01*
X137495296Y-79223428D01*
X137480449Y-79218583D01*
X137440343Y-79239740D01*
X137416520Y-79254194D01*
X137341362Y-79285150D01*
X137251594Y-79300456D01*
X137157471Y-79301633D01*
X137069246Y-79290201D01*
X136997174Y-79267680D01*
X136951508Y-79235591D01*
X136942502Y-79195455D01*
X136947047Y-79184585D01*
X136980179Y-79139466D01*
X137031555Y-79083974D01*
X137040848Y-79075004D01*
X137089818Y-79033755D01*
X137132069Y-79020428D01*
X137191159Y-79029729D01*
X137214831Y-79035910D01*
X137288496Y-79050754D01*
X137340290Y-79044079D01*
X137384031Y-79020535D01*
X137424098Y-78988939D01*
X137453608Y-78949202D01*
X137474116Y-78893748D01*
X137487176Y-78814997D01*
X137494344Y-78705371D01*
X137497176Y-78557294D01*
X137497451Y-78467889D01*
X137497451Y-78083529D01*
X137746471Y-78083529D01*
X137746471Y-79303725D01*
X137621961Y-79303725D01*
X137547236Y-79301079D01*
G36*
X138321280Y-79294078D02*
G01*
X138204130Y-79262820D01*
X138114949Y-79206163D01*
X138052016Y-79131955D01*
X138032452Y-79100284D01*
X138018008Y-79067109D01*
X138007911Y-79024671D01*
X138001385Y-78965212D01*
X137997658Y-78880971D01*
X137995954Y-78764190D01*
X137995500Y-78607110D01*
X137995491Y-78565435D01*
X137995491Y-78083529D01*
X138115020Y-78083529D01*
X138191261Y-78088869D01*
X138247634Y-78102396D01*
X138261758Y-78110738D01*
X138300370Y-78125136D01*
X138339808Y-78110738D01*
X138404738Y-78092763D01*
X138499055Y-78085528D01*
X138603593Y-78088667D01*
X138699189Y-78101814D01*
X138755000Y-78118682D01*
X138863002Y-78188014D01*
X138930497Y-78284228D01*
X138960841Y-78412156D01*
X138961123Y-78415441D01*
X138958460Y-78472192D01*
X138717647Y-78472192D01*
X138696595Y-78407642D01*
X138662303Y-78371314D01*
X138593468Y-78343838D01*
X138502610Y-78332871D01*
X138409958Y-78338269D01*
X138335744Y-78359890D01*
X138314951Y-78373761D01*
X138278619Y-78437857D01*
X138269412Y-78510722D01*
X138269412Y-78606470D01*
X138407173Y-78606470D01*
X138538047Y-78596395D01*
X138637259Y-78567852D01*
X138698977Y-78523361D01*
X138717647Y-78472192D01*
X138958460Y-78472192D01*
X138954564Y-78555210D01*
X138908466Y-78665718D01*
X138821800Y-78749288D01*
X138809821Y-78756890D01*
X138758345Y-78781643D01*
X138694632Y-78796632D01*
X138605565Y-78803918D01*
X138499755Y-78805593D01*
X138269412Y-78805686D01*
X138269412Y-78902245D01*
X138279183Y-78977164D01*
X138304116Y-79027356D01*
X138307035Y-79030028D01*
X138362519Y-79051985D01*
X138446273Y-79060495D01*
X138538833Y-79056313D01*
X138620730Y-79040191D01*
X138669327Y-79016010D01*
X138695659Y-78996641D01*
X138723465Y-78992943D01*
X138761839Y-79008812D01*
X138819875Y-79048145D01*
X138906669Y-79114836D01*
X138914635Y-79121084D01*
X138910553Y-79144200D01*
X138876499Y-79182648D01*
X138824740Y-79225373D01*
X138767545Y-79261321D01*
X138749575Y-79269809D01*
X138684028Y-79286748D01*
X138587980Y-79298830D01*
X138480671Y-79303677D01*
X138475653Y-79303687D01*
X138321280Y-79294078D01*
X138321280Y-79294078D01*
G37*
X138321280Y-79294078D02*
X138204130Y-79262820D01*
X138114949Y-79206163D01*
X138052016Y-79131955D01*
X138032452Y-79100284D01*
X138018008Y-79067109D01*
X138007911Y-79024671D01*
X138001385Y-78965212D01*
X137997658Y-78880971D01*
X137995954Y-78764190D01*
X137995500Y-78607110D01*
X137995491Y-78565435D01*
X137995491Y-78083529D01*
X138115020Y-78083529D01*
X138191261Y-78088869D01*
X138247634Y-78102396D01*
X138261758Y-78110738D01*
X138300370Y-78125136D01*
X138339808Y-78110738D01*
X138404738Y-78092763D01*
X138499055Y-78085528D01*
X138603593Y-78088667D01*
X138699189Y-78101814D01*
X138755000Y-78118682D01*
X138863002Y-78188014D01*
X138930497Y-78284228D01*
X138960841Y-78412156D01*
X138961123Y-78415441D01*
X138958460Y-78472192D01*
X138717647Y-78472192D01*
X138696595Y-78407642D01*
X138662303Y-78371314D01*
X138593468Y-78343838D01*
X138502610Y-78332871D01*
X138409958Y-78338269D01*
X138335744Y-78359890D01*
X138314951Y-78373761D01*
X138278619Y-78437857D01*
X138269412Y-78510722D01*
X138269412Y-78606470D01*
X138407173Y-78606470D01*
X138538047Y-78596395D01*
X138637259Y-78567852D01*
X138698977Y-78523361D01*
X138717647Y-78472192D01*
X138958460Y-78472192D01*
X138954564Y-78555210D01*
X138908466Y-78665718D01*
X138821800Y-78749288D01*
X138809821Y-78756890D01*
X138758345Y-78781643D01*
X138694632Y-78796632D01*
X138605565Y-78803918D01*
X138499755Y-78805593D01*
X138269412Y-78805686D01*
X138269412Y-78902245D01*
X138279183Y-78977164D01*
X138304116Y-79027356D01*
X138307035Y-79030028D01*
X138362519Y-79051985D01*
X138446273Y-79060495D01*
X138538833Y-79056313D01*
X138620730Y-79040191D01*
X138669327Y-79016010D01*
X138695659Y-78996641D01*
X138723465Y-78992943D01*
X138761839Y-79008812D01*
X138819875Y-79048145D01*
X138906669Y-79114836D01*
X138914635Y-79121084D01*
X138910553Y-79144200D01*
X138876499Y-79182648D01*
X138824740Y-79225373D01*
X138767545Y-79261321D01*
X138749575Y-79269809D01*
X138684028Y-79286748D01*
X138587980Y-79298830D01*
X138480671Y-79303677D01*
X138475653Y-79303687D01*
X138321280Y-79294078D01*
G36*
X139360091Y-81150440D02*
G01*
X139307588Y-81124501D01*
X139242842Y-81079300D01*
X139195653Y-81030009D01*
X139163335Y-80968115D01*
X139143203Y-80885104D01*
X139132570Y-80772462D01*
X139128753Y-80621676D01*
X139128530Y-80556851D01*
X139129182Y-80414779D01*
X139131888Y-80313243D01*
X139137776Y-80242985D01*
X139147973Y-80194744D01*
X139163606Y-80159262D01*
X139179872Y-80135057D01*
X139283705Y-80032071D01*
X139405979Y-79970126D01*
X139537886Y-79951494D01*
X139670616Y-79978451D01*
X139712667Y-79997514D01*
X139813334Y-80049985D01*
X139813334Y-79227741D01*
X139739865Y-79265733D01*
X139643059Y-79295128D01*
X139524072Y-79302658D01*
X139405255Y-79288755D01*
X139315527Y-79257524D01*
X139241101Y-79198046D01*
X139177510Y-79112934D01*
X139172729Y-79104195D01*
X139152563Y-79063034D01*
X139137835Y-79021546D01*
X139127697Y-78971287D01*
X139121301Y-78903816D01*
X139117799Y-78810691D01*
X139116342Y-78683469D01*
X139116079Y-78540299D01*
X139116079Y-78083529D01*
X139390000Y-78083529D01*
X139390000Y-78925769D01*
X139466617Y-78990237D01*
X139546207Y-79041806D01*
X139621578Y-79051182D01*
X139697367Y-79027053D01*
X139737759Y-79003426D01*
X139767821Y-78969773D01*
X139789203Y-78918913D01*
X139803550Y-78843666D01*
X139812510Y-78736854D01*
X139817730Y-78591296D01*
X139819569Y-78494412D01*
X139825785Y-78095980D01*
X139956520Y-78088453D01*
X140087255Y-78080927D01*
X140087255Y-80553418D01*
X139813334Y-80553418D01*
X139806350Y-80415577D01*
X139782818Y-80319893D01*
X139738865Y-80260359D01*
X139670618Y-80230971D01*
X139601667Y-80225098D01*
X139523614Y-80231846D01*
X139471811Y-80258406D01*
X139439417Y-80293501D01*
X139413916Y-80331248D01*
X139398735Y-80373300D01*
X139391981Y-80432221D01*
X139391759Y-80520572D01*
X139394032Y-80594552D01*
X139399251Y-80706000D01*
X139407021Y-80779167D01*
X139420105Y-80825578D01*
X139441268Y-80856756D01*
X139461240Y-80874777D01*
X139544686Y-80914075D01*
X139643449Y-80920421D01*
X139700159Y-80906884D01*
X139756308Y-80858767D01*
X139793501Y-80765167D01*
X139811528Y-80626746D01*
X139813334Y-80553418D01*
X140087255Y-80553418D01*
X140087255Y-81171372D01*
X139950295Y-81171372D01*
X139868065Y-81168121D01*
X139825640Y-81156574D01*
X139813339Y-81134048D01*
X139813334Y-81133380D01*
X139807626Y-81111319D01*
X139782453Y-81113824D01*
X139732402Y-81138065D01*
X139615781Y-81175149D01*
X139484571Y-81179047D01*
X139360091Y-81150440D01*
X139360091Y-81150440D01*
G37*
X139360091Y-81150440D02*
X139307588Y-81124501D01*
X139242842Y-81079300D01*
X139195653Y-81030009D01*
X139163335Y-80968115D01*
X139143203Y-80885104D01*
X139132570Y-80772462D01*
X139128753Y-80621676D01*
X139128530Y-80556851D01*
X139129182Y-80414779D01*
X139131888Y-80313243D01*
X139137776Y-80242985D01*
X139147973Y-80194744D01*
X139163606Y-80159262D01*
X139179872Y-80135057D01*
X139283705Y-80032071D01*
X139405979Y-79970126D01*
X139537886Y-79951494D01*
X139670616Y-79978451D01*
X139712667Y-79997514D01*
X139813334Y-80049985D01*
X139813334Y-79227741D01*
X139739865Y-79265733D01*
X139643059Y-79295128D01*
X139524072Y-79302658D01*
X139405255Y-79288755D01*
X139315527Y-79257524D01*
X139241101Y-79198046D01*
X139177510Y-79112934D01*
X139172729Y-79104195D01*
X139152563Y-79063034D01*
X139137835Y-79021546D01*
X139127697Y-78971287D01*
X139121301Y-78903816D01*
X139117799Y-78810691D01*
X139116342Y-78683469D01*
X139116079Y-78540299D01*
X139116079Y-78083529D01*
X139390000Y-78083529D01*
X139390000Y-78925769D01*
X139466617Y-78990237D01*
X139546207Y-79041806D01*
X139621578Y-79051182D01*
X139697367Y-79027053D01*
X139737759Y-79003426D01*
X139767821Y-78969773D01*
X139789203Y-78918913D01*
X139803550Y-78843666D01*
X139812510Y-78736854D01*
X139817730Y-78591296D01*
X139819569Y-78494412D01*
X139825785Y-78095980D01*
X139956520Y-78088453D01*
X140087255Y-78080927D01*
X140087255Y-80553418D01*
X139813334Y-80553418D01*
X139806350Y-80415577D01*
X139782818Y-80319893D01*
X139738865Y-80260359D01*
X139670618Y-80230971D01*
X139601667Y-80225098D01*
X139523614Y-80231846D01*
X139471811Y-80258406D01*
X139439417Y-80293501D01*
X139413916Y-80331248D01*
X139398735Y-80373300D01*
X139391981Y-80432221D01*
X139391759Y-80520572D01*
X139394032Y-80594552D01*
X139399251Y-80706000D01*
X139407021Y-80779167D01*
X139420105Y-80825578D01*
X139441268Y-80856756D01*
X139461240Y-80874777D01*
X139544686Y-80914075D01*
X139643449Y-80920421D01*
X139700159Y-80906884D01*
X139756308Y-80858767D01*
X139793501Y-80765167D01*
X139811528Y-80626746D01*
X139813334Y-80553418D01*
X140087255Y-80553418D01*
X140087255Y-81171372D01*
X139950295Y-81171372D01*
X139868065Y-81168121D01*
X139825640Y-81156574D01*
X139813339Y-81134048D01*
X139813334Y-81133380D01*
X139807626Y-81111319D01*
X139782453Y-81113824D01*
X139732402Y-81138065D01*
X139615781Y-81175149D01*
X139484571Y-81179047D01*
X139360091Y-81150440D01*
D11*
X122070000Y-105210000D02*
X122070000Y-105710000D01*
X119790000Y-105210000D02*
X119790000Y-105710000D01*
X119540000Y-93710000D02*
X119540000Y-93210000D01*
X121820000Y-93710000D02*
X121820000Y-93210000D01*
D12*
X175755000Y-122985000D02*
X177155000Y-122985000D01*
X175755000Y-117885000D02*
X171605000Y-117885000D01*
X175755000Y-123035000D02*
X171605000Y-123035000D01*
X175755000Y-117885000D02*
X175755000Y-118030000D01*
X171605000Y-117885000D02*
X171605000Y-118030000D01*
X171605000Y-123035000D02*
X171605000Y-122890000D01*
X175755000Y-123035000D02*
X175755000Y-122985000D01*
D11*
X169440000Y-117040000D02*
X167980000Y-117040000D01*
X169440000Y-113880000D02*
X167280000Y-113880000D01*
X169440000Y-113880000D02*
X169440000Y-114810000D01*
X169440000Y-117040000D02*
X169440000Y-116110000D01*
X158395000Y-120200000D02*
X158395000Y-118550000D01*
X158395000Y-118550000D02*
X160245000Y-118550000D01*
X160245000Y-118550000D02*
X160245000Y-117760000D01*
X166965000Y-120200000D02*
X166965000Y-118550000D01*
X166965000Y-118550000D02*
X165115000Y-118550000D01*
X159715000Y-123170000D02*
X165645000Y-123170000D01*
X131395000Y-120200000D02*
X131395000Y-118550000D01*
X131395000Y-118550000D02*
X133245000Y-118550000D01*
X133245000Y-118550000D02*
X133245000Y-117760000D01*
X139965000Y-120200000D02*
X139965000Y-118550000D01*
X139965000Y-118550000D02*
X138115000Y-118550000D01*
X132715000Y-123170000D02*
X138645000Y-123170000D01*
X185780000Y-86070000D02*
X188230000Y-86070000D01*
X187580000Y-82850000D02*
X185780000Y-82850000D01*
X189430000Y-83320000D02*
X189930000Y-83320000D01*
X189430000Y-85600000D02*
X189930000Y-85600000D01*
X177627936Y-86170000D02*
X181732064Y-86170000D01*
X177627936Y-82750000D02*
X181732064Y-82750000D01*
X145350000Y-123790000D02*
X145350000Y-122460000D01*
X146680000Y-123790000D02*
X145350000Y-123790000D01*
X145350000Y-121190000D02*
X145350000Y-118590000D01*
X147950000Y-121190000D02*
X145350000Y-121190000D01*
X147950000Y-123790000D02*
X147950000Y-121190000D01*
X145350000Y-118590000D02*
X153090000Y-118590000D01*
X147950000Y-123790000D02*
X153090000Y-123790000D01*
X153090000Y-123790000D02*
X153090000Y-118590000D01*
X117270000Y-103560000D02*
X117270000Y-97550000D01*
X124090000Y-101310000D02*
X124090000Y-97550000D01*
X117270000Y-97550000D02*
X118530000Y-97550000D01*
X124090000Y-97550000D02*
X122830000Y-97550000D01*
X116260000Y-112700000D02*
X116260000Y-114160000D01*
X113100000Y-112700000D02*
X113100000Y-114860000D01*
X113100000Y-112700000D02*
X114030000Y-112700000D01*
X116260000Y-112700000D02*
X115330000Y-112700000D01*
X185440000Y-122140000D02*
X183980000Y-122140000D01*
X185440000Y-118980000D02*
X183280000Y-118980000D01*
X185440000Y-118980000D02*
X185440000Y-119910000D01*
X185440000Y-122140000D02*
X185440000Y-121210000D01*
D12*
X188780000Y-88810000D02*
X170780000Y-88810000D01*
X188780000Y-114310000D02*
X170780000Y-114310000D01*
X188780000Y-88810000D02*
X188780000Y-114310000D01*
X170780000Y-88810000D02*
X170780000Y-114310000D01*
X188780000Y-94810000D02*
X170780000Y-94810000D01*
D13*
X170157981Y-94956000D02*
G75*
G03X170157981Y-94956000I-283981J0D01*
G01*
D11*
X187945000Y-120975000D02*
X187945000Y-123260000D01*
X189415000Y-120975000D02*
X187945000Y-120975000D01*
X189415000Y-123260000D02*
X189415000Y-120975000D01*
X115170000Y-101297221D02*
X115170000Y-101622779D01*
X116190000Y-101297221D02*
X116190000Y-101622779D01*
X116190000Y-97622779D02*
X116190000Y-97297221D01*
X115170000Y-97622779D02*
X115170000Y-97297221D01*
X125170000Y-101297221D02*
X125170000Y-101622779D01*
X126190000Y-101297221D02*
X126190000Y-101622779D01*
X126190000Y-97622779D02*
X126190000Y-97297221D01*
X125170000Y-97622779D02*
X125170000Y-97297221D01*
D12*
X184915571Y-106758380D02*
X184915571Y-106425047D01*
X185439380Y-106282190D02*
X185439380Y-106758380D01*
X184439380Y-106758380D01*
X184439380Y-106282190D01*
X185391761Y-105901238D02*
X185439380Y-105758380D01*
X185439380Y-105520285D01*
X185391761Y-105425047D01*
X185344142Y-105377428D01*
X185248904Y-105329809D01*
X185153666Y-105329809D01*
X185058428Y-105377428D01*
X185010809Y-105425047D01*
X184963190Y-105520285D01*
X184915571Y-105710761D01*
X184867952Y-105806000D01*
X184820333Y-105853619D01*
X184725095Y-105901238D01*
X184629857Y-105901238D01*
X184534619Y-105853619D01*
X184487000Y-105806000D01*
X184439380Y-105710761D01*
X184439380Y-105472666D01*
X184487000Y-105329809D01*
X185439380Y-104901238D02*
X184439380Y-104901238D01*
X184439380Y-104520285D01*
X184487000Y-104425047D01*
X184534619Y-104377428D01*
X184629857Y-104329809D01*
X184772714Y-104329809D01*
X184867952Y-104377428D01*
X184915571Y-104425047D01*
X184963190Y-104520285D01*
X184963190Y-104901238D01*
X184439380Y-103996476D02*
X184439380Y-103377428D01*
X184820333Y-103710761D01*
X184820333Y-103567904D01*
X184867952Y-103472666D01*
X184915571Y-103425047D01*
X185010809Y-103377428D01*
X185248904Y-103377428D01*
X185344142Y-103425047D01*
X185391761Y-103472666D01*
X185439380Y-103567904D01*
X185439380Y-103853619D01*
X185391761Y-103948857D01*
X185344142Y-103996476D01*
X184534619Y-102996476D02*
X184487000Y-102948857D01*
X184439380Y-102853619D01*
X184439380Y-102615523D01*
X184487000Y-102520285D01*
X184534619Y-102472666D01*
X184629857Y-102425047D01*
X184725095Y-102425047D01*
X184867952Y-102472666D01*
X185439380Y-103044095D01*
X185439380Y-102425047D01*
X185058428Y-101996476D02*
X185058428Y-101234571D01*
X184439380Y-100853619D02*
X185439380Y-100615523D01*
X184725095Y-100425047D01*
X185439380Y-100234571D01*
X184439380Y-99996476D01*
X185439380Y-99044095D02*
X184963190Y-99377428D01*
X185439380Y-99615523D02*
X184439380Y-99615523D01*
X184439380Y-99234571D01*
X184487000Y-99139333D01*
X184534619Y-99091714D01*
X184629857Y-99044095D01*
X184772714Y-99044095D01*
X184867952Y-99091714D01*
X184915571Y-99139333D01*
X184963190Y-99234571D01*
X184963190Y-99615523D01*
X184439380Y-98425047D02*
X184439380Y-98234571D01*
X184487000Y-98139333D01*
X184582238Y-98044095D01*
X184772714Y-97996476D01*
X185106047Y-97996476D01*
X185296523Y-98044095D01*
X185391761Y-98139333D01*
X185439380Y-98234571D01*
X185439380Y-98425047D01*
X185391761Y-98520285D01*
X185296523Y-98615523D01*
X185106047Y-98663142D01*
X184772714Y-98663142D01*
X184582238Y-98615523D01*
X184487000Y-98520285D01*
X184439380Y-98425047D01*
X184439380Y-97377428D02*
X184439380Y-97186952D01*
X184487000Y-97091714D01*
X184582238Y-96996476D01*
X184772714Y-96948857D01*
X185106047Y-96948857D01*
X185296523Y-96996476D01*
X185391761Y-97091714D01*
X185439380Y-97186952D01*
X185439380Y-97377428D01*
X185391761Y-97472666D01*
X185296523Y-97567904D01*
X185106047Y-97615523D01*
X184772714Y-97615523D01*
X184582238Y-97567904D01*
X184487000Y-97472666D01*
X184439380Y-97377428D01*
X185439380Y-96520285D02*
X184439380Y-96520285D01*
X185153666Y-96186952D01*
X184439380Y-95853619D01*
X185439380Y-95853619D01*
X186566571Y-109020428D02*
X186566571Y-108687095D01*
X187090380Y-108544238D02*
X187090380Y-109020428D01*
X186090380Y-109020428D01*
X186090380Y-108544238D01*
X187042761Y-108163285D02*
X187090380Y-108068047D01*
X187090380Y-107877571D01*
X187042761Y-107782333D01*
X186947523Y-107734714D01*
X186899904Y-107734714D01*
X186804666Y-107782333D01*
X186757047Y-107877571D01*
X186757047Y-108020428D01*
X186709428Y-108115666D01*
X186614190Y-108163285D01*
X186566571Y-108163285D01*
X186471333Y-108115666D01*
X186423714Y-108020428D01*
X186423714Y-107877571D01*
X186471333Y-107782333D01*
X186423714Y-107306142D02*
X187423714Y-107306142D01*
X186471333Y-107306142D02*
X186423714Y-107210904D01*
X186423714Y-107020428D01*
X186471333Y-106925190D01*
X186518952Y-106877571D01*
X186614190Y-106829952D01*
X186899904Y-106829952D01*
X186995142Y-106877571D01*
X187042761Y-106925190D01*
X187090380Y-107020428D01*
X187090380Y-107210904D01*
X187042761Y-107306142D01*
X187090380Y-106401380D02*
X186423714Y-106401380D01*
X186614190Y-106401380D02*
X186518952Y-106353761D01*
X186471333Y-106306142D01*
X186423714Y-106210904D01*
X186423714Y-106115666D01*
X187042761Y-105401380D02*
X187090380Y-105496619D01*
X187090380Y-105687095D01*
X187042761Y-105782333D01*
X186947523Y-105829952D01*
X186566571Y-105829952D01*
X186471333Y-105782333D01*
X186423714Y-105687095D01*
X186423714Y-105496619D01*
X186471333Y-105401380D01*
X186566571Y-105353761D01*
X186661809Y-105353761D01*
X186757047Y-105829952D01*
X187042761Y-104972809D02*
X187090380Y-104877571D01*
X187090380Y-104687095D01*
X187042761Y-104591857D01*
X186947523Y-104544238D01*
X186899904Y-104544238D01*
X186804666Y-104591857D01*
X186757047Y-104687095D01*
X186757047Y-104829952D01*
X186709428Y-104925190D01*
X186614190Y-104972809D01*
X186566571Y-104972809D01*
X186471333Y-104925190D01*
X186423714Y-104829952D01*
X186423714Y-104687095D01*
X186471333Y-104591857D01*
X187042761Y-104163285D02*
X187090380Y-104068047D01*
X187090380Y-103877571D01*
X187042761Y-103782333D01*
X186947523Y-103734714D01*
X186899904Y-103734714D01*
X186804666Y-103782333D01*
X186757047Y-103877571D01*
X186757047Y-104020428D01*
X186709428Y-104115666D01*
X186614190Y-104163285D01*
X186566571Y-104163285D01*
X186471333Y-104115666D01*
X186423714Y-104020428D01*
X186423714Y-103877571D01*
X186471333Y-103782333D01*
X187090380Y-103306142D02*
X186423714Y-103306142D01*
X186090380Y-103306142D02*
X186138000Y-103353761D01*
X186185619Y-103306142D01*
X186138000Y-103258523D01*
X186090380Y-103306142D01*
X186185619Y-103306142D01*
X186423714Y-102972809D02*
X186423714Y-102591857D01*
X187090380Y-102829952D02*
X186233238Y-102829952D01*
X186138000Y-102782333D01*
X186090380Y-102687095D01*
X186090380Y-102591857D01*
X187042761Y-101544238D02*
X187090380Y-101401380D01*
X187090380Y-101163285D01*
X187042761Y-101068047D01*
X186995142Y-101020428D01*
X186899904Y-100972809D01*
X186804666Y-100972809D01*
X186709428Y-101020428D01*
X186661809Y-101068047D01*
X186614190Y-101163285D01*
X186566571Y-101353761D01*
X186518952Y-101449000D01*
X186471333Y-101496619D01*
X186376095Y-101544238D01*
X186280857Y-101544238D01*
X186185619Y-101496619D01*
X186138000Y-101449000D01*
X186090380Y-101353761D01*
X186090380Y-101115666D01*
X186138000Y-100972809D01*
X186423714Y-100639476D02*
X187090380Y-100401380D01*
X186423714Y-100163285D02*
X187090380Y-100401380D01*
X187328476Y-100496619D01*
X187376095Y-100544238D01*
X187423714Y-100639476D01*
X187042761Y-99829952D02*
X187090380Y-99734714D01*
X187090380Y-99544238D01*
X187042761Y-99449000D01*
X186947523Y-99401380D01*
X186899904Y-99401380D01*
X186804666Y-99449000D01*
X186757047Y-99544238D01*
X186757047Y-99687095D01*
X186709428Y-99782333D01*
X186614190Y-99829952D01*
X186566571Y-99829952D01*
X186471333Y-99782333D01*
X186423714Y-99687095D01*
X186423714Y-99544238D01*
X186471333Y-99449000D01*
X186423714Y-99115666D02*
X186423714Y-98734714D01*
X186090380Y-98972809D02*
X186947523Y-98972809D01*
X187042761Y-98925190D01*
X187090380Y-98829952D01*
X187090380Y-98734714D01*
X187042761Y-98020428D02*
X187090380Y-98115666D01*
X187090380Y-98306142D01*
X187042761Y-98401380D01*
X186947523Y-98449000D01*
X186566571Y-98449000D01*
X186471333Y-98401380D01*
X186423714Y-98306142D01*
X186423714Y-98115666D01*
X186471333Y-98020428D01*
X186566571Y-97972809D01*
X186661809Y-97972809D01*
X186757047Y-98449000D01*
X187090380Y-97544238D02*
X186423714Y-97544238D01*
X186518952Y-97544238D02*
X186471333Y-97496619D01*
X186423714Y-97401380D01*
X186423714Y-97258523D01*
X186471333Y-97163285D01*
X186566571Y-97115666D01*
X187090380Y-97115666D01*
X186566571Y-97115666D02*
X186471333Y-97068047D01*
X186423714Y-96972809D01*
X186423714Y-96829952D01*
X186471333Y-96734714D01*
X186566571Y-96687095D01*
X187090380Y-96687095D01*
X187042761Y-96258523D02*
X187090380Y-96163285D01*
X187090380Y-95972809D01*
X187042761Y-95877571D01*
X186947523Y-95829952D01*
X186899904Y-95829952D01*
X186804666Y-95877571D01*
X186757047Y-95972809D01*
X186757047Y-96115666D01*
X186709428Y-96210904D01*
X186614190Y-96258523D01*
X186566571Y-96258523D01*
X186471333Y-96210904D01*
X186423714Y-96115666D01*
X186423714Y-95972809D01*
X186471333Y-95877571D01*
M02*
