G04 #@! TF.GenerationSoftware,KiCad,Pcbnew,5.1.2+dfsg1-1*
G04 #@! TF.CreationDate,2019-07-24T11:20:43+08:00*
G04 #@! TF.ProjectId,Power_Source,506f7765-725f-4536-9f75-7263652e6b69,rev?*
G04 #@! TF.SameCoordinates,Original*
G04 #@! TF.FileFunction,Soldermask,Bot*
G04 #@! TF.FilePolarity,Negative*
%FSLAX46Y46*%
G04 Gerber Fmt 4.6, Leading zero omitted, Abs format (unit mm)*
G04 Created by KiCad (PCBNEW 5.1.2+dfsg1-1) date 2019-07-24 11:20:43*
%MOMM*%
%LPD*%
G04 APERTURE LIST*
%ADD10C,0.100000*%
G04 APERTURE END LIST*
D10*
G36*
X126880000Y-97060000D02*
G01*
X129280000Y-97060000D01*
X129280000Y-96660000D01*
X126880000Y-96660000D01*
X126880000Y-97060000D01*
G37*
X126880000Y-97060000D02*
X129280000Y-97060000D01*
X129280000Y-96660000D01*
X126880000Y-96660000D01*
X126880000Y-97060000D01*
G36*
X128080000Y-97860000D02*
G01*
X130480000Y-97860000D01*
X130480000Y-97460000D01*
X128080000Y-97460000D01*
X128080000Y-97860000D01*
G37*
X128080000Y-97860000D02*
X130480000Y-97860000D01*
X130480000Y-97460000D01*
X128080000Y-97460000D01*
X128080000Y-97860000D01*
G36*
X126880000Y-98660000D02*
G01*
X129280000Y-98660000D01*
X129280000Y-98260000D01*
X126880000Y-98260000D01*
X126880000Y-98660000D01*
G37*
X126880000Y-98660000D02*
X129280000Y-98660000D01*
X129280000Y-98260000D01*
X126880000Y-98260000D01*
X126880000Y-98660000D01*
G36*
X128080000Y-99460000D02*
G01*
X130480000Y-99460000D01*
X130480000Y-99060000D01*
X128080000Y-99060000D01*
X128080000Y-99460000D01*
G37*
X128080000Y-99460000D02*
X130480000Y-99460000D01*
X130480000Y-99060000D01*
X128080000Y-99060000D01*
X128080000Y-99460000D01*
G36*
X126880000Y-100260000D02*
G01*
X129280000Y-100260000D01*
X129280000Y-99860000D01*
X126880000Y-99860000D01*
X126880000Y-100260000D01*
G37*
X126880000Y-100260000D02*
X129280000Y-100260000D01*
X129280000Y-99860000D01*
X126880000Y-99860000D01*
X126880000Y-100260000D01*
G36*
X130480000Y-100260000D02*
G01*
X130480000Y-96660000D01*
X129680000Y-96660000D01*
X129680000Y-100260000D01*
X130480000Y-100260000D01*
G37*
X130480000Y-100260000D02*
X130480000Y-96660000D01*
X129680000Y-96660000D01*
X129680000Y-100260000D01*
X130480000Y-100260000D01*
G36*
X126880000Y-100260000D02*
G01*
X126880000Y-96660000D01*
X127680000Y-96660000D01*
X127680000Y-100260000D01*
X126880000Y-100260000D01*
G37*
X126880000Y-100260000D02*
X126880000Y-96660000D01*
X127680000Y-96660000D01*
X127680000Y-100260000D01*
X126880000Y-100260000D01*
G36*
X111880000Y-97060000D02*
G01*
X114280000Y-97060000D01*
X114280000Y-96660000D01*
X111880000Y-96660000D01*
X111880000Y-97060000D01*
G37*
X111880000Y-97060000D02*
X114280000Y-97060000D01*
X114280000Y-96660000D01*
X111880000Y-96660000D01*
X111880000Y-97060000D01*
G36*
X113080000Y-97860000D02*
G01*
X115480000Y-97860000D01*
X115480000Y-97460000D01*
X113080000Y-97460000D01*
X113080000Y-97860000D01*
G37*
X113080000Y-97860000D02*
X115480000Y-97860000D01*
X115480000Y-97460000D01*
X113080000Y-97460000D01*
X113080000Y-97860000D01*
G36*
X111880000Y-98660000D02*
G01*
X114280000Y-98660000D01*
X114280000Y-98260000D01*
X111880000Y-98260000D01*
X111880000Y-98660000D01*
G37*
X111880000Y-98660000D02*
X114280000Y-98660000D01*
X114280000Y-98260000D01*
X111880000Y-98260000D01*
X111880000Y-98660000D01*
G36*
X113080000Y-99460000D02*
G01*
X115480000Y-99460000D01*
X115480000Y-99060000D01*
X113080000Y-99060000D01*
X113080000Y-99460000D01*
G37*
X113080000Y-99460000D02*
X115480000Y-99460000D01*
X115480000Y-99060000D01*
X113080000Y-99060000D01*
X113080000Y-99460000D01*
G36*
X111880000Y-100260000D02*
G01*
X114280000Y-100260000D01*
X114280000Y-99860000D01*
X111880000Y-99860000D01*
X111880000Y-100260000D01*
G37*
X111880000Y-100260000D02*
X114280000Y-100260000D01*
X114280000Y-99860000D01*
X111880000Y-99860000D01*
X111880000Y-100260000D01*
G36*
X115480000Y-100260000D02*
G01*
X115480000Y-96660000D01*
X114680000Y-96660000D01*
X114680000Y-100260000D01*
X115480000Y-100260000D01*
G37*
X115480000Y-100260000D02*
X115480000Y-96660000D01*
X114680000Y-96660000D01*
X114680000Y-100260000D01*
X115480000Y-100260000D01*
G36*
X111880000Y-100260000D02*
G01*
X111880000Y-96660000D01*
X112680000Y-96660000D01*
X112680000Y-100260000D01*
X111880000Y-100260000D01*
G37*
X111880000Y-100260000D02*
X111880000Y-96660000D01*
X112680000Y-96660000D01*
X112680000Y-100260000D01*
X111880000Y-100260000D01*
G36*
X147581000Y-123361000D02*
G01*
X145779000Y-123361000D01*
X145779000Y-121559000D01*
X147581000Y-121559000D01*
X147581000Y-123361000D01*
X147581000Y-123361000D01*
G37*
G36*
X151870442Y-121565518D02*
G01*
X151936627Y-121572037D01*
X152106466Y-121623557D01*
X152262991Y-121707222D01*
X152298729Y-121736552D01*
X152400186Y-121819814D01*
X152483448Y-121921271D01*
X152512778Y-121957009D01*
X152596443Y-122113534D01*
X152647963Y-122283373D01*
X152665359Y-122460000D01*
X152647963Y-122636627D01*
X152596443Y-122806466D01*
X152512778Y-122962991D01*
X152483448Y-122998729D01*
X152400186Y-123100186D01*
X152298729Y-123183448D01*
X152262991Y-123212778D01*
X152106466Y-123296443D01*
X151936627Y-123347963D01*
X151870443Y-123354481D01*
X151804260Y-123361000D01*
X151715740Y-123361000D01*
X151649557Y-123354481D01*
X151583373Y-123347963D01*
X151413534Y-123296443D01*
X151257009Y-123212778D01*
X151221271Y-123183448D01*
X151119814Y-123100186D01*
X151036552Y-122998729D01*
X151007222Y-122962991D01*
X150923557Y-122806466D01*
X150872037Y-122636627D01*
X150854641Y-122460000D01*
X150872037Y-122283373D01*
X150923557Y-122113534D01*
X151007222Y-121957009D01*
X151036552Y-121921271D01*
X151119814Y-121819814D01*
X151221271Y-121736552D01*
X151257009Y-121707222D01*
X151413534Y-121623557D01*
X151583373Y-121572037D01*
X151649558Y-121565518D01*
X151715740Y-121559000D01*
X151804260Y-121559000D01*
X151870442Y-121565518D01*
X151870442Y-121565518D01*
G37*
G36*
X149330442Y-121565518D02*
G01*
X149396627Y-121572037D01*
X149566466Y-121623557D01*
X149722991Y-121707222D01*
X149758729Y-121736552D01*
X149860186Y-121819814D01*
X149943448Y-121921271D01*
X149972778Y-121957009D01*
X150056443Y-122113534D01*
X150107963Y-122283373D01*
X150125359Y-122460000D01*
X150107963Y-122636627D01*
X150056443Y-122806466D01*
X149972778Y-122962991D01*
X149943448Y-122998729D01*
X149860186Y-123100186D01*
X149758729Y-123183448D01*
X149722991Y-123212778D01*
X149566466Y-123296443D01*
X149396627Y-123347963D01*
X149330443Y-123354481D01*
X149264260Y-123361000D01*
X149175740Y-123361000D01*
X149109557Y-123354481D01*
X149043373Y-123347963D01*
X148873534Y-123296443D01*
X148717009Y-123212778D01*
X148681271Y-123183448D01*
X148579814Y-123100186D01*
X148496552Y-122998729D01*
X148467222Y-122962991D01*
X148383557Y-122806466D01*
X148332037Y-122636627D01*
X148314641Y-122460000D01*
X148332037Y-122283373D01*
X148383557Y-122113534D01*
X148467222Y-121957009D01*
X148496552Y-121921271D01*
X148579814Y-121819814D01*
X148681271Y-121736552D01*
X148717009Y-121707222D01*
X148873534Y-121623557D01*
X149043373Y-121572037D01*
X149109558Y-121565518D01*
X149175740Y-121559000D01*
X149264260Y-121559000D01*
X149330442Y-121565518D01*
X149330442Y-121565518D01*
G37*
G36*
X151870442Y-119025518D02*
G01*
X151936627Y-119032037D01*
X152106466Y-119083557D01*
X152262991Y-119167222D01*
X152298729Y-119196552D01*
X152400186Y-119279814D01*
X152483448Y-119381271D01*
X152512778Y-119417009D01*
X152596443Y-119573534D01*
X152647963Y-119743373D01*
X152665359Y-119920000D01*
X152647963Y-120096627D01*
X152596443Y-120266466D01*
X152512778Y-120422991D01*
X152483448Y-120458729D01*
X152400186Y-120560186D01*
X152298729Y-120643448D01*
X152262991Y-120672778D01*
X152106466Y-120756443D01*
X151936627Y-120807963D01*
X151870442Y-120814482D01*
X151804260Y-120821000D01*
X151715740Y-120821000D01*
X151649558Y-120814482D01*
X151583373Y-120807963D01*
X151413534Y-120756443D01*
X151257009Y-120672778D01*
X151221271Y-120643448D01*
X151119814Y-120560186D01*
X151036552Y-120458729D01*
X151007222Y-120422991D01*
X150923557Y-120266466D01*
X150872037Y-120096627D01*
X150854641Y-119920000D01*
X150872037Y-119743373D01*
X150923557Y-119573534D01*
X151007222Y-119417009D01*
X151036552Y-119381271D01*
X151119814Y-119279814D01*
X151221271Y-119196552D01*
X151257009Y-119167222D01*
X151413534Y-119083557D01*
X151583373Y-119032037D01*
X151649558Y-119025518D01*
X151715740Y-119019000D01*
X151804260Y-119019000D01*
X151870442Y-119025518D01*
X151870442Y-119025518D01*
G37*
G36*
X149330442Y-119025518D02*
G01*
X149396627Y-119032037D01*
X149566466Y-119083557D01*
X149722991Y-119167222D01*
X149758729Y-119196552D01*
X149860186Y-119279814D01*
X149943448Y-119381271D01*
X149972778Y-119417009D01*
X150056443Y-119573534D01*
X150107963Y-119743373D01*
X150125359Y-119920000D01*
X150107963Y-120096627D01*
X150056443Y-120266466D01*
X149972778Y-120422991D01*
X149943448Y-120458729D01*
X149860186Y-120560186D01*
X149758729Y-120643448D01*
X149722991Y-120672778D01*
X149566466Y-120756443D01*
X149396627Y-120807963D01*
X149330442Y-120814482D01*
X149264260Y-120821000D01*
X149175740Y-120821000D01*
X149109558Y-120814482D01*
X149043373Y-120807963D01*
X148873534Y-120756443D01*
X148717009Y-120672778D01*
X148681271Y-120643448D01*
X148579814Y-120560186D01*
X148496552Y-120458729D01*
X148467222Y-120422991D01*
X148383557Y-120266466D01*
X148332037Y-120096627D01*
X148314641Y-119920000D01*
X148332037Y-119743373D01*
X148383557Y-119573534D01*
X148467222Y-119417009D01*
X148496552Y-119381271D01*
X148579814Y-119279814D01*
X148681271Y-119196552D01*
X148717009Y-119167222D01*
X148873534Y-119083557D01*
X149043373Y-119032037D01*
X149109558Y-119025518D01*
X149175740Y-119019000D01*
X149264260Y-119019000D01*
X149330442Y-119025518D01*
X149330442Y-119025518D01*
G37*
G36*
X146790442Y-119025518D02*
G01*
X146856627Y-119032037D01*
X147026466Y-119083557D01*
X147182991Y-119167222D01*
X147218729Y-119196552D01*
X147320186Y-119279814D01*
X147403448Y-119381271D01*
X147432778Y-119417009D01*
X147516443Y-119573534D01*
X147567963Y-119743373D01*
X147585359Y-119920000D01*
X147567963Y-120096627D01*
X147516443Y-120266466D01*
X147432778Y-120422991D01*
X147403448Y-120458729D01*
X147320186Y-120560186D01*
X147218729Y-120643448D01*
X147182991Y-120672778D01*
X147026466Y-120756443D01*
X146856627Y-120807963D01*
X146790442Y-120814482D01*
X146724260Y-120821000D01*
X146635740Y-120821000D01*
X146569558Y-120814482D01*
X146503373Y-120807963D01*
X146333534Y-120756443D01*
X146177009Y-120672778D01*
X146141271Y-120643448D01*
X146039814Y-120560186D01*
X145956552Y-120458729D01*
X145927222Y-120422991D01*
X145843557Y-120266466D01*
X145792037Y-120096627D01*
X145774641Y-119920000D01*
X145792037Y-119743373D01*
X145843557Y-119573534D01*
X145927222Y-119417009D01*
X145956552Y-119381271D01*
X146039814Y-119279814D01*
X146141271Y-119196552D01*
X146177009Y-119167222D01*
X146333534Y-119083557D01*
X146503373Y-119032037D01*
X146569558Y-119025518D01*
X146635740Y-119019000D01*
X146724260Y-119019000D01*
X146790442Y-119025518D01*
X146790442Y-119025518D01*
G37*
G36*
X126932000Y-120094600D02*
G01*
X124330000Y-120094600D01*
X124330000Y-111242600D01*
X126932000Y-111242600D01*
X126932000Y-120094600D01*
X126932000Y-120094600D01*
G37*
G36*
X152611767Y-86195254D02*
G01*
X154440932Y-86952919D01*
X154440934Y-86952920D01*
X156087139Y-88052879D01*
X157487121Y-89452861D01*
X158364909Y-90766564D01*
X158587081Y-91099068D01*
X159344746Y-92928233D01*
X159731000Y-94870062D01*
X159731000Y-96849938D01*
X159344746Y-98791767D01*
X158717254Y-100306667D01*
X158587080Y-100620934D01*
X157487121Y-102267139D01*
X156087139Y-103667121D01*
X154440934Y-104767080D01*
X154440933Y-104767081D01*
X154440932Y-104767081D01*
X152611767Y-105524746D01*
X150669938Y-105911000D01*
X148690062Y-105911000D01*
X146748233Y-105524746D01*
X144919068Y-104767081D01*
X144919067Y-104767081D01*
X144919066Y-104767080D01*
X143272861Y-103667121D01*
X141872879Y-102267139D01*
X140772920Y-100620934D01*
X140642746Y-100306667D01*
X140015254Y-98791767D01*
X139629000Y-96849938D01*
X139629000Y-94870062D01*
X140015254Y-92928233D01*
X140772919Y-91099068D01*
X140995091Y-90766564D01*
X141872879Y-89452861D01*
X143272861Y-88052879D01*
X144919066Y-86952920D01*
X144919068Y-86952919D01*
X146748233Y-86195254D01*
X148690062Y-85809000D01*
X150669938Y-85809000D01*
X152611767Y-86195254D01*
X152611767Y-86195254D01*
G37*
G36*
X186233400Y-102158400D02*
G01*
X178081400Y-102158400D01*
X178081400Y-99556400D01*
X186233400Y-99556400D01*
X186233400Y-102158400D01*
X186233400Y-102158400D01*
G37*
G36*
X127599683Y-96612725D02*
G01*
X127630143Y-96621966D01*
X127658223Y-96636974D01*
X127682831Y-96657169D01*
X127703026Y-96681777D01*
X127718034Y-96709857D01*
X127727275Y-96740317D01*
X127731000Y-96778140D01*
X127731000Y-100141860D01*
X127727275Y-100179683D01*
X127718034Y-100210143D01*
X127703026Y-100238223D01*
X127682831Y-100262831D01*
X127658223Y-100283026D01*
X127630143Y-100298034D01*
X127599683Y-100307275D01*
X127561860Y-100311000D01*
X126998140Y-100311000D01*
X126960317Y-100307275D01*
X126929857Y-100298034D01*
X126901777Y-100283026D01*
X126877169Y-100262831D01*
X126856974Y-100238223D01*
X126841966Y-100210143D01*
X126832725Y-100179683D01*
X126829000Y-100141860D01*
X126829000Y-96778140D01*
X126832725Y-96740317D01*
X126841966Y-96709857D01*
X126856974Y-96681777D01*
X126877169Y-96657169D01*
X126901777Y-96636974D01*
X126929857Y-96621966D01*
X126960317Y-96612725D01*
X126998140Y-96609000D01*
X127561860Y-96609000D01*
X127599683Y-96612725D01*
X127599683Y-96612725D01*
G37*
G36*
X130399683Y-96612725D02*
G01*
X130430143Y-96621966D01*
X130458223Y-96636974D01*
X130482831Y-96657169D01*
X130503026Y-96681777D01*
X130518034Y-96709857D01*
X130527275Y-96740317D01*
X130531000Y-96778140D01*
X130531000Y-100141860D01*
X130527275Y-100179683D01*
X130518034Y-100210143D01*
X130503026Y-100238223D01*
X130482831Y-100262831D01*
X130458223Y-100283026D01*
X130430143Y-100298034D01*
X130399683Y-100307275D01*
X130361860Y-100311000D01*
X129798140Y-100311000D01*
X129760317Y-100307275D01*
X129729857Y-100298034D01*
X129701777Y-100283026D01*
X129677169Y-100262831D01*
X129656974Y-100238223D01*
X129641966Y-100210143D01*
X129632725Y-100179683D01*
X129629000Y-100141860D01*
X129629000Y-96778140D01*
X129632725Y-96740317D01*
X129641966Y-96709857D01*
X129656974Y-96681777D01*
X129677169Y-96657169D01*
X129701777Y-96636974D01*
X129729857Y-96621966D01*
X129760317Y-96612725D01*
X129798140Y-96609000D01*
X130361860Y-96609000D01*
X130399683Y-96612725D01*
X130399683Y-96612725D01*
G37*
G36*
X115399683Y-96612725D02*
G01*
X115430143Y-96621966D01*
X115458223Y-96636974D01*
X115482831Y-96657169D01*
X115503026Y-96681777D01*
X115518034Y-96709857D01*
X115527275Y-96740317D01*
X115531000Y-96778140D01*
X115531000Y-100141860D01*
X115527275Y-100179683D01*
X115518034Y-100210143D01*
X115503026Y-100238223D01*
X115482831Y-100262831D01*
X115458223Y-100283026D01*
X115430143Y-100298034D01*
X115399683Y-100307275D01*
X115361860Y-100311000D01*
X114798140Y-100311000D01*
X114760317Y-100307275D01*
X114729857Y-100298034D01*
X114701777Y-100283026D01*
X114677169Y-100262831D01*
X114656974Y-100238223D01*
X114641966Y-100210143D01*
X114632725Y-100179683D01*
X114629000Y-100141860D01*
X114629000Y-96778140D01*
X114632725Y-96740317D01*
X114641966Y-96709857D01*
X114656974Y-96681777D01*
X114677169Y-96657169D01*
X114701777Y-96636974D01*
X114729857Y-96621966D01*
X114760317Y-96612725D01*
X114798140Y-96609000D01*
X115361860Y-96609000D01*
X115399683Y-96612725D01*
X115399683Y-96612725D01*
G37*
G36*
X112599683Y-96612725D02*
G01*
X112630143Y-96621966D01*
X112658223Y-96636974D01*
X112682831Y-96657169D01*
X112703026Y-96681777D01*
X112718034Y-96709857D01*
X112727275Y-96740317D01*
X112731000Y-96778140D01*
X112731000Y-100141860D01*
X112727275Y-100179683D01*
X112718034Y-100210143D01*
X112703026Y-100238223D01*
X112682831Y-100262831D01*
X112658223Y-100283026D01*
X112630143Y-100298034D01*
X112599683Y-100307275D01*
X112561860Y-100311000D01*
X111998140Y-100311000D01*
X111960317Y-100307275D01*
X111929857Y-100298034D01*
X111901777Y-100283026D01*
X111877169Y-100262831D01*
X111856974Y-100238223D01*
X111841966Y-100210143D01*
X111832725Y-100179683D01*
X111829000Y-100141860D01*
X111829000Y-96778140D01*
X111832725Y-96740317D01*
X111841966Y-96709857D01*
X111856974Y-96681777D01*
X111877169Y-96657169D01*
X111901777Y-96636974D01*
X111929857Y-96621966D01*
X111960317Y-96612725D01*
X111998140Y-96609000D01*
X112561860Y-96609000D01*
X112599683Y-96612725D01*
X112599683Y-96612725D01*
G37*
G36*
X121486564Y-89449389D02*
G01*
X121677833Y-89528615D01*
X121677835Y-89528616D01*
X121849973Y-89643635D01*
X121996365Y-89790027D01*
X122111385Y-89962167D01*
X122190611Y-90153436D01*
X122231000Y-90356484D01*
X122231000Y-90563516D01*
X122190611Y-90766564D01*
X122111385Y-90957833D01*
X122111384Y-90957835D01*
X121996365Y-91129973D01*
X121849973Y-91276365D01*
X121677835Y-91391384D01*
X121677834Y-91391385D01*
X121677833Y-91391385D01*
X121486564Y-91470611D01*
X121283516Y-91511000D01*
X121076484Y-91511000D01*
X120873436Y-91470611D01*
X120682167Y-91391385D01*
X120682166Y-91391385D01*
X120682165Y-91391384D01*
X120510027Y-91276365D01*
X120363635Y-91129973D01*
X120248616Y-90957835D01*
X120248615Y-90957833D01*
X120169389Y-90766564D01*
X120129000Y-90563516D01*
X120129000Y-90356484D01*
X120169389Y-90153436D01*
X120248615Y-89962167D01*
X120363635Y-89790027D01*
X120510027Y-89643635D01*
X120682165Y-89528616D01*
X120682167Y-89528615D01*
X120873436Y-89449389D01*
X121076484Y-89409000D01*
X121283516Y-89409000D01*
X121486564Y-89449389D01*
X121486564Y-89449389D01*
G37*
G36*
X124731000Y-91511000D02*
G01*
X122629000Y-91511000D01*
X122629000Y-89409000D01*
X124731000Y-89409000D01*
X124731000Y-91511000D01*
X124731000Y-91511000D01*
G37*
G36*
X118986564Y-89449389D02*
G01*
X119177833Y-89528615D01*
X119177835Y-89528616D01*
X119349973Y-89643635D01*
X119496365Y-89790027D01*
X119611385Y-89962167D01*
X119690611Y-90153436D01*
X119731000Y-90356484D01*
X119731000Y-90563516D01*
X119690611Y-90766564D01*
X119611385Y-90957833D01*
X119611384Y-90957835D01*
X119496365Y-91129973D01*
X119349973Y-91276365D01*
X119177835Y-91391384D01*
X119177834Y-91391385D01*
X119177833Y-91391385D01*
X118986564Y-91470611D01*
X118783516Y-91511000D01*
X118576484Y-91511000D01*
X118373436Y-91470611D01*
X118182167Y-91391385D01*
X118182166Y-91391385D01*
X118182165Y-91391384D01*
X118010027Y-91276365D01*
X117863635Y-91129973D01*
X117748616Y-90957835D01*
X117748615Y-90957833D01*
X117669389Y-90766564D01*
X117629000Y-90563516D01*
X117629000Y-90356484D01*
X117669389Y-90153436D01*
X117748615Y-89962167D01*
X117863635Y-89790027D01*
X118010027Y-89643635D01*
X118182165Y-89528616D01*
X118182167Y-89528615D01*
X118373436Y-89449389D01*
X118576484Y-89409000D01*
X118783516Y-89409000D01*
X118986564Y-89449389D01*
X118986564Y-89449389D01*
G37*
G36*
X129831000Y-84611000D02*
G01*
X127729000Y-84611000D01*
X127729000Y-81309000D01*
X129831000Y-81309000D01*
X129831000Y-84611000D01*
X129831000Y-84611000D01*
G37*
G36*
X114631000Y-84611000D02*
G01*
X112529000Y-84611000D01*
X112529000Y-81309000D01*
X114631000Y-81309000D01*
X114631000Y-84611000D01*
X114631000Y-84611000D01*
G37*
G36*
X172507477Y-71283892D02*
G01*
X172850541Y-71425994D01*
X173335707Y-71626956D01*
X174081093Y-72125008D01*
X174714992Y-72758907D01*
X175213044Y-73504293D01*
X175414006Y-73989459D01*
X175556108Y-74332523D01*
X175731000Y-75211764D01*
X175731000Y-76108236D01*
X175556108Y-76987477D01*
X175546364Y-77011000D01*
X175213044Y-77815707D01*
X174714992Y-78561093D01*
X174081093Y-79194992D01*
X173335707Y-79693044D01*
X172850541Y-79894006D01*
X172507477Y-80036108D01*
X171628236Y-80211000D01*
X170731764Y-80211000D01*
X169852523Y-80036108D01*
X169509459Y-79894006D01*
X169024293Y-79693044D01*
X168278907Y-79194992D01*
X167645008Y-78561093D01*
X167146956Y-77815707D01*
X166813636Y-77011000D01*
X166803892Y-76987477D01*
X166629000Y-76108236D01*
X166629000Y-75211764D01*
X166803892Y-74332523D01*
X166945994Y-73989459D01*
X167146956Y-73504293D01*
X167645008Y-72758907D01*
X168278907Y-72125008D01*
X169024293Y-71626956D01*
X169509459Y-71425994D01*
X169852523Y-71283892D01*
X170731764Y-71109000D01*
X171628236Y-71109000D01*
X172507477Y-71283892D01*
X172507477Y-71283892D01*
G37*
G36*
X188507477Y-71283892D02*
G01*
X188850541Y-71425994D01*
X189335707Y-71626956D01*
X190081093Y-72125008D01*
X190714992Y-72758907D01*
X191213044Y-73504293D01*
X191414006Y-73989459D01*
X191556108Y-74332523D01*
X191731000Y-75211764D01*
X191731000Y-76108236D01*
X191556108Y-76987477D01*
X191546364Y-77011000D01*
X191213044Y-77815707D01*
X190714992Y-78561093D01*
X190081093Y-79194992D01*
X189335707Y-79693044D01*
X188850541Y-79894006D01*
X188507477Y-80036108D01*
X187628236Y-80211000D01*
X186731764Y-80211000D01*
X185852523Y-80036108D01*
X185509459Y-79894006D01*
X185024293Y-79693044D01*
X184278907Y-79194992D01*
X183645008Y-78561093D01*
X183146956Y-77815707D01*
X182813636Y-77011000D01*
X182803892Y-76987477D01*
X182629000Y-76108236D01*
X182629000Y-75211764D01*
X182803892Y-74332523D01*
X182945994Y-73989459D01*
X183146956Y-73504293D01*
X183645008Y-72758907D01*
X184278907Y-72125008D01*
X185024293Y-71626956D01*
X185509459Y-71425994D01*
X185852523Y-71283892D01*
X186731764Y-71109000D01*
X187628236Y-71109000D01*
X188507477Y-71283892D01*
X188507477Y-71283892D01*
G37*
G36*
X151007477Y-71283892D02*
G01*
X151350541Y-71425994D01*
X151835707Y-71626956D01*
X152581093Y-72125008D01*
X153214992Y-72758907D01*
X153713044Y-73504293D01*
X153914006Y-73989459D01*
X154056108Y-74332523D01*
X154231000Y-75211764D01*
X154231000Y-76108236D01*
X154056108Y-76987477D01*
X154046364Y-77011000D01*
X153713044Y-77815707D01*
X153214992Y-78561093D01*
X152581093Y-79194992D01*
X151835707Y-79693044D01*
X151350541Y-79894006D01*
X151007477Y-80036108D01*
X150128236Y-80211000D01*
X149231764Y-80211000D01*
X148352523Y-80036108D01*
X148009459Y-79894006D01*
X147524293Y-79693044D01*
X146778907Y-79194992D01*
X146145008Y-78561093D01*
X145646956Y-77815707D01*
X145313636Y-77011000D01*
X145303892Y-76987477D01*
X145129000Y-76108236D01*
X145129000Y-75211764D01*
X145303892Y-74332523D01*
X145445994Y-73989459D01*
X145646956Y-73504293D01*
X146145008Y-72758907D01*
X146778907Y-72125008D01*
X147524293Y-71626956D01*
X148009459Y-71425994D01*
X148352523Y-71283892D01*
X149231764Y-71109000D01*
X150128236Y-71109000D01*
X151007477Y-71283892D01*
X151007477Y-71283892D01*
G37*
G36*
X123986564Y-74949389D02*
G01*
X124177833Y-75028615D01*
X124177835Y-75028616D01*
X124349973Y-75143635D01*
X124496365Y-75290027D01*
X124611385Y-75462167D01*
X124690611Y-75653436D01*
X124731000Y-75856484D01*
X124731000Y-76063516D01*
X124690611Y-76266564D01*
X124611385Y-76457833D01*
X124611384Y-76457835D01*
X124496365Y-76629973D01*
X124349973Y-76776365D01*
X124177835Y-76891384D01*
X124177834Y-76891385D01*
X124177833Y-76891385D01*
X123986564Y-76970611D01*
X123783516Y-77011000D01*
X123576484Y-77011000D01*
X123373436Y-76970611D01*
X123182167Y-76891385D01*
X123182166Y-76891385D01*
X123182165Y-76891384D01*
X123010027Y-76776365D01*
X122863635Y-76629973D01*
X122748616Y-76457835D01*
X122748615Y-76457833D01*
X122669389Y-76266564D01*
X122629000Y-76063516D01*
X122629000Y-75856484D01*
X122669389Y-75653436D01*
X122748615Y-75462167D01*
X122863635Y-75290027D01*
X123010027Y-75143635D01*
X123182165Y-75028616D01*
X123182167Y-75028615D01*
X123373436Y-74949389D01*
X123576484Y-74909000D01*
X123783516Y-74909000D01*
X123986564Y-74949389D01*
X123986564Y-74949389D01*
G37*
G36*
X118986564Y-74949389D02*
G01*
X119177833Y-75028615D01*
X119177835Y-75028616D01*
X119349973Y-75143635D01*
X119496365Y-75290027D01*
X119611385Y-75462167D01*
X119690611Y-75653436D01*
X119731000Y-75856484D01*
X119731000Y-76063516D01*
X119690611Y-76266564D01*
X119611385Y-76457833D01*
X119611384Y-76457835D01*
X119496365Y-76629973D01*
X119349973Y-76776365D01*
X119177835Y-76891384D01*
X119177834Y-76891385D01*
X119177833Y-76891385D01*
X118986564Y-76970611D01*
X118783516Y-77011000D01*
X118576484Y-77011000D01*
X118373436Y-76970611D01*
X118182167Y-76891385D01*
X118182166Y-76891385D01*
X118182165Y-76891384D01*
X118010027Y-76776365D01*
X117863635Y-76629973D01*
X117748616Y-76457835D01*
X117748615Y-76457833D01*
X117669389Y-76266564D01*
X117629000Y-76063516D01*
X117629000Y-75856484D01*
X117669389Y-75653436D01*
X117748615Y-75462167D01*
X117863635Y-75290027D01*
X118010027Y-75143635D01*
X118182165Y-75028616D01*
X118182167Y-75028615D01*
X118373436Y-74949389D01*
X118576484Y-74909000D01*
X118783516Y-74909000D01*
X118986564Y-74949389D01*
X118986564Y-74949389D01*
G37*
M02*
