G04 #@! TF.GenerationSoftware,KiCad,Pcbnew,(5.1.0)-1*
G04 #@! TF.CreationDate,2019-07-27T07:21:47+08:00*
G04 #@! TF.ProjectId,Down,446f776e-2e6b-4696-9361-645f70636258,rev?*
G04 #@! TF.SameCoordinates,Original*
G04 #@! TF.FileFunction,Legend,Bot*
G04 #@! TF.FilePolarity,Positive*
%FSLAX46Y46*%
G04 Gerber Fmt 4.6, Leading zero omitted, Abs format (unit mm)*
G04 Created by KiCad (PCBNEW (5.1.0)-1) date 2019-07-27 07:21:47*
%MOMM*%
%LPD*%
G04 APERTURE LIST*
%ADD10C,0.100000*%
%ADD11C,0.120000*%
G04 APERTURE END LIST*
D10*
X149726190Y-101693809D02*
X150226190Y-101797976D01*
X149726190Y-102027142D01*
X149964285Y-102330714D02*
X149988095Y-102399166D01*
X150011904Y-102420000D01*
X150059523Y-102437857D01*
X150130952Y-102428928D01*
X150178571Y-102399166D01*
X150202380Y-102372380D01*
X150226190Y-102321785D01*
X150226190Y-102131309D01*
X149726190Y-102193809D01*
X149726190Y-102360476D01*
X149750000Y-102405119D01*
X149773809Y-102425952D01*
X149821428Y-102443809D01*
X149869047Y-102437857D01*
X149916666Y-102408095D01*
X149940476Y-102381309D01*
X149964285Y-102330714D01*
X149964285Y-102164047D01*
X149726190Y-102693809D02*
X150130952Y-102643214D01*
X150178571Y-102661071D01*
X150202380Y-102681904D01*
X150226190Y-102726547D01*
X150226190Y-102821785D01*
X150202380Y-102872380D01*
X150178571Y-102899166D01*
X150130952Y-102928928D01*
X149726190Y-102979523D01*
X150202380Y-103134285D02*
X150226190Y-103202738D01*
X150226190Y-103321785D01*
X150202380Y-103372380D01*
X150178571Y-103399166D01*
X150130952Y-103428928D01*
X150083333Y-103434880D01*
X150035714Y-103417023D01*
X150011904Y-103396190D01*
X149988095Y-103351547D01*
X149964285Y-103259285D01*
X149940476Y-103214642D01*
X149916666Y-103193809D01*
X149869047Y-103175952D01*
X149821428Y-103181904D01*
X149773809Y-103211666D01*
X149750000Y-103238452D01*
X149726190Y-103289047D01*
X149726190Y-103408095D01*
X149750000Y-103476547D01*
X149726190Y-98891428D02*
X149726190Y-99200952D01*
X149916666Y-99010476D01*
X149916666Y-99081904D01*
X149940476Y-99126547D01*
X149964285Y-99147380D01*
X150011904Y-99165238D01*
X150130952Y-99150357D01*
X150178571Y-99120595D01*
X150202380Y-99093809D01*
X150226190Y-99043214D01*
X150226190Y-98900357D01*
X150202380Y-98855714D01*
X150178571Y-98834880D01*
X149726190Y-99343809D02*
X150226190Y-99447976D01*
X149726190Y-99677142D01*
X149726190Y-99796190D02*
X149726190Y-100105714D01*
X149916666Y-99915238D01*
X149916666Y-99986666D01*
X149940476Y-100031309D01*
X149964285Y-100052142D01*
X150011904Y-100070000D01*
X150130952Y-100055119D01*
X150178571Y-100025357D01*
X150202380Y-99998571D01*
X150226190Y-99947976D01*
X150226190Y-99805119D01*
X150202380Y-99760476D01*
X150178571Y-99739642D01*
X149726190Y-100505714D02*
X150226190Y-100609880D01*
X149726190Y-100839047D01*
X150202380Y-100922380D02*
X150226190Y-100990833D01*
X150226190Y-101109880D01*
X150202380Y-101160476D01*
X150178571Y-101187261D01*
X150130952Y-101217023D01*
X150083333Y-101222976D01*
X150035714Y-101205119D01*
X150011904Y-101184285D01*
X149988095Y-101139642D01*
X149964285Y-101047380D01*
X149940476Y-101002738D01*
X149916666Y-100981904D01*
X149869047Y-100964047D01*
X149821428Y-100970000D01*
X149773809Y-100999761D01*
X149750000Y-101026547D01*
X149726190Y-101077142D01*
X149726190Y-101196190D01*
X149750000Y-101264642D01*
X158020476Y-98026190D02*
X157734761Y-98026190D01*
X157940119Y-98526190D02*
X157877619Y-98026190D01*
X157615714Y-98026190D02*
X157344880Y-98526190D01*
X157282380Y-98026190D02*
X157678214Y-98526190D01*
X157154404Y-98526190D02*
X157091904Y-98026190D01*
X156972857Y-98026190D01*
X156904404Y-98050000D01*
X156862738Y-98097619D01*
X156844880Y-98145238D01*
X156832976Y-98240476D01*
X156841904Y-98311904D01*
X156877619Y-98407142D01*
X156907380Y-98454761D01*
X156960952Y-98502380D01*
X157035357Y-98526190D01*
X157154404Y-98526190D01*
X155185357Y-98526190D02*
X155322261Y-98288095D01*
X155471071Y-98526190D02*
X155408571Y-98026190D01*
X155218095Y-98026190D01*
X155173452Y-98050000D01*
X155152619Y-98073809D01*
X155134761Y-98121428D01*
X155143690Y-98192857D01*
X155173452Y-98240476D01*
X155200238Y-98264285D01*
X155250833Y-98288095D01*
X155441309Y-98288095D01*
X154956190Y-98026190D02*
X154685357Y-98526190D01*
X154622857Y-98026190D02*
X155018690Y-98526190D01*
X154494880Y-98526190D02*
X154432380Y-98026190D01*
X154313333Y-98026190D01*
X154244880Y-98050000D01*
X154203214Y-98097619D01*
X154185357Y-98145238D01*
X154173452Y-98240476D01*
X154182380Y-98311904D01*
X154218095Y-98407142D01*
X154247857Y-98454761D01*
X154301428Y-98502380D01*
X154375833Y-98526190D01*
X154494880Y-98526190D01*
X152694285Y-98026190D02*
X152590119Y-98526190D01*
X152360952Y-98026190D01*
X152277619Y-98502380D02*
X152209166Y-98526190D01*
X152090119Y-98526190D01*
X152039523Y-98502380D01*
X152012738Y-98478571D01*
X151982976Y-98430952D01*
X151977023Y-98383333D01*
X151994880Y-98335714D01*
X152015714Y-98311904D01*
X152060357Y-98288095D01*
X152152619Y-98264285D01*
X152197261Y-98240476D01*
X152218095Y-98216666D01*
X152235952Y-98169047D01*
X152230000Y-98121428D01*
X152200238Y-98073809D01*
X152173452Y-98050000D01*
X152122857Y-98026190D01*
X152003809Y-98026190D01*
X151935357Y-98050000D01*
X152573452Y-92750000D02*
X152618095Y-92726190D01*
X152689523Y-92726190D01*
X152763928Y-92750000D01*
X152817500Y-92797619D01*
X152847261Y-92845238D01*
X152882976Y-92940476D01*
X152891904Y-93011904D01*
X152880000Y-93107142D01*
X152862142Y-93154761D01*
X152820476Y-93202380D01*
X152752023Y-93226190D01*
X152704404Y-93226190D01*
X152630000Y-93202380D01*
X152603214Y-93178571D01*
X152582380Y-93011904D01*
X152677619Y-93011904D01*
X152394880Y-93226190D02*
X152332380Y-92726190D01*
X152109166Y-93226190D01*
X152046666Y-92726190D01*
X151871071Y-93226190D02*
X151808571Y-92726190D01*
X151689523Y-92726190D01*
X151621071Y-92750000D01*
X151579404Y-92797619D01*
X151561547Y-92845238D01*
X151549642Y-92940476D01*
X151558571Y-93011904D01*
X151594285Y-93107142D01*
X151624047Y-93154761D01*
X151677619Y-93202380D01*
X151752023Y-93226190D01*
X151871071Y-93226190D01*
X155352023Y-93226190D02*
X155289523Y-92726190D01*
X154956190Y-92726190D02*
X154860952Y-92726190D01*
X154816309Y-92750000D01*
X154774642Y-92797619D01*
X154762738Y-92892857D01*
X154783571Y-93059523D01*
X154819285Y-93154761D01*
X154872857Y-93202380D01*
X154923452Y-93226190D01*
X155018690Y-93226190D01*
X155063333Y-93202380D01*
X155105000Y-93154761D01*
X155116904Y-93059523D01*
X155096071Y-92892857D01*
X155060357Y-92797619D01*
X155006785Y-92750000D01*
X154956190Y-92726190D01*
X154432380Y-92726190D02*
X154384761Y-92726190D01*
X154340119Y-92750000D01*
X154319285Y-92773809D01*
X154301428Y-92821428D01*
X154289523Y-92916666D01*
X154304404Y-93035714D01*
X154340119Y-93130952D01*
X154369880Y-93178571D01*
X154396666Y-93202380D01*
X154447261Y-93226190D01*
X154494880Y-93226190D01*
X154539523Y-93202380D01*
X154560357Y-93178571D01*
X154578214Y-93130952D01*
X154590119Y-93035714D01*
X154575238Y-92916666D01*
X154539523Y-92821428D01*
X154509761Y-92773809D01*
X154482976Y-92750000D01*
X154432380Y-92726190D01*
X157788333Y-92964285D02*
X157621666Y-92964285D01*
X157582976Y-93226190D02*
X157821071Y-93226190D01*
X157758571Y-92726190D01*
X157520476Y-92726190D01*
X157368690Y-93226190D02*
X157306190Y-92726190D01*
X157082976Y-93226190D01*
X157020476Y-92726190D01*
D11*
X159000000Y-102890000D02*
X152990000Y-102890000D01*
X156750000Y-109710000D02*
X152990000Y-109710000D01*
X152990000Y-102890000D02*
X152990000Y-104150000D01*
X152990000Y-109710000D02*
X152990000Y-108450000D01*
X152600000Y-99700000D02*
X152900000Y-100000000D01*
X152900000Y-99400000D02*
X152900000Y-100000000D01*
X152600000Y-99700000D02*
X152900000Y-99400000D01*
X151700000Y-98850000D02*
X151100000Y-98850000D01*
X152400000Y-102300000D02*
X152400000Y-99500000D01*
X151100000Y-102950000D02*
X151700000Y-102950000D01*
X150400000Y-99500000D02*
X150400000Y-102300000D01*
X150400000Y-102250000D02*
G75*
G03X151100000Y-102950000I700000J0D01*
G01*
X151700000Y-102950000D02*
G75*
G03X152400000Y-102250000I0J700000D01*
G01*
X152400000Y-99550000D02*
G75*
G03X151700000Y-98850000I-700000J0D01*
G01*
X151100000Y-98850000D02*
G75*
G03X150400000Y-99550000I0J-700000D01*
G01*
X153720000Y-100550000D02*
X153720000Y-101050000D01*
X156080000Y-100550000D02*
X156080000Y-101050000D01*
X157962779Y-100310000D02*
X157637221Y-100310000D01*
X157962779Y-99290000D02*
X157637221Y-99290000D01*
X157962779Y-102410000D02*
X157637221Y-102410000D01*
X157962779Y-101390000D02*
X157637221Y-101390000D01*
X157862779Y-111210000D02*
X157537221Y-111210000D01*
X157862779Y-110190000D02*
X157537221Y-110190000D01*
X157862779Y-112390000D02*
X157537221Y-112390000D01*
X157862779Y-113410000D02*
X157537221Y-113410000D01*
M02*
