G04 #@! TF.GenerationSoftware,KiCad,Pcbnew,(5.1.0)-1*
G04 #@! TF.CreationDate,2019-07-27T07:21:47+08:00*
G04 #@! TF.ProjectId,Down,446f776e-2e6b-4696-9361-645f70636258,rev?*
G04 #@! TF.SameCoordinates,Original*
G04 #@! TF.FileFunction,Soldermask,Bot*
G04 #@! TF.FilePolarity,Negative*
%FSLAX46Y46*%
G04 Gerber Fmt 4.6, Leading zero omitted, Abs format (unit mm)*
G04 Created by KiCad (PCBNEW (5.1.0)-1) date 2019-07-27 07:21:47*
%MOMM*%
%LPD*%
G04 APERTURE LIST*
%ADD10C,0.100000*%
G04 APERTURE END LIST*
D10*
G36*
X159278212Y-125716249D02*
G01*
X159372651Y-125744897D01*
X159459687Y-125791418D01*
X159535975Y-125854025D01*
X159598582Y-125930313D01*
X159645103Y-126017348D01*
X159673751Y-126111787D01*
X159681000Y-126185388D01*
X159681000Y-127134612D01*
X159673751Y-127208213D01*
X159645103Y-127302652D01*
X159598582Y-127389687D01*
X159535975Y-127465975D01*
X159459687Y-127528582D01*
X159372652Y-127575103D01*
X159278213Y-127603751D01*
X159180000Y-127613424D01*
X159081788Y-127603751D01*
X158987349Y-127575103D01*
X158900314Y-127528582D01*
X158824026Y-127465975D01*
X158761419Y-127389687D01*
X158714898Y-127302652D01*
X158686250Y-127208213D01*
X158679001Y-127134612D01*
X158679001Y-127134610D01*
X158679000Y-127134600D01*
X158679000Y-126185389D01*
X158686249Y-126111788D01*
X158714897Y-126017349D01*
X158761418Y-125930313D01*
X158824025Y-125854025D01*
X158900313Y-125791418D01*
X158987348Y-125744897D01*
X159081787Y-125716249D01*
X159180000Y-125706576D01*
X159278212Y-125716249D01*
X159278212Y-125716249D01*
G37*
G36*
X150618212Y-125716249D02*
G01*
X150712651Y-125744897D01*
X150799687Y-125791418D01*
X150875975Y-125854025D01*
X150938582Y-125930313D01*
X150985103Y-126017348D01*
X151013751Y-126111787D01*
X151021000Y-126185388D01*
X151021000Y-127134612D01*
X151013751Y-127208213D01*
X150985103Y-127302652D01*
X150938582Y-127389687D01*
X150875975Y-127465975D01*
X150799687Y-127528582D01*
X150712652Y-127575103D01*
X150618213Y-127603751D01*
X150520000Y-127613424D01*
X150421788Y-127603751D01*
X150327349Y-127575103D01*
X150240314Y-127528582D01*
X150164026Y-127465975D01*
X150101419Y-127389687D01*
X150054898Y-127302652D01*
X150026250Y-127208213D01*
X150019001Y-127134612D01*
X150019001Y-127134610D01*
X150019000Y-127134600D01*
X150019000Y-126185389D01*
X150026249Y-126111788D01*
X150054897Y-126017349D01*
X150101418Y-125930313D01*
X150164025Y-125854025D01*
X150240313Y-125791418D01*
X150327348Y-125744897D01*
X150421787Y-125716249D01*
X150520000Y-125706576D01*
X150618212Y-125716249D01*
X150618212Y-125716249D01*
G37*
G36*
X159278212Y-121216249D02*
G01*
X159372651Y-121244897D01*
X159459687Y-121291418D01*
X159535975Y-121354025D01*
X159598582Y-121430313D01*
X159645103Y-121517348D01*
X159673751Y-121611787D01*
X159681000Y-121685388D01*
X159681000Y-122634612D01*
X159673751Y-122708213D01*
X159645103Y-122802652D01*
X159598582Y-122889687D01*
X159535975Y-122965975D01*
X159459687Y-123028582D01*
X159372652Y-123075103D01*
X159278213Y-123103751D01*
X159180000Y-123113424D01*
X159081788Y-123103751D01*
X158987349Y-123075103D01*
X158900314Y-123028582D01*
X158824026Y-122965975D01*
X158761419Y-122889687D01*
X158714898Y-122802652D01*
X158686250Y-122708213D01*
X158679001Y-122634612D01*
X158679001Y-122634610D01*
X158679000Y-122634600D01*
X158679000Y-121685389D01*
X158686249Y-121611788D01*
X158714897Y-121517349D01*
X158761418Y-121430313D01*
X158824025Y-121354025D01*
X158900313Y-121291418D01*
X158987348Y-121244897D01*
X159081787Y-121216249D01*
X159180000Y-121206576D01*
X159278212Y-121216249D01*
X159278212Y-121216249D01*
G37*
G36*
X150618212Y-121216249D02*
G01*
X150712651Y-121244897D01*
X150799687Y-121291418D01*
X150875975Y-121354025D01*
X150938582Y-121430313D01*
X150985103Y-121517348D01*
X151013751Y-121611787D01*
X151021000Y-121685388D01*
X151021000Y-122634612D01*
X151013751Y-122708213D01*
X150985103Y-122802652D01*
X150938582Y-122889687D01*
X150875975Y-122965975D01*
X150799687Y-123028582D01*
X150712652Y-123075103D01*
X150618213Y-123103751D01*
X150520000Y-123113424D01*
X150421788Y-123103751D01*
X150327349Y-123075103D01*
X150240314Y-123028582D01*
X150164026Y-122965975D01*
X150101419Y-122889687D01*
X150054898Y-122802652D01*
X150026250Y-122708213D01*
X150019001Y-122634612D01*
X150019001Y-122634610D01*
X150019000Y-122634600D01*
X150019000Y-121685389D01*
X150026249Y-121611788D01*
X150054897Y-121517349D01*
X150101418Y-121430313D01*
X150164025Y-121354025D01*
X150240313Y-121291418D01*
X150327348Y-121244897D01*
X150421787Y-121216249D01*
X150520000Y-121206576D01*
X150618212Y-121216249D01*
X150618212Y-121216249D01*
G37*
G36*
X151388843Y-120202292D02*
G01*
X151439588Y-120223311D01*
X151475470Y-120238174D01*
X151553432Y-120290267D01*
X151619733Y-120356568D01*
X151671826Y-120434530D01*
X151671826Y-120434531D01*
X151707708Y-120521157D01*
X151726000Y-120613117D01*
X151726000Y-120706882D01*
X151707707Y-120798844D01*
X151683427Y-120857461D01*
X151676316Y-120880905D01*
X151673914Y-120905291D01*
X151676316Y-120929677D01*
X151683429Y-120953126D01*
X151694980Y-120974737D01*
X151710525Y-120993679D01*
X151729467Y-121009225D01*
X151751077Y-121020776D01*
X151774526Y-121027889D01*
X151798912Y-121030291D01*
X151823298Y-121027889D01*
X151846747Y-121020776D01*
X151868359Y-121009224D01*
X151883738Y-120998948D01*
X151928905Y-120980240D01*
X151947617Y-120972489D01*
X152015430Y-120959000D01*
X152084570Y-120959000D01*
X152152383Y-120972489D01*
X152164182Y-120977376D01*
X152216258Y-120998946D01*
X152273748Y-121037360D01*
X152322640Y-121086252D01*
X152361054Y-121143742D01*
X152372741Y-121171959D01*
X152387511Y-121207617D01*
X152401000Y-121275430D01*
X152401000Y-121344570D01*
X152387511Y-121412383D01*
X152374774Y-121443134D01*
X152356949Y-121486166D01*
X152349836Y-121509615D01*
X152347434Y-121534001D01*
X152349836Y-121558387D01*
X152356949Y-121581836D01*
X152368500Y-121603447D01*
X152384046Y-121622389D01*
X152402987Y-121637934D01*
X152424598Y-121649485D01*
X152448047Y-121656598D01*
X152472433Y-121659000D01*
X152484570Y-121659000D01*
X152552383Y-121672489D01*
X152552386Y-121672490D01*
X152552385Y-121672490D01*
X152616258Y-121698946D01*
X152673748Y-121737360D01*
X152722640Y-121786252D01*
X152746067Y-121821313D01*
X152761613Y-121840255D01*
X152780555Y-121855800D01*
X152802165Y-121867351D01*
X152825614Y-121874464D01*
X152850000Y-121876866D01*
X152874386Y-121874464D01*
X152897835Y-121867351D01*
X152919446Y-121855800D01*
X152938388Y-121840254D01*
X152953933Y-121821313D01*
X152977360Y-121786252D01*
X153026252Y-121737360D01*
X153083742Y-121698946D01*
X153147615Y-121672490D01*
X153147614Y-121672490D01*
X153147617Y-121672489D01*
X153215430Y-121659000D01*
X153227567Y-121659000D01*
X153251953Y-121656598D01*
X153275402Y-121649485D01*
X153297013Y-121637934D01*
X153315955Y-121622389D01*
X153331500Y-121603447D01*
X153343051Y-121581836D01*
X153350164Y-121558387D01*
X153352566Y-121534001D01*
X153350164Y-121509615D01*
X153343051Y-121486166D01*
X153325227Y-121443134D01*
X153312489Y-121412383D01*
X153299000Y-121344570D01*
X153299000Y-121275430D01*
X153312489Y-121207617D01*
X153327259Y-121171959D01*
X153338946Y-121143742D01*
X153377360Y-121086252D01*
X153426252Y-121037360D01*
X153483742Y-120998946D01*
X153535818Y-120977376D01*
X153547617Y-120972489D01*
X153615430Y-120959000D01*
X153684570Y-120959000D01*
X153752383Y-120972489D01*
X153764182Y-120977376D01*
X153816258Y-120998946D01*
X153873748Y-121037360D01*
X153922640Y-121086252D01*
X153946067Y-121121313D01*
X153961613Y-121140255D01*
X153980555Y-121155800D01*
X154002165Y-121167351D01*
X154025614Y-121174464D01*
X154050000Y-121176866D01*
X154074386Y-121174464D01*
X154097835Y-121167351D01*
X154119446Y-121155800D01*
X154138388Y-121140254D01*
X154153933Y-121121313D01*
X154177360Y-121086252D01*
X154226252Y-121037360D01*
X154283742Y-120998946D01*
X154335818Y-120977376D01*
X154347617Y-120972489D01*
X154415430Y-120959000D01*
X154484570Y-120959000D01*
X154552383Y-120972489D01*
X154564182Y-120977376D01*
X154616258Y-120998946D01*
X154673748Y-121037360D01*
X154722640Y-121086252D01*
X154746067Y-121121313D01*
X154761613Y-121140255D01*
X154780555Y-121155800D01*
X154802165Y-121167351D01*
X154825614Y-121174464D01*
X154850000Y-121176866D01*
X154874386Y-121174464D01*
X154897835Y-121167351D01*
X154919446Y-121155800D01*
X154938388Y-121140254D01*
X154953933Y-121121313D01*
X154977360Y-121086252D01*
X155026252Y-121037360D01*
X155083742Y-120998946D01*
X155135818Y-120977376D01*
X155147617Y-120972489D01*
X155215430Y-120959000D01*
X155284570Y-120959000D01*
X155352383Y-120972489D01*
X155364182Y-120977376D01*
X155416258Y-120998946D01*
X155473748Y-121037360D01*
X155522640Y-121086252D01*
X155546067Y-121121313D01*
X155561613Y-121140255D01*
X155580555Y-121155800D01*
X155602165Y-121167351D01*
X155625614Y-121174464D01*
X155650000Y-121176866D01*
X155674386Y-121174464D01*
X155697835Y-121167351D01*
X155719446Y-121155800D01*
X155738388Y-121140254D01*
X155753933Y-121121313D01*
X155777360Y-121086252D01*
X155826252Y-121037360D01*
X155883742Y-120998946D01*
X155935818Y-120977376D01*
X155947617Y-120972489D01*
X156015430Y-120959000D01*
X156084570Y-120959000D01*
X156152383Y-120972489D01*
X156164182Y-120977376D01*
X156216258Y-120998946D01*
X156273748Y-121037360D01*
X156322640Y-121086252D01*
X156361054Y-121143742D01*
X156372741Y-121171959D01*
X156387511Y-121207617D01*
X156401000Y-121275430D01*
X156401000Y-121344570D01*
X156387511Y-121412383D01*
X156374774Y-121443134D01*
X156356949Y-121486166D01*
X156349836Y-121509615D01*
X156347434Y-121534001D01*
X156349836Y-121558387D01*
X156356949Y-121581836D01*
X156368500Y-121603447D01*
X156384046Y-121622389D01*
X156402987Y-121637934D01*
X156424598Y-121649485D01*
X156448047Y-121656598D01*
X156472433Y-121659000D01*
X156484570Y-121659000D01*
X156552383Y-121672489D01*
X156552386Y-121672490D01*
X156552385Y-121672490D01*
X156616258Y-121698946D01*
X156673748Y-121737360D01*
X156722640Y-121786252D01*
X156746067Y-121821313D01*
X156761613Y-121840255D01*
X156780555Y-121855800D01*
X156802165Y-121867351D01*
X156825614Y-121874464D01*
X156850000Y-121876866D01*
X156874386Y-121874464D01*
X156897835Y-121867351D01*
X156919446Y-121855800D01*
X156938388Y-121840254D01*
X156953933Y-121821313D01*
X156977360Y-121786252D01*
X157026252Y-121737360D01*
X157083742Y-121698946D01*
X157147615Y-121672490D01*
X157147614Y-121672490D01*
X157147617Y-121672489D01*
X157215430Y-121659000D01*
X157227567Y-121659000D01*
X157251953Y-121656598D01*
X157275402Y-121649485D01*
X157297013Y-121637934D01*
X157315955Y-121622389D01*
X157331500Y-121603447D01*
X157343051Y-121581836D01*
X157350164Y-121558387D01*
X157352566Y-121534001D01*
X157350164Y-121509615D01*
X157343051Y-121486166D01*
X157325227Y-121443134D01*
X157312489Y-121412383D01*
X157299000Y-121344570D01*
X157299000Y-121275430D01*
X157312489Y-121207617D01*
X157327259Y-121171959D01*
X157338946Y-121143742D01*
X157377360Y-121086252D01*
X157426252Y-121037360D01*
X157483742Y-120998946D01*
X157535818Y-120977376D01*
X157547617Y-120972489D01*
X157615430Y-120959000D01*
X157684570Y-120959000D01*
X157752383Y-120972489D01*
X157771095Y-120980240D01*
X157816262Y-120998948D01*
X157831641Y-121009224D01*
X157853251Y-121020776D01*
X157876700Y-121027889D01*
X157901086Y-121030291D01*
X157925472Y-121027889D01*
X157948921Y-121020776D01*
X157970532Y-121009225D01*
X157989474Y-120993680D01*
X158005019Y-120974738D01*
X158016571Y-120953128D01*
X158023684Y-120929679D01*
X158026086Y-120905293D01*
X158023684Y-120880907D01*
X158016573Y-120857461D01*
X157992293Y-120798844D01*
X157974000Y-120706882D01*
X157974000Y-120613117D01*
X157992292Y-120521157D01*
X158028174Y-120434531D01*
X158028174Y-120434530D01*
X158080267Y-120356568D01*
X158146568Y-120290267D01*
X158224530Y-120238174D01*
X158260412Y-120223311D01*
X158311157Y-120202292D01*
X158403117Y-120184000D01*
X158496883Y-120184000D01*
X158588843Y-120202292D01*
X158639588Y-120223311D01*
X158675470Y-120238174D01*
X158753432Y-120290267D01*
X158819733Y-120356568D01*
X158871826Y-120434530D01*
X158871826Y-120434531D01*
X158907708Y-120521157D01*
X158926000Y-120613117D01*
X158926000Y-120706883D01*
X158907708Y-120798843D01*
X158886689Y-120849588D01*
X158871826Y-120885470D01*
X158819733Y-120963432D01*
X158753432Y-121029733D01*
X158675470Y-121081826D01*
X158664784Y-121086252D01*
X158588843Y-121117708D01*
X158496883Y-121136000D01*
X158403117Y-121136000D01*
X158311157Y-121117708D01*
X158235216Y-121086252D01*
X158224530Y-121081826D01*
X158167381Y-121043640D01*
X158145775Y-121032091D01*
X158122326Y-121024978D01*
X158097940Y-121022576D01*
X158073553Y-121024978D01*
X158050104Y-121032091D01*
X158028494Y-121043642D01*
X158009552Y-121059187D01*
X157994006Y-121078129D01*
X157982455Y-121099739D01*
X157975342Y-121123188D01*
X157972940Y-121147574D01*
X157975342Y-121171961D01*
X157982454Y-121195408D01*
X157987511Y-121207617D01*
X158001000Y-121275430D01*
X158001000Y-121344570D01*
X157987511Y-121412383D01*
X157987510Y-121412385D01*
X157961054Y-121476258D01*
X157922640Y-121533748D01*
X157873748Y-121582640D01*
X157816258Y-121621054D01*
X157775504Y-121637934D01*
X157752383Y-121647511D01*
X157684570Y-121661000D01*
X157672433Y-121661000D01*
X157648047Y-121663402D01*
X157624598Y-121670515D01*
X157602987Y-121682066D01*
X157584045Y-121697611D01*
X157568500Y-121716553D01*
X157556949Y-121738164D01*
X157549836Y-121761613D01*
X157547434Y-121785999D01*
X157549836Y-121810385D01*
X157556949Y-121833834D01*
X157561051Y-121843738D01*
X157561052Y-121843739D01*
X157587511Y-121907617D01*
X157601000Y-121975430D01*
X157601000Y-122044570D01*
X157587511Y-122112383D01*
X157587510Y-122112385D01*
X157561054Y-122176258D01*
X157522640Y-122233748D01*
X157473748Y-122282640D01*
X157416258Y-122321054D01*
X157364182Y-122342624D01*
X157352383Y-122347511D01*
X157284570Y-122361000D01*
X157215430Y-122361000D01*
X157147617Y-122347511D01*
X157135818Y-122342624D01*
X157083742Y-122321054D01*
X157026252Y-122282640D01*
X156977360Y-122233748D01*
X156953933Y-122198687D01*
X156938387Y-122179745D01*
X156919445Y-122164200D01*
X156897835Y-122152649D01*
X156874386Y-122145536D01*
X156850000Y-122143134D01*
X156825614Y-122145536D01*
X156802165Y-122152649D01*
X156780554Y-122164200D01*
X156761612Y-122179746D01*
X156746067Y-122198687D01*
X156722640Y-122233748D01*
X156673748Y-122282640D01*
X156616258Y-122321054D01*
X156564182Y-122342624D01*
X156552383Y-122347511D01*
X156484570Y-122361000D01*
X156415430Y-122361000D01*
X156347617Y-122347511D01*
X156335818Y-122342624D01*
X156283742Y-122321054D01*
X156226252Y-122282640D01*
X156177360Y-122233748D01*
X156153933Y-122198687D01*
X156138387Y-122179745D01*
X156119445Y-122164200D01*
X156097835Y-122152649D01*
X156074386Y-122145536D01*
X156050000Y-122143134D01*
X156025614Y-122145536D01*
X156002165Y-122152649D01*
X155980554Y-122164200D01*
X155961612Y-122179746D01*
X155946067Y-122198687D01*
X155922640Y-122233748D01*
X155873748Y-122282640D01*
X155816258Y-122321054D01*
X155764182Y-122342624D01*
X155752383Y-122347511D01*
X155684570Y-122361000D01*
X155615430Y-122361000D01*
X155547617Y-122347511D01*
X155535818Y-122342624D01*
X155483742Y-122321054D01*
X155426252Y-122282640D01*
X155377360Y-122233748D01*
X155338946Y-122176258D01*
X155312490Y-122112385D01*
X155312489Y-122112383D01*
X155299000Y-122044570D01*
X155299000Y-121975430D01*
X155312489Y-121907617D01*
X155338948Y-121843739D01*
X155338949Y-121843738D01*
X155343051Y-121833834D01*
X155350164Y-121810385D01*
X155352566Y-121785999D01*
X155350164Y-121761613D01*
X155343051Y-121738164D01*
X155331500Y-121716553D01*
X155315954Y-121697611D01*
X155297013Y-121682066D01*
X155275402Y-121670515D01*
X155251953Y-121663402D01*
X155227567Y-121661000D01*
X155215430Y-121661000D01*
X155147617Y-121647511D01*
X155124496Y-121637934D01*
X155083742Y-121621054D01*
X155026252Y-121582640D01*
X154977360Y-121533748D01*
X154953933Y-121498687D01*
X154938387Y-121479745D01*
X154919445Y-121464200D01*
X154897835Y-121452649D01*
X154874386Y-121445536D01*
X154850000Y-121443134D01*
X154825614Y-121445536D01*
X154802165Y-121452649D01*
X154780554Y-121464200D01*
X154761612Y-121479746D01*
X154746067Y-121498687D01*
X154722640Y-121533748D01*
X154673748Y-121582640D01*
X154616258Y-121621054D01*
X154575504Y-121637934D01*
X154552383Y-121647511D01*
X154484570Y-121661000D01*
X154472433Y-121661000D01*
X154448047Y-121663402D01*
X154424598Y-121670515D01*
X154402987Y-121682066D01*
X154384045Y-121697611D01*
X154368500Y-121716553D01*
X154356949Y-121738164D01*
X154349836Y-121761613D01*
X154347434Y-121785999D01*
X154349836Y-121810385D01*
X154356949Y-121833834D01*
X154361051Y-121843738D01*
X154361052Y-121843739D01*
X154387511Y-121907617D01*
X154401000Y-121975430D01*
X154401000Y-122044570D01*
X154387511Y-122112383D01*
X154387510Y-122112385D01*
X154361054Y-122176258D01*
X154322640Y-122233748D01*
X154273748Y-122282640D01*
X154216258Y-122321054D01*
X154164182Y-122342624D01*
X154152383Y-122347511D01*
X154084570Y-122361000D01*
X154015430Y-122361000D01*
X153947617Y-122347511D01*
X153935818Y-122342624D01*
X153883742Y-122321054D01*
X153826252Y-122282640D01*
X153777360Y-122233748D01*
X153753933Y-122198687D01*
X153738387Y-122179745D01*
X153719445Y-122164200D01*
X153697835Y-122152649D01*
X153674386Y-122145536D01*
X153650000Y-122143134D01*
X153625614Y-122145536D01*
X153602165Y-122152649D01*
X153580554Y-122164200D01*
X153561612Y-122179746D01*
X153546067Y-122198687D01*
X153522640Y-122233748D01*
X153473748Y-122282640D01*
X153416258Y-122321054D01*
X153364182Y-122342624D01*
X153352383Y-122347511D01*
X153284570Y-122361000D01*
X153215430Y-122361000D01*
X153147617Y-122347511D01*
X153135818Y-122342624D01*
X153083742Y-122321054D01*
X153026252Y-122282640D01*
X152977360Y-122233748D01*
X152953933Y-122198687D01*
X152938387Y-122179745D01*
X152919445Y-122164200D01*
X152897835Y-122152649D01*
X152874386Y-122145536D01*
X152850000Y-122143134D01*
X152825614Y-122145536D01*
X152802165Y-122152649D01*
X152780554Y-122164200D01*
X152761612Y-122179746D01*
X152746067Y-122198687D01*
X152722640Y-122233748D01*
X152673748Y-122282640D01*
X152616258Y-122321054D01*
X152564182Y-122342624D01*
X152552383Y-122347511D01*
X152484570Y-122361000D01*
X152415430Y-122361000D01*
X152347617Y-122347511D01*
X152335818Y-122342624D01*
X152283742Y-122321054D01*
X152226252Y-122282640D01*
X152177360Y-122233748D01*
X152138946Y-122176258D01*
X152112490Y-122112385D01*
X152112489Y-122112383D01*
X152099000Y-122044570D01*
X152099000Y-121975430D01*
X152112489Y-121907617D01*
X152138948Y-121843739D01*
X152138949Y-121843738D01*
X152143051Y-121833834D01*
X152150164Y-121810385D01*
X152152566Y-121785999D01*
X152150164Y-121761613D01*
X152143051Y-121738164D01*
X152131500Y-121716553D01*
X152115954Y-121697611D01*
X152097013Y-121682066D01*
X152075402Y-121670515D01*
X152051953Y-121663402D01*
X152027567Y-121661000D01*
X152015430Y-121661000D01*
X151947617Y-121647511D01*
X151924496Y-121637934D01*
X151883742Y-121621054D01*
X151826252Y-121582640D01*
X151777360Y-121533748D01*
X151738946Y-121476258D01*
X151712490Y-121412385D01*
X151712489Y-121412383D01*
X151699000Y-121344570D01*
X151699000Y-121275430D01*
X151712489Y-121207617D01*
X151717546Y-121195408D01*
X151724659Y-121171959D01*
X151727060Y-121147572D01*
X151724658Y-121123186D01*
X151717544Y-121099738D01*
X151705992Y-121078127D01*
X151690447Y-121059186D01*
X151671505Y-121043641D01*
X151649894Y-121032090D01*
X151626445Y-121024977D01*
X151602058Y-121022576D01*
X151577672Y-121024978D01*
X151554224Y-121032092D01*
X151532619Y-121043640D01*
X151475470Y-121081826D01*
X151464784Y-121086252D01*
X151388843Y-121117708D01*
X151296883Y-121136000D01*
X151203117Y-121136000D01*
X151111157Y-121117708D01*
X151035216Y-121086252D01*
X151024530Y-121081826D01*
X150946568Y-121029733D01*
X150880267Y-120963432D01*
X150828174Y-120885470D01*
X150813311Y-120849588D01*
X150792292Y-120798843D01*
X150774000Y-120706883D01*
X150774000Y-120613117D01*
X150792292Y-120521157D01*
X150828174Y-120434531D01*
X150828174Y-120434530D01*
X150880267Y-120356568D01*
X150946568Y-120290267D01*
X151024530Y-120238174D01*
X151060412Y-120223311D01*
X151111157Y-120202292D01*
X151203117Y-120184000D01*
X151296883Y-120184000D01*
X151388843Y-120202292D01*
X151388843Y-120202292D01*
G37*
G36*
X157254591Y-112378085D02*
G01*
X157288569Y-112388393D01*
X157319890Y-112405134D01*
X157347339Y-112427661D01*
X157369866Y-112455110D01*
X157386607Y-112486431D01*
X157396915Y-112520409D01*
X157401000Y-112561890D01*
X157401000Y-113238110D01*
X157396915Y-113279591D01*
X157386607Y-113313569D01*
X157369866Y-113344890D01*
X157347339Y-113372339D01*
X157319890Y-113394866D01*
X157288569Y-113411607D01*
X157254591Y-113421915D01*
X157213110Y-113426000D01*
X156611890Y-113426000D01*
X156570409Y-113421915D01*
X156536431Y-113411607D01*
X156505110Y-113394866D01*
X156477661Y-113372339D01*
X156455134Y-113344890D01*
X156438393Y-113313569D01*
X156428085Y-113279591D01*
X156424000Y-113238110D01*
X156424000Y-112561890D01*
X156428085Y-112520409D01*
X156438393Y-112486431D01*
X156455134Y-112455110D01*
X156477661Y-112427661D01*
X156505110Y-112405134D01*
X156536431Y-112388393D01*
X156570409Y-112378085D01*
X156611890Y-112374000D01*
X157213110Y-112374000D01*
X157254591Y-112378085D01*
X157254591Y-112378085D01*
G37*
G36*
X158829591Y-112378085D02*
G01*
X158863569Y-112388393D01*
X158894890Y-112405134D01*
X158922339Y-112427661D01*
X158944866Y-112455110D01*
X158961607Y-112486431D01*
X158971915Y-112520409D01*
X158976000Y-112561890D01*
X158976000Y-113238110D01*
X158971915Y-113279591D01*
X158961607Y-113313569D01*
X158944866Y-113344890D01*
X158922339Y-113372339D01*
X158894890Y-113394866D01*
X158863569Y-113411607D01*
X158829591Y-113421915D01*
X158788110Y-113426000D01*
X158186890Y-113426000D01*
X158145409Y-113421915D01*
X158111431Y-113411607D01*
X158080110Y-113394866D01*
X158052661Y-113372339D01*
X158030134Y-113344890D01*
X158013393Y-113313569D01*
X158003085Y-113279591D01*
X157999000Y-113238110D01*
X157999000Y-112561890D01*
X158003085Y-112520409D01*
X158013393Y-112486431D01*
X158030134Y-112455110D01*
X158052661Y-112427661D01*
X158080110Y-112405134D01*
X158111431Y-112388393D01*
X158145409Y-112378085D01*
X158186890Y-112374000D01*
X158788110Y-112374000D01*
X158829591Y-112378085D01*
X158829591Y-112378085D01*
G37*
G36*
X157254591Y-110178085D02*
G01*
X157288569Y-110188393D01*
X157319890Y-110205134D01*
X157347339Y-110227661D01*
X157369866Y-110255110D01*
X157386607Y-110286431D01*
X157396915Y-110320409D01*
X157401000Y-110361890D01*
X157401000Y-111038110D01*
X157396915Y-111079591D01*
X157386607Y-111113569D01*
X157369866Y-111144890D01*
X157347339Y-111172339D01*
X157319890Y-111194866D01*
X157288569Y-111211607D01*
X157254591Y-111221915D01*
X157213110Y-111226000D01*
X156611890Y-111226000D01*
X156570409Y-111221915D01*
X156536431Y-111211607D01*
X156505110Y-111194866D01*
X156477661Y-111172339D01*
X156455134Y-111144890D01*
X156438393Y-111113569D01*
X156428085Y-111079591D01*
X156424000Y-111038110D01*
X156424000Y-110361890D01*
X156428085Y-110320409D01*
X156438393Y-110286431D01*
X156455134Y-110255110D01*
X156477661Y-110227661D01*
X156505110Y-110205134D01*
X156536431Y-110188393D01*
X156570409Y-110178085D01*
X156611890Y-110174000D01*
X157213110Y-110174000D01*
X157254591Y-110178085D01*
X157254591Y-110178085D01*
G37*
G36*
X158829591Y-110178085D02*
G01*
X158863569Y-110188393D01*
X158894890Y-110205134D01*
X158922339Y-110227661D01*
X158944866Y-110255110D01*
X158961607Y-110286431D01*
X158971915Y-110320409D01*
X158976000Y-110361890D01*
X158976000Y-111038110D01*
X158971915Y-111079591D01*
X158961607Y-111113569D01*
X158944866Y-111144890D01*
X158922339Y-111172339D01*
X158894890Y-111194866D01*
X158863569Y-111211607D01*
X158829591Y-111221915D01*
X158788110Y-111226000D01*
X158186890Y-111226000D01*
X158145409Y-111221915D01*
X158111431Y-111211607D01*
X158080110Y-111194866D01*
X158052661Y-111172339D01*
X158030134Y-111144890D01*
X158013393Y-111113569D01*
X158003085Y-111079591D01*
X157999000Y-111038110D01*
X157999000Y-110361890D01*
X158003085Y-110320409D01*
X158013393Y-110286431D01*
X158030134Y-110255110D01*
X158052661Y-110227661D01*
X158080110Y-110205134D01*
X158111431Y-110188393D01*
X158145409Y-110178085D01*
X158186890Y-110174000D01*
X158788110Y-110174000D01*
X158829591Y-110178085D01*
X158829591Y-110178085D01*
G37*
G36*
X159101000Y-109401000D02*
G01*
X156999000Y-109401000D01*
X156999000Y-107799000D01*
X159101000Y-107799000D01*
X159101000Y-109401000D01*
X159101000Y-109401000D01*
G37*
G36*
X152801000Y-108251000D02*
G01*
X150699000Y-108251000D01*
X150699000Y-104349000D01*
X152801000Y-104349000D01*
X152801000Y-108251000D01*
X152801000Y-108251000D01*
G37*
G36*
X159101000Y-107101000D02*
G01*
X156999000Y-107101000D01*
X156999000Y-105499000D01*
X159101000Y-105499000D01*
X159101000Y-107101000D01*
X159101000Y-107101000D01*
G37*
G36*
X159101000Y-104801000D02*
G01*
X156999000Y-104801000D01*
X156999000Y-103199000D01*
X159101000Y-103199000D01*
X159101000Y-104801000D01*
X159101000Y-104801000D01*
G37*
G36*
X151662199Y-99049954D02*
G01*
X151674450Y-99050556D01*
X151692869Y-99050556D01*
X151715149Y-99052750D01*
X151799233Y-99069476D01*
X151820660Y-99075976D01*
X151899858Y-99108780D01*
X151905303Y-99111691D01*
X151905309Y-99111693D01*
X151914169Y-99116429D01*
X151914173Y-99116432D01*
X151919614Y-99119340D01*
X151990899Y-99166971D01*
X152008204Y-99181172D01*
X152068828Y-99241796D01*
X152083029Y-99259101D01*
X152130660Y-99330386D01*
X152133568Y-99335827D01*
X152133571Y-99335831D01*
X152138307Y-99344691D01*
X152138309Y-99344697D01*
X152141220Y-99350142D01*
X152174024Y-99429340D01*
X152180524Y-99450767D01*
X152197250Y-99534851D01*
X152199444Y-99557131D01*
X152199444Y-99575550D01*
X152200046Y-99587801D01*
X152201852Y-99606139D01*
X152201852Y-100143860D01*
X152200263Y-100159999D01*
X152195855Y-100174528D01*
X152190394Y-100187711D01*
X152185612Y-100211745D01*
X152185611Y-100236249D01*
X152190391Y-100260282D01*
X152199768Y-100282921D01*
X152201000Y-100284765D01*
X152201000Y-101516050D01*
X152194525Y-101528164D01*
X152187412Y-101551613D01*
X152185010Y-101575999D01*
X152187412Y-101600385D01*
X152194525Y-101623834D01*
X152196848Y-101628746D01*
X152200263Y-101640001D01*
X152201852Y-101656140D01*
X152201852Y-102193862D01*
X152200046Y-102212199D01*
X152199444Y-102224450D01*
X152199444Y-102242869D01*
X152197250Y-102265149D01*
X152180524Y-102349233D01*
X152174024Y-102370660D01*
X152141220Y-102449858D01*
X152138309Y-102455303D01*
X152138307Y-102455309D01*
X152133571Y-102464169D01*
X152133568Y-102464173D01*
X152130660Y-102469614D01*
X152083029Y-102540899D01*
X152068828Y-102558204D01*
X152008204Y-102618828D01*
X151990899Y-102633029D01*
X151919614Y-102680660D01*
X151914173Y-102683568D01*
X151914169Y-102683571D01*
X151905309Y-102688307D01*
X151905303Y-102688309D01*
X151899858Y-102691220D01*
X151820660Y-102724024D01*
X151799233Y-102730524D01*
X151715149Y-102747250D01*
X151692869Y-102749444D01*
X151674450Y-102749444D01*
X151662199Y-102750046D01*
X151643862Y-102751852D01*
X151156138Y-102751852D01*
X151137801Y-102750046D01*
X151125550Y-102749444D01*
X151107131Y-102749444D01*
X151084851Y-102747250D01*
X151000767Y-102730524D01*
X150979340Y-102724024D01*
X150900142Y-102691220D01*
X150894697Y-102688309D01*
X150894691Y-102688307D01*
X150885831Y-102683571D01*
X150885827Y-102683568D01*
X150880386Y-102680660D01*
X150809101Y-102633029D01*
X150791796Y-102618828D01*
X150731172Y-102558204D01*
X150716971Y-102540899D01*
X150669340Y-102469614D01*
X150666432Y-102464173D01*
X150666429Y-102464169D01*
X150661693Y-102455309D01*
X150661691Y-102455303D01*
X150658780Y-102449858D01*
X150625976Y-102370660D01*
X150619476Y-102349233D01*
X150602750Y-102265149D01*
X150600556Y-102242869D01*
X150600556Y-102224450D01*
X150599954Y-102212199D01*
X150598148Y-102193862D01*
X150598148Y-101656140D01*
X150599737Y-101640001D01*
X150604145Y-101625472D01*
X150609606Y-101612289D01*
X150614388Y-101588255D01*
X150614389Y-101563751D01*
X150609609Y-101539718D01*
X150600232Y-101517079D01*
X150599000Y-101515235D01*
X150599000Y-100283950D01*
X150605475Y-100271836D01*
X150612588Y-100248387D01*
X150614990Y-100224001D01*
X150612588Y-100199615D01*
X150605475Y-100176166D01*
X150603152Y-100171254D01*
X150599737Y-100159999D01*
X150598148Y-100143860D01*
X150598148Y-99606139D01*
X150599954Y-99587801D01*
X150600556Y-99575550D01*
X150600556Y-99557131D01*
X150602750Y-99534851D01*
X150619476Y-99450767D01*
X150625976Y-99429340D01*
X150658780Y-99350142D01*
X150661691Y-99344697D01*
X150661693Y-99344691D01*
X150666429Y-99335831D01*
X150666432Y-99335827D01*
X150669340Y-99330386D01*
X150716971Y-99259101D01*
X150731172Y-99241796D01*
X150791796Y-99181172D01*
X150809101Y-99166971D01*
X150880386Y-99119340D01*
X150885827Y-99116432D01*
X150885831Y-99116429D01*
X150894691Y-99111693D01*
X150894697Y-99111691D01*
X150900142Y-99108780D01*
X150979340Y-99075976D01*
X151000767Y-99069476D01*
X151084851Y-99052750D01*
X151107131Y-99050556D01*
X151125550Y-99050556D01*
X151137801Y-99049954D01*
X151156139Y-99048148D01*
X151643861Y-99048148D01*
X151662199Y-99049954D01*
X151662199Y-99049954D01*
G37*
G36*
X158929591Y-101378085D02*
G01*
X158963569Y-101388393D01*
X158994890Y-101405134D01*
X159022339Y-101427661D01*
X159044866Y-101455110D01*
X159061607Y-101486431D01*
X159071915Y-101520409D01*
X159076000Y-101561890D01*
X159076000Y-102238110D01*
X159071915Y-102279591D01*
X159061607Y-102313569D01*
X159044866Y-102344890D01*
X159022339Y-102372339D01*
X158994890Y-102394866D01*
X158963569Y-102411607D01*
X158929591Y-102421915D01*
X158888110Y-102426000D01*
X158286890Y-102426000D01*
X158245409Y-102421915D01*
X158211431Y-102411607D01*
X158180110Y-102394866D01*
X158152661Y-102372339D01*
X158130134Y-102344890D01*
X158113393Y-102313569D01*
X158103085Y-102279591D01*
X158099000Y-102238110D01*
X158099000Y-101561890D01*
X158103085Y-101520409D01*
X158113393Y-101486431D01*
X158130134Y-101455110D01*
X158152661Y-101427661D01*
X158180110Y-101405134D01*
X158211431Y-101388393D01*
X158245409Y-101378085D01*
X158286890Y-101374000D01*
X158888110Y-101374000D01*
X158929591Y-101378085D01*
X158929591Y-101378085D01*
G37*
G36*
X157354591Y-101378085D02*
G01*
X157388569Y-101388393D01*
X157419890Y-101405134D01*
X157447339Y-101427661D01*
X157469866Y-101455110D01*
X157486607Y-101486431D01*
X157496915Y-101520409D01*
X157501000Y-101561890D01*
X157501000Y-102238110D01*
X157496915Y-102279591D01*
X157486607Y-102313569D01*
X157469866Y-102344890D01*
X157447339Y-102372339D01*
X157419890Y-102394866D01*
X157388569Y-102411607D01*
X157354591Y-102421915D01*
X157313110Y-102426000D01*
X156711890Y-102426000D01*
X156670409Y-102421915D01*
X156636431Y-102411607D01*
X156605110Y-102394866D01*
X156577661Y-102372339D01*
X156555134Y-102344890D01*
X156538393Y-102313569D01*
X156528085Y-102279591D01*
X156524000Y-102238110D01*
X156524000Y-101561890D01*
X156528085Y-101520409D01*
X156538393Y-101486431D01*
X156555134Y-101455110D01*
X156577661Y-101427661D01*
X156605110Y-101405134D01*
X156636431Y-101388393D01*
X156670409Y-101378085D01*
X156711890Y-101374000D01*
X157313110Y-101374000D01*
X157354591Y-101378085D01*
X157354591Y-101378085D01*
G37*
G36*
X155901000Y-101601000D02*
G01*
X153899000Y-101601000D01*
X153899000Y-100999000D01*
X155901000Y-100999000D01*
X155901000Y-101601000D01*
X155901000Y-101601000D01*
G37*
G36*
X155901000Y-100601000D02*
G01*
X153899000Y-100601000D01*
X153899000Y-99999000D01*
X155901000Y-99999000D01*
X155901000Y-100601000D01*
X155901000Y-100601000D01*
G37*
G36*
X158929591Y-99278085D02*
G01*
X158963569Y-99288393D01*
X158994890Y-99305134D01*
X159022339Y-99327661D01*
X159044866Y-99355110D01*
X159061607Y-99386431D01*
X159071915Y-99420409D01*
X159076000Y-99461890D01*
X159076000Y-100138110D01*
X159071915Y-100179591D01*
X159061607Y-100213569D01*
X159044866Y-100244890D01*
X159022339Y-100272339D01*
X158994890Y-100294866D01*
X158963569Y-100311607D01*
X158929591Y-100321915D01*
X158888110Y-100326000D01*
X158286890Y-100326000D01*
X158245409Y-100321915D01*
X158211431Y-100311607D01*
X158180110Y-100294866D01*
X158152661Y-100272339D01*
X158130134Y-100244890D01*
X158113393Y-100213569D01*
X158103085Y-100179591D01*
X158099000Y-100138110D01*
X158099000Y-99461890D01*
X158103085Y-99420409D01*
X158113393Y-99386431D01*
X158130134Y-99355110D01*
X158152661Y-99327661D01*
X158180110Y-99305134D01*
X158211431Y-99288393D01*
X158245409Y-99278085D01*
X158286890Y-99274000D01*
X158888110Y-99274000D01*
X158929591Y-99278085D01*
X158929591Y-99278085D01*
G37*
G36*
X157354591Y-99278085D02*
G01*
X157388569Y-99288393D01*
X157419890Y-99305134D01*
X157447339Y-99327661D01*
X157469866Y-99355110D01*
X157486607Y-99386431D01*
X157496915Y-99420409D01*
X157501000Y-99461890D01*
X157501000Y-100138110D01*
X157496915Y-100179591D01*
X157486607Y-100213569D01*
X157469866Y-100244890D01*
X157447339Y-100272339D01*
X157419890Y-100294866D01*
X157388569Y-100311607D01*
X157354591Y-100321915D01*
X157313110Y-100326000D01*
X156711890Y-100326000D01*
X156670409Y-100321915D01*
X156636431Y-100311607D01*
X156605110Y-100294866D01*
X156577661Y-100272339D01*
X156555134Y-100244890D01*
X156538393Y-100213569D01*
X156528085Y-100179591D01*
X156524000Y-100138110D01*
X156524000Y-99461890D01*
X156528085Y-99420409D01*
X156538393Y-99386431D01*
X156555134Y-99355110D01*
X156577661Y-99327661D01*
X156605110Y-99305134D01*
X156636431Y-99288393D01*
X156670409Y-99278085D01*
X156711890Y-99274000D01*
X157313110Y-99274000D01*
X157354591Y-99278085D01*
X157354591Y-99278085D01*
G37*
G36*
X154950443Y-96005519D02*
G01*
X155016627Y-96012037D01*
X155186466Y-96063557D01*
X155342991Y-96147222D01*
X155378729Y-96176552D01*
X155480186Y-96259814D01*
X155563448Y-96361271D01*
X155592778Y-96397009D01*
X155676443Y-96553534D01*
X155727963Y-96723373D01*
X155745359Y-96900000D01*
X155727963Y-97076627D01*
X155676443Y-97246466D01*
X155592778Y-97402991D01*
X155563448Y-97438729D01*
X155480186Y-97540186D01*
X155378729Y-97623448D01*
X155342991Y-97652778D01*
X155186466Y-97736443D01*
X155016627Y-97787963D01*
X154950443Y-97794481D01*
X154884260Y-97801000D01*
X154795740Y-97801000D01*
X154729557Y-97794481D01*
X154663373Y-97787963D01*
X154493534Y-97736443D01*
X154337009Y-97652778D01*
X154301271Y-97623448D01*
X154199814Y-97540186D01*
X154116552Y-97438729D01*
X154087222Y-97402991D01*
X154003557Y-97246466D01*
X153952037Y-97076627D01*
X153934641Y-96900000D01*
X153952037Y-96723373D01*
X154003557Y-96553534D01*
X154087222Y-96397009D01*
X154116552Y-96361271D01*
X154199814Y-96259814D01*
X154301271Y-96176552D01*
X154337009Y-96147222D01*
X154493534Y-96063557D01*
X154663373Y-96012037D01*
X154729557Y-96005519D01*
X154795740Y-95999000D01*
X154884260Y-95999000D01*
X154950443Y-96005519D01*
X154950443Y-96005519D01*
G37*
G36*
X153201000Y-97801000D02*
G01*
X151399000Y-97801000D01*
X151399000Y-95999000D01*
X153201000Y-95999000D01*
X153201000Y-97801000D01*
X153201000Y-97801000D01*
G37*
G36*
X157490443Y-96005519D02*
G01*
X157556627Y-96012037D01*
X157726466Y-96063557D01*
X157882991Y-96147222D01*
X157918729Y-96176552D01*
X158020186Y-96259814D01*
X158103448Y-96361271D01*
X158132778Y-96397009D01*
X158216443Y-96553534D01*
X158267963Y-96723373D01*
X158285359Y-96900000D01*
X158267963Y-97076627D01*
X158216443Y-97246466D01*
X158132778Y-97402991D01*
X158103448Y-97438729D01*
X158020186Y-97540186D01*
X157918729Y-97623448D01*
X157882991Y-97652778D01*
X157726466Y-97736443D01*
X157556627Y-97787963D01*
X157490443Y-97794481D01*
X157424260Y-97801000D01*
X157335740Y-97801000D01*
X157269557Y-97794481D01*
X157203373Y-97787963D01*
X157033534Y-97736443D01*
X156877009Y-97652778D01*
X156841271Y-97623448D01*
X156739814Y-97540186D01*
X156656552Y-97438729D01*
X156627222Y-97402991D01*
X156543557Y-97246466D01*
X156492037Y-97076627D01*
X156474641Y-96900000D01*
X156492037Y-96723373D01*
X156543557Y-96553534D01*
X156627222Y-96397009D01*
X156656552Y-96361271D01*
X156739814Y-96259814D01*
X156841271Y-96176552D01*
X156877009Y-96147222D01*
X157033534Y-96063557D01*
X157203373Y-96012037D01*
X157269557Y-96005519D01*
X157335740Y-95999000D01*
X157424260Y-95999000D01*
X157490443Y-96005519D01*
X157490443Y-96005519D01*
G37*
G36*
X152410443Y-93465519D02*
G01*
X152476627Y-93472037D01*
X152646466Y-93523557D01*
X152802991Y-93607222D01*
X152838729Y-93636552D01*
X152940186Y-93719814D01*
X153023448Y-93821271D01*
X153052778Y-93857009D01*
X153136443Y-94013534D01*
X153187963Y-94183373D01*
X153205359Y-94360000D01*
X153187963Y-94536627D01*
X153136443Y-94706466D01*
X153052778Y-94862991D01*
X153023448Y-94898729D01*
X152940186Y-95000186D01*
X152838729Y-95083448D01*
X152802991Y-95112778D01*
X152646466Y-95196443D01*
X152476627Y-95247963D01*
X152410442Y-95254482D01*
X152344260Y-95261000D01*
X152255740Y-95261000D01*
X152189557Y-95254481D01*
X152123373Y-95247963D01*
X151953534Y-95196443D01*
X151797009Y-95112778D01*
X151761271Y-95083448D01*
X151659814Y-95000186D01*
X151576552Y-94898729D01*
X151547222Y-94862991D01*
X151463557Y-94706466D01*
X151412037Y-94536627D01*
X151394641Y-94360000D01*
X151412037Y-94183373D01*
X151463557Y-94013534D01*
X151547222Y-93857009D01*
X151576552Y-93821271D01*
X151659814Y-93719814D01*
X151761271Y-93636552D01*
X151797009Y-93607222D01*
X151953534Y-93523557D01*
X152123373Y-93472037D01*
X152189557Y-93465519D01*
X152255740Y-93459000D01*
X152344260Y-93459000D01*
X152410443Y-93465519D01*
X152410443Y-93465519D01*
G37*
G36*
X154950443Y-93465519D02*
G01*
X155016627Y-93472037D01*
X155186466Y-93523557D01*
X155342991Y-93607222D01*
X155378729Y-93636552D01*
X155480186Y-93719814D01*
X155563448Y-93821271D01*
X155592778Y-93857009D01*
X155676443Y-94013534D01*
X155727963Y-94183373D01*
X155745359Y-94360000D01*
X155727963Y-94536627D01*
X155676443Y-94706466D01*
X155592778Y-94862991D01*
X155563448Y-94898729D01*
X155480186Y-95000186D01*
X155378729Y-95083448D01*
X155342991Y-95112778D01*
X155186466Y-95196443D01*
X155016627Y-95247963D01*
X154950442Y-95254482D01*
X154884260Y-95261000D01*
X154795740Y-95261000D01*
X154729557Y-95254481D01*
X154663373Y-95247963D01*
X154493534Y-95196443D01*
X154337009Y-95112778D01*
X154301271Y-95083448D01*
X154199814Y-95000186D01*
X154116552Y-94898729D01*
X154087222Y-94862991D01*
X154003557Y-94706466D01*
X153952037Y-94536627D01*
X153934641Y-94360000D01*
X153952037Y-94183373D01*
X154003557Y-94013534D01*
X154087222Y-93857009D01*
X154116552Y-93821271D01*
X154199814Y-93719814D01*
X154301271Y-93636552D01*
X154337009Y-93607222D01*
X154493534Y-93523557D01*
X154663373Y-93472037D01*
X154729557Y-93465519D01*
X154795740Y-93459000D01*
X154884260Y-93459000D01*
X154950443Y-93465519D01*
X154950443Y-93465519D01*
G37*
G36*
X157490443Y-93465519D02*
G01*
X157556627Y-93472037D01*
X157726466Y-93523557D01*
X157882991Y-93607222D01*
X157918729Y-93636552D01*
X158020186Y-93719814D01*
X158103448Y-93821271D01*
X158132778Y-93857009D01*
X158216443Y-94013534D01*
X158267963Y-94183373D01*
X158285359Y-94360000D01*
X158267963Y-94536627D01*
X158216443Y-94706466D01*
X158132778Y-94862991D01*
X158103448Y-94898729D01*
X158020186Y-95000186D01*
X157918729Y-95083448D01*
X157882991Y-95112778D01*
X157726466Y-95196443D01*
X157556627Y-95247963D01*
X157490442Y-95254482D01*
X157424260Y-95261000D01*
X157335740Y-95261000D01*
X157269557Y-95254481D01*
X157203373Y-95247963D01*
X157033534Y-95196443D01*
X156877009Y-95112778D01*
X156841271Y-95083448D01*
X156739814Y-95000186D01*
X156656552Y-94898729D01*
X156627222Y-94862991D01*
X156543557Y-94706466D01*
X156492037Y-94536627D01*
X156474641Y-94360000D01*
X156492037Y-94183373D01*
X156543557Y-94013534D01*
X156627222Y-93857009D01*
X156656552Y-93821271D01*
X156739814Y-93719814D01*
X156841271Y-93636552D01*
X156877009Y-93607222D01*
X157033534Y-93523557D01*
X157203373Y-93472037D01*
X157269557Y-93465519D01*
X157335740Y-93459000D01*
X157424260Y-93459000D01*
X157490443Y-93465519D01*
X157490443Y-93465519D01*
G37*
M02*
