G04 #@! TF.GenerationSoftware,KiCad,Pcbnew,(5.1.0)-1*
G04 #@! TF.CreationDate,2019-07-27T07:21:47+08:00*
G04 #@! TF.ProjectId,Down,446f776e-2e6b-4696-9361-645f70636258,rev?*
G04 #@! TF.SameCoordinates,Original*
G04 #@! TF.FileFunction,Paste,Bot*
G04 #@! TF.FilePolarity,Positive*
%FSLAX46Y46*%
G04 Gerber Fmt 4.6, Leading zero omitted, Abs format (unit mm)*
G04 Created by KiCad (PCBNEW (5.1.0)-1) date 2019-07-27 07:21:47*
%MOMM*%
%LPD*%
G04 APERTURE LIST*
%ADD10R,2.000000X1.500000*%
%ADD11R,2.000000X3.800000*%
%ADD12R,0.400000X0.500000*%
%ADD13R,0.300000X0.500000*%
%ADD14C,0.100000*%
%ADD15C,0.875000*%
G04 APERTURE END LIST*
D10*
X158050000Y-104000000D03*
X158050000Y-108600000D03*
X158050000Y-106300000D03*
D11*
X151750000Y-106300000D03*
D12*
X154150000Y-100300000D03*
D13*
X154650000Y-100300000D03*
D12*
X155650000Y-100300000D03*
D13*
X155150000Y-100300000D03*
D12*
X154150000Y-101300000D03*
D13*
X155150000Y-101300000D03*
X154650000Y-101300000D03*
D12*
X155650000Y-101300000D03*
D14*
G36*
X157252691Y-99326053D02*
G01*
X157273926Y-99329203D01*
X157294750Y-99334419D01*
X157314962Y-99341651D01*
X157334368Y-99350830D01*
X157352781Y-99361866D01*
X157370024Y-99374654D01*
X157385930Y-99389070D01*
X157400346Y-99404976D01*
X157413134Y-99422219D01*
X157424170Y-99440632D01*
X157433349Y-99460038D01*
X157440581Y-99480250D01*
X157445797Y-99501074D01*
X157448947Y-99522309D01*
X157450000Y-99543750D01*
X157450000Y-100056250D01*
X157448947Y-100077691D01*
X157445797Y-100098926D01*
X157440581Y-100119750D01*
X157433349Y-100139962D01*
X157424170Y-100159368D01*
X157413134Y-100177781D01*
X157400346Y-100195024D01*
X157385930Y-100210930D01*
X157370024Y-100225346D01*
X157352781Y-100238134D01*
X157334368Y-100249170D01*
X157314962Y-100258349D01*
X157294750Y-100265581D01*
X157273926Y-100270797D01*
X157252691Y-100273947D01*
X157231250Y-100275000D01*
X156793750Y-100275000D01*
X156772309Y-100273947D01*
X156751074Y-100270797D01*
X156730250Y-100265581D01*
X156710038Y-100258349D01*
X156690632Y-100249170D01*
X156672219Y-100238134D01*
X156654976Y-100225346D01*
X156639070Y-100210930D01*
X156624654Y-100195024D01*
X156611866Y-100177781D01*
X156600830Y-100159368D01*
X156591651Y-100139962D01*
X156584419Y-100119750D01*
X156579203Y-100098926D01*
X156576053Y-100077691D01*
X156575000Y-100056250D01*
X156575000Y-99543750D01*
X156576053Y-99522309D01*
X156579203Y-99501074D01*
X156584419Y-99480250D01*
X156591651Y-99460038D01*
X156600830Y-99440632D01*
X156611866Y-99422219D01*
X156624654Y-99404976D01*
X156639070Y-99389070D01*
X156654976Y-99374654D01*
X156672219Y-99361866D01*
X156690632Y-99350830D01*
X156710038Y-99341651D01*
X156730250Y-99334419D01*
X156751074Y-99329203D01*
X156772309Y-99326053D01*
X156793750Y-99325000D01*
X157231250Y-99325000D01*
X157252691Y-99326053D01*
X157252691Y-99326053D01*
G37*
D15*
X157012500Y-99800000D03*
D14*
G36*
X158827691Y-99326053D02*
G01*
X158848926Y-99329203D01*
X158869750Y-99334419D01*
X158889962Y-99341651D01*
X158909368Y-99350830D01*
X158927781Y-99361866D01*
X158945024Y-99374654D01*
X158960930Y-99389070D01*
X158975346Y-99404976D01*
X158988134Y-99422219D01*
X158999170Y-99440632D01*
X159008349Y-99460038D01*
X159015581Y-99480250D01*
X159020797Y-99501074D01*
X159023947Y-99522309D01*
X159025000Y-99543750D01*
X159025000Y-100056250D01*
X159023947Y-100077691D01*
X159020797Y-100098926D01*
X159015581Y-100119750D01*
X159008349Y-100139962D01*
X158999170Y-100159368D01*
X158988134Y-100177781D01*
X158975346Y-100195024D01*
X158960930Y-100210930D01*
X158945024Y-100225346D01*
X158927781Y-100238134D01*
X158909368Y-100249170D01*
X158889962Y-100258349D01*
X158869750Y-100265581D01*
X158848926Y-100270797D01*
X158827691Y-100273947D01*
X158806250Y-100275000D01*
X158368750Y-100275000D01*
X158347309Y-100273947D01*
X158326074Y-100270797D01*
X158305250Y-100265581D01*
X158285038Y-100258349D01*
X158265632Y-100249170D01*
X158247219Y-100238134D01*
X158229976Y-100225346D01*
X158214070Y-100210930D01*
X158199654Y-100195024D01*
X158186866Y-100177781D01*
X158175830Y-100159368D01*
X158166651Y-100139962D01*
X158159419Y-100119750D01*
X158154203Y-100098926D01*
X158151053Y-100077691D01*
X158150000Y-100056250D01*
X158150000Y-99543750D01*
X158151053Y-99522309D01*
X158154203Y-99501074D01*
X158159419Y-99480250D01*
X158166651Y-99460038D01*
X158175830Y-99440632D01*
X158186866Y-99422219D01*
X158199654Y-99404976D01*
X158214070Y-99389070D01*
X158229976Y-99374654D01*
X158247219Y-99361866D01*
X158265632Y-99350830D01*
X158285038Y-99341651D01*
X158305250Y-99334419D01*
X158326074Y-99329203D01*
X158347309Y-99326053D01*
X158368750Y-99325000D01*
X158806250Y-99325000D01*
X158827691Y-99326053D01*
X158827691Y-99326053D01*
G37*
D15*
X158587500Y-99800000D03*
D14*
G36*
X157252691Y-101426053D02*
G01*
X157273926Y-101429203D01*
X157294750Y-101434419D01*
X157314962Y-101441651D01*
X157334368Y-101450830D01*
X157352781Y-101461866D01*
X157370024Y-101474654D01*
X157385930Y-101489070D01*
X157400346Y-101504976D01*
X157413134Y-101522219D01*
X157424170Y-101540632D01*
X157433349Y-101560038D01*
X157440581Y-101580250D01*
X157445797Y-101601074D01*
X157448947Y-101622309D01*
X157450000Y-101643750D01*
X157450000Y-102156250D01*
X157448947Y-102177691D01*
X157445797Y-102198926D01*
X157440581Y-102219750D01*
X157433349Y-102239962D01*
X157424170Y-102259368D01*
X157413134Y-102277781D01*
X157400346Y-102295024D01*
X157385930Y-102310930D01*
X157370024Y-102325346D01*
X157352781Y-102338134D01*
X157334368Y-102349170D01*
X157314962Y-102358349D01*
X157294750Y-102365581D01*
X157273926Y-102370797D01*
X157252691Y-102373947D01*
X157231250Y-102375000D01*
X156793750Y-102375000D01*
X156772309Y-102373947D01*
X156751074Y-102370797D01*
X156730250Y-102365581D01*
X156710038Y-102358349D01*
X156690632Y-102349170D01*
X156672219Y-102338134D01*
X156654976Y-102325346D01*
X156639070Y-102310930D01*
X156624654Y-102295024D01*
X156611866Y-102277781D01*
X156600830Y-102259368D01*
X156591651Y-102239962D01*
X156584419Y-102219750D01*
X156579203Y-102198926D01*
X156576053Y-102177691D01*
X156575000Y-102156250D01*
X156575000Y-101643750D01*
X156576053Y-101622309D01*
X156579203Y-101601074D01*
X156584419Y-101580250D01*
X156591651Y-101560038D01*
X156600830Y-101540632D01*
X156611866Y-101522219D01*
X156624654Y-101504976D01*
X156639070Y-101489070D01*
X156654976Y-101474654D01*
X156672219Y-101461866D01*
X156690632Y-101450830D01*
X156710038Y-101441651D01*
X156730250Y-101434419D01*
X156751074Y-101429203D01*
X156772309Y-101426053D01*
X156793750Y-101425000D01*
X157231250Y-101425000D01*
X157252691Y-101426053D01*
X157252691Y-101426053D01*
G37*
D15*
X157012500Y-101900000D03*
D14*
G36*
X158827691Y-101426053D02*
G01*
X158848926Y-101429203D01*
X158869750Y-101434419D01*
X158889962Y-101441651D01*
X158909368Y-101450830D01*
X158927781Y-101461866D01*
X158945024Y-101474654D01*
X158960930Y-101489070D01*
X158975346Y-101504976D01*
X158988134Y-101522219D01*
X158999170Y-101540632D01*
X159008349Y-101560038D01*
X159015581Y-101580250D01*
X159020797Y-101601074D01*
X159023947Y-101622309D01*
X159025000Y-101643750D01*
X159025000Y-102156250D01*
X159023947Y-102177691D01*
X159020797Y-102198926D01*
X159015581Y-102219750D01*
X159008349Y-102239962D01*
X158999170Y-102259368D01*
X158988134Y-102277781D01*
X158975346Y-102295024D01*
X158960930Y-102310930D01*
X158945024Y-102325346D01*
X158927781Y-102338134D01*
X158909368Y-102349170D01*
X158889962Y-102358349D01*
X158869750Y-102365581D01*
X158848926Y-102370797D01*
X158827691Y-102373947D01*
X158806250Y-102375000D01*
X158368750Y-102375000D01*
X158347309Y-102373947D01*
X158326074Y-102370797D01*
X158305250Y-102365581D01*
X158285038Y-102358349D01*
X158265632Y-102349170D01*
X158247219Y-102338134D01*
X158229976Y-102325346D01*
X158214070Y-102310930D01*
X158199654Y-102295024D01*
X158186866Y-102277781D01*
X158175830Y-102259368D01*
X158166651Y-102239962D01*
X158159419Y-102219750D01*
X158154203Y-102198926D01*
X158151053Y-102177691D01*
X158150000Y-102156250D01*
X158150000Y-101643750D01*
X158151053Y-101622309D01*
X158154203Y-101601074D01*
X158159419Y-101580250D01*
X158166651Y-101560038D01*
X158175830Y-101540632D01*
X158186866Y-101522219D01*
X158199654Y-101504976D01*
X158214070Y-101489070D01*
X158229976Y-101474654D01*
X158247219Y-101461866D01*
X158265632Y-101450830D01*
X158285038Y-101441651D01*
X158305250Y-101434419D01*
X158326074Y-101429203D01*
X158347309Y-101426053D01*
X158368750Y-101425000D01*
X158806250Y-101425000D01*
X158827691Y-101426053D01*
X158827691Y-101426053D01*
G37*
D15*
X158587500Y-101900000D03*
D14*
G36*
X157152691Y-110226053D02*
G01*
X157173926Y-110229203D01*
X157194750Y-110234419D01*
X157214962Y-110241651D01*
X157234368Y-110250830D01*
X157252781Y-110261866D01*
X157270024Y-110274654D01*
X157285930Y-110289070D01*
X157300346Y-110304976D01*
X157313134Y-110322219D01*
X157324170Y-110340632D01*
X157333349Y-110360038D01*
X157340581Y-110380250D01*
X157345797Y-110401074D01*
X157348947Y-110422309D01*
X157350000Y-110443750D01*
X157350000Y-110956250D01*
X157348947Y-110977691D01*
X157345797Y-110998926D01*
X157340581Y-111019750D01*
X157333349Y-111039962D01*
X157324170Y-111059368D01*
X157313134Y-111077781D01*
X157300346Y-111095024D01*
X157285930Y-111110930D01*
X157270024Y-111125346D01*
X157252781Y-111138134D01*
X157234368Y-111149170D01*
X157214962Y-111158349D01*
X157194750Y-111165581D01*
X157173926Y-111170797D01*
X157152691Y-111173947D01*
X157131250Y-111175000D01*
X156693750Y-111175000D01*
X156672309Y-111173947D01*
X156651074Y-111170797D01*
X156630250Y-111165581D01*
X156610038Y-111158349D01*
X156590632Y-111149170D01*
X156572219Y-111138134D01*
X156554976Y-111125346D01*
X156539070Y-111110930D01*
X156524654Y-111095024D01*
X156511866Y-111077781D01*
X156500830Y-111059368D01*
X156491651Y-111039962D01*
X156484419Y-111019750D01*
X156479203Y-110998926D01*
X156476053Y-110977691D01*
X156475000Y-110956250D01*
X156475000Y-110443750D01*
X156476053Y-110422309D01*
X156479203Y-110401074D01*
X156484419Y-110380250D01*
X156491651Y-110360038D01*
X156500830Y-110340632D01*
X156511866Y-110322219D01*
X156524654Y-110304976D01*
X156539070Y-110289070D01*
X156554976Y-110274654D01*
X156572219Y-110261866D01*
X156590632Y-110250830D01*
X156610038Y-110241651D01*
X156630250Y-110234419D01*
X156651074Y-110229203D01*
X156672309Y-110226053D01*
X156693750Y-110225000D01*
X157131250Y-110225000D01*
X157152691Y-110226053D01*
X157152691Y-110226053D01*
G37*
D15*
X156912500Y-110700000D03*
D14*
G36*
X158727691Y-110226053D02*
G01*
X158748926Y-110229203D01*
X158769750Y-110234419D01*
X158789962Y-110241651D01*
X158809368Y-110250830D01*
X158827781Y-110261866D01*
X158845024Y-110274654D01*
X158860930Y-110289070D01*
X158875346Y-110304976D01*
X158888134Y-110322219D01*
X158899170Y-110340632D01*
X158908349Y-110360038D01*
X158915581Y-110380250D01*
X158920797Y-110401074D01*
X158923947Y-110422309D01*
X158925000Y-110443750D01*
X158925000Y-110956250D01*
X158923947Y-110977691D01*
X158920797Y-110998926D01*
X158915581Y-111019750D01*
X158908349Y-111039962D01*
X158899170Y-111059368D01*
X158888134Y-111077781D01*
X158875346Y-111095024D01*
X158860930Y-111110930D01*
X158845024Y-111125346D01*
X158827781Y-111138134D01*
X158809368Y-111149170D01*
X158789962Y-111158349D01*
X158769750Y-111165581D01*
X158748926Y-111170797D01*
X158727691Y-111173947D01*
X158706250Y-111175000D01*
X158268750Y-111175000D01*
X158247309Y-111173947D01*
X158226074Y-111170797D01*
X158205250Y-111165581D01*
X158185038Y-111158349D01*
X158165632Y-111149170D01*
X158147219Y-111138134D01*
X158129976Y-111125346D01*
X158114070Y-111110930D01*
X158099654Y-111095024D01*
X158086866Y-111077781D01*
X158075830Y-111059368D01*
X158066651Y-111039962D01*
X158059419Y-111019750D01*
X158054203Y-110998926D01*
X158051053Y-110977691D01*
X158050000Y-110956250D01*
X158050000Y-110443750D01*
X158051053Y-110422309D01*
X158054203Y-110401074D01*
X158059419Y-110380250D01*
X158066651Y-110360038D01*
X158075830Y-110340632D01*
X158086866Y-110322219D01*
X158099654Y-110304976D01*
X158114070Y-110289070D01*
X158129976Y-110274654D01*
X158147219Y-110261866D01*
X158165632Y-110250830D01*
X158185038Y-110241651D01*
X158205250Y-110234419D01*
X158226074Y-110229203D01*
X158247309Y-110226053D01*
X158268750Y-110225000D01*
X158706250Y-110225000D01*
X158727691Y-110226053D01*
X158727691Y-110226053D01*
G37*
D15*
X158487500Y-110700000D03*
D14*
G36*
X158727691Y-112426053D02*
G01*
X158748926Y-112429203D01*
X158769750Y-112434419D01*
X158789962Y-112441651D01*
X158809368Y-112450830D01*
X158827781Y-112461866D01*
X158845024Y-112474654D01*
X158860930Y-112489070D01*
X158875346Y-112504976D01*
X158888134Y-112522219D01*
X158899170Y-112540632D01*
X158908349Y-112560038D01*
X158915581Y-112580250D01*
X158920797Y-112601074D01*
X158923947Y-112622309D01*
X158925000Y-112643750D01*
X158925000Y-113156250D01*
X158923947Y-113177691D01*
X158920797Y-113198926D01*
X158915581Y-113219750D01*
X158908349Y-113239962D01*
X158899170Y-113259368D01*
X158888134Y-113277781D01*
X158875346Y-113295024D01*
X158860930Y-113310930D01*
X158845024Y-113325346D01*
X158827781Y-113338134D01*
X158809368Y-113349170D01*
X158789962Y-113358349D01*
X158769750Y-113365581D01*
X158748926Y-113370797D01*
X158727691Y-113373947D01*
X158706250Y-113375000D01*
X158268750Y-113375000D01*
X158247309Y-113373947D01*
X158226074Y-113370797D01*
X158205250Y-113365581D01*
X158185038Y-113358349D01*
X158165632Y-113349170D01*
X158147219Y-113338134D01*
X158129976Y-113325346D01*
X158114070Y-113310930D01*
X158099654Y-113295024D01*
X158086866Y-113277781D01*
X158075830Y-113259368D01*
X158066651Y-113239962D01*
X158059419Y-113219750D01*
X158054203Y-113198926D01*
X158051053Y-113177691D01*
X158050000Y-113156250D01*
X158050000Y-112643750D01*
X158051053Y-112622309D01*
X158054203Y-112601074D01*
X158059419Y-112580250D01*
X158066651Y-112560038D01*
X158075830Y-112540632D01*
X158086866Y-112522219D01*
X158099654Y-112504976D01*
X158114070Y-112489070D01*
X158129976Y-112474654D01*
X158147219Y-112461866D01*
X158165632Y-112450830D01*
X158185038Y-112441651D01*
X158205250Y-112434419D01*
X158226074Y-112429203D01*
X158247309Y-112426053D01*
X158268750Y-112425000D01*
X158706250Y-112425000D01*
X158727691Y-112426053D01*
X158727691Y-112426053D01*
G37*
D15*
X158487500Y-112900000D03*
D14*
G36*
X157152691Y-112426053D02*
G01*
X157173926Y-112429203D01*
X157194750Y-112434419D01*
X157214962Y-112441651D01*
X157234368Y-112450830D01*
X157252781Y-112461866D01*
X157270024Y-112474654D01*
X157285930Y-112489070D01*
X157300346Y-112504976D01*
X157313134Y-112522219D01*
X157324170Y-112540632D01*
X157333349Y-112560038D01*
X157340581Y-112580250D01*
X157345797Y-112601074D01*
X157348947Y-112622309D01*
X157350000Y-112643750D01*
X157350000Y-113156250D01*
X157348947Y-113177691D01*
X157345797Y-113198926D01*
X157340581Y-113219750D01*
X157333349Y-113239962D01*
X157324170Y-113259368D01*
X157313134Y-113277781D01*
X157300346Y-113295024D01*
X157285930Y-113310930D01*
X157270024Y-113325346D01*
X157252781Y-113338134D01*
X157234368Y-113349170D01*
X157214962Y-113358349D01*
X157194750Y-113365581D01*
X157173926Y-113370797D01*
X157152691Y-113373947D01*
X157131250Y-113375000D01*
X156693750Y-113375000D01*
X156672309Y-113373947D01*
X156651074Y-113370797D01*
X156630250Y-113365581D01*
X156610038Y-113358349D01*
X156590632Y-113349170D01*
X156572219Y-113338134D01*
X156554976Y-113325346D01*
X156539070Y-113310930D01*
X156524654Y-113295024D01*
X156511866Y-113277781D01*
X156500830Y-113259368D01*
X156491651Y-113239962D01*
X156484419Y-113219750D01*
X156479203Y-113198926D01*
X156476053Y-113177691D01*
X156475000Y-113156250D01*
X156475000Y-112643750D01*
X156476053Y-112622309D01*
X156479203Y-112601074D01*
X156484419Y-112580250D01*
X156491651Y-112560038D01*
X156500830Y-112540632D01*
X156511866Y-112522219D01*
X156524654Y-112504976D01*
X156539070Y-112489070D01*
X156554976Y-112474654D01*
X156572219Y-112461866D01*
X156590632Y-112450830D01*
X156610038Y-112441651D01*
X156630250Y-112434419D01*
X156651074Y-112429203D01*
X156672309Y-112426053D01*
X156693750Y-112425000D01*
X157131250Y-112425000D01*
X157152691Y-112426053D01*
X157152691Y-112426053D01*
G37*
D15*
X156912500Y-112900000D03*
M02*
