G04 #@! TF.GenerationSoftware,KiCad,Pcbnew,(5.1.0)-1*
G04 #@! TF.CreationDate,2019-07-27T07:21:47+08:00*
G04 #@! TF.ProjectId,Down,446f776e-2e6b-4696-9361-645f70636258,rev?*
G04 #@! TF.SameCoordinates,Original*
G04 #@! TF.FileFunction,Copper,L2,Bot*
G04 #@! TF.FilePolarity,Positive*
%FSLAX46Y46*%
G04 Gerber Fmt 4.6, Leading zero omitted, Abs format (unit mm)*
G04 Created by KiCad (PCBNEW (5.1.0)-1) date 2019-07-27 07:21:47*
%MOMM*%
%LPD*%
G04 APERTURE LIST*
%ADD10R,2.000000X1.500000*%
%ADD11R,2.000000X3.800000*%
%ADD12C,0.500000*%
%ADD13C,0.100000*%
%ADD14R,1.500000X1.000000*%
%ADD15O,0.900000X1.800000*%
%ADD16C,0.600000*%
%ADD17R,0.400000X0.500000*%
%ADD18R,0.300000X0.500000*%
%ADD19O,1.700000X1.700000*%
%ADD20R,1.700000X1.700000*%
%ADD21C,0.875000*%
%ADD22C,0.200000*%
%ADD23C,0.254000*%
G04 APERTURE END LIST*
D10*
X158050000Y-104000000D03*
X158050000Y-108600000D03*
X158050000Y-106300000D03*
D11*
X151750000Y-106300000D03*
D12*
X151400000Y-99600000D03*
D13*
G36*
X150650000Y-100150000D02*
G01*
X150650000Y-99600000D01*
X150650602Y-99600000D01*
X150650602Y-99575466D01*
X150655412Y-99526635D01*
X150664984Y-99478510D01*
X150679228Y-99431555D01*
X150698005Y-99386222D01*
X150721136Y-99342949D01*
X150748396Y-99302150D01*
X150779524Y-99264221D01*
X150814221Y-99229524D01*
X150852150Y-99198396D01*
X150892949Y-99171136D01*
X150936222Y-99148005D01*
X150981555Y-99129228D01*
X151028510Y-99114984D01*
X151076635Y-99105412D01*
X151125466Y-99100602D01*
X151150000Y-99100602D01*
X151150000Y-99100000D01*
X151650000Y-99100000D01*
X151650000Y-99100602D01*
X151674534Y-99100602D01*
X151723365Y-99105412D01*
X151771490Y-99114984D01*
X151818445Y-99129228D01*
X151863778Y-99148005D01*
X151907051Y-99171136D01*
X151947850Y-99198396D01*
X151985779Y-99229524D01*
X152020476Y-99264221D01*
X152051604Y-99302150D01*
X152078864Y-99342949D01*
X152101995Y-99386222D01*
X152120772Y-99431555D01*
X152135016Y-99478510D01*
X152144588Y-99526635D01*
X152149398Y-99575466D01*
X152149398Y-99600000D01*
X152150000Y-99600000D01*
X152150000Y-100150000D01*
X150650000Y-100150000D01*
X150650000Y-100150000D01*
G37*
D12*
X151400000Y-102200000D03*
D13*
G36*
X152149398Y-102200000D02*
G01*
X152149398Y-102224534D01*
X152144588Y-102273365D01*
X152135016Y-102321490D01*
X152120772Y-102368445D01*
X152101995Y-102413778D01*
X152078864Y-102457051D01*
X152051604Y-102497850D01*
X152020476Y-102535779D01*
X151985779Y-102570476D01*
X151947850Y-102601604D01*
X151907051Y-102628864D01*
X151863778Y-102651995D01*
X151818445Y-102670772D01*
X151771490Y-102685016D01*
X151723365Y-102694588D01*
X151674534Y-102699398D01*
X151650000Y-102699398D01*
X151650000Y-102700000D01*
X151150000Y-102700000D01*
X151150000Y-102699398D01*
X151125466Y-102699398D01*
X151076635Y-102694588D01*
X151028510Y-102685016D01*
X150981555Y-102670772D01*
X150936222Y-102651995D01*
X150892949Y-102628864D01*
X150852150Y-102601604D01*
X150814221Y-102570476D01*
X150779524Y-102535779D01*
X150748396Y-102497850D01*
X150721136Y-102457051D01*
X150698005Y-102413778D01*
X150679228Y-102368445D01*
X150664984Y-102321490D01*
X150655412Y-102273365D01*
X150650602Y-102224534D01*
X150650602Y-102200000D01*
X150650000Y-102200000D01*
X150650000Y-101650000D01*
X152150000Y-101650000D01*
X152150000Y-102200000D01*
X152149398Y-102200000D01*
X152149398Y-102200000D01*
G37*
D14*
X151400000Y-100900000D03*
D15*
X150520000Y-122160000D03*
D16*
X153650000Y-121310000D03*
X153250000Y-122010000D03*
D15*
X150520000Y-126660000D03*
D16*
X154450000Y-121310000D03*
X155650000Y-122010000D03*
X155250000Y-121310000D03*
X156450000Y-122010000D03*
D15*
X159180000Y-126660000D03*
D16*
X152050000Y-121310000D03*
X157650000Y-121310000D03*
X156050000Y-121310000D03*
D15*
X159180000Y-122160000D03*
D16*
X157250000Y-122010000D03*
X152450000Y-122010000D03*
X154050000Y-122010000D03*
D17*
X154150000Y-100300000D03*
D18*
X154650000Y-100300000D03*
D17*
X155650000Y-100300000D03*
D18*
X155150000Y-100300000D03*
D17*
X154150000Y-101300000D03*
D18*
X155150000Y-101300000D03*
X154650000Y-101300000D03*
D17*
X155650000Y-101300000D03*
D19*
X157380000Y-94360000D03*
X157380000Y-96900000D03*
X154840000Y-94360000D03*
X154840000Y-96900000D03*
X152300000Y-94360000D03*
D20*
X152300000Y-96900000D03*
D13*
G36*
X157252691Y-99326053D02*
G01*
X157273926Y-99329203D01*
X157294750Y-99334419D01*
X157314962Y-99341651D01*
X157334368Y-99350830D01*
X157352781Y-99361866D01*
X157370024Y-99374654D01*
X157385930Y-99389070D01*
X157400346Y-99404976D01*
X157413134Y-99422219D01*
X157424170Y-99440632D01*
X157433349Y-99460038D01*
X157440581Y-99480250D01*
X157445797Y-99501074D01*
X157448947Y-99522309D01*
X157450000Y-99543750D01*
X157450000Y-100056250D01*
X157448947Y-100077691D01*
X157445797Y-100098926D01*
X157440581Y-100119750D01*
X157433349Y-100139962D01*
X157424170Y-100159368D01*
X157413134Y-100177781D01*
X157400346Y-100195024D01*
X157385930Y-100210930D01*
X157370024Y-100225346D01*
X157352781Y-100238134D01*
X157334368Y-100249170D01*
X157314962Y-100258349D01*
X157294750Y-100265581D01*
X157273926Y-100270797D01*
X157252691Y-100273947D01*
X157231250Y-100275000D01*
X156793750Y-100275000D01*
X156772309Y-100273947D01*
X156751074Y-100270797D01*
X156730250Y-100265581D01*
X156710038Y-100258349D01*
X156690632Y-100249170D01*
X156672219Y-100238134D01*
X156654976Y-100225346D01*
X156639070Y-100210930D01*
X156624654Y-100195024D01*
X156611866Y-100177781D01*
X156600830Y-100159368D01*
X156591651Y-100139962D01*
X156584419Y-100119750D01*
X156579203Y-100098926D01*
X156576053Y-100077691D01*
X156575000Y-100056250D01*
X156575000Y-99543750D01*
X156576053Y-99522309D01*
X156579203Y-99501074D01*
X156584419Y-99480250D01*
X156591651Y-99460038D01*
X156600830Y-99440632D01*
X156611866Y-99422219D01*
X156624654Y-99404976D01*
X156639070Y-99389070D01*
X156654976Y-99374654D01*
X156672219Y-99361866D01*
X156690632Y-99350830D01*
X156710038Y-99341651D01*
X156730250Y-99334419D01*
X156751074Y-99329203D01*
X156772309Y-99326053D01*
X156793750Y-99325000D01*
X157231250Y-99325000D01*
X157252691Y-99326053D01*
X157252691Y-99326053D01*
G37*
D21*
X157012500Y-99800000D03*
D13*
G36*
X158827691Y-99326053D02*
G01*
X158848926Y-99329203D01*
X158869750Y-99334419D01*
X158889962Y-99341651D01*
X158909368Y-99350830D01*
X158927781Y-99361866D01*
X158945024Y-99374654D01*
X158960930Y-99389070D01*
X158975346Y-99404976D01*
X158988134Y-99422219D01*
X158999170Y-99440632D01*
X159008349Y-99460038D01*
X159015581Y-99480250D01*
X159020797Y-99501074D01*
X159023947Y-99522309D01*
X159025000Y-99543750D01*
X159025000Y-100056250D01*
X159023947Y-100077691D01*
X159020797Y-100098926D01*
X159015581Y-100119750D01*
X159008349Y-100139962D01*
X158999170Y-100159368D01*
X158988134Y-100177781D01*
X158975346Y-100195024D01*
X158960930Y-100210930D01*
X158945024Y-100225346D01*
X158927781Y-100238134D01*
X158909368Y-100249170D01*
X158889962Y-100258349D01*
X158869750Y-100265581D01*
X158848926Y-100270797D01*
X158827691Y-100273947D01*
X158806250Y-100275000D01*
X158368750Y-100275000D01*
X158347309Y-100273947D01*
X158326074Y-100270797D01*
X158305250Y-100265581D01*
X158285038Y-100258349D01*
X158265632Y-100249170D01*
X158247219Y-100238134D01*
X158229976Y-100225346D01*
X158214070Y-100210930D01*
X158199654Y-100195024D01*
X158186866Y-100177781D01*
X158175830Y-100159368D01*
X158166651Y-100139962D01*
X158159419Y-100119750D01*
X158154203Y-100098926D01*
X158151053Y-100077691D01*
X158150000Y-100056250D01*
X158150000Y-99543750D01*
X158151053Y-99522309D01*
X158154203Y-99501074D01*
X158159419Y-99480250D01*
X158166651Y-99460038D01*
X158175830Y-99440632D01*
X158186866Y-99422219D01*
X158199654Y-99404976D01*
X158214070Y-99389070D01*
X158229976Y-99374654D01*
X158247219Y-99361866D01*
X158265632Y-99350830D01*
X158285038Y-99341651D01*
X158305250Y-99334419D01*
X158326074Y-99329203D01*
X158347309Y-99326053D01*
X158368750Y-99325000D01*
X158806250Y-99325000D01*
X158827691Y-99326053D01*
X158827691Y-99326053D01*
G37*
D21*
X158587500Y-99800000D03*
D13*
G36*
X157252691Y-101426053D02*
G01*
X157273926Y-101429203D01*
X157294750Y-101434419D01*
X157314962Y-101441651D01*
X157334368Y-101450830D01*
X157352781Y-101461866D01*
X157370024Y-101474654D01*
X157385930Y-101489070D01*
X157400346Y-101504976D01*
X157413134Y-101522219D01*
X157424170Y-101540632D01*
X157433349Y-101560038D01*
X157440581Y-101580250D01*
X157445797Y-101601074D01*
X157448947Y-101622309D01*
X157450000Y-101643750D01*
X157450000Y-102156250D01*
X157448947Y-102177691D01*
X157445797Y-102198926D01*
X157440581Y-102219750D01*
X157433349Y-102239962D01*
X157424170Y-102259368D01*
X157413134Y-102277781D01*
X157400346Y-102295024D01*
X157385930Y-102310930D01*
X157370024Y-102325346D01*
X157352781Y-102338134D01*
X157334368Y-102349170D01*
X157314962Y-102358349D01*
X157294750Y-102365581D01*
X157273926Y-102370797D01*
X157252691Y-102373947D01*
X157231250Y-102375000D01*
X156793750Y-102375000D01*
X156772309Y-102373947D01*
X156751074Y-102370797D01*
X156730250Y-102365581D01*
X156710038Y-102358349D01*
X156690632Y-102349170D01*
X156672219Y-102338134D01*
X156654976Y-102325346D01*
X156639070Y-102310930D01*
X156624654Y-102295024D01*
X156611866Y-102277781D01*
X156600830Y-102259368D01*
X156591651Y-102239962D01*
X156584419Y-102219750D01*
X156579203Y-102198926D01*
X156576053Y-102177691D01*
X156575000Y-102156250D01*
X156575000Y-101643750D01*
X156576053Y-101622309D01*
X156579203Y-101601074D01*
X156584419Y-101580250D01*
X156591651Y-101560038D01*
X156600830Y-101540632D01*
X156611866Y-101522219D01*
X156624654Y-101504976D01*
X156639070Y-101489070D01*
X156654976Y-101474654D01*
X156672219Y-101461866D01*
X156690632Y-101450830D01*
X156710038Y-101441651D01*
X156730250Y-101434419D01*
X156751074Y-101429203D01*
X156772309Y-101426053D01*
X156793750Y-101425000D01*
X157231250Y-101425000D01*
X157252691Y-101426053D01*
X157252691Y-101426053D01*
G37*
D21*
X157012500Y-101900000D03*
D13*
G36*
X158827691Y-101426053D02*
G01*
X158848926Y-101429203D01*
X158869750Y-101434419D01*
X158889962Y-101441651D01*
X158909368Y-101450830D01*
X158927781Y-101461866D01*
X158945024Y-101474654D01*
X158960930Y-101489070D01*
X158975346Y-101504976D01*
X158988134Y-101522219D01*
X158999170Y-101540632D01*
X159008349Y-101560038D01*
X159015581Y-101580250D01*
X159020797Y-101601074D01*
X159023947Y-101622309D01*
X159025000Y-101643750D01*
X159025000Y-102156250D01*
X159023947Y-102177691D01*
X159020797Y-102198926D01*
X159015581Y-102219750D01*
X159008349Y-102239962D01*
X158999170Y-102259368D01*
X158988134Y-102277781D01*
X158975346Y-102295024D01*
X158960930Y-102310930D01*
X158945024Y-102325346D01*
X158927781Y-102338134D01*
X158909368Y-102349170D01*
X158889962Y-102358349D01*
X158869750Y-102365581D01*
X158848926Y-102370797D01*
X158827691Y-102373947D01*
X158806250Y-102375000D01*
X158368750Y-102375000D01*
X158347309Y-102373947D01*
X158326074Y-102370797D01*
X158305250Y-102365581D01*
X158285038Y-102358349D01*
X158265632Y-102349170D01*
X158247219Y-102338134D01*
X158229976Y-102325346D01*
X158214070Y-102310930D01*
X158199654Y-102295024D01*
X158186866Y-102277781D01*
X158175830Y-102259368D01*
X158166651Y-102239962D01*
X158159419Y-102219750D01*
X158154203Y-102198926D01*
X158151053Y-102177691D01*
X158150000Y-102156250D01*
X158150000Y-101643750D01*
X158151053Y-101622309D01*
X158154203Y-101601074D01*
X158159419Y-101580250D01*
X158166651Y-101560038D01*
X158175830Y-101540632D01*
X158186866Y-101522219D01*
X158199654Y-101504976D01*
X158214070Y-101489070D01*
X158229976Y-101474654D01*
X158247219Y-101461866D01*
X158265632Y-101450830D01*
X158285038Y-101441651D01*
X158305250Y-101434419D01*
X158326074Y-101429203D01*
X158347309Y-101426053D01*
X158368750Y-101425000D01*
X158806250Y-101425000D01*
X158827691Y-101426053D01*
X158827691Y-101426053D01*
G37*
D21*
X158587500Y-101900000D03*
D13*
G36*
X157152691Y-110226053D02*
G01*
X157173926Y-110229203D01*
X157194750Y-110234419D01*
X157214962Y-110241651D01*
X157234368Y-110250830D01*
X157252781Y-110261866D01*
X157270024Y-110274654D01*
X157285930Y-110289070D01*
X157300346Y-110304976D01*
X157313134Y-110322219D01*
X157324170Y-110340632D01*
X157333349Y-110360038D01*
X157340581Y-110380250D01*
X157345797Y-110401074D01*
X157348947Y-110422309D01*
X157350000Y-110443750D01*
X157350000Y-110956250D01*
X157348947Y-110977691D01*
X157345797Y-110998926D01*
X157340581Y-111019750D01*
X157333349Y-111039962D01*
X157324170Y-111059368D01*
X157313134Y-111077781D01*
X157300346Y-111095024D01*
X157285930Y-111110930D01*
X157270024Y-111125346D01*
X157252781Y-111138134D01*
X157234368Y-111149170D01*
X157214962Y-111158349D01*
X157194750Y-111165581D01*
X157173926Y-111170797D01*
X157152691Y-111173947D01*
X157131250Y-111175000D01*
X156693750Y-111175000D01*
X156672309Y-111173947D01*
X156651074Y-111170797D01*
X156630250Y-111165581D01*
X156610038Y-111158349D01*
X156590632Y-111149170D01*
X156572219Y-111138134D01*
X156554976Y-111125346D01*
X156539070Y-111110930D01*
X156524654Y-111095024D01*
X156511866Y-111077781D01*
X156500830Y-111059368D01*
X156491651Y-111039962D01*
X156484419Y-111019750D01*
X156479203Y-110998926D01*
X156476053Y-110977691D01*
X156475000Y-110956250D01*
X156475000Y-110443750D01*
X156476053Y-110422309D01*
X156479203Y-110401074D01*
X156484419Y-110380250D01*
X156491651Y-110360038D01*
X156500830Y-110340632D01*
X156511866Y-110322219D01*
X156524654Y-110304976D01*
X156539070Y-110289070D01*
X156554976Y-110274654D01*
X156572219Y-110261866D01*
X156590632Y-110250830D01*
X156610038Y-110241651D01*
X156630250Y-110234419D01*
X156651074Y-110229203D01*
X156672309Y-110226053D01*
X156693750Y-110225000D01*
X157131250Y-110225000D01*
X157152691Y-110226053D01*
X157152691Y-110226053D01*
G37*
D21*
X156912500Y-110700000D03*
D13*
G36*
X158727691Y-110226053D02*
G01*
X158748926Y-110229203D01*
X158769750Y-110234419D01*
X158789962Y-110241651D01*
X158809368Y-110250830D01*
X158827781Y-110261866D01*
X158845024Y-110274654D01*
X158860930Y-110289070D01*
X158875346Y-110304976D01*
X158888134Y-110322219D01*
X158899170Y-110340632D01*
X158908349Y-110360038D01*
X158915581Y-110380250D01*
X158920797Y-110401074D01*
X158923947Y-110422309D01*
X158925000Y-110443750D01*
X158925000Y-110956250D01*
X158923947Y-110977691D01*
X158920797Y-110998926D01*
X158915581Y-111019750D01*
X158908349Y-111039962D01*
X158899170Y-111059368D01*
X158888134Y-111077781D01*
X158875346Y-111095024D01*
X158860930Y-111110930D01*
X158845024Y-111125346D01*
X158827781Y-111138134D01*
X158809368Y-111149170D01*
X158789962Y-111158349D01*
X158769750Y-111165581D01*
X158748926Y-111170797D01*
X158727691Y-111173947D01*
X158706250Y-111175000D01*
X158268750Y-111175000D01*
X158247309Y-111173947D01*
X158226074Y-111170797D01*
X158205250Y-111165581D01*
X158185038Y-111158349D01*
X158165632Y-111149170D01*
X158147219Y-111138134D01*
X158129976Y-111125346D01*
X158114070Y-111110930D01*
X158099654Y-111095024D01*
X158086866Y-111077781D01*
X158075830Y-111059368D01*
X158066651Y-111039962D01*
X158059419Y-111019750D01*
X158054203Y-110998926D01*
X158051053Y-110977691D01*
X158050000Y-110956250D01*
X158050000Y-110443750D01*
X158051053Y-110422309D01*
X158054203Y-110401074D01*
X158059419Y-110380250D01*
X158066651Y-110360038D01*
X158075830Y-110340632D01*
X158086866Y-110322219D01*
X158099654Y-110304976D01*
X158114070Y-110289070D01*
X158129976Y-110274654D01*
X158147219Y-110261866D01*
X158165632Y-110250830D01*
X158185038Y-110241651D01*
X158205250Y-110234419D01*
X158226074Y-110229203D01*
X158247309Y-110226053D01*
X158268750Y-110225000D01*
X158706250Y-110225000D01*
X158727691Y-110226053D01*
X158727691Y-110226053D01*
G37*
D21*
X158487500Y-110700000D03*
D13*
G36*
X158727691Y-112426053D02*
G01*
X158748926Y-112429203D01*
X158769750Y-112434419D01*
X158789962Y-112441651D01*
X158809368Y-112450830D01*
X158827781Y-112461866D01*
X158845024Y-112474654D01*
X158860930Y-112489070D01*
X158875346Y-112504976D01*
X158888134Y-112522219D01*
X158899170Y-112540632D01*
X158908349Y-112560038D01*
X158915581Y-112580250D01*
X158920797Y-112601074D01*
X158923947Y-112622309D01*
X158925000Y-112643750D01*
X158925000Y-113156250D01*
X158923947Y-113177691D01*
X158920797Y-113198926D01*
X158915581Y-113219750D01*
X158908349Y-113239962D01*
X158899170Y-113259368D01*
X158888134Y-113277781D01*
X158875346Y-113295024D01*
X158860930Y-113310930D01*
X158845024Y-113325346D01*
X158827781Y-113338134D01*
X158809368Y-113349170D01*
X158789962Y-113358349D01*
X158769750Y-113365581D01*
X158748926Y-113370797D01*
X158727691Y-113373947D01*
X158706250Y-113375000D01*
X158268750Y-113375000D01*
X158247309Y-113373947D01*
X158226074Y-113370797D01*
X158205250Y-113365581D01*
X158185038Y-113358349D01*
X158165632Y-113349170D01*
X158147219Y-113338134D01*
X158129976Y-113325346D01*
X158114070Y-113310930D01*
X158099654Y-113295024D01*
X158086866Y-113277781D01*
X158075830Y-113259368D01*
X158066651Y-113239962D01*
X158059419Y-113219750D01*
X158054203Y-113198926D01*
X158051053Y-113177691D01*
X158050000Y-113156250D01*
X158050000Y-112643750D01*
X158051053Y-112622309D01*
X158054203Y-112601074D01*
X158059419Y-112580250D01*
X158066651Y-112560038D01*
X158075830Y-112540632D01*
X158086866Y-112522219D01*
X158099654Y-112504976D01*
X158114070Y-112489070D01*
X158129976Y-112474654D01*
X158147219Y-112461866D01*
X158165632Y-112450830D01*
X158185038Y-112441651D01*
X158205250Y-112434419D01*
X158226074Y-112429203D01*
X158247309Y-112426053D01*
X158268750Y-112425000D01*
X158706250Y-112425000D01*
X158727691Y-112426053D01*
X158727691Y-112426053D01*
G37*
D21*
X158487500Y-112900000D03*
D13*
G36*
X157152691Y-112426053D02*
G01*
X157173926Y-112429203D01*
X157194750Y-112434419D01*
X157214962Y-112441651D01*
X157234368Y-112450830D01*
X157252781Y-112461866D01*
X157270024Y-112474654D01*
X157285930Y-112489070D01*
X157300346Y-112504976D01*
X157313134Y-112522219D01*
X157324170Y-112540632D01*
X157333349Y-112560038D01*
X157340581Y-112580250D01*
X157345797Y-112601074D01*
X157348947Y-112622309D01*
X157350000Y-112643750D01*
X157350000Y-113156250D01*
X157348947Y-113177691D01*
X157345797Y-113198926D01*
X157340581Y-113219750D01*
X157333349Y-113239962D01*
X157324170Y-113259368D01*
X157313134Y-113277781D01*
X157300346Y-113295024D01*
X157285930Y-113310930D01*
X157270024Y-113325346D01*
X157252781Y-113338134D01*
X157234368Y-113349170D01*
X157214962Y-113358349D01*
X157194750Y-113365581D01*
X157173926Y-113370797D01*
X157152691Y-113373947D01*
X157131250Y-113375000D01*
X156693750Y-113375000D01*
X156672309Y-113373947D01*
X156651074Y-113370797D01*
X156630250Y-113365581D01*
X156610038Y-113358349D01*
X156590632Y-113349170D01*
X156572219Y-113338134D01*
X156554976Y-113325346D01*
X156539070Y-113310930D01*
X156524654Y-113295024D01*
X156511866Y-113277781D01*
X156500830Y-113259368D01*
X156491651Y-113239962D01*
X156484419Y-113219750D01*
X156479203Y-113198926D01*
X156476053Y-113177691D01*
X156475000Y-113156250D01*
X156475000Y-112643750D01*
X156476053Y-112622309D01*
X156479203Y-112601074D01*
X156484419Y-112580250D01*
X156491651Y-112560038D01*
X156500830Y-112540632D01*
X156511866Y-112522219D01*
X156524654Y-112504976D01*
X156539070Y-112489070D01*
X156554976Y-112474654D01*
X156572219Y-112461866D01*
X156590632Y-112450830D01*
X156610038Y-112441651D01*
X156630250Y-112434419D01*
X156651074Y-112429203D01*
X156672309Y-112426053D01*
X156693750Y-112425000D01*
X157131250Y-112425000D01*
X157152691Y-112426053D01*
X157152691Y-112426053D01*
G37*
D21*
X156912500Y-112900000D03*
D16*
X159000000Y-95600000D03*
X153500000Y-93000000D03*
X156200000Y-93000000D03*
X159000000Y-118000000D03*
X153000000Y-124000000D03*
X157000000Y-124000000D03*
X153000000Y-126000000D03*
X157000000Y-126000000D03*
X151000000Y-119000000D03*
X159087510Y-116000000D03*
X150822257Y-110505215D03*
X151443138Y-108733931D03*
X154900000Y-98600000D03*
X150100000Y-106700000D03*
X150100000Y-108100000D03*
X150034350Y-105243766D03*
X156400000Y-113999989D03*
X152300000Y-108700000D03*
X159400000Y-97000000D03*
X158800000Y-102900000D03*
X151800000Y-115100000D03*
X153462110Y-114048732D03*
X150384860Y-103964673D03*
X150827045Y-102784810D03*
X152100000Y-98900000D03*
X158939900Y-105250002D03*
X150700000Y-104700000D03*
X153101760Y-106725753D03*
X156200000Y-107150015D03*
X158700000Y-101100000D03*
X157900000Y-100700000D03*
X158899990Y-98650011D03*
X150750010Y-98600000D03*
X153124998Y-100300000D03*
X155712195Y-103376725D03*
X154150030Y-103134121D03*
X154675935Y-107800010D03*
X156309736Y-103908667D03*
X156203555Y-100903555D03*
X155034949Y-103802585D03*
X155479246Y-107798035D03*
X152900000Y-99200000D03*
X153200000Y-101200000D03*
X155100000Y-118800000D03*
X151800000Y-111100000D03*
X155200000Y-115400000D03*
X152800000Y-115302414D03*
X150225110Y-109200000D03*
D22*
X158050000Y-102937500D02*
X157012500Y-101900000D01*
X158050000Y-104000000D02*
X158050000Y-102937500D01*
X157012500Y-101325000D02*
X157012500Y-99800000D01*
X157012500Y-101900000D02*
X157012500Y-101325000D01*
X153689999Y-96049997D02*
X152940002Y-95300000D01*
X153689999Y-97389999D02*
X153689999Y-96049997D01*
X154900000Y-98600000D02*
X153689999Y-97389999D01*
X152940002Y-95000002D02*
X152300000Y-94360000D01*
X152940002Y-95300000D02*
X152940002Y-95000002D01*
X158050000Y-104000000D02*
X158050000Y-103650000D01*
X158050000Y-103650000D02*
X158800000Y-102900000D01*
X152300000Y-108700000D02*
X152800000Y-109200000D01*
X151743137Y-109033930D02*
X151743137Y-109043137D01*
X151443138Y-108733931D02*
X151743137Y-109033930D01*
X152851268Y-114048732D02*
X153462110Y-114048732D01*
X151800000Y-115100000D02*
X152851268Y-114048732D01*
X158487500Y-109037500D02*
X158050000Y-108600000D01*
X158487500Y-110700000D02*
X158487500Y-109037500D01*
X151400000Y-102200000D02*
X150827045Y-102772955D01*
X150827045Y-102772955D02*
X150827045Y-102784810D01*
X153867604Y-104977602D02*
X153867604Y-107867604D01*
X152854675Y-103964673D02*
X153867604Y-104977602D01*
X156850000Y-108600000D02*
X158050000Y-108600000D01*
X153867604Y-107867604D02*
X154600000Y-108600000D01*
X154600000Y-108600000D02*
X156850000Y-108600000D01*
X150384860Y-103964673D02*
X152854675Y-103964673D01*
X158487500Y-115400503D02*
X158487500Y-111275000D01*
X153462110Y-114650114D02*
X154911997Y-116100001D01*
X157788002Y-116100001D02*
X158487500Y-115400503D01*
X153462110Y-114048732D02*
X153462110Y-114650114D01*
X154911997Y-116100001D02*
X157788002Y-116100001D01*
X158487500Y-111275000D02*
X158487500Y-110700000D01*
X151400000Y-99600000D02*
X152100000Y-98900000D01*
X158587500Y-99800000D02*
X158587500Y-100375000D01*
X158587500Y-100375000D02*
X158587500Y-101900000D01*
X158050000Y-106139902D02*
X158939900Y-105250002D01*
X158050000Y-106300000D02*
X158050000Y-106139902D01*
X151750000Y-105750000D02*
X150700000Y-104700000D01*
X151750000Y-106300000D02*
X151750000Y-105750000D01*
X152676007Y-106300000D02*
X153101760Y-106725753D01*
X151750000Y-106300000D02*
X152676007Y-106300000D01*
X157050015Y-106300000D02*
X158050000Y-106300000D01*
X156200000Y-107150015D02*
X157050015Y-106300000D01*
X158587500Y-101212500D02*
X158700000Y-101100000D01*
X158587500Y-101900000D02*
X158587500Y-101212500D01*
X157849990Y-100649990D02*
X157849990Y-99428850D01*
X157849990Y-99428850D02*
X157321140Y-98900000D01*
X157900000Y-100700000D02*
X157849990Y-100649990D01*
X155650000Y-99850000D02*
X155650000Y-100300000D01*
X156600000Y-98900000D02*
X155650000Y-99850000D01*
X157321140Y-98900000D02*
X156600000Y-98900000D01*
X155150000Y-99684300D02*
X156334311Y-98499989D01*
X155150000Y-100300000D02*
X155150000Y-99684300D01*
X157950011Y-98650011D02*
X157799989Y-98499989D01*
X158899990Y-98650011D02*
X157950011Y-98650011D01*
X156334311Y-98499989D02*
X157799989Y-98499989D01*
X154650000Y-100300000D02*
X154650000Y-99850000D01*
X151050012Y-98299998D02*
X151050009Y-98300001D01*
X153099998Y-98299998D02*
X151050012Y-98299998D01*
X154650000Y-99850000D02*
X153099998Y-98299998D01*
X151050009Y-98300001D02*
X150750010Y-98600000D01*
X154150000Y-100300000D02*
X153124998Y-100300000D01*
X153650000Y-118850000D02*
X154550000Y-117950000D01*
X153650000Y-121310000D02*
X153650000Y-118850000D01*
X155550000Y-117950000D02*
X156050000Y-118450000D01*
X154550000Y-117950000D02*
X155550000Y-117950000D01*
X156050000Y-118450000D02*
X156050000Y-121310000D01*
X155150000Y-102050000D02*
X155150000Y-102150000D01*
X155150000Y-101300000D02*
X155150000Y-102050000D01*
X155150000Y-102050000D02*
X155150000Y-102814530D01*
X155150000Y-102814530D02*
X155412196Y-103076726D01*
X155412196Y-103076726D02*
X155712195Y-103376725D01*
X153850031Y-103434120D02*
X154150030Y-103134121D01*
X154150000Y-101300000D02*
X154150000Y-103134091D01*
X154150000Y-103134091D02*
X154150030Y-103134121D01*
X153450001Y-93807999D02*
X152852001Y-93209999D01*
X150150000Y-94807998D02*
X150150000Y-103138004D01*
X157380000Y-96900000D02*
X155990001Y-95510001D01*
X153450001Y-94912001D02*
X153450001Y-93807999D01*
X152852001Y-93209999D02*
X151747999Y-93209999D01*
X150150000Y-103138004D02*
X150376668Y-103364672D01*
X150672861Y-103364672D02*
X150742309Y-103434120D01*
X150742309Y-103434120D02*
X153850031Y-103434120D01*
X155990001Y-95510001D02*
X154048001Y-95510001D01*
X154048001Y-95510001D02*
X153450001Y-94912001D01*
X151747999Y-93209999D02*
X150150000Y-94807998D01*
X150376668Y-103364672D02*
X150672861Y-103364672D01*
X154375936Y-103960025D02*
X154375936Y-107500011D01*
X153850031Y-103434120D02*
X154375936Y-103960025D01*
X154375936Y-107500011D02*
X154675935Y-107800010D01*
X155650000Y-102426526D02*
X155650000Y-101300000D01*
X156312196Y-103088722D02*
X155650000Y-102426526D01*
X156312196Y-103664726D02*
X156312196Y-103088722D01*
X156309736Y-103667186D02*
X156312196Y-103664726D01*
X156309736Y-103908667D02*
X156309736Y-103667186D01*
X155650000Y-101300000D02*
X155650000Y-101250000D01*
X155650000Y-101300000D02*
X155807110Y-101300000D01*
X155807110Y-101300000D02*
X156203555Y-100903555D01*
X155034949Y-103378321D02*
X155034949Y-103802585D01*
X154749989Y-102315689D02*
X154749989Y-103093361D01*
X154650000Y-102215700D02*
X154749989Y-102315689D01*
X154650000Y-101300000D02*
X154650000Y-102215700D01*
X154749989Y-103093361D02*
X155034949Y-103378321D01*
X159140002Y-107500000D02*
X156738013Y-107500000D01*
X155479246Y-107373771D02*
X155479246Y-107798035D01*
X159539902Y-107100100D02*
X159140002Y-107500000D01*
X159539902Y-98439904D02*
X159539902Y-107100100D01*
X156738013Y-107500000D02*
X156439978Y-107798035D01*
X155034949Y-103802585D02*
X155479246Y-104246882D01*
X155479246Y-104246882D02*
X155479246Y-107373771D01*
X155903510Y-107798035D02*
X155479246Y-107798035D01*
X154840000Y-96900000D02*
X155990001Y-98050001D01*
X156439978Y-107798035D02*
X155903510Y-107798035D01*
X155990001Y-98050001D02*
X159149999Y-98050001D01*
X159149999Y-98050001D02*
X159539902Y-98439904D01*
X151700000Y-101200000D02*
X151400000Y-100900000D01*
X153200000Y-101200000D02*
X151700000Y-101200000D01*
X152900000Y-99636996D02*
X152900000Y-99200000D01*
X152524997Y-100011999D02*
X152900000Y-99636996D01*
X152524997Y-100725003D02*
X152524997Y-100011999D01*
X152350000Y-100900000D02*
X152524997Y-100725003D01*
X151400000Y-100900000D02*
X152350000Y-100900000D01*
X155100000Y-119224264D02*
X154450000Y-119874264D01*
X155100000Y-118800000D02*
X155100000Y-119224264D01*
X154450000Y-119874264D02*
X154450000Y-121310000D01*
X155200000Y-114500000D02*
X155200000Y-114975736D01*
X151800000Y-111100000D02*
X155200000Y-114500000D01*
X155200000Y-114975736D02*
X155200000Y-115400000D01*
X151300000Y-116100000D02*
X150200001Y-115000001D01*
X150225110Y-109624264D02*
X150225110Y-109200000D01*
X152800000Y-115302414D02*
X152002414Y-116100000D01*
X150200001Y-109649373D02*
X150225110Y-109624264D01*
X150200001Y-115000001D02*
X150200001Y-109649373D01*
X152002414Y-116100000D02*
X151300000Y-116100000D01*
D23*
G36*
X150647000Y-122033000D02*
G01*
X150667000Y-122033000D01*
X150667000Y-122287000D01*
X150647000Y-122287000D01*
X150647000Y-123527502D01*
X150814001Y-123654408D01*
X151017197Y-123582702D01*
X151197408Y-123467014D01*
X151351587Y-123318391D01*
X151473809Y-123142545D01*
X151559376Y-122946233D01*
X151605000Y-122737000D01*
X151605000Y-122413262D01*
X151621414Y-122452889D01*
X151723738Y-122606028D01*
X151853972Y-122736262D01*
X152007111Y-122838586D01*
X152177271Y-122909068D01*
X152357911Y-122945000D01*
X152542089Y-122945000D01*
X152722729Y-122909068D01*
X152850000Y-122856351D01*
X152977271Y-122909068D01*
X153157911Y-122945000D01*
X153342089Y-122945000D01*
X153522729Y-122909068D01*
X153650000Y-122856351D01*
X153777271Y-122909068D01*
X153957911Y-122945000D01*
X154142089Y-122945000D01*
X154322729Y-122909068D01*
X154492889Y-122838586D01*
X154646028Y-122736262D01*
X154776262Y-122606028D01*
X154850000Y-122495671D01*
X154923738Y-122606028D01*
X155053972Y-122736262D01*
X155207111Y-122838586D01*
X155377271Y-122909068D01*
X155557911Y-122945000D01*
X155742089Y-122945000D01*
X155922729Y-122909068D01*
X156050000Y-122856351D01*
X156177271Y-122909068D01*
X156357911Y-122945000D01*
X156542089Y-122945000D01*
X156722729Y-122909068D01*
X156850000Y-122856351D01*
X156977271Y-122909068D01*
X157157911Y-122945000D01*
X157342089Y-122945000D01*
X157522729Y-122909068D01*
X157692889Y-122838586D01*
X157846028Y-122736262D01*
X157976262Y-122606028D01*
X158078586Y-122452889D01*
X158095000Y-122413262D01*
X158095000Y-122737000D01*
X158140624Y-122946233D01*
X158226191Y-123142545D01*
X158348413Y-123318391D01*
X158502592Y-123467014D01*
X158682803Y-123582702D01*
X158885999Y-123654408D01*
X159053000Y-123527502D01*
X159053000Y-122287000D01*
X159033000Y-122287000D01*
X159033000Y-122033000D01*
X159053000Y-122033000D01*
X159053000Y-122013000D01*
X159307000Y-122013000D01*
X159307000Y-122033000D01*
X159327000Y-122033000D01*
X159327000Y-122287000D01*
X159307000Y-122287000D01*
X159307000Y-123527502D01*
X159474001Y-123654408D01*
X159640000Y-123595828D01*
X159640000Y-125224172D01*
X159474001Y-125165592D01*
X159307000Y-125292498D01*
X159307000Y-126533000D01*
X159327000Y-126533000D01*
X159327000Y-126787000D01*
X159307000Y-126787000D01*
X159307000Y-128027502D01*
X159474001Y-128154408D01*
X159640000Y-128095828D01*
X159640000Y-128640000D01*
X150060000Y-128640000D01*
X150060000Y-128095828D01*
X150225999Y-128154408D01*
X150393000Y-128027502D01*
X150393000Y-126787000D01*
X150647000Y-126787000D01*
X150647000Y-128027502D01*
X150814001Y-128154408D01*
X151017197Y-128082702D01*
X151197408Y-127967014D01*
X151351587Y-127818391D01*
X151473809Y-127642545D01*
X151559376Y-127446233D01*
X151605000Y-127237000D01*
X151605000Y-126787000D01*
X158095000Y-126787000D01*
X158095000Y-127237000D01*
X158140624Y-127446233D01*
X158226191Y-127642545D01*
X158348413Y-127818391D01*
X158502592Y-127967014D01*
X158682803Y-128082702D01*
X158885999Y-128154408D01*
X159053000Y-128027502D01*
X159053000Y-126787000D01*
X158095000Y-126787000D01*
X151605000Y-126787000D01*
X150647000Y-126787000D01*
X150393000Y-126787000D01*
X150373000Y-126787000D01*
X150373000Y-126533000D01*
X150393000Y-126533000D01*
X150393000Y-125292498D01*
X150647000Y-125292498D01*
X150647000Y-126533000D01*
X151605000Y-126533000D01*
X151605000Y-126083000D01*
X158095000Y-126083000D01*
X158095000Y-126533000D01*
X159053000Y-126533000D01*
X159053000Y-125292498D01*
X158885999Y-125165592D01*
X158682803Y-125237298D01*
X158502592Y-125352986D01*
X158348413Y-125501609D01*
X158226191Y-125677455D01*
X158140624Y-125873767D01*
X158095000Y-126083000D01*
X151605000Y-126083000D01*
X151559376Y-125873767D01*
X151473809Y-125677455D01*
X151351587Y-125501609D01*
X151197408Y-125352986D01*
X151017197Y-125237298D01*
X150814001Y-125165592D01*
X150647000Y-125292498D01*
X150393000Y-125292498D01*
X150225999Y-125165592D01*
X150060000Y-125224172D01*
X150060000Y-123595828D01*
X150225999Y-123654408D01*
X150393000Y-123527502D01*
X150393000Y-122287000D01*
X150373000Y-122287000D01*
X150373000Y-122033000D01*
X150393000Y-122033000D01*
X150393000Y-122013000D01*
X150647000Y-122013000D01*
X150647000Y-122033000D01*
X150647000Y-122033000D01*
G37*
X150647000Y-122033000D02*
X150667000Y-122033000D01*
X150667000Y-122287000D01*
X150647000Y-122287000D01*
X150647000Y-123527502D01*
X150814001Y-123654408D01*
X151017197Y-123582702D01*
X151197408Y-123467014D01*
X151351587Y-123318391D01*
X151473809Y-123142545D01*
X151559376Y-122946233D01*
X151605000Y-122737000D01*
X151605000Y-122413262D01*
X151621414Y-122452889D01*
X151723738Y-122606028D01*
X151853972Y-122736262D01*
X152007111Y-122838586D01*
X152177271Y-122909068D01*
X152357911Y-122945000D01*
X152542089Y-122945000D01*
X152722729Y-122909068D01*
X152850000Y-122856351D01*
X152977271Y-122909068D01*
X153157911Y-122945000D01*
X153342089Y-122945000D01*
X153522729Y-122909068D01*
X153650000Y-122856351D01*
X153777271Y-122909068D01*
X153957911Y-122945000D01*
X154142089Y-122945000D01*
X154322729Y-122909068D01*
X154492889Y-122838586D01*
X154646028Y-122736262D01*
X154776262Y-122606028D01*
X154850000Y-122495671D01*
X154923738Y-122606028D01*
X155053972Y-122736262D01*
X155207111Y-122838586D01*
X155377271Y-122909068D01*
X155557911Y-122945000D01*
X155742089Y-122945000D01*
X155922729Y-122909068D01*
X156050000Y-122856351D01*
X156177271Y-122909068D01*
X156357911Y-122945000D01*
X156542089Y-122945000D01*
X156722729Y-122909068D01*
X156850000Y-122856351D01*
X156977271Y-122909068D01*
X157157911Y-122945000D01*
X157342089Y-122945000D01*
X157522729Y-122909068D01*
X157692889Y-122838586D01*
X157846028Y-122736262D01*
X157976262Y-122606028D01*
X158078586Y-122452889D01*
X158095000Y-122413262D01*
X158095000Y-122737000D01*
X158140624Y-122946233D01*
X158226191Y-123142545D01*
X158348413Y-123318391D01*
X158502592Y-123467014D01*
X158682803Y-123582702D01*
X158885999Y-123654408D01*
X159053000Y-123527502D01*
X159053000Y-122287000D01*
X159033000Y-122287000D01*
X159033000Y-122033000D01*
X159053000Y-122033000D01*
X159053000Y-122013000D01*
X159307000Y-122013000D01*
X159307000Y-122033000D01*
X159327000Y-122033000D01*
X159327000Y-122287000D01*
X159307000Y-122287000D01*
X159307000Y-123527502D01*
X159474001Y-123654408D01*
X159640000Y-123595828D01*
X159640000Y-125224172D01*
X159474001Y-125165592D01*
X159307000Y-125292498D01*
X159307000Y-126533000D01*
X159327000Y-126533000D01*
X159327000Y-126787000D01*
X159307000Y-126787000D01*
X159307000Y-128027502D01*
X159474001Y-128154408D01*
X159640000Y-128095828D01*
X159640000Y-128640000D01*
X150060000Y-128640000D01*
X150060000Y-128095828D01*
X150225999Y-128154408D01*
X150393000Y-128027502D01*
X150393000Y-126787000D01*
X150647000Y-126787000D01*
X150647000Y-128027502D01*
X150814001Y-128154408D01*
X151017197Y-128082702D01*
X151197408Y-127967014D01*
X151351587Y-127818391D01*
X151473809Y-127642545D01*
X151559376Y-127446233D01*
X151605000Y-127237000D01*
X151605000Y-126787000D01*
X158095000Y-126787000D01*
X158095000Y-127237000D01*
X158140624Y-127446233D01*
X158226191Y-127642545D01*
X158348413Y-127818391D01*
X158502592Y-127967014D01*
X158682803Y-128082702D01*
X158885999Y-128154408D01*
X159053000Y-128027502D01*
X159053000Y-126787000D01*
X158095000Y-126787000D01*
X151605000Y-126787000D01*
X150647000Y-126787000D01*
X150393000Y-126787000D01*
X150373000Y-126787000D01*
X150373000Y-126533000D01*
X150393000Y-126533000D01*
X150393000Y-125292498D01*
X150647000Y-125292498D01*
X150647000Y-126533000D01*
X151605000Y-126533000D01*
X151605000Y-126083000D01*
X158095000Y-126083000D01*
X158095000Y-126533000D01*
X159053000Y-126533000D01*
X159053000Y-125292498D01*
X158885999Y-125165592D01*
X158682803Y-125237298D01*
X158502592Y-125352986D01*
X158348413Y-125501609D01*
X158226191Y-125677455D01*
X158140624Y-125873767D01*
X158095000Y-126083000D01*
X151605000Y-126083000D01*
X151559376Y-125873767D01*
X151473809Y-125677455D01*
X151351587Y-125501609D01*
X151197408Y-125352986D01*
X151017197Y-125237298D01*
X150814001Y-125165592D01*
X150647000Y-125292498D01*
X150393000Y-125292498D01*
X150225999Y-125165592D01*
X150060000Y-125224172D01*
X150060000Y-123595828D01*
X150225999Y-123654408D01*
X150393000Y-123527502D01*
X150393000Y-122287000D01*
X150373000Y-122287000D01*
X150373000Y-122033000D01*
X150393000Y-122033000D01*
X150393000Y-122013000D01*
X150647000Y-122013000D01*
X150647000Y-122033000D01*
G36*
X159640000Y-120724172D02*
G01*
X159510000Y-120678296D01*
X159510000Y-120555599D01*
X159469265Y-120350809D01*
X159389360Y-120157902D01*
X159273356Y-119984289D01*
X159125711Y-119836644D01*
X158952098Y-119720640D01*
X158759191Y-119640735D01*
X158554401Y-119600000D01*
X158345599Y-119600000D01*
X158140809Y-119640735D01*
X157947902Y-119720640D01*
X157774289Y-119836644D01*
X157626644Y-119984289D01*
X157510640Y-120157902D01*
X157430735Y-120350809D01*
X157420505Y-120402238D01*
X157378939Y-120410426D01*
X157208649Y-120480592D01*
X157205575Y-120482237D01*
X157195064Y-120675459D01*
X157416318Y-120896713D01*
X157430735Y-120969191D01*
X157486458Y-121103717D01*
X157342089Y-121075000D01*
X157235395Y-121075000D01*
X157015459Y-120855064D01*
X156875619Y-120862671D01*
X156785000Y-120727049D01*
X156785000Y-118486105D01*
X156788556Y-118450000D01*
X156774365Y-118305915D01*
X156752135Y-118232633D01*
X156732337Y-118167367D01*
X156664087Y-118039680D01*
X156608062Y-117971414D01*
X156595253Y-117955806D01*
X156595250Y-117955803D01*
X156572237Y-117927762D01*
X156544197Y-117904750D01*
X156095258Y-117455812D01*
X156072238Y-117427762D01*
X155960320Y-117335913D01*
X155832633Y-117267663D01*
X155694085Y-117225635D01*
X155586105Y-117215000D01*
X155550000Y-117211444D01*
X155513895Y-117215000D01*
X154586094Y-117215000D01*
X154549999Y-117211445D01*
X154513904Y-117215000D01*
X154513895Y-117215000D01*
X154405915Y-117225635D01*
X154267367Y-117267663D01*
X154139680Y-117335913D01*
X154027762Y-117427762D01*
X154004746Y-117455807D01*
X153155808Y-118304746D01*
X153127763Y-118327762D01*
X153035914Y-118439680D01*
X152969417Y-118564087D01*
X152967664Y-118567367D01*
X152925635Y-118705915D01*
X152911444Y-118850000D01*
X152915001Y-118886115D01*
X152915000Y-120727049D01*
X152824381Y-120862671D01*
X152684541Y-120855064D01*
X152464605Y-121075000D01*
X152357911Y-121075000D01*
X152213542Y-121103717D01*
X152269265Y-120969191D01*
X152283682Y-120896713D01*
X152504936Y-120675459D01*
X152494425Y-120482237D01*
X152324397Y-120411438D01*
X152279532Y-120402427D01*
X152269265Y-120350809D01*
X152189360Y-120157902D01*
X152073356Y-119984289D01*
X151925711Y-119836644D01*
X151752098Y-119720640D01*
X151559191Y-119640735D01*
X151354401Y-119600000D01*
X151145599Y-119600000D01*
X150940809Y-119640735D01*
X150747902Y-119720640D01*
X150574289Y-119836644D01*
X150426644Y-119984289D01*
X150310640Y-120157902D01*
X150230735Y-120350809D01*
X150190000Y-120555599D01*
X150190000Y-120678296D01*
X150060000Y-120724172D01*
X150060000Y-115899446D01*
X150754746Y-116594193D01*
X150777762Y-116622238D01*
X150805806Y-116645253D01*
X150889680Y-116714087D01*
X151017366Y-116782337D01*
X151155915Y-116824365D01*
X151300000Y-116838556D01*
X151336105Y-116835000D01*
X151966309Y-116835000D01*
X152002414Y-116838556D01*
X152038519Y-116835000D01*
X152146499Y-116824365D01*
X152285047Y-116782337D01*
X152412734Y-116714087D01*
X152524652Y-116622238D01*
X152547672Y-116594188D01*
X152907515Y-116234346D01*
X153072729Y-116201482D01*
X153242889Y-116131000D01*
X153396028Y-116028676D01*
X153526262Y-115898442D01*
X153584232Y-115811683D01*
X154366743Y-116594194D01*
X154389759Y-116622239D01*
X154501677Y-116714088D01*
X154629364Y-116782338D01*
X154767909Y-116824365D01*
X154767912Y-116824366D01*
X154911997Y-116838557D01*
X154948102Y-116835001D01*
X157751897Y-116835001D01*
X157788002Y-116838557D01*
X157824107Y-116835001D01*
X157932087Y-116824366D01*
X158070635Y-116782338D01*
X158198322Y-116714088D01*
X158310240Y-116622239D01*
X158333260Y-116594189D01*
X158981697Y-115945753D01*
X159009737Y-115922741D01*
X159032750Y-115894700D01*
X159032753Y-115894697D01*
X159101587Y-115810823D01*
X159169837Y-115683137D01*
X159211865Y-115544588D01*
X159226056Y-115400503D01*
X159222500Y-115364398D01*
X159222500Y-113835659D01*
X159312115Y-113762115D01*
X159418671Y-113632275D01*
X159497850Y-113484142D01*
X159546608Y-113323408D01*
X159563072Y-113156250D01*
X159563072Y-112643750D01*
X159546608Y-112476592D01*
X159497850Y-112315858D01*
X159418671Y-112167725D01*
X159312115Y-112037885D01*
X159222500Y-111964341D01*
X159222500Y-111635659D01*
X159312115Y-111562115D01*
X159418671Y-111432275D01*
X159497850Y-111284142D01*
X159546608Y-111123408D01*
X159563072Y-110956250D01*
X159563072Y-110443750D01*
X159546608Y-110276592D01*
X159497850Y-110115858D01*
X159418671Y-109967725D01*
X159364613Y-109901854D01*
X159404494Y-109880537D01*
X159501185Y-109801185D01*
X159580537Y-109704494D01*
X159639502Y-109594180D01*
X159640001Y-109592537D01*
X159640000Y-120724172D01*
X159640000Y-120724172D01*
G37*
X159640000Y-120724172D02*
X159510000Y-120678296D01*
X159510000Y-120555599D01*
X159469265Y-120350809D01*
X159389360Y-120157902D01*
X159273356Y-119984289D01*
X159125711Y-119836644D01*
X158952098Y-119720640D01*
X158759191Y-119640735D01*
X158554401Y-119600000D01*
X158345599Y-119600000D01*
X158140809Y-119640735D01*
X157947902Y-119720640D01*
X157774289Y-119836644D01*
X157626644Y-119984289D01*
X157510640Y-120157902D01*
X157430735Y-120350809D01*
X157420505Y-120402238D01*
X157378939Y-120410426D01*
X157208649Y-120480592D01*
X157205575Y-120482237D01*
X157195064Y-120675459D01*
X157416318Y-120896713D01*
X157430735Y-120969191D01*
X157486458Y-121103717D01*
X157342089Y-121075000D01*
X157235395Y-121075000D01*
X157015459Y-120855064D01*
X156875619Y-120862671D01*
X156785000Y-120727049D01*
X156785000Y-118486105D01*
X156788556Y-118450000D01*
X156774365Y-118305915D01*
X156752135Y-118232633D01*
X156732337Y-118167367D01*
X156664087Y-118039680D01*
X156608062Y-117971414D01*
X156595253Y-117955806D01*
X156595250Y-117955803D01*
X156572237Y-117927762D01*
X156544197Y-117904750D01*
X156095258Y-117455812D01*
X156072238Y-117427762D01*
X155960320Y-117335913D01*
X155832633Y-117267663D01*
X155694085Y-117225635D01*
X155586105Y-117215000D01*
X155550000Y-117211444D01*
X155513895Y-117215000D01*
X154586094Y-117215000D01*
X154549999Y-117211445D01*
X154513904Y-117215000D01*
X154513895Y-117215000D01*
X154405915Y-117225635D01*
X154267367Y-117267663D01*
X154139680Y-117335913D01*
X154027762Y-117427762D01*
X154004746Y-117455807D01*
X153155808Y-118304746D01*
X153127763Y-118327762D01*
X153035914Y-118439680D01*
X152969417Y-118564087D01*
X152967664Y-118567367D01*
X152925635Y-118705915D01*
X152911444Y-118850000D01*
X152915001Y-118886115D01*
X152915000Y-120727049D01*
X152824381Y-120862671D01*
X152684541Y-120855064D01*
X152464605Y-121075000D01*
X152357911Y-121075000D01*
X152213542Y-121103717D01*
X152269265Y-120969191D01*
X152283682Y-120896713D01*
X152504936Y-120675459D01*
X152494425Y-120482237D01*
X152324397Y-120411438D01*
X152279532Y-120402427D01*
X152269265Y-120350809D01*
X152189360Y-120157902D01*
X152073356Y-119984289D01*
X151925711Y-119836644D01*
X151752098Y-119720640D01*
X151559191Y-119640735D01*
X151354401Y-119600000D01*
X151145599Y-119600000D01*
X150940809Y-119640735D01*
X150747902Y-119720640D01*
X150574289Y-119836644D01*
X150426644Y-119984289D01*
X150310640Y-120157902D01*
X150230735Y-120350809D01*
X150190000Y-120555599D01*
X150190000Y-120678296D01*
X150060000Y-120724172D01*
X150060000Y-115899446D01*
X150754746Y-116594193D01*
X150777762Y-116622238D01*
X150805806Y-116645253D01*
X150889680Y-116714087D01*
X151017366Y-116782337D01*
X151155915Y-116824365D01*
X151300000Y-116838556D01*
X151336105Y-116835000D01*
X151966309Y-116835000D01*
X152002414Y-116838556D01*
X152038519Y-116835000D01*
X152146499Y-116824365D01*
X152285047Y-116782337D01*
X152412734Y-116714087D01*
X152524652Y-116622238D01*
X152547672Y-116594188D01*
X152907515Y-116234346D01*
X153072729Y-116201482D01*
X153242889Y-116131000D01*
X153396028Y-116028676D01*
X153526262Y-115898442D01*
X153584232Y-115811683D01*
X154366743Y-116594194D01*
X154389759Y-116622239D01*
X154501677Y-116714088D01*
X154629364Y-116782338D01*
X154767909Y-116824365D01*
X154767912Y-116824366D01*
X154911997Y-116838557D01*
X154948102Y-116835001D01*
X157751897Y-116835001D01*
X157788002Y-116838557D01*
X157824107Y-116835001D01*
X157932087Y-116824366D01*
X158070635Y-116782338D01*
X158198322Y-116714088D01*
X158310240Y-116622239D01*
X158333260Y-116594189D01*
X158981697Y-115945753D01*
X159009737Y-115922741D01*
X159032750Y-115894700D01*
X159032753Y-115894697D01*
X159101587Y-115810823D01*
X159169837Y-115683137D01*
X159211865Y-115544588D01*
X159226056Y-115400503D01*
X159222500Y-115364398D01*
X159222500Y-113835659D01*
X159312115Y-113762115D01*
X159418671Y-113632275D01*
X159497850Y-113484142D01*
X159546608Y-113323408D01*
X159563072Y-113156250D01*
X159563072Y-112643750D01*
X159546608Y-112476592D01*
X159497850Y-112315858D01*
X159418671Y-112167725D01*
X159312115Y-112037885D01*
X159222500Y-111964341D01*
X159222500Y-111635659D01*
X159312115Y-111562115D01*
X159418671Y-111432275D01*
X159497850Y-111284142D01*
X159546608Y-111123408D01*
X159563072Y-110956250D01*
X159563072Y-110443750D01*
X159546608Y-110276592D01*
X159497850Y-110115858D01*
X159418671Y-109967725D01*
X159364613Y-109901854D01*
X159404494Y-109880537D01*
X159501185Y-109801185D01*
X159580537Y-109704494D01*
X159639502Y-109594180D01*
X159640001Y-109592537D01*
X159640000Y-120724172D01*
G36*
X153373412Y-108412858D02*
G01*
X154054746Y-109094193D01*
X154077762Y-109122238D01*
X154189680Y-109214087D01*
X154317367Y-109282337D01*
X154455915Y-109324365D01*
X154563895Y-109335000D01*
X154563904Y-109335000D01*
X154599999Y-109338555D01*
X154636094Y-109335000D01*
X156411928Y-109335000D01*
X156411928Y-109350000D01*
X156424188Y-109474482D01*
X156458783Y-109588525D01*
X156350518Y-109599188D01*
X156230820Y-109635498D01*
X156120506Y-109694463D01*
X156023815Y-109773815D01*
X155944463Y-109870506D01*
X155885498Y-109980820D01*
X155849188Y-110100518D01*
X155836928Y-110225000D01*
X155840000Y-110414250D01*
X155998750Y-110573000D01*
X156785500Y-110573000D01*
X156785500Y-110553000D01*
X157039500Y-110553000D01*
X157039500Y-110573000D01*
X157059500Y-110573000D01*
X157059500Y-110827000D01*
X157039500Y-110827000D01*
X157039500Y-111651250D01*
X157188250Y-111800000D01*
X157039500Y-111948750D01*
X157039500Y-112773000D01*
X157059500Y-112773000D01*
X157059500Y-113027000D01*
X157039500Y-113027000D01*
X157039500Y-113851250D01*
X157198250Y-114010000D01*
X157350000Y-114013072D01*
X157474482Y-114000812D01*
X157594180Y-113964502D01*
X157704494Y-113905537D01*
X157752500Y-113866139D01*
X157752500Y-115096056D01*
X157483556Y-115365001D01*
X156135000Y-115365001D01*
X156135000Y-115307911D01*
X156099068Y-115127271D01*
X156028586Y-114957111D01*
X155935000Y-114817049D01*
X155935000Y-114536096D01*
X155938555Y-114499999D01*
X155935000Y-114463902D01*
X155935000Y-114463895D01*
X155924365Y-114355915D01*
X155882337Y-114217367D01*
X155814087Y-114089680D01*
X155780482Y-114048733D01*
X155745253Y-114005806D01*
X155745250Y-114005803D01*
X155722237Y-113977762D01*
X155694197Y-113954750D01*
X155114447Y-113375000D01*
X155836928Y-113375000D01*
X155849188Y-113499482D01*
X155885498Y-113619180D01*
X155944463Y-113729494D01*
X156023815Y-113826185D01*
X156120506Y-113905537D01*
X156230820Y-113964502D01*
X156350518Y-114000812D01*
X156475000Y-114013072D01*
X156626750Y-114010000D01*
X156785500Y-113851250D01*
X156785500Y-113027000D01*
X155998750Y-113027000D01*
X155840000Y-113185750D01*
X155836928Y-113375000D01*
X155114447Y-113375000D01*
X152914447Y-111175000D01*
X155836928Y-111175000D01*
X155849188Y-111299482D01*
X155885498Y-111419180D01*
X155944463Y-111529494D01*
X156023815Y-111626185D01*
X156120506Y-111705537D01*
X156230820Y-111764502D01*
X156347841Y-111800000D01*
X156230820Y-111835498D01*
X156120506Y-111894463D01*
X156023815Y-111973815D01*
X155944463Y-112070506D01*
X155885498Y-112180820D01*
X155849188Y-112300518D01*
X155836928Y-112425000D01*
X155840000Y-112614250D01*
X155998750Y-112773000D01*
X156785500Y-112773000D01*
X156785500Y-111948750D01*
X156636750Y-111800000D01*
X156785500Y-111651250D01*
X156785500Y-110827000D01*
X155998750Y-110827000D01*
X155840000Y-110985750D01*
X155836928Y-111175000D01*
X152914447Y-111175000D01*
X152731932Y-110992486D01*
X152699068Y-110827271D01*
X152628586Y-110657111D01*
X152526262Y-110503972D01*
X152396028Y-110373738D01*
X152242889Y-110271414D01*
X152072729Y-110200932D01*
X151892089Y-110165000D01*
X151707911Y-110165000D01*
X151527271Y-110200932D01*
X151357111Y-110271414D01*
X151203972Y-110373738D01*
X151073738Y-110503972D01*
X150971414Y-110657111D01*
X150935001Y-110745020D01*
X150935001Y-109816063D01*
X150936597Y-109810803D01*
X150951372Y-109796028D01*
X151053696Y-109642889D01*
X151124178Y-109472729D01*
X151160110Y-109292089D01*
X151160110Y-109107911D01*
X151124178Y-108927271D01*
X151087231Y-108838072D01*
X152750000Y-108838072D01*
X152874482Y-108825812D01*
X152994180Y-108789502D01*
X153104494Y-108730537D01*
X153201185Y-108651185D01*
X153280537Y-108554494D01*
X153339502Y-108444180D01*
X153353869Y-108396819D01*
X153373412Y-108412858D01*
X153373412Y-108412858D01*
G37*
X153373412Y-108412858D02*
X154054746Y-109094193D01*
X154077762Y-109122238D01*
X154189680Y-109214087D01*
X154317367Y-109282337D01*
X154455915Y-109324365D01*
X154563895Y-109335000D01*
X154563904Y-109335000D01*
X154599999Y-109338555D01*
X154636094Y-109335000D01*
X156411928Y-109335000D01*
X156411928Y-109350000D01*
X156424188Y-109474482D01*
X156458783Y-109588525D01*
X156350518Y-109599188D01*
X156230820Y-109635498D01*
X156120506Y-109694463D01*
X156023815Y-109773815D01*
X155944463Y-109870506D01*
X155885498Y-109980820D01*
X155849188Y-110100518D01*
X155836928Y-110225000D01*
X155840000Y-110414250D01*
X155998750Y-110573000D01*
X156785500Y-110573000D01*
X156785500Y-110553000D01*
X157039500Y-110553000D01*
X157039500Y-110573000D01*
X157059500Y-110573000D01*
X157059500Y-110827000D01*
X157039500Y-110827000D01*
X157039500Y-111651250D01*
X157188250Y-111800000D01*
X157039500Y-111948750D01*
X157039500Y-112773000D01*
X157059500Y-112773000D01*
X157059500Y-113027000D01*
X157039500Y-113027000D01*
X157039500Y-113851250D01*
X157198250Y-114010000D01*
X157350000Y-114013072D01*
X157474482Y-114000812D01*
X157594180Y-113964502D01*
X157704494Y-113905537D01*
X157752500Y-113866139D01*
X157752500Y-115096056D01*
X157483556Y-115365001D01*
X156135000Y-115365001D01*
X156135000Y-115307911D01*
X156099068Y-115127271D01*
X156028586Y-114957111D01*
X155935000Y-114817049D01*
X155935000Y-114536096D01*
X155938555Y-114499999D01*
X155935000Y-114463902D01*
X155935000Y-114463895D01*
X155924365Y-114355915D01*
X155882337Y-114217367D01*
X155814087Y-114089680D01*
X155780482Y-114048733D01*
X155745253Y-114005806D01*
X155745250Y-114005803D01*
X155722237Y-113977762D01*
X155694197Y-113954750D01*
X155114447Y-113375000D01*
X155836928Y-113375000D01*
X155849188Y-113499482D01*
X155885498Y-113619180D01*
X155944463Y-113729494D01*
X156023815Y-113826185D01*
X156120506Y-113905537D01*
X156230820Y-113964502D01*
X156350518Y-114000812D01*
X156475000Y-114013072D01*
X156626750Y-114010000D01*
X156785500Y-113851250D01*
X156785500Y-113027000D01*
X155998750Y-113027000D01*
X155840000Y-113185750D01*
X155836928Y-113375000D01*
X155114447Y-113375000D01*
X152914447Y-111175000D01*
X155836928Y-111175000D01*
X155849188Y-111299482D01*
X155885498Y-111419180D01*
X155944463Y-111529494D01*
X156023815Y-111626185D01*
X156120506Y-111705537D01*
X156230820Y-111764502D01*
X156347841Y-111800000D01*
X156230820Y-111835498D01*
X156120506Y-111894463D01*
X156023815Y-111973815D01*
X155944463Y-112070506D01*
X155885498Y-112180820D01*
X155849188Y-112300518D01*
X155836928Y-112425000D01*
X155840000Y-112614250D01*
X155998750Y-112773000D01*
X156785500Y-112773000D01*
X156785500Y-111948750D01*
X156636750Y-111800000D01*
X156785500Y-111651250D01*
X156785500Y-110827000D01*
X155998750Y-110827000D01*
X155840000Y-110985750D01*
X155836928Y-111175000D01*
X152914447Y-111175000D01*
X152731932Y-110992486D01*
X152699068Y-110827271D01*
X152628586Y-110657111D01*
X152526262Y-110503972D01*
X152396028Y-110373738D01*
X152242889Y-110271414D01*
X152072729Y-110200932D01*
X151892089Y-110165000D01*
X151707911Y-110165000D01*
X151527271Y-110200932D01*
X151357111Y-110271414D01*
X151203972Y-110373738D01*
X151073738Y-110503972D01*
X150971414Y-110657111D01*
X150935001Y-110745020D01*
X150935001Y-109816063D01*
X150936597Y-109810803D01*
X150951372Y-109796028D01*
X151053696Y-109642889D01*
X151124178Y-109472729D01*
X151160110Y-109292089D01*
X151160110Y-109107911D01*
X151124178Y-108927271D01*
X151087231Y-108838072D01*
X152750000Y-108838072D01*
X152874482Y-108825812D01*
X152994180Y-108789502D01*
X153104494Y-108730537D01*
X153201185Y-108651185D01*
X153280537Y-108554494D01*
X153339502Y-108444180D01*
X153353869Y-108396819D01*
X153373412Y-108412858D01*
G36*
X150103972Y-105426262D02*
G01*
X150111928Y-105431578D01*
X150111928Y-108200000D01*
X150118612Y-108267866D01*
X150060000Y-108279525D01*
X150060000Y-105382290D01*
X150103972Y-105426262D01*
X150103972Y-105426262D01*
G37*
X150103972Y-105426262D02*
X150111928Y-105431578D01*
X150111928Y-108200000D01*
X150118612Y-108267866D01*
X150060000Y-108279525D01*
X150060000Y-105382290D01*
X150103972Y-105426262D01*
G36*
X158177000Y-103873000D02*
G01*
X158197000Y-103873000D01*
X158197000Y-104127000D01*
X158177000Y-104127000D01*
X158177000Y-104147000D01*
X157923000Y-104147000D01*
X157923000Y-104127000D01*
X157903000Y-104127000D01*
X157903000Y-103873000D01*
X157923000Y-103873000D01*
X157923000Y-103853000D01*
X158177000Y-103853000D01*
X158177000Y-103873000D01*
X158177000Y-103873000D01*
G37*
X158177000Y-103873000D02*
X158197000Y-103873000D01*
X158197000Y-104127000D01*
X158177000Y-104127000D01*
X158177000Y-104147000D01*
X157923000Y-104147000D01*
X157923000Y-104127000D01*
X157903000Y-104127000D01*
X157903000Y-103873000D01*
X157923000Y-103873000D01*
X157923000Y-103853000D01*
X158177000Y-103853000D01*
X158177000Y-103873000D01*
G36*
X157139500Y-101773000D02*
G01*
X157159500Y-101773000D01*
X157159500Y-102027000D01*
X157139500Y-102027000D01*
X157139500Y-102047000D01*
X156885500Y-102047000D01*
X156885500Y-102027000D01*
X156865500Y-102027000D01*
X156865500Y-101773000D01*
X156885500Y-101773000D01*
X156885500Y-101753000D01*
X157139500Y-101753000D01*
X157139500Y-101773000D01*
X157139500Y-101773000D01*
G37*
X157139500Y-101773000D02*
X157159500Y-101773000D01*
X157159500Y-102027000D01*
X157139500Y-102027000D01*
X157139500Y-102047000D01*
X156885500Y-102047000D01*
X156885500Y-102027000D01*
X156865500Y-102027000D01*
X156865500Y-101773000D01*
X156885500Y-101773000D01*
X156885500Y-101753000D01*
X157139500Y-101753000D01*
X157139500Y-101773000D01*
G36*
X157114991Y-99733297D02*
G01*
X157114991Y-99947000D01*
X156885500Y-99947000D01*
X156885500Y-99927000D01*
X156865500Y-99927000D01*
X156865500Y-99673947D01*
X156866447Y-99673000D01*
X156885500Y-99673000D01*
X156885500Y-99653947D01*
X156886447Y-99653000D01*
X157034694Y-99653000D01*
X157114991Y-99733297D01*
X157114991Y-99733297D01*
G37*
X157114991Y-99733297D02*
X157114991Y-99947000D01*
X156885500Y-99947000D01*
X156885500Y-99927000D01*
X156865500Y-99927000D01*
X156865500Y-99673947D01*
X156866447Y-99673000D01*
X156885500Y-99673000D01*
X156885500Y-99653947D01*
X156886447Y-99653000D01*
X157034694Y-99653000D01*
X157114991Y-99733297D01*
G36*
X154010986Y-98140706D02*
G01*
X154268966Y-98278599D01*
X154548889Y-98363513D01*
X154767050Y-98385000D01*
X154912950Y-98385000D01*
X155131111Y-98363513D01*
X155233122Y-98332568D01*
X155347703Y-98447150D01*
X154817150Y-98977704D01*
X153839038Y-97999592D01*
X154010986Y-98140706D01*
X154010986Y-98140706D01*
G37*
X154010986Y-98140706D02*
X154268966Y-98278599D01*
X154548889Y-98363513D01*
X154767050Y-98385000D01*
X154912950Y-98385000D01*
X155131111Y-98363513D01*
X155233122Y-98332568D01*
X155347703Y-98447150D01*
X154817150Y-98977704D01*
X153839038Y-97999592D01*
X154010986Y-98140706D01*
G36*
X159640001Y-97501307D02*
G01*
X159560319Y-97435914D01*
X159432632Y-97367664D01*
X159294084Y-97325636D01*
X159186104Y-97315001D01*
X159149999Y-97311445D01*
X159113894Y-97315001D01*
X158805931Y-97315001D01*
X158843513Y-97191111D01*
X158872185Y-96900000D01*
X158843513Y-96608889D01*
X158758599Y-96328966D01*
X158620706Y-96070986D01*
X158435134Y-95844866D01*
X158209014Y-95659294D01*
X158154209Y-95630000D01*
X158209014Y-95600706D01*
X158435134Y-95415134D01*
X158620706Y-95189014D01*
X158758599Y-94931034D01*
X158843513Y-94651111D01*
X158872185Y-94360000D01*
X158843513Y-94068889D01*
X158758599Y-93788966D01*
X158620706Y-93530986D01*
X158435134Y-93304866D01*
X158258614Y-93160000D01*
X159640001Y-93160000D01*
X159640001Y-97501307D01*
X159640001Y-97501307D01*
G37*
X159640001Y-97501307D02*
X159560319Y-97435914D01*
X159432632Y-97367664D01*
X159294084Y-97325636D01*
X159186104Y-97315001D01*
X159149999Y-97311445D01*
X159113894Y-97315001D01*
X158805931Y-97315001D01*
X158843513Y-97191111D01*
X158872185Y-96900000D01*
X158843513Y-96608889D01*
X158758599Y-96328966D01*
X158620706Y-96070986D01*
X158435134Y-95844866D01*
X158209014Y-95659294D01*
X158154209Y-95630000D01*
X158209014Y-95600706D01*
X158435134Y-95415134D01*
X158620706Y-95189014D01*
X158758599Y-94931034D01*
X158843513Y-94651111D01*
X158872185Y-94360000D01*
X158843513Y-94068889D01*
X158758599Y-93788966D01*
X158620706Y-93530986D01*
X158435134Y-93304866D01*
X158258614Y-93160000D01*
X159640001Y-93160000D01*
X159640001Y-97501307D01*
G36*
X152427000Y-94233000D02*
G01*
X152447000Y-94233000D01*
X152447000Y-94487000D01*
X152427000Y-94487000D01*
X152427000Y-94507000D01*
X152173000Y-94507000D01*
X152173000Y-94487000D01*
X152153000Y-94487000D01*
X152153000Y-94233000D01*
X152173000Y-94233000D01*
X152173000Y-94213000D01*
X152427000Y-94213000D01*
X152427000Y-94233000D01*
X152427000Y-94233000D01*
G37*
X152427000Y-94233000D02*
X152447000Y-94233000D01*
X152447000Y-94487000D01*
X152427000Y-94487000D01*
X152427000Y-94507000D01*
X152173000Y-94507000D01*
X152173000Y-94487000D01*
X152153000Y-94487000D01*
X152153000Y-94233000D01*
X152173000Y-94233000D01*
X152173000Y-94213000D01*
X152427000Y-94213000D01*
X152427000Y-94233000D01*
M02*
