M48
; DRILL file {KiCad (5.1.0)-1} date 2019-07-27 7:21:56
; FORMAT={-:-/ absolute / inch / decimal}
; #@! TF.CreationDate,2019-07-27T07:21:56+08:00
; #@! TF.GenerationSoftware,Kicad,Pcbnew,(5.1.0)-1
; #@! TF.FileFunction,Plated,1,2,PTH
FMAT,2
INCH
T1C0.0118
T2C0.0157
T3C0.0236
T4C0.0394
%
G90
G05
T1
X5.9069Y-4.1435
X5.9094Y-4.2008
X5.9094Y-4.2559
X5.9144Y-4.2992
X5.9207Y-4.0931
X5.9331Y-4.122
X5.935Y-3.8819
X5.9379Y-4.3506
X5.9381Y-4.0466
X5.9449Y-4.685
X5.9623Y-4.2809
X5.9764Y-4.374
X5.9764Y-4.5315
X5.9882Y-3.8937
X5.9961Y-4.2795
X6.0157Y-4.5395
X6.0197Y-3.9055
X6.0236Y-4.8819
X6.0236Y-4.9606
X6.0276Y-4.2018
X6.0285Y-3.9488
X6.0315Y-3.9843
X6.0418Y-4.4901
X6.0433Y-3.6614
X6.0689Y-4.0604
X6.0896Y-4.2441
X6.0984Y-3.8819
X6.1037Y-4.0867
X6.1063Y-4.6772
X6.1102Y-4.5433
X6.1212Y-4.244
X6.1304Y-4.0699
X6.1496Y-3.6614
X6.1496Y-4.2185
X6.1497Y-3.9726
X6.1539Y-4.0909
X6.1575Y-4.4882
X6.1811Y-4.8819
X6.1811Y-4.9606
X6.2165Y-3.9646
X6.248Y-3.9803
X6.252Y-4.0512
X6.2559Y-3.8839
X6.2575Y-4.1437
X6.2598Y-3.7638
X6.2598Y-4.6457
X6.2633Y-4.5669
X6.2756Y-3.8189
T2
X5.9862Y-4.776
X6.002Y-4.8035
X6.0335Y-4.8035
X6.0492Y-4.776
X6.065Y-4.8035
X6.0807Y-4.776
X6.1122Y-4.776
X6.128Y-4.8035
X6.1437Y-4.776
X6.1594Y-4.8035
X6.1909Y-4.8035
X6.2067Y-4.776
T4
X5.9961Y-3.715
X5.9961Y-3.815
X6.0961Y-3.715
X6.0961Y-3.815
X6.1961Y-3.715
X6.1961Y-3.815
T3
G00X5.926Y-4.8213
M15
G01X5.926Y-4.7976
M16
G05
G00X5.926Y-4.9984
M15
G01X5.926Y-4.9748
M16
G05
G00X6.2669Y-4.8213
M15
G01X6.2669Y-4.7976
M16
G05
G00X6.2669Y-4.9984
M15
G01X6.2669Y-4.9748
M16
G05
T0
M30
